G04 ================== begin FILE IDENTIFICATION RECORD ==================*
G04 Layout Name:  SENSOR_PLATFORM_BREAKOUT_BOARD_6KITBoards_REV02_2014-10-20.brd*
G04 Film Name:    ASSY_TOP*
G04 File Format:  Gerber RS274X*
G04 File Origin:  Cadence Allegro 16.5-S001*
G04 Origin Date:  Mon Oct 20 15:18:46 2014*
G04 *
G04 Layer:  REF DES/ASSEMBLY_TOP*
G04 Layer:  PACKAGE GEOMETRY/ASSEMBLY_TOP*
G04 Layer:  DRAWING FORMAT/OUTLINE*
G04 Layer:  DRAWING FORMAT/ASSEMBLY_TOP*
G04 Layer:  BOARD GEOMETRY/OUTLINE*
G04 Layer:  BOARD GEOMETRY/ASSEMBLY_TOP*
G04 Layer:  BOARD GEOMETRY/LOGO_OUTLINE*
G04 *
G04 Offset:    (0.000 0.000)*
G04 Mirror:    No*
G04 Mode:      Positive*
G04 Rotation:  0*
G04 FullContactRelief:  No*
G04 UndefLineWidth:     4.000*
G04 ================== end FILE IDENTIFICATION RECORD ====================*
%FSLAX25Y25*MOIN*%
%IR0*IPPOS*OFA0.00000B0.00000*MIA0B0*SFA1.00000B1.00000*%
%ADD10C,.006*%
%ADD11C,.007098*%
%ADD12C,.004*%
G75*
%LPD*%
G75*
G54D10*
G01X64344Y111337D02*
X50324D01*
Y139737D01*
X64344D01*
Y111337D01*
G01X49533Y184083D02*
X46433D01*
Y185042D01*
X46588Y185348D01*
X46795Y185540D01*
X47208Y185617D01*
X47622Y185540D01*
X47880Y185310D01*
X48035Y185042D01*
Y184083D01*
G01Y185042D02*
X49533Y185617D01*
G01Y187950D02*
X46433D01*
X47053Y187490D01*
G01X49533D02*
Y188410D01*
G01X46950Y190322D02*
X46640Y190552D01*
X46485Y190820D01*
X46433Y191127D01*
X46537Y191510D01*
X46795Y191778D01*
X47105Y191855D01*
X47415Y191817D01*
X47673Y191663D01*
X48190Y190897D01*
X48552Y190552D01*
X49069Y190322D01*
X49533Y190245D01*
Y191855D01*
G01Y194150D02*
X49482Y194418D01*
X49327Y194725D01*
X49069Y194917D01*
X48707Y194993D01*
X48345Y194917D01*
X48035Y194687D01*
X47880Y194342D01*
Y193958D01*
X47777Y193728D01*
X47518Y193537D01*
X47157Y193460D01*
X46795Y193575D01*
X46537Y193843D01*
X46433Y194150D01*
X46537Y194457D01*
X46795Y194725D01*
X47157Y194840D01*
X47518Y194763D01*
X47777Y194572D01*
X47880Y194342D01*
Y193958D01*
X48035Y193613D01*
X48345Y193383D01*
X48707Y193307D01*
X49069Y193383D01*
X49327Y193575D01*
X49482Y193882D01*
X49533Y194150D01*
G01X55011Y186500D02*
X52011D01*
Y192500D01*
X55011D01*
Y186500D01*
G01X49511Y199383D02*
X46411D01*
Y200342D01*
X46566Y200648D01*
X46773Y200840D01*
X47186Y200917D01*
X47600Y200840D01*
X47858Y200610D01*
X48013Y200342D01*
Y199383D01*
G01Y200342D02*
X49511Y200917D01*
G01Y203250D02*
X46411D01*
X47031Y202790D01*
G01X49511D02*
Y203710D01*
G01Y206273D02*
X48840Y206350D01*
X48271Y206465D01*
X47755Y206618D01*
X47186Y206810D01*
X46411Y207117D01*
Y205583D01*
G01X46928Y208722D02*
X46618Y208952D01*
X46463Y209220D01*
X46411Y209527D01*
X46515Y209910D01*
X46773Y210178D01*
X47083Y210255D01*
X47393Y210217D01*
X47651Y210063D01*
X48168Y209297D01*
X48530Y208952D01*
X49046Y208722D01*
X49511Y208645D01*
Y210255D01*
G01X55011Y199500D02*
X52011D01*
Y205500D01*
X55011D01*
Y199500D01*
G01X51033Y264583D02*
X47933D01*
Y265542D01*
X48088Y265848D01*
X48295Y266040D01*
X48708Y266117D01*
X49122Y266040D01*
X49380Y265810D01*
X49535Y265542D01*
Y264583D01*
G01Y265542D02*
X51033Y266117D01*
G01Y268450D02*
X47933D01*
X48553Y267990D01*
G01X51033D02*
Y268910D01*
G01X50672Y270898D02*
X50930Y271167D01*
X51033Y271473D01*
X50930Y271780D01*
X50620Y272048D01*
X50155Y272240D01*
X49690Y272317D01*
X49122D01*
X48657Y272240D01*
X48243Y272048D01*
X48037Y271818D01*
X47933Y271550D01*
X48037Y271243D01*
X48243Y271013D01*
X48553Y270860D01*
X48967Y270783D01*
X49328Y270860D01*
X49690Y271052D01*
X49897Y271282D01*
X49948Y271550D01*
X49845Y271857D01*
X49587Y272087D01*
X49122Y272317D01*
G01X47933Y274650D02*
X48037Y274343D01*
X48295Y274113D01*
X48605Y273960D01*
X49019Y273845D01*
X49483Y273807D01*
X49948Y273845D01*
X50362Y273960D01*
X50672Y274113D01*
X50930Y274343D01*
X51033Y274650D01*
X50930Y274957D01*
X50672Y275187D01*
X50362Y275340D01*
X49948Y275455D01*
X49483Y275493D01*
X49019Y275455D01*
X48605Y275340D01*
X48295Y275187D01*
X48037Y274957D01*
X47933Y274650D01*
G01X55511Y266000D02*
X52511D01*
Y272000D01*
X55511D01*
Y266000D01*
G01X75557Y124067D02*
Y121845D01*
X75710Y121380D01*
X76017Y121070D01*
X76400Y120967D01*
X76783Y121070D01*
X77090Y121380D01*
X77243Y121845D01*
Y124067D01*
G01X78657Y121432D02*
X78887Y121173D01*
X79155Y121018D01*
X79500Y120967D01*
X79845Y121070D01*
X80113Y121277D01*
X80305Y121638D01*
X80343Y122052D01*
X80267Y122465D01*
X80075Y122723D01*
X79807Y122930D01*
X79538Y122982D01*
X79270Y122930D01*
X78925Y122723D01*
X79040Y124067D01*
X80075D01*
G01X81948Y121328D02*
X82217Y121070D01*
X82523Y120967D01*
X82830Y121070D01*
X83098Y121380D01*
X83290Y121845D01*
X83367Y122310D01*
Y122878D01*
X83290Y123343D01*
X83098Y123757D01*
X82868Y123963D01*
X82600Y124067D01*
X82293Y123963D01*
X82063Y123757D01*
X81910Y123447D01*
X81833Y123033D01*
X81910Y122672D01*
X82102Y122310D01*
X82332Y122103D01*
X82600Y122052D01*
X82907Y122155D01*
X83137Y122413D01*
X83367Y122878D01*
G01X72460Y114754D02*
X88208D01*
Y129320D01*
X72460D01*
Y114754D01*
G01X75610Y116132D02*
G03I-1181J0D01*
G01X91511Y134500D02*
X88511D01*
Y140500D01*
X91511D01*
Y134500D01*
G01X84011D02*
X81011D01*
Y140500D01*
X84011D01*
Y134500D01*
G01X77011D02*
X74011D01*
Y140500D01*
X77011D01*
Y134500D01*
G01X70011D02*
X67011D01*
Y140500D01*
X70011D01*
Y134500D01*
G01X55683Y124087D02*
X55875Y123777D01*
X56105Y123570D01*
X56373Y123467D01*
X56680Y123570D01*
X56910Y123777D01*
X57140Y124087D01*
X57217Y124500D01*
Y126567D01*
G01X59473Y123467D02*
X59550Y124138D01*
X59665Y124707D01*
X59818Y125223D01*
X60010Y125792D01*
X60317Y126567D01*
X58783D01*
G01X59834Y135537D02*
G03I-2500J0D01*
G01X92011Y142883D02*
X88911D01*
Y143842D01*
X89066Y144148D01*
X89273Y144340D01*
X89686Y144417D01*
X90100Y144340D01*
X90358Y144110D01*
X90513Y143842D01*
Y142883D01*
G01Y143842D02*
X92011Y144417D01*
G01Y146750D02*
X88911D01*
X89531Y146290D01*
G01X92011D02*
Y147210D01*
G01X91650Y149198D02*
X91908Y149467D01*
X92011Y149773D01*
X91908Y150080D01*
X91598Y150348D01*
X91133Y150540D01*
X90668Y150617D01*
X90100D01*
X89635Y150540D01*
X89221Y150348D01*
X89015Y150118D01*
X88911Y149850D01*
X89015Y149543D01*
X89221Y149313D01*
X89531Y149160D01*
X89945Y149083D01*
X90306Y149160D01*
X90668Y149352D01*
X90875Y149582D01*
X90926Y149850D01*
X90823Y150157D01*
X90565Y150387D01*
X90100Y150617D01*
G01X91650Y152298D02*
X91908Y152567D01*
X92011Y152873D01*
X91908Y153180D01*
X91598Y153448D01*
X91133Y153640D01*
X90668Y153717D01*
X90100D01*
X89635Y153640D01*
X89221Y153448D01*
X89015Y153218D01*
X88911Y152950D01*
X89015Y152643D01*
X89221Y152413D01*
X89531Y152260D01*
X89945Y152183D01*
X90306Y152260D01*
X90668Y152452D01*
X90875Y152682D01*
X90926Y152950D01*
X90823Y153257D01*
X90565Y153487D01*
X90100Y153717D01*
G01X84511Y142883D02*
X81411D01*
Y143842D01*
X81566Y144148D01*
X81773Y144340D01*
X82186Y144417D01*
X82600Y144340D01*
X82858Y144110D01*
X83013Y143842D01*
Y142883D01*
G01Y143842D02*
X84511Y144417D01*
G01X81928Y146022D02*
X81618Y146252D01*
X81463Y146520D01*
X81411Y146827D01*
X81515Y147210D01*
X81773Y147478D01*
X82083Y147555D01*
X82393Y147517D01*
X82651Y147363D01*
X83168Y146597D01*
X83530Y146252D01*
X84046Y146022D01*
X84511Y145945D01*
Y147555D01*
G01X81411Y149850D02*
X81515Y149543D01*
X81773Y149313D01*
X82083Y149160D01*
X82496Y149045D01*
X82961Y149007D01*
X83426Y149045D01*
X83840Y149160D01*
X84150Y149313D01*
X84408Y149543D01*
X84511Y149850D01*
X84408Y150157D01*
X84150Y150387D01*
X83840Y150540D01*
X83426Y150655D01*
X82961Y150693D01*
X82496Y150655D01*
X82083Y150540D01*
X81773Y150387D01*
X81515Y150157D01*
X81411Y149850D01*
G01Y152950D02*
X81515Y152643D01*
X81773Y152413D01*
X82083Y152260D01*
X82496Y152145D01*
X82961Y152107D01*
X83426Y152145D01*
X83840Y152260D01*
X84150Y152413D01*
X84408Y152643D01*
X84511Y152950D01*
X84408Y153257D01*
X84150Y153487D01*
X83840Y153640D01*
X83426Y153755D01*
X82961Y153793D01*
X82496Y153755D01*
X82083Y153640D01*
X81773Y153487D01*
X81515Y153257D01*
X81411Y152950D01*
G01X77511Y142883D02*
X74411D01*
Y143842D01*
X74566Y144148D01*
X74773Y144340D01*
X75186Y144417D01*
X75600Y144340D01*
X75858Y144110D01*
X76013Y143842D01*
Y142883D01*
G01Y143842D02*
X77511Y144417D01*
G01X74928Y146022D02*
X74618Y146252D01*
X74463Y146520D01*
X74411Y146827D01*
X74515Y147210D01*
X74773Y147478D01*
X75083Y147555D01*
X75393Y147517D01*
X75651Y147363D01*
X76168Y146597D01*
X76530Y146252D01*
X77046Y146022D01*
X77511Y145945D01*
Y147555D01*
G01X74411Y149850D02*
X74515Y149543D01*
X74773Y149313D01*
X75083Y149160D01*
X75496Y149045D01*
X75961Y149007D01*
X76426Y149045D01*
X76840Y149160D01*
X77150Y149313D01*
X77408Y149543D01*
X77511Y149850D01*
X77408Y150157D01*
X77150Y150387D01*
X76840Y150540D01*
X76426Y150655D01*
X75961Y150693D01*
X75496Y150655D01*
X75083Y150540D01*
X74773Y150387D01*
X74515Y150157D01*
X74411Y149850D01*
G01X77511Y152950D02*
X74411D01*
X75031Y152490D01*
G01X77511D02*
Y153410D01*
G01X70511Y142883D02*
X67411D01*
Y143842D01*
X67566Y144148D01*
X67773Y144340D01*
X68186Y144417D01*
X68600Y144340D01*
X68858Y144110D01*
X69013Y143842D01*
Y142883D01*
G01Y143842D02*
X70511Y144417D01*
G01X67928Y146022D02*
X67618Y146252D01*
X67463Y146520D01*
X67411Y146827D01*
X67515Y147210D01*
X67773Y147478D01*
X68083Y147555D01*
X68393Y147517D01*
X68651Y147363D01*
X69168Y146597D01*
X69530Y146252D01*
X70046Y146022D01*
X70511Y145945D01*
Y147555D01*
G01X67411Y149850D02*
X67515Y149543D01*
X67773Y149313D01*
X68083Y149160D01*
X68496Y149045D01*
X68961Y149007D01*
X69426Y149045D01*
X69840Y149160D01*
X70150Y149313D01*
X70408Y149543D01*
X70511Y149850D01*
X70408Y150157D01*
X70150Y150387D01*
X69840Y150540D01*
X69426Y150655D01*
X68961Y150693D01*
X68496Y150655D01*
X68083Y150540D01*
X67773Y150387D01*
X67515Y150157D01*
X67411Y149850D01*
G01X67928Y152222D02*
X67618Y152452D01*
X67463Y152720D01*
X67411Y153027D01*
X67515Y153410D01*
X67773Y153678D01*
X68083Y153755D01*
X68393Y153717D01*
X68651Y153563D01*
X69168Y152797D01*
X69530Y152452D01*
X70046Y152222D01*
X70511Y152145D01*
Y153755D01*
G01X83692Y185793D02*
X83537Y185563D01*
X83433Y185295D01*
Y184988D01*
X83588Y184643D01*
X83847Y184375D01*
X84157Y184183D01*
X84673Y184030D01*
X85138Y183992D01*
X85603Y184068D01*
X85913Y184183D01*
X86224Y184413D01*
X86430Y184682D01*
X86533Y184950D01*
Y185218D01*
X86430Y185487D01*
X86275Y185717D01*
X86068Y185908D01*
G01X85242Y187322D02*
X84880Y187590D01*
X84673Y187820D01*
X84570Y188127D01*
X84673Y188395D01*
X84880Y188587D01*
X85190Y188740D01*
X85552Y188778D01*
X85862Y188740D01*
X86172Y188587D01*
X86430Y188357D01*
X86533Y188088D01*
X86430Y187782D01*
X86120Y187513D01*
X85655Y187360D01*
X85138Y187322D01*
X84467Y187398D01*
X84105Y187513D01*
X83743Y187705D01*
X83485Y187973D01*
X83433Y188242D01*
X83537Y188510D01*
X83795Y188702D01*
G01X84501Y193911D02*
X85501D01*
G02X86001Y193411I0J-500D01*
G01Y190411D01*
G02X85501Y189911I-500J0D01*
G01X84501D01*
G02X84001Y190411I0J500D01*
G01Y193411D01*
G02X84501Y193911I500J0D01*
G01X63583Y178467D02*
Y181567D01*
X64542D01*
X64848Y181412D01*
X65040Y181205D01*
X65117Y180792D01*
X65040Y180378D01*
X64810Y180120D01*
X64542Y179965D01*
X63583D01*
G01X64542D02*
X65117Y178467D01*
G01X67450D02*
Y181567D01*
X66990Y180947D01*
G01Y178467D02*
X67910D01*
G01X69707Y179087D02*
X69937Y178725D01*
X70243Y178518D01*
X70588Y178467D01*
X70895Y178518D01*
X71202Y178776D01*
X71393Y179087D01*
X71432Y179397D01*
X71355Y179758D01*
X71087Y180017D01*
X70818Y180120D01*
X70473D01*
G01X70818D02*
X71048Y180275D01*
X71240Y180533D01*
X71317Y180843D01*
X71240Y181153D01*
X71048Y181412D01*
X70703Y181567D01*
X70358Y181515D01*
X70013Y181308D01*
G01X72922Y181050D02*
X73152Y181360D01*
X73420Y181515D01*
X73727Y181567D01*
X74110Y181463D01*
X74378Y181205D01*
X74455Y180895D01*
X74417Y180585D01*
X74263Y180327D01*
X73497Y179810D01*
X73152Y179448D01*
X72922Y178932D01*
X72845Y178467D01*
X74455D01*
G01X78511Y178000D02*
X76511D01*
Y182000D01*
X78511D01*
Y178000D01*
G01X72557Y197567D02*
Y195345D01*
X72710Y194880D01*
X73017Y194570D01*
X73400Y194467D01*
X73783Y194570D01*
X74090Y194880D01*
X74243Y195345D01*
Y197567D01*
G01X76500Y194467D02*
Y197567D01*
X76040Y196947D01*
G01Y194467D02*
X76960D01*
G01X79600Y197567D02*
X79293Y197463D01*
X79063Y197205D01*
X78910Y196895D01*
X78795Y196482D01*
X78757Y196017D01*
X78795Y195552D01*
X78910Y195138D01*
X79063Y194828D01*
X79293Y194570D01*
X79600Y194467D01*
X79907Y194570D01*
X80137Y194828D01*
X80290Y195138D01*
X80405Y195552D01*
X80443Y196017D01*
X80405Y196482D01*
X80290Y196895D01*
X80137Y197205D01*
X79907Y197463D01*
X79600Y197567D01*
G01X80363Y192486D02*
G03I-394J0D01*
G01X74852Y193273D02*
X81151D01*
Y188549D01*
X74852D01*
Y193273D01*
G01X60033Y185583D02*
X56933D01*
Y186542D01*
X57088Y186848D01*
X57295Y187040D01*
X57708Y187117D01*
X58122Y187040D01*
X58380Y186810D01*
X58535Y186542D01*
Y185583D01*
G01Y186542D02*
X60033Y187117D01*
G01Y189450D02*
X56933D01*
X57553Y188990D01*
G01X60033D02*
Y189910D01*
G01X57450Y191822D02*
X57140Y192052D01*
X56985Y192320D01*
X56933Y192627D01*
X57037Y193010D01*
X57295Y193278D01*
X57605Y193355D01*
X57915Y193317D01*
X58173Y193163D01*
X58690Y192397D01*
X59052Y192052D01*
X59568Y191822D01*
X60033Y191745D01*
Y193355D01*
G01X59672Y194998D02*
X59930Y195267D01*
X60033Y195573D01*
X59930Y195880D01*
X59620Y196148D01*
X59155Y196340D01*
X58690Y196417D01*
X58122D01*
X57657Y196340D01*
X57243Y196148D01*
X57037Y195918D01*
X56933Y195650D01*
X57037Y195343D01*
X57243Y195113D01*
X57553Y194960D01*
X57967Y194883D01*
X58328Y194960D01*
X58690Y195152D01*
X58897Y195382D01*
X58948Y195650D01*
X58845Y195957D01*
X58587Y196187D01*
X58122Y196417D01*
G01X63011Y192500D02*
X66011D01*
Y186500D01*
X63011D01*
Y192500D01*
G01X90011Y193000D02*
X93011D01*
Y187000D01*
X90011D01*
Y193000D01*
G01X89511Y199383D02*
X86411D01*
Y200342D01*
X86566Y200648D01*
X86773Y200840D01*
X87186Y200917D01*
X87600Y200840D01*
X87858Y200610D01*
X88013Y200342D01*
Y199383D01*
G01Y200342D02*
X89511Y200917D01*
G01Y203250D02*
X86411D01*
X87031Y202790D01*
G01X89511D02*
Y203710D01*
G01X88220Y205622D02*
X87858Y205890D01*
X87651Y206120D01*
X87548Y206427D01*
X87651Y206695D01*
X87858Y206887D01*
X88168Y207040D01*
X88530Y207078D01*
X88840Y207040D01*
X89150Y206887D01*
X89408Y206657D01*
X89511Y206388D01*
X89408Y206082D01*
X89098Y205813D01*
X88633Y205660D01*
X88116Y205622D01*
X87445Y205698D01*
X87083Y205813D01*
X86721Y206005D01*
X86463Y206273D01*
X86411Y206542D01*
X86515Y206810D01*
X86773Y207002D01*
G01X89511Y209450D02*
X89460Y209718D01*
X89305Y210025D01*
X89046Y210217D01*
X88685Y210293D01*
X88323Y210217D01*
X88013Y209987D01*
X87858Y209642D01*
Y209258D01*
X87755Y209028D01*
X87496Y208837D01*
X87135Y208760D01*
X86773Y208875D01*
X86515Y209143D01*
X86411Y209450D01*
X86515Y209757D01*
X86773Y210025D01*
X87135Y210140D01*
X87496Y210063D01*
X87755Y209872D01*
X87858Y209642D01*
Y209258D01*
X88013Y208913D01*
X88323Y208683D01*
X88685Y208607D01*
X89046Y208683D01*
X89305Y208875D01*
X89460Y209182D01*
X89511Y209450D01*
G01X95011Y199500D02*
X92011D01*
Y205500D01*
X95011D01*
Y199500D01*
G01X79511Y199383D02*
X76411D01*
Y200342D01*
X76566Y200648D01*
X76773Y200840D01*
X77186Y200917D01*
X77600Y200840D01*
X77858Y200610D01*
X78013Y200342D01*
Y199383D01*
G01Y200342D02*
X79511Y200917D01*
G01Y203250D02*
X76411D01*
X77031Y202790D01*
G01X79511D02*
Y203710D01*
G01X78220Y205622D02*
X77858Y205890D01*
X77651Y206120D01*
X77548Y206427D01*
X77651Y206695D01*
X77858Y206887D01*
X78168Y207040D01*
X78530Y207078D01*
X78840Y207040D01*
X79150Y206887D01*
X79408Y206657D01*
X79511Y206388D01*
X79408Y206082D01*
X79098Y205813D01*
X78633Y205660D01*
X78116Y205622D01*
X77445Y205698D01*
X77083Y205813D01*
X76721Y206005D01*
X76463Y206273D01*
X76411Y206542D01*
X76515Y206810D01*
X76773Y207002D01*
G01X79150Y208798D02*
X79408Y209067D01*
X79511Y209373D01*
X79408Y209680D01*
X79098Y209948D01*
X78633Y210140D01*
X78168Y210217D01*
X77600D01*
X77135Y210140D01*
X76721Y209948D01*
X76515Y209718D01*
X76411Y209450D01*
X76515Y209143D01*
X76721Y208913D01*
X77031Y208760D01*
X77445Y208683D01*
X77806Y208760D01*
X78168Y208952D01*
X78375Y209182D01*
X78426Y209450D01*
X78323Y209757D01*
X78065Y209987D01*
X77600Y210217D01*
G01X85011Y199500D02*
X82011D01*
Y205500D01*
X85011D01*
Y199500D01*
G01X69511Y199383D02*
X66411D01*
Y200342D01*
X66566Y200648D01*
X66773Y200840D01*
X67186Y200917D01*
X67600Y200840D01*
X67858Y200610D01*
X68013Y200342D01*
Y199383D01*
G01Y200342D02*
X69511Y200917D01*
G01Y203250D02*
X66411D01*
X67031Y202790D01*
G01X69511D02*
Y203710D01*
G01Y206273D02*
X68840Y206350D01*
X68271Y206465D01*
X67755Y206618D01*
X67186Y206810D01*
X66411Y207117D01*
Y205583D01*
G01Y209450D02*
X66515Y209143D01*
X66773Y208913D01*
X67083Y208760D01*
X67496Y208645D01*
X67961Y208607D01*
X68426Y208645D01*
X68840Y208760D01*
X69150Y208913D01*
X69408Y209143D01*
X69511Y209450D01*
X69408Y209757D01*
X69150Y209987D01*
X68840Y210140D01*
X68426Y210255D01*
X67961Y210293D01*
X67496Y210255D01*
X67083Y210140D01*
X66773Y209987D01*
X66515Y209757D01*
X66411Y209450D01*
G01X75011Y199500D02*
X72011D01*
Y205500D01*
X75011D01*
Y199500D01*
G01X59511Y199383D02*
X56411D01*
Y200342D01*
X56566Y200648D01*
X56773Y200840D01*
X57186Y200917D01*
X57600Y200840D01*
X57858Y200610D01*
X58013Y200342D01*
Y199383D01*
G01Y200342D02*
X59511Y200917D01*
G01Y203250D02*
X56411D01*
X57031Y202790D01*
G01X59511D02*
Y203710D01*
G01Y206273D02*
X58840Y206350D01*
X58271Y206465D01*
X57755Y206618D01*
X57186Y206810D01*
X56411Y207117D01*
Y205583D01*
G01X59511Y209450D02*
X56411D01*
X57031Y208990D01*
G01X59511D02*
Y209910D01*
G01X65011Y199500D02*
X62011D01*
Y205500D01*
X65011D01*
Y199500D01*
G01X86011Y177500D02*
Y180500D01*
G02X87011Y181500I1000J0D01*
G01X93011D01*
G02X94011Y180500I0J-1000D01*
G01Y177500D01*
G02X93011Y176500I-1000J0D01*
G01X87011D01*
G02X86011Y177500I0J1000D01*
G01X80293Y251808D02*
X80063Y251963D01*
X79795Y252067D01*
X79488D01*
X79143Y251911D01*
X78875Y251653D01*
X78683Y251343D01*
X78530Y250827D01*
X78492Y250362D01*
X78568Y249897D01*
X78683Y249587D01*
X78913Y249276D01*
X79182Y249070D01*
X79450Y248967D01*
X79718D01*
X79987Y249070D01*
X80217Y249225D01*
X80408Y249432D01*
G01X82473Y248967D02*
X82550Y249638D01*
X82665Y250206D01*
X82818Y250723D01*
X83010Y251292D01*
X83317Y252067D01*
X81783D01*
G01X80014Y256937D02*
X81014D01*
G02X81514Y256437I0J-500D01*
G01Y253437D01*
G02X81014Y252937I-500J0D01*
G01X80014D01*
G02X79514Y253437I0J500D01*
G01Y256437D01*
G02X80014Y256937I500J0D01*
G01X92793Y251808D02*
X92563Y251963D01*
X92295Y252067D01*
X91988D01*
X91643Y251912D01*
X91375Y251653D01*
X91183Y251343D01*
X91030Y250827D01*
X90992Y250362D01*
X91068Y249897D01*
X91183Y249587D01*
X91413Y249277D01*
X91682Y249070D01*
X91950Y248967D01*
X92218D01*
X92487Y249070D01*
X92717Y249225D01*
X92908Y249432D01*
G01X94398Y249328D02*
X94667Y249070D01*
X94973Y248967D01*
X95280Y249070D01*
X95548Y249380D01*
X95740Y249845D01*
X95817Y250310D01*
Y250878D01*
X95740Y251343D01*
X95548Y251757D01*
X95318Y251963D01*
X95050Y252067D01*
X94743Y251963D01*
X94513Y251757D01*
X94360Y251447D01*
X94283Y251033D01*
X94360Y250672D01*
X94552Y250310D01*
X94782Y250103D01*
X95050Y250052D01*
X95357Y250155D01*
X95587Y250413D01*
X95817Y250878D01*
G01X89514Y250937D02*
Y249937D01*
G02X89014Y249437I-500J0D01*
G01X86014D01*
G02X85514Y249937I0J500D01*
G01Y250937D01*
G02X86014Y251437I500J0D01*
G01X89014D01*
G02X89514Y250937I0J-500D01*
G01X91633Y254967D02*
Y258067D01*
X92592D01*
X92898Y257912D01*
X93090Y257705D01*
X93167Y257292D01*
X93090Y256878D01*
X92860Y256620D01*
X92592Y256465D01*
X91633D01*
G01X92592D02*
X93167Y254967D01*
G01X94772Y257550D02*
X95002Y257860D01*
X95270Y258015D01*
X95577Y258067D01*
X95960Y257963D01*
X96228Y257705D01*
X96305Y257395D01*
X96267Y257085D01*
X96113Y256827D01*
X95347Y256310D01*
X95002Y255948D01*
X94772Y255432D01*
X94695Y254967D01*
X96305D01*
G01X97872Y257550D02*
X98102Y257860D01*
X98370Y258015D01*
X98677Y258067D01*
X99060Y257963D01*
X99328Y257705D01*
X99405Y257395D01*
X99367Y257085D01*
X99213Y256827D01*
X98447Y256310D01*
X98102Y255948D01*
X97872Y255432D01*
X97795Y254967D01*
X99405D01*
G01X85514Y255437D02*
Y257437D01*
X89514D01*
Y255437D01*
X85514D01*
G01X59557Y257567D02*
Y255345D01*
X59710Y254880D01*
X60017Y254570D01*
X60400Y254467D01*
X60783Y254570D01*
X61090Y254880D01*
X61243Y255345D01*
Y257567D01*
G01X63500Y254467D02*
Y257567D01*
X63040Y256947D01*
G01Y254467D02*
X63960D01*
G01X65757Y255087D02*
X65987Y254725D01*
X66293Y254518D01*
X66638Y254467D01*
X66945Y254518D01*
X67252Y254777D01*
X67443Y255087D01*
X67482Y255397D01*
X67405Y255758D01*
X67137Y256017D01*
X66868Y256120D01*
X66523D01*
G01X66868D02*
X67098Y256275D01*
X67290Y256533D01*
X67367Y256843D01*
X67290Y257153D01*
X67098Y257412D01*
X66753Y257567D01*
X66408Y257515D01*
X66063Y257308D01*
G01X69864Y258299D02*
X76163D01*
Y253575D01*
X69864D01*
Y258299D01*
G01X75376Y257512D02*
G03I-394J0D01*
G01X89033Y265083D02*
X85933D01*
Y266042D01*
X86088Y266348D01*
X86295Y266540D01*
X86708Y266617D01*
X87122Y266540D01*
X87380Y266310D01*
X87535Y266042D01*
Y265083D01*
G01Y266042D02*
X89033Y266617D01*
G01Y268950D02*
X85933D01*
X86553Y268490D01*
G01X89033D02*
Y269410D01*
G01Y272050D02*
X88982Y272318D01*
X88827Y272625D01*
X88568Y272817D01*
X88207Y272893D01*
X87845Y272817D01*
X87535Y272587D01*
X87380Y272242D01*
Y271858D01*
X87277Y271628D01*
X87018Y271437D01*
X86657Y271360D01*
X86295Y271475D01*
X86037Y271743D01*
X85933Y272050D01*
X86037Y272357D01*
X86295Y272625D01*
X86657Y272740D01*
X87018Y272663D01*
X87277Y272472D01*
X87380Y272242D01*
Y271858D01*
X87535Y271513D01*
X87845Y271283D01*
X88207Y271207D01*
X88568Y271283D01*
X88827Y271475D01*
X88982Y271782D01*
X89033Y272050D01*
G01X87742Y274422D02*
X87380Y274690D01*
X87173Y274920D01*
X87070Y275227D01*
X87173Y275495D01*
X87380Y275687D01*
X87690Y275840D01*
X88052Y275878D01*
X88362Y275840D01*
X88672Y275687D01*
X88930Y275457D01*
X89033Y275188D01*
X88930Y274882D01*
X88620Y274613D01*
X88155Y274460D01*
X87638Y274422D01*
X86967Y274498D01*
X86605Y274613D01*
X86243Y274805D01*
X85985Y275073D01*
X85933Y275342D01*
X86037Y275610D01*
X86295Y275802D01*
G01X94011Y266000D02*
X91011D01*
Y272000D01*
X94011D01*
Y266000D01*
G01X79033Y265583D02*
X75933D01*
Y266542D01*
X76088Y266848D01*
X76295Y267040D01*
X76708Y267117D01*
X77122Y267040D01*
X77380Y266810D01*
X77535Y266542D01*
Y265583D01*
G01Y266542D02*
X79033Y267117D01*
G01Y269450D02*
X75933D01*
X76553Y268990D01*
G01X79033D02*
Y269910D01*
G01Y272550D02*
X78982Y272818D01*
X78827Y273125D01*
X78568Y273317D01*
X78207Y273393D01*
X77845Y273317D01*
X77535Y273087D01*
X77380Y272742D01*
Y272358D01*
X77277Y272128D01*
X77018Y271937D01*
X76657Y271860D01*
X76295Y271975D01*
X76037Y272243D01*
X75933Y272550D01*
X76037Y272857D01*
X76295Y273125D01*
X76657Y273240D01*
X77018Y273163D01*
X77277Y272972D01*
X77380Y272742D01*
Y272358D01*
X77535Y272013D01*
X77845Y271783D01*
X78207Y271707D01*
X78568Y271783D01*
X78827Y271975D01*
X78982Y272282D01*
X79033Y272550D01*
G01Y275573D02*
X78362Y275650D01*
X77794Y275765D01*
X77277Y275918D01*
X76708Y276110D01*
X75933Y276417D01*
Y274883D01*
G01X84011Y266000D02*
X81011D01*
Y272000D01*
X84011D01*
Y266000D01*
G01X68533Y264583D02*
X65433D01*
Y265542D01*
X65588Y265848D01*
X65795Y266040D01*
X66208Y266117D01*
X66622Y266040D01*
X66880Y265810D01*
X67035Y265542D01*
Y264583D01*
G01Y265542D02*
X68533Y266117D01*
G01Y268450D02*
X65433D01*
X66053Y267990D01*
G01X68533D02*
Y268910D01*
G01Y271550D02*
X68482Y271818D01*
X68327Y272125D01*
X68068Y272317D01*
X67707Y272393D01*
X67345Y272317D01*
X67035Y272087D01*
X66880Y271742D01*
Y271358D01*
X66777Y271128D01*
X66518Y270937D01*
X66157Y270860D01*
X65795Y270975D01*
X65537Y271243D01*
X65433Y271550D01*
X65537Y271857D01*
X65795Y272125D01*
X66157Y272240D01*
X66518Y272163D01*
X66777Y271972D01*
X66880Y271742D01*
Y271358D01*
X67035Y271013D01*
X67345Y270783D01*
X67707Y270707D01*
X68068Y270783D01*
X68327Y270975D01*
X68482Y271282D01*
X68533Y271550D01*
G01Y274650D02*
X68482Y274918D01*
X68327Y275225D01*
X68068Y275417D01*
X67707Y275493D01*
X67345Y275417D01*
X67035Y275187D01*
X66880Y274842D01*
Y274458D01*
X66777Y274228D01*
X66518Y274037D01*
X66157Y273960D01*
X65795Y274075D01*
X65537Y274343D01*
X65433Y274650D01*
X65537Y274957D01*
X65795Y275225D01*
X66157Y275340D01*
X66518Y275263D01*
X66777Y275072D01*
X66880Y274842D01*
Y274458D01*
X67035Y274113D01*
X67345Y273883D01*
X67707Y273807D01*
X68068Y273883D01*
X68327Y274075D01*
X68482Y274382D01*
X68533Y274650D01*
G01X74011Y266000D02*
X71011D01*
Y272000D01*
X74011D01*
Y266000D01*
G01X60033Y265083D02*
X56933D01*
Y266042D01*
X57088Y266348D01*
X57295Y266540D01*
X57708Y266617D01*
X58122Y266540D01*
X58380Y266310D01*
X58535Y266042D01*
Y265083D01*
G01Y266042D02*
X60033Y266617D01*
G01Y268950D02*
X56933D01*
X57553Y268490D01*
G01X60033D02*
Y269410D01*
G01Y272050D02*
X59982Y272318D01*
X59827Y272625D01*
X59568Y272817D01*
X59207Y272893D01*
X58845Y272817D01*
X58535Y272587D01*
X58380Y272242D01*
Y271858D01*
X58277Y271628D01*
X58018Y271437D01*
X57657Y271360D01*
X57295Y271475D01*
X57037Y271743D01*
X56933Y272050D01*
X57037Y272357D01*
X57295Y272625D01*
X57657Y272740D01*
X58018Y272663D01*
X58277Y272472D01*
X58380Y272242D01*
Y271858D01*
X58535Y271513D01*
X58845Y271283D01*
X59207Y271207D01*
X59568Y271283D01*
X59827Y271475D01*
X59982Y271782D01*
X60033Y272050D01*
G01X59672Y274498D02*
X59930Y274767D01*
X60033Y275073D01*
X59930Y275380D01*
X59620Y275648D01*
X59155Y275840D01*
X58690Y275917D01*
X58122D01*
X57657Y275840D01*
X57243Y275648D01*
X57037Y275418D01*
X56933Y275150D01*
X57037Y274843D01*
X57243Y274613D01*
X57553Y274460D01*
X57967Y274383D01*
X58328Y274460D01*
X58690Y274652D01*
X58897Y274882D01*
X58948Y275150D01*
X58845Y275457D01*
X58587Y275687D01*
X58122Y275917D01*
G01X64011Y266000D02*
X61011D01*
Y272000D01*
X64011D01*
Y266000D01*
G01X99243Y127808D02*
X99013Y127963D01*
X98745Y128067D01*
X98438D01*
X98093Y127912D01*
X97825Y127653D01*
X97633Y127343D01*
X97480Y126827D01*
X97442Y126362D01*
X97518Y125897D01*
X97633Y125587D01*
X97863Y125277D01*
X98132Y125070D01*
X98400Y124967D01*
X98668D01*
X98937Y125070D01*
X99167Y125225D01*
X99358Y125432D01*
G01X100772Y127550D02*
X101002Y127860D01*
X101270Y128015D01*
X101577Y128067D01*
X101960Y127963D01*
X102228Y127705D01*
X102305Y127395D01*
X102267Y127085D01*
X102113Y126827D01*
X101347Y126310D01*
X101002Y125948D01*
X100772Y125432D01*
X100695Y124967D01*
X102305D01*
G01X104600Y128067D02*
X104293Y127963D01*
X104063Y127705D01*
X103910Y127395D01*
X103795Y126982D01*
X103757Y126517D01*
X103795Y126052D01*
X103910Y125638D01*
X104063Y125328D01*
X104293Y125070D01*
X104600Y124967D01*
X104907Y125070D01*
X105137Y125328D01*
X105290Y125638D01*
X105405Y126052D01*
X105443Y126517D01*
X105405Y126982D01*
X105290Y127395D01*
X105137Y127705D01*
X104907Y127963D01*
X104600Y128067D01*
G01X94334Y128037D02*
X95334D01*
G02X95834Y127537I0J-500D01*
G01Y124537D01*
G02X95334Y124037I-500J0D01*
G01X94334D01*
G02X93834Y124537I0J500D01*
G01Y127537D01*
G02X94334Y128037I500J0D01*
G01X99743Y119808D02*
X99513Y119963D01*
X99245Y120067D01*
X98938D01*
X98593Y119912D01*
X98325Y119653D01*
X98133Y119343D01*
X97980Y118827D01*
X97942Y118362D01*
X98018Y117897D01*
X98133Y117587D01*
X98363Y117276D01*
X98632Y117070D01*
X98900Y116967D01*
X99168D01*
X99437Y117070D01*
X99667Y117225D01*
X99858Y117432D01*
G01X101272Y119550D02*
X101502Y119860D01*
X101770Y120015D01*
X102077Y120067D01*
X102460Y119963D01*
X102728Y119705D01*
X102805Y119395D01*
X102767Y119085D01*
X102613Y118827D01*
X101847Y118310D01*
X101502Y117948D01*
X101272Y117432D01*
X101195Y116967D01*
X102805D01*
G01X105100D02*
Y120067D01*
X104640Y119447D01*
G01Y116967D02*
X105560D01*
G01X95334Y115537D02*
X94334D01*
G02X93834Y116037I0J500D01*
G01Y119037D01*
G02X94334Y119537I500J0D01*
G01X95334D01*
G02X95834Y119037I0J-500D01*
G01Y116037D01*
G02X95334Y115537I-500J0D01*
G01X106344Y134626D02*
X103344D01*
Y140626D01*
X106344D01*
Y134626D01*
G01X99011Y134500D02*
X96011D01*
Y140500D01*
X99011D01*
Y134500D01*
G01X106844Y143009D02*
X103744D01*
Y143968D01*
X103899Y144274D01*
X104106Y144466D01*
X104519Y144543D01*
X104933Y144466D01*
X105191Y144236D01*
X105346Y143968D01*
Y143009D01*
G01Y143968D02*
X106844Y144543D01*
G01Y146876D02*
X103744D01*
X104364Y146416D01*
G01X106844D02*
Y147336D01*
G01X106483Y149324D02*
X106741Y149593D01*
X106844Y149899D01*
X106741Y150206D01*
X106431Y150474D01*
X105966Y150666D01*
X105501Y150743D01*
X104933D01*
X104468Y150666D01*
X104054Y150474D01*
X103848Y150244D01*
X103744Y149976D01*
X103848Y149669D01*
X104054Y149439D01*
X104364Y149286D01*
X104778Y149209D01*
X105139Y149286D01*
X105501Y149478D01*
X105708Y149708D01*
X105759Y149976D01*
X105656Y150283D01*
X105398Y150513D01*
X104933Y150743D01*
G01X106844Y152999D02*
X106173Y153076D01*
X105605Y153191D01*
X105088Y153344D01*
X104519Y153536D01*
X103744Y153843D01*
Y152309D01*
G01X99511Y142883D02*
X96411D01*
Y143842D01*
X96566Y144148D01*
X96773Y144340D01*
X97186Y144417D01*
X97600Y144340D01*
X97858Y144110D01*
X98013Y143842D01*
Y142883D01*
G01Y143842D02*
X99511Y144417D01*
G01Y146750D02*
X96411D01*
X97031Y146290D01*
G01X99511D02*
Y147210D01*
G01X99150Y149198D02*
X99408Y149467D01*
X99511Y149773D01*
X99408Y150080D01*
X99098Y150348D01*
X98633Y150540D01*
X98168Y150617D01*
X97600D01*
X97135Y150540D01*
X96721Y150348D01*
X96515Y150118D01*
X96411Y149850D01*
X96515Y149543D01*
X96721Y149313D01*
X97031Y149160D01*
X97445Y149083D01*
X97806Y149160D01*
X98168Y149352D01*
X98375Y149582D01*
X98426Y149850D01*
X98323Y150157D01*
X98065Y150387D01*
X97600Y150617D01*
G01X99511Y152950D02*
X99460Y153218D01*
X99305Y153525D01*
X99046Y153717D01*
X98685Y153793D01*
X98323Y153717D01*
X98013Y153487D01*
X97858Y153142D01*
Y152758D01*
X97755Y152528D01*
X97496Y152337D01*
X97135Y152260D01*
X96773Y152375D01*
X96515Y152643D01*
X96411Y152950D01*
X96515Y153257D01*
X96773Y153525D01*
X97135Y153640D01*
X97496Y153563D01*
X97755Y153372D01*
X97858Y153142D01*
Y152758D01*
X98013Y152413D01*
X98323Y152183D01*
X98685Y152107D01*
X99046Y152183D01*
X99305Y152375D01*
X99460Y152682D01*
X99511Y152950D01*
G01X97033Y186083D02*
X93933D01*
Y187042D01*
X94088Y187348D01*
X94295Y187540D01*
X94708Y187617D01*
X95122Y187540D01*
X95380Y187310D01*
X95535Y187042D01*
Y186083D01*
G01Y187042D02*
X97033Y187617D01*
G01Y189950D02*
X93933D01*
X94553Y189490D01*
G01X97033D02*
Y190410D01*
G01X96413Y192207D02*
X96775Y192437D01*
X96982Y192743D01*
X97033Y193088D01*
X96982Y193395D01*
X96724Y193702D01*
X96413Y193893D01*
X96103Y193932D01*
X95742Y193855D01*
X95483Y193587D01*
X95380Y193318D01*
Y192973D01*
G01Y193318D02*
X95225Y193548D01*
X94967Y193740D01*
X94657Y193817D01*
X94347Y193740D01*
X94088Y193548D01*
X93933Y193203D01*
X93985Y192858D01*
X94192Y192513D01*
G01X97033Y196150D02*
X93933D01*
X94553Y195690D01*
G01X97033D02*
Y196610D01*
G01X99583Y190467D02*
Y193567D01*
X100542D01*
X100848Y193412D01*
X101040Y193205D01*
X101117Y192792D01*
X101040Y192378D01*
X100810Y192120D01*
X100542Y191965D01*
X99583D01*
G01X100542D02*
X101117Y190467D01*
G01X103450D02*
Y193567D01*
X102990Y192947D01*
G01Y190467D02*
X103910D01*
G01X105707Y191087D02*
X105937Y190725D01*
X106243Y190518D01*
X106588Y190467D01*
X106895Y190518D01*
X107202Y190777D01*
X107393Y191087D01*
X107432Y191397D01*
X107355Y191758D01*
X107087Y192017D01*
X106818Y192120D01*
X106473D01*
G01X106818D02*
X107048Y192275D01*
X107240Y192533D01*
X107317Y192843D01*
X107240Y193153D01*
X107048Y193412D01*
X106703Y193567D01*
X106358Y193515D01*
X106013Y193308D01*
G01X109650Y193567D02*
X109343Y193463D01*
X109113Y193205D01*
X108960Y192895D01*
X108845Y192482D01*
X108807Y192017D01*
X108845Y191552D01*
X108960Y191138D01*
X109113Y190828D01*
X109343Y190570D01*
X109650Y190467D01*
X109957Y190570D01*
X110187Y190828D01*
X110340Y191138D01*
X110455Y191552D01*
X110493Y192017D01*
X110455Y192482D01*
X110340Y192895D01*
X110187Y193205D01*
X109957Y193463D01*
X109650Y193567D01*
G01X98011Y186000D02*
Y189000D01*
X104011D01*
Y186000D01*
X98011D01*
G01X99511Y199383D02*
X96411D01*
Y200342D01*
X96566Y200648D01*
X96773Y200840D01*
X97186Y200917D01*
X97600Y200840D01*
X97858Y200610D01*
X98013Y200342D01*
Y199383D01*
G01Y200342D02*
X99511Y200917D01*
G01Y203250D02*
X96411D01*
X97031Y202790D01*
G01X99511D02*
Y203710D01*
G01X98220Y205622D02*
X97858Y205890D01*
X97651Y206120D01*
X97548Y206427D01*
X97651Y206695D01*
X97858Y206887D01*
X98168Y207040D01*
X98530Y207078D01*
X98840Y207040D01*
X99150Y206887D01*
X99408Y206657D01*
X99511Y206388D01*
X99408Y206082D01*
X99098Y205813D01*
X98633Y205660D01*
X98116Y205622D01*
X97445Y205698D01*
X97083Y205813D01*
X96721Y206005D01*
X96463Y206273D01*
X96411Y206542D01*
X96515Y206810D01*
X96773Y207002D01*
G01X99511Y209373D02*
X98840Y209450D01*
X98271Y209565D01*
X97755Y209718D01*
X97186Y209910D01*
X96411Y210217D01*
Y208683D01*
G01X105011Y199500D02*
X102011D01*
Y205500D01*
X105011D01*
Y199500D01*
G01X98243Y180808D02*
X98013Y180963D01*
X97745Y181067D01*
X97438D01*
X97093Y180912D01*
X96825Y180653D01*
X96633Y180343D01*
X96480Y179827D01*
X96442Y179362D01*
X96518Y178897D01*
X96633Y178587D01*
X96863Y178277D01*
X97132Y178070D01*
X97400Y177967D01*
X97668D01*
X97937Y178070D01*
X98167Y178225D01*
X98358Y178432D01*
G01X100423Y177967D02*
X100500Y178638D01*
X100615Y179207D01*
X100768Y179723D01*
X100960Y180292D01*
X101267Y181067D01*
X99733D01*
G01X103600Y177967D02*
X103868Y178018D01*
X104175Y178173D01*
X104367Y178432D01*
X104443Y178793D01*
X104367Y179155D01*
X104137Y179465D01*
X103792Y179620D01*
X103408D01*
X103178Y179723D01*
X102987Y179982D01*
X102910Y180343D01*
X103025Y180705D01*
X103293Y180963D01*
X103600Y181067D01*
X103907Y180963D01*
X104175Y180705D01*
X104290Y180343D01*
X104213Y179982D01*
X104022Y179723D01*
X103792Y179620D01*
X103408D01*
X103063Y179465D01*
X102833Y179155D01*
X102757Y178793D01*
X102833Y178432D01*
X103025Y178173D01*
X103332Y178018D01*
X103600Y177967D01*
G01X100033Y265583D02*
X96933D01*
Y266542D01*
X97088Y266848D01*
X97295Y267040D01*
X97708Y267117D01*
X98122Y267040D01*
X98380Y266810D01*
X98535Y266542D01*
Y265583D01*
G01Y266542D02*
X100033Y267117D01*
G01Y269450D02*
X96933D01*
X97553Y268990D01*
G01X100033D02*
Y269910D01*
G01Y272550D02*
X99982Y272818D01*
X99827Y273125D01*
X99568Y273317D01*
X99207Y273393D01*
X98845Y273317D01*
X98535Y273087D01*
X98380Y272742D01*
Y272358D01*
X98277Y272128D01*
X98018Y271937D01*
X97657Y271860D01*
X97295Y271975D01*
X97037Y272243D01*
X96933Y272550D01*
X97037Y272857D01*
X97295Y273125D01*
X97657Y273240D01*
X98018Y273163D01*
X98277Y272972D01*
X98380Y272742D01*
Y272358D01*
X98535Y272013D01*
X98845Y271783D01*
X99207Y271707D01*
X99568Y271783D01*
X99827Y271975D01*
X99982Y272282D01*
X100033Y272550D01*
G01X99568Y274807D02*
X99827Y275037D01*
X99982Y275305D01*
X100033Y275650D01*
X99930Y275995D01*
X99724Y276263D01*
X99362Y276455D01*
X98948Y276493D01*
X98535Y276417D01*
X98277Y276225D01*
X98070Y275957D01*
X98018Y275688D01*
X98070Y275420D01*
X98277Y275075D01*
X96933Y275190D01*
Y276225D01*
G01X104011Y266000D02*
X101011D01*
Y272000D01*
X104011D01*
Y266000D01*
G01X163587Y126817D02*
X163277Y126625D01*
X163070Y126395D01*
X162967Y126127D01*
X163070Y125820D01*
X163277Y125590D01*
X163587Y125360D01*
X164000Y125283D01*
X166067D01*
G01X164258Y123678D02*
X164620Y123410D01*
X164827Y123180D01*
X164930Y122873D01*
X164827Y122605D01*
X164620Y122413D01*
X164310Y122260D01*
X163948Y122222D01*
X163638Y122260D01*
X163328Y122413D01*
X163070Y122643D01*
X162967Y122912D01*
X163070Y123218D01*
X163380Y123487D01*
X163845Y123640D01*
X164362Y123678D01*
X165033Y123602D01*
X165395Y123487D01*
X165757Y123295D01*
X166015Y123027D01*
X166067Y122758D01*
X165963Y122490D01*
X165705Y122298D01*
G01X171550Y110693D02*
X157530D01*
Y139093D01*
X171550D01*
Y110693D01*
G01X167040Y134893D02*
G03I-2500J0D01*
G01X173717Y152973D02*
X176817D01*
Y152015D01*
X176662Y151708D01*
X176456Y151516D01*
X176042Y151440D01*
X175629Y151516D01*
X175371Y151746D01*
X175216Y152015D01*
Y152973D01*
G01Y152015D02*
X173717Y151440D01*
G01X176301Y149835D02*
X176610Y149605D01*
X176766Y149336D01*
X176817Y149030D01*
X176714Y148646D01*
X176456Y148378D01*
X176146Y148301D01*
X175836Y148340D01*
X175577Y148493D01*
X175060Y149260D01*
X174699Y149605D01*
X174182Y149835D01*
X173717Y149911D01*
Y148301D01*
G01X174337Y146850D02*
X173976Y146620D01*
X173769Y146313D01*
X173717Y145968D01*
X173769Y145661D01*
X174027Y145355D01*
X174337Y145163D01*
X174647Y145125D01*
X175009Y145201D01*
X175267Y145470D01*
X175371Y145738D01*
Y146083D01*
G01Y145738D02*
X175526Y145508D01*
X175784Y145316D01*
X176094Y145240D01*
X176404Y145316D01*
X176662Y145508D01*
X176817Y145853D01*
X176766Y146198D01*
X176559Y146543D01*
G01X173717Y142906D02*
X173769Y142638D01*
X173924Y142331D01*
X174182Y142140D01*
X174544Y142063D01*
X174906Y142140D01*
X175216Y142370D01*
X175371Y142715D01*
Y143098D01*
X175474Y143328D01*
X175732Y143520D01*
X176094Y143596D01*
X176456Y143481D01*
X176714Y143213D01*
X176817Y142906D01*
X176714Y142600D01*
X176456Y142331D01*
X176094Y142216D01*
X175732Y142293D01*
X175474Y142485D01*
X175371Y142715D01*
Y143098D01*
X175216Y143443D01*
X174906Y143673D01*
X174544Y143750D01*
X174182Y143673D01*
X173924Y143481D01*
X173769Y143175D01*
X173717Y142906D01*
G01X176010Y201479D02*
X172910D01*
Y202437D01*
X173065Y202744D01*
X173272Y202936D01*
X173685Y203012D01*
X174099Y202936D01*
X174357Y202706D01*
X174512Y202437D01*
Y201479D01*
G01Y202437D02*
X176010Y203012D01*
G01X173427Y204617D02*
X173117Y204847D01*
X172962Y205116D01*
X172910Y205422D01*
X173014Y205806D01*
X173272Y206074D01*
X173582Y206151D01*
X173892Y206112D01*
X174150Y205959D01*
X174667Y205192D01*
X175029Y204847D01*
X175545Y204617D01*
X176010Y204540D01*
Y206151D01*
G01Y208446D02*
X172910D01*
X173530Y207986D01*
G01X176010D02*
Y208905D01*
G01X173427Y210817D02*
X173117Y211047D01*
X172962Y211316D01*
X172910Y211622D01*
X173014Y212005D01*
X173272Y212274D01*
X173582Y212351D01*
X173892Y212312D01*
X174150Y212159D01*
X174667Y211392D01*
X175029Y211047D01*
X175545Y210817D01*
X176010Y210741D01*
Y212351D01*
G01X166010Y201479D02*
X162910D01*
Y202437D01*
X163065Y202744D01*
X163272Y202936D01*
X163685Y203012D01*
X164099Y202936D01*
X164357Y202706D01*
X164512Y202437D01*
Y201479D01*
G01Y202437D02*
X166010Y203012D01*
G01X163427Y204617D02*
X163117Y204847D01*
X162962Y205116D01*
X162910Y205422D01*
X163014Y205806D01*
X163272Y206074D01*
X163582Y206151D01*
X163892Y206112D01*
X164150Y205959D01*
X164667Y205192D01*
X165029Y204847D01*
X165545Y204617D01*
X166010Y204540D01*
Y206151D01*
G01Y208446D02*
X162910D01*
X163530Y207986D01*
G01X166010D02*
Y208905D01*
G01X165390Y210702D02*
X165752Y210932D01*
X165958Y211239D01*
X166010Y211584D01*
X165958Y211891D01*
X165700Y212197D01*
X165390Y212389D01*
X165080Y212427D01*
X164719Y212351D01*
X164460Y212082D01*
X164357Y211814D01*
Y211469D01*
G01Y211814D02*
X164202Y212044D01*
X163944Y212236D01*
X163634Y212312D01*
X163324Y212236D01*
X163065Y212044D01*
X162910Y211699D01*
X162962Y211354D01*
X163169Y211009D01*
G01X171010Y201596D02*
X168010D01*
Y207596D01*
X171010D01*
Y201596D01*
G01X157010Y201479D02*
X153910D01*
Y202437D01*
X154065Y202744D01*
X154272Y202936D01*
X154685Y203012D01*
X155099Y202936D01*
X155357Y202706D01*
X155512Y202437D01*
Y201479D01*
G01Y202437D02*
X157010Y203012D01*
G01X154427Y204617D02*
X154117Y204847D01*
X153962Y205116D01*
X153910Y205422D01*
X154014Y205806D01*
X154272Y206074D01*
X154582Y206151D01*
X154892Y206112D01*
X155150Y205959D01*
X155667Y205192D01*
X156029Y204847D01*
X156545Y204617D01*
X157010Y204540D01*
Y206151D01*
G01Y208446D02*
X153910D01*
X154530Y207986D01*
G01X157010D02*
Y208905D01*
G01Y212005D02*
X153910D01*
X156132Y210587D01*
Y212504D01*
G01X162010Y201596D02*
X159010D01*
Y207596D01*
X162010D01*
Y201596D01*
G01X173507Y254567D02*
Y252345D01*
X173660Y251880D01*
X173967Y251570D01*
X174350Y251467D01*
X174733Y251570D01*
X175040Y251880D01*
X175193Y252345D01*
Y254567D01*
G01X177450Y251467D02*
Y254567D01*
X176990Y253947D01*
G01Y251467D02*
X177910D01*
G01X180550D02*
Y254567D01*
X180090Y253947D01*
G01Y251467D02*
X181010D01*
G01X183650Y254567D02*
X183343Y254463D01*
X183113Y254205D01*
X182960Y253895D01*
X182845Y253482D01*
X182807Y253017D01*
X182845Y252552D01*
X182960Y252138D01*
X183113Y251828D01*
X183343Y251570D01*
X183650Y251467D01*
X183957Y251570D01*
X184187Y251828D01*
X184340Y252138D01*
X184455Y252552D01*
X184493Y253017D01*
X184455Y253482D01*
X184340Y253895D01*
X184187Y254205D01*
X183957Y254463D01*
X183650Y254567D01*
G01X175510Y264681D02*
X172410D01*
Y265639D01*
X172565Y265946D01*
X172772Y266138D01*
X173185Y266214D01*
X173599Y266138D01*
X173857Y265908D01*
X174012Y265639D01*
Y264681D01*
G01Y265639D02*
X175510Y266214D01*
G01Y268548D02*
X172410D01*
X173030Y268088D01*
G01X175510D02*
Y269008D01*
G01X174219Y270919D02*
X173857Y271188D01*
X173650Y271418D01*
X173547Y271724D01*
X173650Y271993D01*
X173857Y272184D01*
X174167Y272338D01*
X174529Y272376D01*
X174839Y272338D01*
X175149Y272184D01*
X175407Y271954D01*
X175510Y271686D01*
X175407Y271379D01*
X175097Y271111D01*
X174632Y270958D01*
X174115Y270919D01*
X173444Y270996D01*
X173082Y271111D01*
X172720Y271303D01*
X172462Y271571D01*
X172410Y271839D01*
X172514Y272108D01*
X172772Y272299D01*
G01X175510Y275208D02*
X172410D01*
X174632Y273789D01*
Y275706D01*
G01X167033Y264583D02*
X163933D01*
Y265542D01*
X164088Y265848D01*
X164295Y266040D01*
X164708Y266117D01*
X165122Y266040D01*
X165380Y265810D01*
X165535Y265542D01*
Y264583D01*
G01Y265542D02*
X167033Y266117D01*
G01Y268450D02*
X163933D01*
X164553Y267990D01*
G01X167033D02*
Y268910D01*
G01X165742Y270822D02*
X165380Y271090D01*
X165173Y271320D01*
X165070Y271627D01*
X165173Y271895D01*
X165380Y272087D01*
X165690Y272240D01*
X166052Y272278D01*
X166362Y272240D01*
X166672Y272087D01*
X166930Y271857D01*
X167033Y271588D01*
X166930Y271282D01*
X166620Y271013D01*
X166155Y270860D01*
X165638Y270822D01*
X164967Y270898D01*
X164605Y271013D01*
X164243Y271205D01*
X163985Y271473D01*
X163933Y271742D01*
X164037Y272010D01*
X164295Y272202D01*
G01X166568Y273807D02*
X166827Y274037D01*
X166982Y274305D01*
X167033Y274650D01*
X166930Y274995D01*
X166724Y275263D01*
X166362Y275455D01*
X165948Y275493D01*
X165535Y275417D01*
X165277Y275225D01*
X165070Y274957D01*
X165018Y274688D01*
X165070Y274420D01*
X165277Y274075D01*
X163933Y274190D01*
Y275225D01*
G01X171010Y264298D02*
X168010D01*
Y270298D01*
X171010D01*
Y264298D01*
G01X157510Y264681D02*
X154410D01*
Y265639D01*
X154565Y265946D01*
X154772Y266138D01*
X155185Y266214D01*
X155599Y266138D01*
X155857Y265908D01*
X156012Y265639D01*
Y264681D01*
G01Y265639D02*
X157510Y266214D01*
G01Y268548D02*
X154410D01*
X155030Y268088D01*
G01X157510D02*
Y269008D01*
G01X156219Y270919D02*
X155857Y271188D01*
X155650Y271418D01*
X155547Y271724D01*
X155650Y271993D01*
X155857Y272184D01*
X156167Y272338D01*
X156529Y272376D01*
X156839Y272338D01*
X157149Y272184D01*
X157407Y271954D01*
X157510Y271686D01*
X157407Y271379D01*
X157097Y271111D01*
X156632Y270958D01*
X156115Y270919D01*
X155444Y270996D01*
X155082Y271111D01*
X154720Y271303D01*
X154462Y271571D01*
X154410Y271839D01*
X154514Y272108D01*
X154772Y272299D01*
G01X156219Y274019D02*
X155857Y274288D01*
X155650Y274518D01*
X155547Y274824D01*
X155650Y275093D01*
X155857Y275284D01*
X156167Y275438D01*
X156529Y275476D01*
X156839Y275438D01*
X157149Y275284D01*
X157407Y275054D01*
X157510Y274786D01*
X157407Y274479D01*
X157097Y274211D01*
X156632Y274058D01*
X156115Y274019D01*
X155444Y274096D01*
X155082Y274211D01*
X154720Y274403D01*
X154462Y274671D01*
X154410Y274939D01*
X154514Y275208D01*
X154772Y275399D01*
G01X163010Y264298D02*
X160010D01*
Y270298D01*
X163010D01*
Y264298D01*
G01X192567Y117943D02*
X190345D01*
X189880Y117790D01*
X189570Y117483D01*
X189467Y117100D01*
X189570Y116717D01*
X189880Y116410D01*
X190345Y116257D01*
X192567D01*
G01X189932Y114843D02*
X189673Y114613D01*
X189518Y114345D01*
X189467Y114000D01*
X189570Y113655D01*
X189777Y113387D01*
X190138Y113195D01*
X190552Y113157D01*
X190965Y113233D01*
X191223Y113425D01*
X191430Y113693D01*
X191482Y113962D01*
X191430Y114230D01*
X191223Y114575D01*
X192567Y114460D01*
Y113425D01*
G01X189467Y110900D02*
X192567D01*
X191947Y111360D01*
G01X189467D02*
Y110440D01*
G01X187983Y120925D02*
G03I-880J0D01*
G01X196749Y119744D02*
X185331D01*
Y126043D01*
X196749D01*
Y119744D01*
G01X203382Y120900D02*
X203537Y121130D01*
X203640Y121398D01*
Y121705D01*
X203485Y122050D01*
X203227Y122318D01*
X202917Y122510D01*
X202400Y122663D01*
X201935Y122702D01*
X201470Y122625D01*
X201160Y122510D01*
X200850Y122280D01*
X200643Y122012D01*
X200540Y121743D01*
Y121475D01*
X200643Y121207D01*
X200798Y120977D01*
X201005Y120785D01*
G01X201160Y119487D02*
X200798Y119257D01*
X200592Y118950D01*
X200540Y118605D01*
X200592Y118298D01*
X200850Y117992D01*
X201160Y117800D01*
X201470Y117762D01*
X201832Y117838D01*
X202090Y118107D01*
X202194Y118375D01*
Y118720D01*
G01Y118375D02*
X202348Y118145D01*
X202607Y117953D01*
X202917Y117877D01*
X203227Y117953D01*
X203485Y118145D01*
X203640Y118490D01*
X203588Y118835D01*
X203382Y119180D01*
G01X201005Y116387D02*
X200747Y116157D01*
X200592Y115888D01*
X200540Y115543D01*
X200643Y115198D01*
X200850Y114930D01*
X201212Y114738D01*
X201625Y114700D01*
X202038Y114777D01*
X202297Y114968D01*
X202503Y115237D01*
X202555Y115505D01*
X202503Y115773D01*
X202297Y116118D01*
X203640Y116003D01*
Y114968D01*
G01X201540Y128393D02*
X202540D01*
G02X203040Y127893I0J-500D01*
G01Y124893D01*
G02X202540Y124393I-500J0D01*
G01X201540D01*
G02X201040Y124893I0J500D01*
G01Y127893D01*
G02X201540Y128393I500J0D01*
G01X206540Y122510D02*
X209640D01*
Y121552D01*
X209485Y121245D01*
X209278Y121053D01*
X208865Y120977D01*
X208452Y121053D01*
X208194Y121283D01*
X208038Y121552D01*
Y122510D01*
G01Y121552D02*
X206540Y120977D01*
G01X207160Y119487D02*
X206798Y119257D01*
X206592Y118950D01*
X206540Y118605D01*
X206592Y118298D01*
X206850Y117992D01*
X207160Y117800D01*
X207470Y117762D01*
X207832Y117838D01*
X208090Y118107D01*
X208194Y118375D01*
Y118720D01*
G01Y118375D02*
X208348Y118145D01*
X208607Y117953D01*
X208917Y117877D01*
X209227Y117953D01*
X209485Y118145D01*
X209640Y118490D01*
X209588Y118835D01*
X209382Y119180D01*
G01X209123Y116272D02*
X209433Y116042D01*
X209588Y115773D01*
X209640Y115467D01*
X209537Y115083D01*
X209278Y114815D01*
X208968Y114738D01*
X208658Y114777D01*
X208400Y114930D01*
X207883Y115697D01*
X207522Y116042D01*
X207005Y116272D01*
X206540Y116348D01*
Y114738D01*
G01X207040Y128393D02*
X209040D01*
Y124393D01*
X207040D01*
Y128393D01*
G01X213550Y134482D02*
X210550D01*
Y140482D01*
X213550D01*
Y134482D01*
G01X206217Y134356D02*
X203217D01*
Y140356D01*
X206217D01*
Y134356D01*
G01X198717D02*
X195717D01*
Y140356D01*
X198717D01*
Y134356D01*
G01X191217D02*
X188217D01*
Y140356D01*
X191217D01*
Y134356D01*
G01X184217D02*
X181217D01*
Y140356D01*
X184217D01*
Y134356D01*
G01X177217D02*
X174217D01*
Y140356D01*
X177217D01*
Y134356D01*
G01X210050Y153099D02*
X213150D01*
Y152141D01*
X212995Y151834D01*
X212789Y151642D01*
X212375Y151566D01*
X211962Y151642D01*
X211704Y151872D01*
X211549Y152141D01*
Y153099D01*
G01Y152141D02*
X210050Y151566D01*
G01X212634Y149961D02*
X212944Y149731D01*
X213099Y149462D01*
X213150Y149156D01*
X213047Y148772D01*
X212789Y148504D01*
X212479Y148427D01*
X212169Y148466D01*
X211910Y148619D01*
X211394Y149386D01*
X211032Y149731D01*
X210515Y149961D01*
X210050Y150037D01*
Y148427D01*
G01X210670Y146976D02*
X210309Y146746D01*
X210102Y146439D01*
X210050Y146094D01*
X210102Y145787D01*
X210360Y145481D01*
X210670Y145289D01*
X210980Y145251D01*
X211342Y145327D01*
X211600Y145596D01*
X211704Y145864D01*
Y146209D01*
G01Y145864D02*
X211859Y145634D01*
X212117Y145442D01*
X212427Y145366D01*
X212737Y145442D01*
X212995Y145634D01*
X213150Y145979D01*
X213099Y146324D01*
X212892Y146669D01*
G01X210670Y143876D02*
X210309Y143646D01*
X210102Y143339D01*
X210050Y142994D01*
X210102Y142687D01*
X210360Y142381D01*
X210670Y142189D01*
X210980Y142151D01*
X211342Y142227D01*
X211600Y142496D01*
X211704Y142764D01*
Y143109D01*
G01Y142764D02*
X211859Y142534D01*
X212117Y142342D01*
X212427Y142266D01*
X212737Y142342D01*
X212995Y142534D01*
X213150Y142879D01*
X213099Y143224D01*
X212892Y143569D01*
G01X202717Y152973D02*
X205817D01*
Y152015D01*
X205662Y151708D01*
X205455Y151516D01*
X205042Y151440D01*
X204629Y151516D01*
X204371Y151746D01*
X204216Y152015D01*
Y152973D01*
G01Y152015D02*
X202717Y151440D01*
G01X205301Y149835D02*
X205610Y149605D01*
X205766Y149336D01*
X205817Y149030D01*
X205714Y148646D01*
X205455Y148378D01*
X205146Y148301D01*
X204836Y148340D01*
X204577Y148493D01*
X204061Y149260D01*
X203699Y149605D01*
X203182Y149835D01*
X202717Y149911D01*
Y148301D01*
G01X203337Y146850D02*
X202976Y146620D01*
X202769Y146313D01*
X202717Y145968D01*
X202769Y145661D01*
X203027Y145355D01*
X203337Y145163D01*
X203647Y145125D01*
X204009Y145201D01*
X204267Y145470D01*
X204371Y145738D01*
Y146083D01*
G01Y145738D02*
X204526Y145508D01*
X204784Y145316D01*
X205094Y145240D01*
X205404Y145316D01*
X205662Y145508D01*
X205817Y145853D01*
X205766Y146198D01*
X205559Y146543D01*
G01X202717Y142446D02*
X205817D01*
X203596Y143865D01*
Y141948D01*
G01X195217Y152973D02*
X198317D01*
Y152015D01*
X198162Y151708D01*
X197956Y151516D01*
X197542Y151440D01*
X197129Y151516D01*
X196871Y151746D01*
X196716Y152015D01*
Y152973D01*
G01Y152015D02*
X195217Y151440D01*
G01X197801Y149835D02*
X198110Y149605D01*
X198266Y149336D01*
X198317Y149030D01*
X198214Y148646D01*
X197956Y148378D01*
X197646Y148301D01*
X197336Y148340D01*
X197077Y148493D01*
X196560Y149260D01*
X196199Y149605D01*
X195682Y149835D01*
X195217Y149911D01*
Y148301D01*
G01X195837Y146850D02*
X195476Y146620D01*
X195269Y146313D01*
X195217Y145968D01*
X195269Y145661D01*
X195527Y145355D01*
X195837Y145163D01*
X196147Y145125D01*
X196509Y145201D01*
X196767Y145470D01*
X196871Y145738D01*
Y146083D01*
G01Y145738D02*
X197026Y145508D01*
X197284Y145316D01*
X197594Y145240D01*
X197904Y145316D01*
X198162Y145508D01*
X198317Y145853D01*
X198266Y146198D01*
X198059Y146543D01*
G01X195682Y143750D02*
X195424Y143520D01*
X195269Y143251D01*
X195217Y142906D01*
X195320Y142561D01*
X195527Y142293D01*
X195889Y142101D01*
X196302Y142063D01*
X196716Y142140D01*
X196974Y142331D01*
X197180Y142600D01*
X197232Y142868D01*
X197180Y143136D01*
X196974Y143481D01*
X198317Y143366D01*
Y142331D01*
G01X187717Y152973D02*
X190817D01*
Y152015D01*
X190662Y151708D01*
X190456Y151516D01*
X190042Y151440D01*
X189629Y151516D01*
X189371Y151746D01*
X189216Y152015D01*
Y152973D01*
G01Y152015D02*
X187717Y151440D01*
G01X190300Y149835D02*
X190611Y149605D01*
X190766Y149336D01*
X190817Y149030D01*
X190714Y148646D01*
X190456Y148378D01*
X190146Y148301D01*
X189836Y148340D01*
X189577Y148493D01*
X189060Y149260D01*
X188699Y149605D01*
X188182Y149835D01*
X187717Y149911D01*
Y148301D01*
G01X188337Y146850D02*
X187976Y146620D01*
X187769Y146313D01*
X187717Y145968D01*
X187769Y145661D01*
X188027Y145355D01*
X188337Y145163D01*
X188647Y145125D01*
X189009Y145201D01*
X189267Y145470D01*
X189371Y145738D01*
Y146083D01*
G01Y145738D02*
X189526Y145508D01*
X189784Y145316D01*
X190094Y145240D01*
X190404Y145316D01*
X190662Y145508D01*
X190817Y145853D01*
X190766Y146198D01*
X190559Y146543D01*
G01X189009Y143635D02*
X189371Y143366D01*
X189577Y143136D01*
X189680Y142830D01*
X189577Y142561D01*
X189371Y142370D01*
X189060Y142216D01*
X188699Y142178D01*
X188389Y142216D01*
X188079Y142370D01*
X187820Y142600D01*
X187717Y142868D01*
X187820Y143175D01*
X188130Y143443D01*
X188596Y143596D01*
X189112Y143635D01*
X189784Y143558D01*
X190146Y143443D01*
X190507Y143251D01*
X190766Y142983D01*
X190817Y142715D01*
X190714Y142446D01*
X190456Y142255D01*
G01X180717Y152973D02*
X183817D01*
Y152015D01*
X183662Y151708D01*
X183456Y151516D01*
X183042Y151440D01*
X182629Y151516D01*
X182371Y151746D01*
X182216Y152015D01*
Y152973D01*
G01Y152015D02*
X180717Y151440D01*
G01X183301Y149835D02*
X183610Y149605D01*
X183766Y149336D01*
X183817Y149030D01*
X183714Y148646D01*
X183456Y148378D01*
X183146Y148301D01*
X182836Y148340D01*
X182577Y148493D01*
X182060Y149260D01*
X181699Y149605D01*
X181182Y149835D01*
X180717Y149911D01*
Y148301D01*
G01X181337Y146850D02*
X180976Y146620D01*
X180769Y146313D01*
X180717Y145968D01*
X180769Y145661D01*
X181027Y145355D01*
X181337Y145163D01*
X181647Y145125D01*
X182009Y145201D01*
X182267Y145470D01*
X182371Y145738D01*
Y146083D01*
G01Y145738D02*
X182526Y145508D01*
X182784Y145316D01*
X183094Y145240D01*
X183404Y145316D01*
X183662Y145508D01*
X183817Y145853D01*
X183766Y146198D01*
X183559Y146543D01*
G01X180717Y142983D02*
X181389Y142906D01*
X181957Y142791D01*
X182474Y142638D01*
X183042Y142446D01*
X183817Y142140D01*
Y143673D01*
G01X203743Y182808D02*
X203513Y182963D01*
X203245Y183067D01*
X202938D01*
X202593Y182912D01*
X202325Y182653D01*
X202133Y182343D01*
X201980Y181827D01*
X201942Y181362D01*
X202018Y180897D01*
X202133Y180587D01*
X202363Y180277D01*
X202632Y180070D01*
X202900Y179967D01*
X203168D01*
X203437Y180070D01*
X203667Y180225D01*
X203858Y180432D01*
G01X205272Y182550D02*
X205502Y182860D01*
X205770Y183015D01*
X206077Y183067D01*
X206460Y182963D01*
X206728Y182705D01*
X206805Y182395D01*
X206767Y182085D01*
X206613Y181827D01*
X205847Y181310D01*
X205502Y180948D01*
X205272Y180432D01*
X205195Y179967D01*
X206805D01*
G01X208372Y182550D02*
X208602Y182860D01*
X208870Y183015D01*
X209177Y183067D01*
X209560Y182963D01*
X209828Y182705D01*
X209905Y182395D01*
X209867Y182085D01*
X209713Y181827D01*
X208947Y181310D01*
X208602Y180948D01*
X208372Y180432D01*
X208295Y179967D01*
X209905D01*
G01X196000Y181507D02*
Y182507D01*
G02X196500Y183006I500J0D01*
G01X199500D01*
G02X200000Y182507I0J-500D01*
G01Y181507D01*
G02X199500Y181006I-500J0D01*
G01X196500D01*
G02X196000Y181507I0J500D01*
G01X203243Y189308D02*
X203013Y189463D01*
X202745Y189567D01*
X202438D01*
X202093Y189412D01*
X201825Y189153D01*
X201633Y188843D01*
X201480Y188327D01*
X201442Y187862D01*
X201518Y187397D01*
X201633Y187087D01*
X201863Y186777D01*
X202132Y186570D01*
X202400Y186467D01*
X202668D01*
X202937Y186570D01*
X203167Y186725D01*
X203358Y186932D01*
G01X204772Y189050D02*
X205002Y189360D01*
X205270Y189515D01*
X205577Y189567D01*
X205960Y189463D01*
X206228Y189205D01*
X206305Y188895D01*
X206267Y188585D01*
X206113Y188327D01*
X205347Y187810D01*
X205002Y187448D01*
X204772Y186932D01*
X204695Y186467D01*
X206305D01*
G01X207757Y187087D02*
X207987Y186725D01*
X208293Y186518D01*
X208638Y186467D01*
X208945Y186518D01*
X209252Y186777D01*
X209443Y187087D01*
X209482Y187397D01*
X209405Y187758D01*
X209137Y188017D01*
X208868Y188120D01*
X208523D01*
G01X208868D02*
X209098Y188275D01*
X209290Y188533D01*
X209367Y188843D01*
X209290Y189153D01*
X209098Y189412D01*
X208753Y189567D01*
X208408Y189515D01*
X208063Y189308D01*
G01X196000Y187006D02*
Y188006D01*
G02X196500Y188506I500J0D01*
G01X199500D01*
G02X200000Y188006I0J-500D01*
G01Y187006D01*
G02X199500Y186507I-500J0D01*
G01X196500D01*
G02X196000Y187006I0J500D01*
G01X190743Y197308D02*
X190513Y197463D01*
X190245Y197567D01*
X189938D01*
X189593Y197412D01*
X189325Y197153D01*
X189133Y196843D01*
X188980Y196327D01*
X188942Y195862D01*
X189018Y195397D01*
X189133Y195087D01*
X189363Y194777D01*
X189632Y194570D01*
X189900Y194467D01*
X190168D01*
X190437Y194570D01*
X190667Y194725D01*
X190858Y194932D01*
G01X192272Y197050D02*
X192502Y197360D01*
X192770Y197515D01*
X193077Y197567D01*
X193460Y197463D01*
X193728Y197205D01*
X193805Y196895D01*
X193767Y196585D01*
X193613Y196327D01*
X192847Y195810D01*
X192502Y195448D01*
X192272Y194932D01*
X192195Y194467D01*
X193805D01*
G01X196560D02*
Y197567D01*
X195142Y195345D01*
X197058D01*
G01X187011Y196000D02*
Y195000D01*
G02X186511Y194500I-500J0D01*
G01X183511D01*
G02X183011Y195000I0J500D01*
G01Y196000D01*
G02X183511Y196500I500J0D01*
G01X186511D01*
G02X187011Y196000I0J-500D01*
G01X182057Y187067D02*
Y184845D01*
X182210Y184380D01*
X182517Y184070D01*
X182900Y183967D01*
X183283Y184070D01*
X183590Y184380D01*
X183743Y184845D01*
Y187067D01*
G01X185272Y185258D02*
X185540Y185620D01*
X185770Y185827D01*
X186077Y185930D01*
X186345Y185827D01*
X186537Y185620D01*
X186690Y185310D01*
X186728Y184948D01*
X186690Y184638D01*
X186537Y184328D01*
X186307Y184070D01*
X186038Y183967D01*
X185732Y184070D01*
X185463Y184380D01*
X185310Y184845D01*
X185272Y185362D01*
X185348Y186033D01*
X185463Y186395D01*
X185655Y186757D01*
X185923Y187015D01*
X186192Y187067D01*
X186460Y186963D01*
X186652Y186705D01*
G01X188372Y185258D02*
X188640Y185620D01*
X188870Y185827D01*
X189177Y185930D01*
X189445Y185827D01*
X189637Y185620D01*
X189790Y185310D01*
X189828Y184948D01*
X189790Y184638D01*
X189637Y184328D01*
X189407Y184070D01*
X189138Y183967D01*
X188832Y184070D01*
X188563Y184380D01*
X188410Y184845D01*
X188372Y185362D01*
X188448Y186033D01*
X188563Y186395D01*
X188755Y186757D01*
X189023Y187015D01*
X189292Y187067D01*
X189560Y186963D01*
X189752Y186705D01*
G01X189724Y190231D02*
G03I-787J0D01*
G01X190906Y179601D02*
X179094D01*
Y191412D01*
X190906D01*
Y179601D01*
G01X206010Y201479D02*
X202910D01*
Y202437D01*
X203065Y202744D01*
X203272Y202936D01*
X203685Y203012D01*
X204099Y202936D01*
X204357Y202706D01*
X204512Y202437D01*
Y201479D01*
G01Y202437D02*
X206010Y203012D01*
G01X203427Y204617D02*
X203117Y204847D01*
X202962Y205116D01*
X202910Y205422D01*
X203014Y205806D01*
X203272Y206074D01*
X203582Y206151D01*
X203892Y206112D01*
X204150Y205959D01*
X204667Y205192D01*
X205029Y204847D01*
X205545Y204617D01*
X206010Y204540D01*
Y206151D01*
G01X202910Y208446D02*
X203014Y208139D01*
X203272Y207909D01*
X203582Y207755D01*
X203995Y207641D01*
X204460Y207602D01*
X204925Y207641D01*
X205339Y207755D01*
X205649Y207909D01*
X205907Y208139D01*
X206010Y208446D01*
X205907Y208752D01*
X205649Y208982D01*
X205339Y209136D01*
X204925Y209250D01*
X204460Y209289D01*
X203995Y209250D01*
X203582Y209136D01*
X203272Y208982D01*
X203014Y208752D01*
X202910Y208446D01*
G01X205649Y210894D02*
X205907Y211162D01*
X206010Y211469D01*
X205907Y211776D01*
X205597Y212044D01*
X205132Y212236D01*
X204667Y212312D01*
X204099D01*
X203634Y212236D01*
X203220Y212044D01*
X203014Y211814D01*
X202910Y211546D01*
X203014Y211239D01*
X203220Y211009D01*
X203530Y210856D01*
X203944Y210779D01*
X204305Y210856D01*
X204667Y211047D01*
X204874Y211277D01*
X204925Y211546D01*
X204822Y211852D01*
X204564Y212082D01*
X204099Y212312D01*
G01X211010Y201596D02*
X208010D01*
Y207596D01*
X211010D01*
Y201596D01*
G01X196010Y201479D02*
X192910D01*
Y202437D01*
X193065Y202744D01*
X193272Y202936D01*
X193685Y203012D01*
X194099Y202936D01*
X194357Y202706D01*
X194512Y202437D01*
Y201479D01*
G01Y202437D02*
X196010Y203012D01*
G01X193427Y204617D02*
X193117Y204847D01*
X192962Y205116D01*
X192910Y205422D01*
X193014Y205806D01*
X193272Y206074D01*
X193582Y206151D01*
X193892Y206112D01*
X194150Y205959D01*
X194667Y205192D01*
X195029Y204847D01*
X195545Y204617D01*
X196010Y204540D01*
Y206151D01*
G01Y208446D02*
X192910D01*
X193530Y207986D01*
G01X196010D02*
Y208905D01*
G01X192910Y211546D02*
X193014Y211239D01*
X193272Y211009D01*
X193582Y210856D01*
X193995Y210741D01*
X194460Y210702D01*
X194925Y210741D01*
X195339Y210856D01*
X195649Y211009D01*
X195907Y211239D01*
X196010Y211546D01*
X195907Y211852D01*
X195649Y212082D01*
X195339Y212236D01*
X194925Y212351D01*
X194460Y212389D01*
X193995Y212351D01*
X193582Y212236D01*
X193272Y212082D01*
X193014Y211852D01*
X192910Y211546D01*
G01X201010Y201596D02*
X198010D01*
Y207596D01*
X201010D01*
Y201596D01*
G01X186010Y201479D02*
X182910D01*
Y202437D01*
X183065Y202744D01*
X183272Y202936D01*
X183685Y203012D01*
X184099Y202936D01*
X184357Y202706D01*
X184512Y202437D01*
Y201479D01*
G01Y202437D02*
X186010Y203012D01*
G01X183427Y204617D02*
X183117Y204847D01*
X182962Y205116D01*
X182910Y205422D01*
X183014Y205806D01*
X183272Y206074D01*
X183582Y206151D01*
X183892Y206112D01*
X184150Y205959D01*
X184667Y205192D01*
X185029Y204847D01*
X185545Y204617D01*
X186010Y204540D01*
Y206151D01*
G01Y208446D02*
X182910D01*
X183530Y207986D01*
G01X186010D02*
Y208905D01*
G01Y211546D02*
X182910D01*
X183530Y211086D01*
G01X186010D02*
Y212005D01*
G01X191010Y201596D02*
X188010D01*
Y207596D01*
X191010D01*
Y201596D01*
G01X181010D02*
X178010D01*
Y207596D01*
X181010D01*
Y201596D01*
G01X201243Y254808D02*
X201013Y254963D01*
X200745Y255067D01*
X200438D01*
X200093Y254912D01*
X199825Y254653D01*
X199633Y254343D01*
X199480Y253827D01*
X199442Y253362D01*
X199518Y252897D01*
X199633Y252587D01*
X199863Y252277D01*
X200132Y252070D01*
X200400Y251967D01*
X200668D01*
X200937Y252070D01*
X201167Y252225D01*
X201358Y252432D01*
G01X202657D02*
X202887Y252173D01*
X203155Y252018D01*
X203500Y251967D01*
X203845Y252070D01*
X204113Y252277D01*
X204305Y252638D01*
X204343Y253052D01*
X204267Y253465D01*
X204075Y253723D01*
X203807Y253930D01*
X203538Y253982D01*
X203270Y253930D01*
X202925Y253723D01*
X203040Y255067D01*
X204075D01*
G01X206600D02*
X206293Y254963D01*
X206063Y254705D01*
X205910Y254395D01*
X205795Y253982D01*
X205757Y253517D01*
X205795Y253052D01*
X205910Y252638D01*
X206063Y252328D01*
X206293Y252070D01*
X206600Y251967D01*
X206907Y252070D01*
X207137Y252328D01*
X207290Y252638D01*
X207405Y253052D01*
X207443Y253517D01*
X207405Y253982D01*
X207290Y254395D01*
X207137Y254705D01*
X206907Y254963D01*
X206600Y255067D01*
G01X195988Y255330D02*
X196988D01*
G02X197488Y254830I0J-500D01*
G01Y251830D01*
G02X196988Y251330I-500J0D01*
G01X195988D01*
G02X195488Y251830I0J500D01*
G01Y254830D01*
G02X195988Y255330I500J0D01*
G01X187914Y251255D02*
G03I-394J0D01*
G01X192638Y250467D02*
X186339D01*
Y255192D01*
X192638D01*
Y250467D01*
G01X205510Y264681D02*
X202410D01*
Y265639D01*
X202565Y265946D01*
X202772Y266138D01*
X203185Y266214D01*
X203599Y266138D01*
X203857Y265908D01*
X204012Y265639D01*
Y264681D01*
G01Y265639D02*
X205510Y266214D01*
G01Y268548D02*
X202410D01*
X203030Y268088D01*
G01X205510D02*
Y269008D01*
G01X204219Y270919D02*
X203857Y271188D01*
X203650Y271418D01*
X203547Y271724D01*
X203650Y271993D01*
X203857Y272184D01*
X204167Y272338D01*
X204529Y272376D01*
X204839Y272338D01*
X205149Y272184D01*
X205407Y271954D01*
X205510Y271686D01*
X205407Y271379D01*
X205097Y271111D01*
X204632Y270958D01*
X204115Y270919D01*
X203444Y270996D01*
X203082Y271111D01*
X202720Y271303D01*
X202462Y271571D01*
X202410Y271839D01*
X202514Y272108D01*
X202772Y272299D01*
G01X205510Y274748D02*
X202410D01*
X203030Y274288D01*
G01X205510D02*
Y275208D01*
G01X211010Y264298D02*
X208010D01*
Y270298D01*
X211010D01*
Y264298D01*
G01X195510Y264681D02*
X192410D01*
Y265639D01*
X192565Y265946D01*
X192772Y266138D01*
X193185Y266214D01*
X193599Y266138D01*
X193857Y265908D01*
X194012Y265639D01*
Y264681D01*
G01Y265639D02*
X195510Y266214D01*
G01Y268548D02*
X192410D01*
X193030Y268088D01*
G01X195510D02*
Y269008D01*
G01X194219Y270919D02*
X193857Y271188D01*
X193650Y271418D01*
X193547Y271724D01*
X193650Y271993D01*
X193857Y272184D01*
X194167Y272338D01*
X194529Y272376D01*
X194839Y272338D01*
X195149Y272184D01*
X195407Y271954D01*
X195510Y271686D01*
X195407Y271379D01*
X195097Y271111D01*
X194632Y270958D01*
X194115Y270919D01*
X193444Y270996D01*
X193082Y271111D01*
X192720Y271303D01*
X192462Y271571D01*
X192410Y271839D01*
X192514Y272108D01*
X192772Y272299D01*
G01X192927Y274019D02*
X192617Y274249D01*
X192462Y274518D01*
X192410Y274824D01*
X192514Y275208D01*
X192772Y275476D01*
X193082Y275553D01*
X193392Y275514D01*
X193650Y275361D01*
X194167Y274594D01*
X194529Y274249D01*
X195045Y274019D01*
X195510Y273943D01*
Y275553D01*
G01X201010Y264298D02*
X198010D01*
Y270298D01*
X201010D01*
Y264298D01*
G01X185510Y264681D02*
X182410D01*
Y265639D01*
X182565Y265946D01*
X182772Y266138D01*
X183185Y266214D01*
X183599Y266138D01*
X183857Y265908D01*
X184012Y265639D01*
Y264681D01*
G01Y265639D02*
X185510Y266214D01*
G01Y268548D02*
X182410D01*
X183030Y268088D01*
G01X185510D02*
Y269008D01*
G01X184219Y270919D02*
X183857Y271188D01*
X183650Y271418D01*
X183547Y271724D01*
X183650Y271993D01*
X183857Y272184D01*
X184167Y272338D01*
X184529Y272376D01*
X184839Y272338D01*
X185149Y272184D01*
X185407Y271954D01*
X185510Y271686D01*
X185407Y271379D01*
X185097Y271111D01*
X184632Y270958D01*
X184115Y270919D01*
X183444Y270996D01*
X183082Y271111D01*
X182720Y271303D01*
X182462Y271571D01*
X182410Y271839D01*
X182514Y272108D01*
X182772Y272299D01*
G01X184890Y273904D02*
X185252Y274134D01*
X185459Y274441D01*
X185510Y274786D01*
X185459Y275093D01*
X185200Y275399D01*
X184890Y275591D01*
X184580Y275629D01*
X184219Y275553D01*
X183960Y275284D01*
X183857Y275016D01*
Y274671D01*
G01Y275016D02*
X183702Y275246D01*
X183444Y275438D01*
X183134Y275514D01*
X182824Y275438D01*
X182565Y275246D01*
X182410Y274901D01*
X182462Y274556D01*
X182669Y274211D01*
G01X191010Y264298D02*
X188010D01*
Y270298D01*
X191010D01*
Y264298D01*
G01X181010D02*
X178010D01*
Y270298D01*
X181010D01*
Y264298D01*
G54D11*
G01X1273480Y-783209D02*
X1273300Y-783189D01*
G01X1275250Y-783209D02*
X1273480D01*
G01X1273440Y-779898D02*
X1273240Y-779919D01*
G01X1275250Y-779898D02*
X1273440D01*
G01X1267050Y-780998D02*
X1267130Y-781148D01*
G01X1267000Y-780489D02*
X1266980Y-780659D01*
G01X1267000Y-780828D02*
X1267050Y-780998D01*
G01X1266980Y-780659D02*
X1267000Y-780828D01*
G01X1267060Y-780328D02*
X1267000Y-780489D01*
G01X1267150Y-780189D02*
X1267060Y-780328D01*
G01X1269430Y-783209D02*
X1266980D01*
G01X1267700Y-781528D02*
X1267870Y-781548D01*
G01X1267530Y-781478D02*
X1267700Y-781528D01*
G01X1267380Y-781398D02*
X1267530Y-781478D01*
G01X1267240Y-781289D02*
X1267380Y-781398D01*
G01X1267130Y-781148D02*
X1267240Y-781289D01*
G01X1267270Y-780069D02*
X1267150Y-780189D01*
G01X1267410Y-779978D02*
X1267270Y-780069D01*
G01X1267570Y-779919D02*
X1267410Y-779978D01*
G01X1267740Y-779898D02*
X1267570Y-779919D01*
G01X1270290Y-779898D02*
X1267740D01*
G01X1267870Y-781559D02*
X1269490D01*
G01X1269600Y-783189D02*
X1269430Y-783209D01*
G01X1269490Y-781548D02*
X1269650Y-781569D01*
G01X1269760Y-783139D02*
X1269600Y-783189D01*
G01X1269910Y-783069D02*
X1269760Y-783139D01*
G01X1270040Y-782959D02*
X1269910Y-783069D01*
G01X1270150Y-782828D02*
X1270040Y-782959D01*
G01X1270220Y-782678D02*
X1270150Y-782828D01*
G01X1270270Y-782519D02*
X1270220Y-782678D01*
G01X1270290Y-782348D02*
X1270270Y-782519D01*
G01Y-782189D02*
X1270290Y-782348D01*
G01X1270230Y-782039D02*
X1270270Y-782189D01*
G01X1270160Y-781909D02*
X1270230Y-782039D01*
G01X1270060Y-781778D02*
X1270160Y-781909D01*
G01X1269930Y-781678D02*
X1270060Y-781778D01*
G01X1269800Y-781609D02*
X1269930Y-781678D01*
G01X1269650Y-781569D02*
X1269800Y-781609D01*
G01X1272440Y-782328D02*
X1272420Y-782148D01*
G01X1272480Y-782509D02*
X1272440Y-782328D01*
G01X1272560Y-782678D02*
X1272480Y-782509D01*
G01X1272670Y-782828D02*
X1272560Y-782678D01*
G01X1272800Y-782959D02*
X1272670Y-782828D01*
G01X1272950Y-783069D02*
X1272800Y-782959D01*
G01X1273120Y-783148D02*
X1272950Y-783069D01*
G01X1272410Y-780919D02*
Y-781559D01*
G01D02*
X1275250D01*
G01X1272410Y-782148D02*
Y-781559D01*
G01X1272440Y-780719D02*
X1272420Y-780919D01*
G01X1272500Y-780528D02*
X1272440Y-780719D01*
G01X1272590Y-780348D02*
X1272500Y-780528D01*
G01X1272720Y-780198D02*
X1272590Y-780348D01*
G01X1272870Y-780069D02*
X1272720Y-780198D01*
G01X1273050Y-779978D02*
X1272870Y-780069D01*
G01X1273300Y-783189D02*
X1273120Y-783148D01*
G01X1273240Y-779919D02*
X1273050Y-779978D01*
G01X1276860Y-775409D02*
X1272410Y-770219D01*
G01X1277610Y-779898D02*
Y-783209D01*
G01X1278160Y-779898D02*
X1277610D01*
G01X1279700Y-783209D02*
X1278160Y-779898D01*
G01X1281110D02*
X1279700Y-783209D01*
G01X1281630Y-779898D02*
X1281110D01*
G01X1281630Y-783209D02*
Y-779898D01*
G01X1284220D02*
Y-783209D01*
G01X1286840Y-782309D02*
X1286820Y-782119D01*
G01X1286890Y-782489D02*
X1286840Y-782309D01*
G01X1286970Y-782659D02*
X1286890Y-782489D01*
G01X1287080Y-782819D02*
X1286970Y-782659D01*
G01X1287210Y-782948D02*
X1287080Y-782819D01*
G01X1287360Y-783059D02*
X1287210Y-782948D01*
G01X1287540Y-783139D02*
X1287360Y-783059D01*
G01X1286820Y-782119D02*
Y-780989D01*
G01X1287000Y-780378D02*
X1287140Y-780219D01*
G01X1286900Y-780569D02*
X1287000Y-780378D01*
G01X1286840Y-780778D02*
X1286900Y-780569D01*
G01X1286820Y-780989D02*
X1286840Y-780778D01*
G01X1287300Y-780078D02*
X1287490Y-779978D01*
G01X1287140Y-780219D02*
X1287300Y-780078D01*
G01X1287490Y-779978D02*
X1287700Y-779919D01*
G01X1287720Y-783189D02*
X1287540Y-783139D01*
G01X1287910Y-783209D02*
X1287720Y-783189D01*
G01X1289660Y-783209D02*
X1287910D01*
G01Y-779898D02*
X1289660D01*
G01X1287700Y-779919D02*
X1287910Y-779898D01*
G01X1276070Y-770528D02*
X1280520Y-775409D01*
G01X1266980Y-762659D02*
X1269220Y-762328D01*
G01X1266980Y-775409D02*
Y-762659D01*
G01Y-767319D02*
X1270290D01*
G01Y-766628D02*
X1266980D01*
G01X1270290Y-765239D02*
X1266980D01*
G01Y-765928D02*
X1270290D01*
G01X1266980Y-764539D02*
X1270290D01*
G01X1270500Y-763848D02*
X1266980D01*
G01Y-763159D02*
X1278600D01*
G01X1268320Y-762459D02*
X1276890D01*
G01X1269220Y-762328D02*
X1271470Y-762189D01*
G01X1270290Y-764378D02*
Y-775409D01*
G01X1270310Y-764178D02*
X1270290Y-764378D01*
G01X1270390Y-763989D02*
X1270310Y-764178D01*
G01X1270510Y-763828D02*
X1270390Y-763989D01*
G01X1270680Y-763709D02*
X1270510Y-763828D01*
G01X1270860Y-763628D02*
X1270680Y-763709D01*
G01X1271060Y-763598D02*
X1270860Y-763628D01*
G01X1273910Y-763598D02*
X1271060D01*
G01X1271470Y-762189D02*
X1274500D01*
G01X1274600Y-763628D02*
X1273910Y-763598D01*
G01X1275280Y-763789D02*
X1274600Y-763628D01*
G01X1274500Y-762189D02*
X1276170Y-762309D01*
G01X1279270Y-763848D02*
X1275410D01*
G01X1275920Y-764078D02*
X1275280Y-763789D01*
G01X1276310Y-767969D02*
X1276500Y-767569D01*
G01X1276330Y-764539D02*
X1279640D01*
G01X1276230Y-764389D02*
X1275920Y-764078D01*
G01X1276460Y-764759D02*
X1276230Y-764389D01*
G01X1276170Y-762309D02*
X1277810Y-762659D01*
G01X1276570Y-767319D02*
X1279730D01*
G01X1276620Y-767148D02*
X1276670Y-766709D01*
G01X1276500Y-767569D02*
X1276620Y-767148D01*
G01X1279740Y-766628D02*
X1276670D01*
G01Y-766709D02*
Y-765609D01*
G01Y-765928D02*
X1279740D01*
G01Y-765239D02*
X1276620D01*
G01X1276610Y-765169D02*
X1276460Y-764759D01*
G01X1276670Y-765609D02*
X1276610Y-765169D01*
G01X1277810Y-762659D02*
X1278360Y-762959D01*
G01X1278850Y-763359D02*
X1279260Y-763839D01*
G01X1278360Y-762959D02*
X1278850Y-763359D01*
G01X1279740Y-767259D02*
X1279700Y-767739D01*
G01X1279740Y-765259D02*
Y-767259D01*
G01X1279720Y-764878D02*
X1279740Y-765259D01*
G01X1279630Y-764498D02*
X1279720Y-764878D01*
G01X1279480Y-764148D02*
X1279630Y-764498D01*
G01X1279260Y-763839D02*
X1279480Y-764148D01*
G01X1282810Y-765569D02*
Y-768328D01*
G01Y-767319D02*
X1285880D01*
G01Y-766628D02*
X1282810D01*
G01Y-765928D02*
X1285880D01*
G01X1285990Y-765239D02*
X1282840D01*
G01X1282850Y-765089D02*
X1282810Y-765569D01*
G01X1283030Y-764539D02*
X1286410D01*
G01X1283210Y-764209D02*
X1282980Y-764628D01*
G01D02*
X1282850Y-765089D01*
G01X1283500Y-763828D02*
X1283210Y-764209D01*
G01X1287340Y-763848D02*
X1283490D01*
G01X1283870Y-763519D02*
X1283500Y-763828D01*
G01X1284500Y-763009D02*
X1283870Y-763519D01*
G01X1284320Y-763159D02*
X1294200D01*
G01X1285210Y-762619D02*
X1284500Y-763009D01*
G01X1285970Y-762359D02*
X1285210Y-762619D01*
G01X1292630Y-762459D02*
X1285680D01*
G01X1285880Y-768328D02*
Y-765889D01*
G01X1286040Y-765089D02*
X1286240Y-764739D01*
G01X1285920Y-765478D02*
X1286040Y-765089D01*
G01X1285880Y-765889D02*
X1285920Y-765478D01*
G01X1286240Y-764739D02*
X1286510Y-764428D01*
G01D02*
X1286940Y-764059D01*
G01X1286770Y-762219D02*
X1285970Y-762359D01*
G01X1287440Y-763789D02*
X1287990Y-763639D01*
G01X1286940Y-764059D02*
X1287440Y-763789D01*
G01X1287570Y-762189D02*
X1286770Y-762219D01*
G01X1287990Y-763639D02*
X1288560Y-763598D01*
G01X1290680Y-762189D02*
X1287570D01*
G01X1288560Y-763598D02*
X1290010D01*
G01X1290550Y-763628D02*
X1291070Y-763759D01*
G01X1290010Y-763598D02*
X1290550Y-763628D01*
G01X1291540Y-762219D02*
X1290680Y-762189D01*
G01X1295040Y-763848D02*
X1291260D01*
G01X1291550Y-763989D02*
X1291980Y-764309D01*
G01X1291070Y-763759D02*
X1291550Y-763989D01*
G01X1292390Y-762378D02*
X1291540Y-762219D01*
G01X1270290Y-775409D02*
X1266980D01*
G01X1273500Y-771478D02*
X1276940D01*
G01X1270290Y-774959D02*
X1266980D01*
G01Y-774259D02*
X1270290D01*
G01X1266980Y-772869D02*
X1270290D01*
G01Y-773569D02*
X1266980D01*
G01X1270290Y-772178D02*
X1266980D01*
G01Y-771478D02*
X1270290D01*
G01Y-770789D02*
X1266980D01*
G01X1270290Y-769398D02*
X1266980D01*
G01Y-770098D02*
X1270290D01*
G01X1266980Y-768709D02*
X1270290D01*
G01Y-768009D02*
X1266980D01*
G01X1276310Y-770789D02*
X1272900D01*
G01X1272410Y-770098D02*
X1276070D01*
G01X1278550Y-769398D02*
X1272410D01*
G01Y-770219D02*
Y-768798D01*
G01D02*
X1274190D01*
G01X1280520Y-775409D02*
X1276860D01*
G01X1285840Y-775178D02*
X1286860Y-775348D01*
G01D02*
X1287890Y-775409D01*
G01D02*
X1290640D01*
G01D02*
X1291550Y-775378D01*
G01D02*
X1292450Y-775239D01*
G01X1277580Y-772178D02*
X1274090D01*
G01X1274190Y-768798D02*
X1274770Y-768759D01*
G01X1278840Y-773569D02*
X1275280D01*
G01X1274690Y-772869D02*
X1278210D01*
G01X1274960Y-768709D02*
X1279300D01*
G01X1275330Y-768609D02*
X1275850Y-768339D01*
G01X1274770Y-768759D02*
X1275330Y-768609D01*
G01X1275880Y-774259D02*
X1279470D01*
G01X1276070Y-770019D02*
Y-770528D01*
G01X1276770Y-770009D02*
X1276070Y-770019D01*
G01X1279630Y-768009D02*
X1276260D01*
G01X1275850Y-768339D02*
X1276310Y-767969D01*
G01X1280110Y-774959D02*
X1276470D01*
G01X1277450Y-769889D02*
X1276770Y-770009D01*
G01X1278110Y-769648D02*
X1277450Y-769889D01*
G01X1278710Y-769309D02*
X1278110Y-769648D01*
G01X1279070Y-768998D02*
X1278710Y-769309D01*
G01X1279360Y-768619D02*
X1279070Y-768998D01*
G01X1279580Y-768198D02*
X1279360Y-768619D01*
G01X1279700Y-767739D02*
X1279580Y-768198D01*
G01X1282880Y-772869D02*
X1286300D01*
G01X1283210Y-773648D02*
X1283520Y-774019D01*
G01X1282980Y-773219D02*
X1283210Y-773648D01*
G01X1282840Y-772748D02*
X1282980Y-773219D01*
G01X1285970Y-772178D02*
X1282810D01*
G01Y-772259D02*
X1282840Y-772748D01*
G01X1282810Y-768328D02*
Y-772259D01*
G01Y-771478D02*
X1285880D01*
G01Y-770789D02*
X1282810D01*
G01Y-770098D02*
X1285880D01*
G01Y-769398D02*
X1282810D01*
G01Y-768709D02*
X1285880D01*
G01Y-768009D02*
X1282810D01*
G01X1285880Y-768328D02*
X1282810D01*
G01D02*
X1285880D01*
G01X1283840Y-774259D02*
X1294530D01*
G01X1283910Y-774309D02*
X1284510Y-774689D01*
G01X1283520Y-774019D02*
X1283910Y-774309D01*
G01X1287040Y-773569D02*
X1283160D01*
G01X1284510Y-774689D02*
X1285160Y-774978D01*
G01X1285100Y-774959D02*
X1293370D01*
G01X1285160Y-774978D02*
X1285840Y-775178D01*
G01X1286320Y-772898D02*
X1286060Y-772478D01*
G01X1286670Y-773248D02*
X1286320Y-772898D01*
G01X1287030Y-773569D02*
X1286670Y-773248D01*
G01X1285910Y-772009D02*
X1285880Y-771519D01*
G01X1286060Y-772478D02*
X1285910Y-772009D01*
G01X1285880Y-771519D02*
Y-768328D01*
G01X1287920Y-773948D02*
X1287450Y-773798D01*
G01D02*
X1287030Y-773569D01*
G01X1288400Y-773998D02*
X1287920Y-773948D01*
G01X1290010Y-773998D02*
X1288400D01*
G01X1290610Y-773959D02*
X1290010Y-773998D01*
G01X1291180Y-773798D02*
X1290610Y-773959D01*
G01X1291710Y-773539D02*
X1291180Y-773798D01*
G01X1292180Y-773169D02*
X1291710Y-773539D01*
G01X1292420Y-783039D02*
X1292630Y-783128D01*
G01X1292240Y-782909D02*
X1292420Y-783039D01*
G01X1292080Y-782748D02*
X1292240Y-782909D01*
G01X1291950Y-782559D02*
X1292080Y-782748D01*
G01X1291860Y-782359D02*
X1291950Y-782559D01*
G01X1291800Y-782139D02*
X1291860Y-782359D01*
G01X1291780Y-781919D02*
X1291800Y-782139D01*
G01X1291780Y-781169D02*
Y-781919D01*
G01X1291800Y-780948D02*
X1291780Y-781169D01*
G01X1291860Y-780739D02*
X1291800Y-780948D01*
G01X1291950Y-780528D02*
X1291860Y-780739D01*
G01X1292080Y-780348D02*
X1291950Y-780528D01*
G01X1292230Y-780198D02*
X1292080Y-780348D01*
G01X1292420Y-780069D02*
X1292230Y-780198D01*
G01X1292620Y-779978D02*
X1292420Y-780069D01*
G01X1292830Y-779919D02*
X1292620Y-779978D01*
G01X1293070Y-783209D02*
X1293770D01*
G01X1292850Y-783189D02*
X1293070Y-783209D01*
G01X1292630Y-783128D02*
X1292850Y-783189D01*
G01X1293050Y-779898D02*
X1292830Y-779919D01*
G01X1293790Y-779898D02*
X1293050D01*
G01X1294370Y-783069D02*
X1294550Y-782959D01*
G01X1294180Y-783148D02*
X1294370Y-783069D01*
G01X1293980Y-783189D02*
X1294180Y-783148D01*
G01X1293770Y-783209D02*
X1293980Y-783189D01*
G01X1294020Y-779919D02*
X1293790Y-779898D01*
G01X1294230Y-779978D02*
X1294020Y-779919D01*
G01X1294440Y-780069D02*
X1294230Y-779978D01*
G01X1295030Y-782298D02*
X1295070Y-782098D01*
G01X1294950Y-782489D02*
X1295030Y-782298D01*
G01X1294840Y-782669D02*
X1294950Y-782489D01*
G01X1294700Y-782819D02*
X1294840Y-782669D01*
G01X1294550Y-782959D02*
X1294700Y-782819D01*
G01X1295070Y-782098D02*
X1295090Y-781889D01*
G01D02*
Y-781198D01*
G01X1294920Y-780548D02*
X1294790Y-780359D01*
G01X1295010Y-780759D02*
X1294920Y-780548D01*
G01X1295070Y-780969D02*
X1295010Y-780759D01*
G01X1295090Y-781198D02*
X1295070Y-780969D01*
G01X1294630Y-780198D02*
X1294440Y-780069D01*
G01X1294790Y-780359D02*
X1294630Y-780198D01*
G01X1297450Y-779898D02*
Y-783209D01*
G01X1297930Y-779898D02*
X1297450D01*
G01X1300210Y-783209D02*
X1297930Y-779898D01*
G01X1292230Y-764539D02*
X1295510D01*
G01X1292550Y-764978D02*
X1292690Y-765398D01*
G01X1292310Y-764609D02*
X1292550Y-764978D01*
G01X1291980Y-764309D02*
X1292310Y-764609D01*
G01X1293200Y-762659D02*
X1292390Y-762378D01*
G01X1292730Y-765848D02*
Y-771519D01*
G01Y-767319D02*
X1295800D01*
G01Y-766628D02*
X1292730D01*
G01X1295750Y-765239D02*
X1292640D01*
G01X1292730Y-765928D02*
X1295800D01*
G01X1292690Y-765398D02*
X1292730Y-765848D01*
G01X1293830Y-762928D02*
X1293200Y-762659D01*
G01X1294410Y-763278D02*
X1293830Y-762928D01*
G01X1294930Y-763719D02*
X1294410Y-763278D01*
G01X1295310Y-764169D02*
X1294930Y-763719D01*
G01X1295800Y-771989D02*
Y-765848D01*
G01X1295750Y-765259D02*
X1295590Y-764689D01*
G01X1295800Y-765848D02*
X1295750Y-765259D01*
G01X1295590Y-764689D02*
X1295310Y-764169D01*
G01X1295240Y-773569D02*
X1291650D01*
G01X1292450Y-775239D02*
X1293320Y-774978D01*
G01X1292350Y-772869D02*
X1295630D01*
G01X1292480Y-772659D02*
X1292180Y-773169D01*
G01X1292670Y-772098D02*
X1292480Y-772659D01*
G01X1293320Y-774978D02*
X1293900Y-774709D01*
G01X1295780Y-772178D02*
X1292640D01*
G01X1292730Y-771519D02*
X1292670Y-772098D01*
G01X1292730Y-771478D02*
X1295800D01*
G01Y-770789D02*
X1292730D01*
G01X1295800Y-769398D02*
X1292730D01*
G01Y-770098D02*
X1295800D01*
G01X1292730Y-768709D02*
X1295800D01*
G01Y-768009D02*
X1292730D01*
G01X1293900Y-774709D02*
X1294430Y-774359D01*
G01X1294890Y-773919D02*
X1295280Y-773528D01*
G01X1294430Y-774359D02*
X1294890Y-773919D01*
G01X1295280Y-773528D02*
X1295570Y-773059D01*
G01D02*
X1295750Y-772539D01*
G01D02*
X1295800Y-771989D01*
G01X1300760Y-783209D02*
X1300210D01*
G01X1300760Y-779898D02*
Y-783209D01*
G01X1303120D02*
Y-779898D01*
G01X1304880Y-783209D02*
X1303120D01*
G01Y-779898D02*
X1304900D01*
G01X1305080Y-783189D02*
X1304880Y-783209D01*
G01X1305280Y-783148D02*
X1305080Y-783189D01*
G01X1305470Y-783069D02*
X1305280Y-783148D01*
G01X1305650Y-782959D02*
X1305470Y-783069D01*
G01X1305340Y-779978D02*
X1305550Y-780069D01*
G01X1305120Y-779919D02*
X1305340Y-779978D01*
G01X1304900Y-779898D02*
X1305120Y-779919D01*
G01X1305810Y-782828D02*
X1305650Y-782959D01*
G01X1305940Y-782669D02*
X1305810Y-782828D01*
G01X1306050Y-782489D02*
X1305940Y-782669D01*
G01X1306130Y-782298D02*
X1306050Y-782489D01*
G01X1306170Y-782098D02*
X1306130Y-782298D01*
G01X1306190Y-781898D02*
X1306170Y-782098D01*
G01X1306190Y-781189D02*
Y-781898D01*
G01X1306170Y-780969D02*
X1306190Y-781189D01*
G01X1306110Y-780748D02*
X1306170Y-780969D01*
G01X1306020Y-780539D02*
X1306110Y-780748D01*
G01X1305890Y-780359D02*
X1306020Y-780539D01*
G01X1305730Y-780198D02*
X1305890Y-780359D01*
G01X1305550Y-780069D02*
X1305730Y-780198D01*
G01X1308570Y-782189D02*
X1308550Y-781969D01*
G01X1308620Y-782389D02*
X1308570Y-782189D01*
G01X1308720Y-782589D02*
X1308620Y-782389D01*
G01X1308840Y-782769D02*
X1308720Y-782589D01*
G01X1308990Y-782919D02*
X1308840Y-782769D01*
G01X1308560Y-781969D02*
Y-779898D01*
G01X1309170Y-783039D02*
X1308990Y-782919D01*
G01X1309370Y-783139D02*
X1309170Y-783039D01*
G01X1309570Y-783189D02*
X1309370Y-783139D01*
G01X1309790Y-783209D02*
X1309570Y-783189D01*
G01X1310310Y-783209D02*
X1309790D01*
G01X1310540Y-783189D02*
X1310310Y-783209D01*
G01X1310760Y-783128D02*
X1310540Y-783189D01*
G01X1310970Y-783028D02*
X1310760Y-783128D01*
G01X1311150Y-782898D02*
X1310970Y-783028D01*
G01X1311310Y-782739D02*
X1311150Y-782898D01*
G01X1311440Y-782548D02*
X1311310Y-782739D01*
G01X1311540Y-782348D02*
X1311440Y-782548D01*
G01X1311600Y-782128D02*
X1311540Y-782348D01*
G01X1311620Y-781898D02*
X1311600Y-782128D01*
G01X1311630Y-779898D02*
Y-781898D01*
G01X1313770Y-782328D02*
X1313750Y-782139D01*
G01X1313810Y-782509D02*
X1313770Y-782328D01*
G01X1313890Y-782669D02*
X1313810Y-782509D01*
G01X1314000Y-782828D02*
X1313890Y-782669D01*
G01X1314130Y-782959D02*
X1314000Y-782828D01*
G01X1313750Y-782139D02*
Y-780939D01*
G01X1313770Y-780759D02*
X1313810Y-780578D01*
G01X1313750Y-780939D02*
X1313770Y-780759D01*
G01X1313990Y-780269D02*
X1314120Y-780139D01*
G01X1313890Y-780419D02*
X1313990Y-780269D01*
G01X1313810Y-780578D02*
X1313890Y-780419D01*
G01X1314280Y-783069D02*
X1314130Y-782959D01*
G01X1314450Y-783148D02*
X1314280Y-783069D01*
G01X1314630Y-783189D02*
X1314450Y-783148D01*
G01X1314820Y-783209D02*
X1314630Y-783189D01*
G01X1314610Y-779919D02*
X1314790Y-779898D01*
G01X1314430Y-779959D02*
X1314610Y-779919D01*
G01X1314270Y-780039D02*
X1314430Y-779959D01*
G01X1314120Y-780139D02*
X1314270Y-780039D01*
G01X1316590Y-783209D02*
X1314820D01*
G01X1314790Y-779898D02*
X1316590D01*
G01X1299110Y-762659D02*
Y-775409D01*
G01Y-767319D02*
X1302470D01*
G01X1302410Y-766628D02*
X1299110D01*
G01Y-765928D02*
X1302410D01*
G01Y-765239D02*
X1299110D01*
G01Y-764539D02*
X1302410D01*
G01Y-763848D02*
X1299110D01*
G01X1302410Y-762659D02*
X1299110D01*
G01Y-763159D02*
X1302410D01*
G01Y-767048D02*
Y-762659D01*
G01X1302440Y-767259D02*
X1302410Y-767048D01*
G01X1302520Y-767448D02*
X1302440Y-767259D01*
G01X1302650Y-767619D02*
X1302520Y-767448D01*
G01X1302820Y-767748D02*
X1302650Y-767619D01*
G01X1309270Y-767628D02*
X1309110Y-767748D01*
G01X1309390Y-767459D02*
X1309270Y-767628D01*
G01X1309450Y-767319D02*
X1312810D01*
G01X1309470Y-767269D02*
X1309390Y-767459D01*
G01X1309500Y-767069D02*
X1309470Y-767269D01*
G01X1309500Y-762659D02*
Y-767069D01*
G01X1312810Y-766628D02*
X1309500D01*
G01X1312810Y-765239D02*
X1309500D01*
G01Y-765928D02*
X1312810D01*
G01X1309500Y-764539D02*
X1312810D01*
G01Y-763848D02*
X1309500D01*
G01Y-763159D02*
X1312810D01*
G01Y-762659D02*
X1309500D01*
G01X1312810Y-775409D02*
Y-762659D01*
G01X1316350D02*
Y-775409D01*
G01Y-767319D02*
X1319420D01*
G01Y-766628D02*
X1316350D01*
G01X1319420Y-765239D02*
X1316350D01*
G01Y-765928D02*
X1319420D01*
G01X1316350Y-764539D02*
X1319440D01*
G01X1320170Y-763848D02*
X1316350D01*
G01X1319290Y-762278D02*
X1316350Y-762659D01*
G01Y-763159D02*
X1330630D01*
G01X1299110Y-775409D02*
X1302410D01*
G01X1309500D02*
X1312810D01*
G01X1316350D02*
X1319420D01*
G01X1299110Y-774959D02*
X1302410D01*
G01Y-774259D02*
X1299110D01*
G01Y-773569D02*
X1302410D01*
G01Y-772869D02*
X1299110D01*
G01Y-772178D02*
X1302410D01*
G01Y-771478D02*
X1299110D01*
G01Y-770789D02*
X1302410D01*
G01X1299110Y-769398D02*
X1312810D01*
G01X1302440Y-770098D02*
X1299110D01*
G01X1312810Y-768709D02*
X1299110D01*
G01Y-768009D02*
X1312810D01*
G01X1302410Y-775409D02*
Y-770289D01*
G01D02*
X1302440Y-770089D01*
G01X1302640Y-769739D02*
X1302800Y-769609D01*
G01X1302520Y-769898D02*
X1302640Y-769739D01*
G01X1302440Y-770089D02*
X1302520Y-769898D01*
G01X1302800Y-769609D02*
X1302990Y-769528D01*
G01X1303010Y-767828D02*
X1302820Y-767748D01*
G01X1303190Y-769509D02*
X1308670D01*
G01X1302990Y-769528D02*
X1303190Y-769509D01*
G01X1303220Y-767848D02*
X1303010Y-767828D01*
G01X1308720Y-767848D02*
X1303220D01*
G01X1308670Y-769509D02*
X1308880Y-769539D01*
G01X1308920Y-767828D02*
X1308720Y-767848D01*
G01X1309500Y-770339D02*
Y-775409D01*
G01Y-774959D02*
X1312810D01*
G01Y-774259D02*
X1309500D01*
G01X1312810Y-772869D02*
X1309500D01*
G01Y-773569D02*
X1312810D01*
G01X1309500Y-772178D02*
X1312810D01*
G01Y-771478D02*
X1309500D01*
G01Y-770789D02*
X1312810D01*
G01X1309470Y-770119D02*
X1309500Y-770339D01*
G01X1312810Y-770098D02*
X1309460D01*
G01X1309390Y-769919D02*
X1309470Y-770119D01*
G01X1309260Y-769748D02*
X1309390Y-769919D01*
G01X1309090Y-769619D02*
X1309260Y-769748D01*
G01X1308880Y-769539D02*
X1309090Y-769619D01*
G01X1309110Y-767748D02*
X1308920Y-767828D01*
G01X1319420Y-774959D02*
X1316350D01*
G01Y-774259D02*
X1319420D01*
G01X1316350Y-772869D02*
X1319420D01*
G01Y-773569D02*
X1316350D01*
G01X1319420Y-772178D02*
X1316350D01*
G01Y-771478D02*
X1319420D01*
G01Y-770789D02*
X1316350D01*
G01X1319420Y-769398D02*
X1316350D01*
G01Y-770098D02*
X1319420D01*
G01X1316350Y-768709D02*
X1319420D01*
G01Y-768009D02*
X1316350D01*
G01X1324160Y-783069D02*
X1324350Y-783148D01*
G01X1323980Y-782959D02*
X1324160Y-783069D01*
G01X1323820Y-782828D02*
X1323980Y-782959D01*
G01X1323690Y-782669D02*
X1323820Y-782828D01*
G01X1323890Y-780198D02*
X1323730Y-780359D01*
G01X1324080Y-780069D02*
X1323890Y-780198D01*
G01X1324280Y-779978D02*
X1324080Y-780069D01*
G01X1318480Y-779898D02*
X1319890D01*
G01D02*
Y-783209D01*
G01X1321310Y-779898D02*
X1319890D01*
G01X1323580Y-782489D02*
X1323690Y-782669D01*
G01X1323500Y-782298D02*
X1323580Y-782489D01*
G01X1323460Y-782098D02*
X1323500Y-782298D01*
G01X1323440Y-781898D02*
X1323460Y-782098D01*
G01X1323440Y-781189D02*
Y-781898D01*
G01X1323450Y-780969D02*
X1323430Y-781189D01*
G01X1323510Y-780748D02*
X1323450Y-780969D01*
G01X1323600Y-780539D02*
X1323510Y-780748D01*
G01X1323730Y-780359D02*
X1323600Y-780539D01*
G01X1324750Y-783209D02*
X1325440D01*
G01X1324550Y-783189D02*
X1324750Y-783209D01*
G01X1324350Y-783148D02*
X1324550Y-783189D01*
G01X1324500Y-779919D02*
X1324280Y-779978D01*
G01X1324720Y-779898D02*
X1324500Y-779919D01*
G01X1325460Y-779898D02*
X1324720D01*
G01X1325880Y-783128D02*
X1326090Y-783039D01*
G01X1325670Y-783189D02*
X1325880Y-783128D01*
G01X1325440Y-783209D02*
X1325670Y-783189D01*
G01X1325680Y-779919D02*
X1325460Y-779898D01*
G01X1325900Y-779978D02*
X1325680Y-779919D01*
G01X1326100Y-780069D02*
X1325900Y-779978D01*
G01X1326660Y-782348D02*
X1326720Y-782139D01*
G01X1326570Y-782559D02*
X1326660Y-782348D01*
G01X1326440Y-782748D02*
X1326570Y-782559D01*
G01X1326280Y-782909D02*
X1326440Y-782748D01*
G01X1326090Y-783039D02*
X1326280Y-782909D01*
G01Y-780198D02*
X1326100Y-780069D01*
G01X1326440Y-780359D02*
X1326280Y-780198D01*
G01X1326570Y-780539D02*
X1326440Y-780359D01*
G01X1326660Y-780739D02*
X1326570Y-780539D01*
G01X1326720Y-780959D02*
X1326660Y-780739D01*
G01X1326720Y-782139D02*
X1326740Y-781909D01*
G01D02*
Y-781178D01*
G01D02*
X1326720Y-780959D01*
G01X1328870Y-781559D02*
Y-783209D01*
G01Y-779898D02*
Y-781559D01*
G01X1330800D02*
X1328870D01*
G01Y-779898D02*
X1331140D01*
G01X1331700Y-783209D02*
X1330800Y-781559D01*
G01X1331080D02*
X1330800D01*
G01X1331250Y-781539D02*
X1331080Y-781559D01*
G01X1331410Y-781489D02*
X1331250Y-781539D01*
G01X1331560Y-781419D02*
X1331410Y-781489D01*
G01X1331690Y-781309D02*
X1331560Y-781419D01*
G01X1331800Y-781178D02*
X1331690Y-781309D01*
G01X1331870Y-781028D02*
X1331800Y-781178D01*
G01X1331920Y-780869D02*
X1331870Y-781028D01*
G01X1331810Y-780259D02*
X1331880Y-780389D01*
G01X1331710Y-780128D02*
X1331810Y-780259D01*
G01X1331580Y-780028D02*
X1331710Y-780128D01*
G01X1331450Y-779959D02*
X1331580Y-780028D01*
G01X1331300Y-779919D02*
X1331450Y-779959D01*
G01X1331140Y-779898D02*
X1331300Y-779919D01*
G01X1331940Y-780698D02*
X1331920Y-780869D01*
G01Y-780539D02*
X1331940Y-780698D01*
G01X1331880Y-780389D02*
X1331920Y-780539D01*
G01X1317900Y-762459D02*
X1329050D01*
G01X1319420Y-775409D02*
Y-764669D01*
G01X1319530Y-764248D02*
X1319660Y-764078D01*
G01X1319450Y-764448D02*
X1319530Y-764248D01*
G01X1319420Y-764669D02*
X1319450Y-764448D01*
G01X1319840Y-763948D02*
X1320030Y-763869D01*
G01X1319660Y-764078D02*
X1319840Y-763948D01*
G01X1322260Y-762189D02*
X1319290Y-762278D01*
G01X1320250Y-763839D02*
X1321690D01*
G01X1320030Y-763869D02*
X1320250Y-763839D01*
G01X1326530Y-763848D02*
X1321770D01*
G01X1322380Y-764239D02*
X1322470Y-764428D01*
G01X1322260Y-764069D02*
X1322380Y-764239D01*
G01X1322090Y-763948D02*
X1322260Y-764069D01*
G01X1321900Y-763869D02*
X1322090Y-763948D01*
G01X1321690Y-763839D02*
X1321900Y-763869D01*
G01X1326590Y-762189D02*
X1322260D01*
G01X1322490Y-764639D02*
Y-775409D01*
G01Y-767319D02*
X1325800D01*
G01Y-766628D02*
X1322490D01*
G01Y-765928D02*
X1325800D01*
G01Y-765239D02*
X1322490D01*
G01X1322480Y-764539D02*
X1325810D01*
G01X1322470Y-764428D02*
X1322490Y-764639D01*
G01X1325800Y-775409D02*
Y-764648D01*
G01X1325830Y-764439D02*
X1325910Y-764239D01*
G01X1325800Y-764648D02*
X1325830Y-764439D01*
G01X1325910Y-764239D02*
X1326040Y-764078D01*
G01X1326610Y-763839D02*
X1327370D01*
G01X1326400Y-763869D02*
X1326610Y-763839D01*
G01X1326210Y-763948D02*
X1326400Y-763869D01*
G01X1326040Y-764078D02*
X1326210Y-763948D01*
G01X1327750Y-762248D02*
X1326590Y-762189D01*
G01X1331410Y-763848D02*
X1327450D01*
G01X1327370Y-763839D02*
X1327880Y-763909D01*
G01X1328360Y-764078D02*
X1328580Y-764278D01*
G01X1327880Y-763909D02*
X1328360Y-764078D01*
G01X1328910Y-762419D02*
X1327750Y-762248D01*
G01X1328870Y-765098D02*
Y-775409D01*
G01Y-767319D02*
X1331940D01*
G01Y-766628D02*
X1328870D01*
G01Y-765928D02*
X1331940D01*
G01X1331920Y-765239D02*
X1328870D01*
G01X1328840Y-764798D02*
X1328870Y-765098D01*
G01X1328750Y-764539D02*
X1331780D01*
G01X1328740Y-764519D02*
X1328840Y-764798D01*
G01X1328580Y-764278D02*
X1328740Y-764519D01*
G01X1329690Y-762639D02*
X1328910Y-762419D01*
G01X1330420Y-762998D02*
X1329690Y-762639D01*
G01X1331070Y-763478D02*
X1330420Y-762998D01*
G01X1331450Y-763889D02*
X1331070Y-763478D01*
G01X1331730Y-764369D02*
X1331450Y-763889D01*
G01X1331890Y-764898D02*
X1331730Y-764369D01*
G01X1331940Y-775409D02*
Y-765448D01*
G01D02*
X1331890Y-764898D01*
G01X1322490Y-775409D02*
X1325800D01*
G01Y-774959D02*
X1322490D01*
G01Y-774259D02*
X1325800D01*
G01Y-773569D02*
X1322490D01*
G01Y-772869D02*
X1325800D01*
G01Y-772178D02*
X1322490D01*
G01Y-771478D02*
X1325800D01*
G01Y-770789D02*
X1322490D01*
G01Y-770098D02*
X1325800D01*
G01Y-769398D02*
X1322490D01*
G01Y-768709D02*
X1325800D01*
G01Y-768009D02*
X1322490D01*
G01X1328870Y-775409D02*
X1331940D01*
G01Y-774959D02*
X1328870D01*
G01Y-774259D02*
X1331940D01*
G01Y-773569D02*
X1328870D01*
G01Y-772869D02*
X1331940D01*
G01Y-772178D02*
X1328870D01*
G01Y-771478D02*
X1331940D01*
G01Y-770789D02*
X1328870D01*
G01Y-770098D02*
X1331940D01*
G01Y-769398D02*
X1328870D01*
G01Y-768709D02*
X1331940D01*
G01Y-768009D02*
X1328870D01*
G54D12*
G01X1819500Y818931D02*
X-380500D01*
Y-871069D01*
G01Y-881069D02*
X1819500D01*
Y818931D01*
G01X-380500Y-871069D02*
Y-881069D01*
G01X-358925Y-651069D02*
X-351050Y-626069D01*
X-343175Y-651069D01*
G01X-346010Y-642319D02*
X-356090D01*
G01X-330500Y-451069D02*
X-360500D01*
G01X-348530Y-277735D02*
X-347270Y-276485D01*
X-346325Y-274402D01*
X-345695Y-271485D01*
X-346325Y-268985D01*
X-347585Y-267319D01*
X-349790Y-266069D01*
X-358295D01*
Y-291069D01*
X-347900D01*
X-345695Y-289402D01*
X-344435Y-286902D01*
X-343805Y-283985D01*
X-344435Y-281069D01*
X-346325Y-278569D01*
X-348530Y-277735D01*
X-358295D01*
G01X-330500Y-21069D02*
X-360500D01*
G01X-344120Y131848D02*
X-346010Y133098D01*
X-348215Y133931D01*
X-350735D01*
X-353570Y132681D01*
X-355775Y130598D01*
X-357350Y128098D01*
X-358610Y123931D01*
X-358925Y120181D01*
X-358295Y116431D01*
X-357350Y113931D01*
X-355460Y111431D01*
X-353255Y109765D01*
X-351050Y108931D01*
X-348845D01*
X-346640Y109765D01*
X-344750Y111014D01*
X-343175Y112681D01*
G01X-330500Y408931D02*
X-360500D01*
G01X-357980Y588931D02*
Y613931D01*
X-351680D01*
X-349160Y612681D01*
X-347270Y611015D01*
X-345695Y608515D01*
X-344435Y605598D01*
X-344120Y601431D01*
X-344435Y597265D01*
X-345695Y594348D01*
X-347270Y591847D01*
X-349160Y590181D01*
X-351680Y588931D01*
X-357980D01*
G01X-330500Y748931D02*
Y-811069D01*
X-270500D01*
G01X-330500Y748931D02*
X-280500D01*
G01X-270500Y-811069D02*
X1249500D01*
G01X-300500Y748931D02*
X-110500D01*
G01X-107270Y-861069D02*
Y-836069D01*
X-118925Y-853985D01*
X-103175D01*
G01X-107270Y768931D02*
Y793931D01*
X-118925Y776015D01*
X-103175D01*
G01X-110500Y748931D02*
X1759500D01*
G01X12000Y87500D02*
Y304000D01*
X248500D01*
Y87500D01*
X12000D01*
G01X127000Y103000D02*
Y160000D01*
X28000D01*
Y103000D01*
X127000D01*
G01X242000Y298000D02*
X20000D01*
Y95000D01*
X242000D01*
Y298000D01*
G01X20000Y142999D02*
Y136999D01*
G03X24000Y132999I4000J0D01*
G03X28000Y136999I0J4000D01*
G01Y142999D01*
G01Y110199D02*
Y116199D01*
G03X24000Y120199I-4000J0D01*
G03X20000Y116199I0J-4000D01*
G01Y110199D01*
G01X127000Y168000D02*
Y225000D01*
X28000D01*
Y168000D01*
X127000D01*
G01D02*
Y225000D01*
X28000D01*
Y168000D01*
X127000D01*
G01D02*
Y225000D01*
X28000D01*
Y168000D01*
X127000D01*
G01X28000Y180199D02*
Y186199D01*
G03X24000Y190199I-4000J0D01*
G03X20000Y186199I0J-4000D01*
G01Y180199D01*
G01Y212999D02*
Y206999D01*
G03X24000Y202999I4000J0D01*
G03X28000Y206999I0J4000D01*
G01Y212999D01*
G01X127000Y233000D02*
Y290000D01*
X28000D01*
Y233000D01*
X127000D01*
G01D02*
Y290000D01*
X28000D01*
Y233000D01*
X127000D01*
G01D02*
Y290000D01*
X28000D01*
Y233000D01*
X127000D01*
G01X28000Y245199D02*
Y251199D01*
G03X24000Y255199I-4000J0D01*
G03X20000Y251199I0J-4000D01*
G01Y245199D01*
G01Y277999D02*
Y271999D01*
G03X24000Y267999I4000J0D01*
G03X28000Y271999I0J4000D01*
G01Y277999D01*
G01X95655Y103000D02*
X89655D01*
G03X85655Y99000I0J-4000D01*
G03X89655Y95000I4000J0D01*
G01X95655D01*
G01X62855D02*
X68855D01*
G03X72855Y99000I0J4000D01*
G03X68855Y103000I-4000J0D01*
G01X62855D01*
G01X62355Y160000D02*
X68355D01*
G03X72355Y164000I0J4000D01*
G03X68355Y168000I-4000J0D01*
G01X62355D01*
G01X95155D02*
X89155D01*
G03X85155Y164000I0J-4000D01*
G03X89155Y160000I4000J0D01*
G01X95155D01*
G01X59855Y225000D02*
X65855D01*
G03X69855Y229000I0J4000D01*
G03X65855Y233000I-4000J0D01*
G01X59855D01*
G01X92655D02*
X86655D01*
G03X82655Y229000I0J-4000D01*
G03X86655Y225000I4000J0D01*
G01X92655D01*
G01X59855Y290000D02*
X65855D01*
G03X69855Y294000I0J4000D01*
G03X65855Y298000I-4000J0D01*
G01X59855D01*
G01X92655D02*
X86655D01*
G03X82655Y294000I0J-4000D01*
G03X86655Y290000I4000J0D01*
G01X92655D01*
G01X135000Y115199D02*
Y121199D01*
G03X131000Y125199I-4000J0D01*
G01D02*
G03X127000Y121199I0J-4000D01*
G01Y115199D01*
G01X131000Y137999D02*
G03X135000Y141999I0J4000D01*
G01Y147999D01*
G01X127000D02*
Y141999D01*
G03X131000Y137999I4000J0D01*
G01X135000Y180199D02*
Y186199D01*
G03X131000Y190199I-4000J0D01*
G01Y202999D02*
G03X135000Y206999I0J4000D01*
G01Y212999D01*
G01X127000D02*
Y206999D01*
G03X131000Y202999I4000J0D01*
G01Y190199D02*
G03X127000Y186199I0J-4000D01*
G01Y180199D01*
G01X135000Y245199D02*
Y251199D01*
G03X131000Y255199I-4000J0D01*
G01X135000Y245199D02*
Y251199D01*
G03X131000Y255199I-4000J0D01*
G03X127000Y251199I0J-4000D01*
G01Y245199D01*
G01X131000Y267999D02*
G03X135000Y271999I0J4000D01*
G01Y277999D01*
G01X127000D02*
Y271999D01*
G03X131000Y267999I4000J0D01*
G03X135000Y271999I0J4000D01*
G01Y277999D01*
G01X159500Y-811069D02*
Y-861069D01*
G01X142833Y-70819D02*
Y-63319D01*
X144833D01*
X145500Y-63694D01*
X146000Y-64569D01*
X146167Y-65569D01*
X146000Y-66569D01*
X145583Y-67319D01*
X144833Y-67694D01*
X142833D01*
G01X149333Y-70819D02*
Y-63319D01*
X151417D01*
X152083Y-63694D01*
X152500Y-64194D01*
X152667Y-65194D01*
X152500Y-66194D01*
X152000Y-66818D01*
X151417Y-67194D01*
X149333D01*
G01X151417D02*
X152667Y-70819D01*
G01X156500Y-63319D02*
X158500D01*
G01X157500D02*
Y-70819D01*
G01X156500D02*
X158500D01*
G01X161833D02*
Y-63319D01*
X164000Y-69569D01*
X166167Y-63319D01*
Y-70819D01*
G01X168417D02*
X170500Y-63319D01*
X172583Y-70819D01*
G01X171833Y-68194D02*
X169167D01*
G01X175333Y-70819D02*
Y-63319D01*
X177417D01*
X178083Y-63694D01*
X178500Y-64194D01*
X178667Y-65194D01*
X178500Y-66194D01*
X178000Y-66818D01*
X177417Y-67194D01*
X175333D01*
G01X177417D02*
X178667Y-70819D01*
G01X183500D02*
Y-67444D01*
X181833Y-63319D01*
G01X185167D02*
X183500Y-67444D01*
G01X188917Y-68319D02*
X191083D01*
G01X194750Y-69819D02*
X195417Y-70444D01*
X196167Y-70819D01*
X196833D01*
X197500Y-70444D01*
X198000Y-69819D01*
X198250Y-68943D01*
X198083Y-68069D01*
X197667Y-67319D01*
X196917Y-66818D01*
X195917Y-66569D01*
X195333Y-66069D01*
X195083Y-65194D01*
X195250Y-64319D01*
X195667Y-63694D01*
X196250Y-63319D01*
X196833D01*
X197417Y-63568D01*
X197917Y-64194D01*
G01X202000Y-63319D02*
X204000D01*
G01X203000D02*
Y-70819D01*
G01X202000D02*
X204000D01*
G01X207667D02*
Y-63319D01*
X209333D01*
X210000Y-63694D01*
X210500Y-64194D01*
X210917Y-64944D01*
X211250Y-65819D01*
X211333Y-67069D01*
X211250Y-68319D01*
X210917Y-69194D01*
X210500Y-69944D01*
X210000Y-70444D01*
X209333Y-70819D01*
X207667D01*
G01X217667D02*
X214333D01*
Y-63319D01*
X217667D01*
G01X216333Y-66944D02*
X214333D01*
G01X142417Y-58319D02*
X144500Y-50819D01*
X146583Y-58319D01*
G01X145833Y-55694D02*
X143167D01*
G01X149250Y-57319D02*
X149917Y-57944D01*
X150667Y-58319D01*
X151333D01*
X152000Y-57944D01*
X152500Y-57319D01*
X152750Y-56443D01*
X152583Y-55569D01*
X152167Y-54819D01*
X151417Y-54318D01*
X150417Y-54069D01*
X149833Y-53569D01*
X149583Y-52694D01*
X149750Y-51819D01*
X150167Y-51194D01*
X150750Y-50819D01*
X151333D01*
X151917Y-51069D01*
X152417Y-51694D01*
G01X155750Y-57319D02*
X156417Y-57944D01*
X157167Y-58319D01*
X157833D01*
X158500Y-57944D01*
X159000Y-57319D01*
X159250Y-56443D01*
X159083Y-55569D01*
X158667Y-54819D01*
X157917Y-54318D01*
X156917Y-54069D01*
X156333Y-53569D01*
X156083Y-52694D01*
X156250Y-51819D01*
X156667Y-51194D01*
X157250Y-50819D01*
X157833D01*
X158417Y-51069D01*
X158917Y-51694D01*
G01X165667Y-58319D02*
X162333D01*
Y-50819D01*
X165667D01*
G01X164333Y-54444D02*
X162333D01*
G01X168333Y-58319D02*
Y-50819D01*
X170500Y-57069D01*
X172667Y-50819D01*
Y-58319D01*
G01X177667Y-54318D02*
X178000Y-53944D01*
X178250Y-53319D01*
X178417Y-52444D01*
X178250Y-51694D01*
X177917Y-51194D01*
X177333Y-50819D01*
X175083D01*
Y-58319D01*
X177833D01*
X178417Y-57819D01*
X178750Y-57069D01*
X178917Y-56194D01*
X178750Y-55319D01*
X178250Y-54569D01*
X177667Y-54318D01*
X175083D01*
G01X181833Y-50819D02*
Y-58319D01*
X185167D01*
G01X190000D02*
Y-54944D01*
X188333Y-50819D01*
G01X191667D02*
X190000Y-54944D01*
G01X234000Y103000D02*
Y160000D01*
X135000D01*
Y103000D01*
X234000D01*
G01X166699Y95000D02*
X172699D01*
G03X176699Y99000I0J4000D01*
G03X172699Y103000I-4000J0D01*
G01X166699D01*
G01X234000Y168000D02*
Y225000D01*
X135000D01*
Y168000D01*
X234000D01*
G01D02*
Y225000D01*
X135000D01*
Y168000D01*
X234000D01*
G01D02*
Y225000D01*
X135000D01*
Y168000D01*
X234000D01*
G01X166855Y160000D02*
X172855D01*
G03X176855Y164000I0J4000D01*
G03X172855Y168000I-4000J0D01*
G01X166855D01*
G01X234000Y233000D02*
Y290000D01*
X135000D01*
Y233000D01*
X234000D01*
G01X135000Y290000D02*
Y233000D01*
G01Y290000D02*
Y233000D01*
G01Y290000D02*
Y233000D01*
G01X166855Y225000D02*
X172855D01*
G03X176855Y229000I0J4000D01*
G01D02*
G03X172855Y233000I-4000J0D01*
G01X166855D01*
G01Y290000D02*
X172855D01*
G03X176855Y294000I0J4000D01*
G03X172855Y298000I-4000J0D01*
G01X166855D01*
G01Y290000D02*
X172855D01*
G03X176855Y294000I0J4000D01*
G01X159500Y748931D02*
Y798931D01*
G01X199499Y103000D02*
X193499D01*
G03X189499Y99000I0J-4000D01*
G03X193499Y95000I4000J0D01*
G01X199499D01*
G01X199655Y168000D02*
X193655D01*
G03X189655Y164000I0J-4000D01*
G03X193655Y160000I4000J0D01*
G01X199655D01*
G01X189655Y229000D02*
G03X193655Y225000I4000J0D01*
G01X199655D01*
G01Y233000D02*
X193655D01*
G03X189655Y229000I0J-4000D01*
G01X199655Y298000D02*
X193655D01*
G03X189655Y294000I0J-4000D01*
G03X193655Y290000I4000J0D01*
G01X199655D01*
G01X189655Y294000D02*
G03X193655Y290000I4000J0D01*
G01X199655D01*
G01X238000Y125100D02*
G03X234000Y121100I0J-4000D01*
G01Y115100D01*
G01X242000Y115199D02*
Y121199D01*
G03X238000Y125199I-4000J0D01*
G01X234000Y147900D02*
Y141900D01*
G03X238000Y137900I4000J0D01*
G01Y137999D02*
G03X242000Y141999I0J4000D01*
G01Y147999D01*
G01X238000Y203499D02*
G03X242000Y207499I0J4000D01*
G01Y213499D01*
G01Y180699D02*
Y186699D01*
G03X238000Y190699I-4000J0D01*
G01D02*
G03X234000Y186699I0J-4000D01*
G01Y180699D01*
G01Y213499D02*
Y207499D01*
G03X238000Y203499I4000J0D01*
G01X242000Y245199D02*
Y251199D01*
G03X238000Y255199I-4000J0D01*
G01D02*
G03X234000Y251199I0J-4000D01*
G01Y245199D01*
G01X238000Y267999D02*
G03X242000Y271999I0J4000D01*
G01Y277999D01*
G01X234000D02*
Y271999D01*
G03X238000Y267999I4000J0D01*
G01X422020Y-856069D02*
X423910Y-858986D01*
X426430Y-860652D01*
X429265Y-861069D01*
X431785Y-860652D01*
X434305Y-858569D01*
X435880Y-856069D01*
X436195Y-853569D01*
X435565Y-850653D01*
X433360Y-848569D01*
X431155Y-847735D01*
X428320D01*
G01X431155D02*
X433045Y-846485D01*
X434620Y-844402D01*
X435250Y-841902D01*
X434620Y-839402D01*
X433045Y-837319D01*
X430210Y-836069D01*
X427375Y-836485D01*
X424540Y-838152D01*
G01X422020Y773931D02*
X423910Y771014D01*
X426430Y769348D01*
X429265Y768931D01*
X431785Y769348D01*
X434305Y771431D01*
X435880Y773931D01*
X436195Y776431D01*
X435565Y779347D01*
X433360Y781431D01*
X431155Y782265D01*
X428320D01*
G01X431155D02*
X433045Y783515D01*
X434620Y785598D01*
X435250Y788098D01*
X434620Y790598D01*
X433045Y792681D01*
X430210Y793931D01*
X427375Y793515D01*
X424540Y791848D01*
G01X699500Y-861069D02*
Y-811069D01*
G01Y748931D02*
Y798931D01*
G01X1012965Y-840235D02*
X1014855Y-837736D01*
X1017060Y-836485D01*
X1019580Y-836069D01*
X1022730Y-836902D01*
X1024935Y-838985D01*
X1025565Y-841485D01*
X1025250Y-843986D01*
X1023990Y-846069D01*
X1017690Y-850235D01*
X1014855Y-853152D01*
X1012965Y-857319D01*
X1012335Y-861069D01*
X1025565D01*
G01X982965Y789765D02*
X984855Y792264D01*
X987060Y793515D01*
X989580Y793931D01*
X992730Y793098D01*
X994935Y791015D01*
X995565Y788515D01*
X995250Y786014D01*
X993990Y783931D01*
X987690Y779765D01*
X984855Y776848D01*
X982965Y772681D01*
X982335Y768931D01*
X995565D01*
G01X1119500Y748931D02*
Y657000D01*
G01X1130750Y698931D02*
Y708931D01*
X1133875D01*
X1134875Y708431D01*
X1135500Y707765D01*
X1135750Y706431D01*
X1135500Y705098D01*
X1134750Y704265D01*
X1133875Y703765D01*
X1130750D01*
G01X1133875D02*
X1135750Y698931D01*
G01X1145750D02*
X1140750D01*
Y708931D01*
X1145750D01*
G01X1143750Y704098D02*
X1140750D01*
G01X1150125Y708931D02*
X1153250Y698931D01*
X1156375Y708931D01*
G01X1119500Y688931D02*
X1769500D01*
G01X1119500Y718931D02*
X1769500D01*
G01X1169500D02*
Y657000D01*
G01X1769500Y748931D02*
Y-811069D01*
X1249500D01*
G01X1224500D02*
Y-736069D01*
X1769500D01*
Y-811069D01*
X1259500D01*
G01D02*
Y-861069D01*
G01X1273475Y-783148D02*
G03I-355J0D01*
G01X1273655Y-783189D02*
G03I-355J0D01*
G01X1273835Y-783209D02*
G03I-355J0D01*
G01X1273595Y-779919D02*
G03I-355J0D01*
G01X1273795Y-779898D02*
G03I-355J0D01*
G01X1267335Y-783209D02*
G03I-355J0D01*
G01X1268055Y-781528D02*
G03I-355J0D01*
G01X1267885Y-781478D02*
G03I-355J0D01*
G01X1267735Y-781398D02*
G03I-355J0D01*
G01X1267595Y-781289D02*
G03I-355J0D01*
G01X1267485Y-781148D02*
G03I-355J0D01*
G01X1267405Y-780998D02*
G03I-355J0D01*
G01X1267355Y-780828D02*
G03I-355J0D01*
G01X1267335Y-780659D02*
G03I-355J0D01*
G01X1267355Y-780489D02*
G03I-355J0D01*
G01X1267415Y-780328D02*
G03I-355J0D01*
G01X1267505Y-780189D02*
G03I-355J0D01*
G01X1267625Y-780069D02*
G03I-355J0D01*
G01X1267765Y-779978D02*
G03I-355J0D01*
G01X1267925Y-779919D02*
G03I-355J0D01*
G01X1268095Y-779898D02*
G03I-355J0D01*
G01X1268225Y-781559D02*
G03I-355J0D01*
G01Y-781548D02*
G03I-355J0D01*
G01X1269785Y-783209D02*
G03I-355J0D01*
G01X1269845Y-781548D02*
G03I-355J0D01*
G01Y-781559D02*
G03I-355J0D01*
G01X1269955Y-783189D02*
G03I-355J0D01*
G01X1270115Y-783139D02*
G03I-355J0D01*
G01X1270265Y-783069D02*
G03I-355J0D01*
G01X1270395Y-782959D02*
G03I-355J0D01*
G01X1270505Y-782828D02*
G03I-355J0D01*
G01X1270575Y-782678D02*
G03I-355J0D01*
G01X1270625Y-782519D02*
G03I-355J0D01*
G01X1270645Y-782348D02*
G03I-355J0D01*
G01X1270625Y-782189D02*
G03I-355J0D01*
G01X1270585Y-782039D02*
G03I-355J0D01*
G01X1270515Y-781909D02*
G03I-355J0D01*
G01X1270415Y-781778D02*
G03I-355J0D01*
G01X1270285Y-781678D02*
G03I-355J0D01*
G01X1270155Y-781609D02*
G03I-355J0D01*
G01X1270005Y-781569D02*
G03I-355J0D01*
G01X1270645Y-779898D02*
G03I-355J0D01*
G01X1272795Y-782328D02*
G03I-355J0D01*
G01X1272835Y-782509D02*
G03I-355J0D01*
G01X1272915Y-782678D02*
G03I-355J0D01*
G01X1273025Y-782828D02*
G03I-355J0D01*
G01X1273155Y-782959D02*
G03I-355J0D01*
G01X1272765Y-781559D02*
G03I-355J0D01*
G01D02*
G03I-355J0D01*
G01Y-782148D02*
G03I-355J0D01*
G01X1272775D02*
G03I-355J0D01*
G01X1272765Y-780919D02*
G03I-355J0D01*
G01X1272775D02*
G03I-355J0D01*
G01X1272795Y-780719D02*
G03I-355J0D01*
G01X1272855Y-780528D02*
G03I-355J0D01*
G01X1272945Y-780348D02*
G03I-355J0D01*
G01X1273075Y-780198D02*
G03I-355J0D01*
G01X1273225Y-780069D02*
G03I-355J0D01*
G01X1273305Y-783069D02*
G03I-355J0D01*
G01X1273405Y-779978D02*
G03I-355J0D01*
G01X1275605Y-783209D02*
G03I-355J0D01*
G01Y-781559D02*
G03I-355J0D01*
G01Y-779898D02*
G03I-355J0D01*
G01X1277965Y-783209D02*
G03I-355J0D01*
G01Y-779898D02*
G03I-355J0D01*
G01X1278515D02*
G03I-355J0D01*
G01X1280055Y-783209D02*
G03I-355J0D01*
G01X1281465Y-779898D02*
G03I-355J0D01*
G01X1281985Y-783209D02*
G03I-355J0D01*
G01Y-779898D02*
G03I-355J0D01*
G01X1284575Y-783209D02*
G03I-355J0D01*
G01Y-779898D02*
G03I-355J0D01*
G01X1287195Y-782309D02*
G03I-355J0D01*
G01X1287245Y-782489D02*
G03I-355J0D01*
G01X1287325Y-782659D02*
G03I-355J0D01*
G01X1287435Y-782819D02*
G03I-355J0D01*
G01X1287565Y-782948D02*
G03I-355J0D01*
G01X1287715Y-783059D02*
G03I-355J0D01*
G01X1287175Y-782119D02*
G03I-355J0D01*
G01X1287255Y-780569D02*
G03I-355J0D01*
G01X1287195Y-780778D02*
G03I-355J0D01*
G01X1287175Y-780989D02*
G03I-355J0D01*
G01X1287655Y-780078D02*
G03I-355J0D01*
G01X1287495Y-780219D02*
G03I-355J0D01*
G01X1287355Y-780378D02*
G03I-355J0D01*
G01X1287895Y-783139D02*
G03I-355J0D01*
G01X1288075Y-783189D02*
G03I-355J0D01*
G01X1288265Y-783209D02*
G03I-355J0D01*
G01Y-779898D02*
G03I-355J0D01*
G01X1288055Y-779919D02*
G03I-355J0D01*
G01X1287845Y-779978D02*
G03I-355J0D01*
G01X1290015Y-783209D02*
G03I-355J0D01*
G01Y-779898D02*
G03I-355J0D01*
G01X1267335Y-767319D02*
G03I-355J0D01*
G01Y-766628D02*
G03I-355J0D01*
G01Y-765239D02*
G03I-355J0D01*
G01Y-765928D02*
G03I-355J0D01*
G01Y-764539D02*
G03I-355J0D01*
G01Y-763848D02*
G03I-355J0D01*
G01Y-763159D02*
G03I-355J0D01*
G01Y-762659D02*
G03I-355J0D01*
G01D02*
G03I-355J0D01*
G01X1268675Y-762459D02*
G03I-355J0D01*
G01X1269575Y-762328D02*
G03I-355J0D01*
G01X1270645Y-767319D02*
G03I-355J0D01*
G01Y-766628D02*
G03I-355J0D01*
G01Y-765928D02*
G03I-355J0D01*
G01Y-764539D02*
G03I-355J0D01*
G01Y-765239D02*
G03I-355J0D01*
G01Y-764378D02*
G03I-355J0D01*
G01X1270665Y-764178D02*
G03I-355J0D01*
G01X1270855Y-763848D02*
G03I-355J0D01*
G01X1270745Y-763989D02*
G03I-355J0D01*
G01X1270865Y-763828D02*
G03I-355J0D01*
G01X1271035Y-763709D02*
G03I-355J0D01*
G01X1271215Y-763628D02*
G03I-355J0D01*
G01X1271415Y-763598D02*
G03I-355J0D01*
G01X1271825Y-762189D02*
G03I-355J0D01*
G01X1274265Y-763598D02*
G03I-355J0D01*
G01X1274955Y-763628D02*
G03I-355J0D01*
G01X1274855Y-762189D02*
G03I-355J0D01*
G01X1275765Y-763848D02*
G03I-355J0D01*
G01X1275635Y-763789D02*
G03I-355J0D01*
G01X1276585Y-764389D02*
G03I-355J0D01*
G01X1276685Y-764539D02*
G03I-355J0D01*
G01X1276275Y-764078D02*
G03I-355J0D01*
G01X1276525Y-762309D02*
G03I-355J0D01*
G01X1276925Y-767319D02*
G03I-355J0D01*
G01X1276975Y-767148D02*
G03I-355J0D01*
G01X1277025Y-766628D02*
G03I-355J0D01*
G01Y-766709D02*
G03I-355J0D01*
G01Y-765928D02*
G03I-355J0D01*
G01X1276975Y-765239D02*
G03I-355J0D01*
G01X1276965Y-765169D02*
G03I-355J0D01*
G01X1277025Y-765609D02*
G03I-355J0D01*
G01X1276815Y-764759D02*
G03I-355J0D01*
G01X1277245Y-762459D02*
G03I-355J0D01*
G01X1278165Y-762659D02*
G03I-355J0D01*
G01X1278955Y-763159D02*
G03I-355J0D01*
G01X1279205Y-763359D02*
G03I-355J0D01*
G01X1278715Y-762959D02*
G03I-355J0D01*
G01X1280085Y-767319D02*
G03I-355J0D01*
G01X1280095Y-767259D02*
G03I-355J0D01*
G01Y-766628D02*
G03I-355J0D01*
G01Y-765928D02*
G03I-355J0D01*
G01Y-765239D02*
G03I-355J0D01*
G01X1279995Y-764539D02*
G03I-355J0D01*
G01X1280095Y-765259D02*
G03I-355J0D01*
G01X1280075Y-764878D02*
G03I-355J0D01*
G01X1279985Y-764498D02*
G03I-355J0D01*
G01X1279625Y-763848D02*
G03I-355J0D01*
G01X1279835Y-764148D02*
G03I-355J0D01*
G01X1279615Y-763839D02*
G03I-355J0D01*
G01X1283165Y-767319D02*
G03I-355J0D01*
G01Y-766628D02*
G03I-355J0D01*
G01Y-765928D02*
G03I-355J0D01*
G01X1283195Y-765239D02*
G03I-355J0D01*
G01X1283165Y-765569D02*
G03I-355J0D01*
G01X1283385Y-764539D02*
G03I-355J0D01*
G01X1283335Y-764628D02*
G03I-355J0D01*
G01X1283205Y-765089D02*
G03I-355J0D01*
G01X1283335Y-764628D02*
G03I-355J0D01*
G01X1283845Y-763848D02*
G03I-355J0D01*
G01X1283565Y-764209D02*
G03I-355J0D01*
G01X1283855Y-763828D02*
G03I-355J0D01*
G01X1284225Y-763519D02*
G03I-355J0D01*
G01X1284675Y-763159D02*
G03I-355J0D01*
G01X1284855Y-763009D02*
G03I-355J0D01*
G01X1285565Y-762619D02*
G03I-355J0D01*
G01X1286035Y-762459D02*
G03I-355J0D01*
G01X1286235Y-767319D02*
G03I-355J0D01*
G01Y-766628D02*
G03I-355J0D01*
G01Y-765928D02*
G03I-355J0D01*
G01X1286345Y-765239D02*
G03I-355J0D01*
G01X1286275Y-765478D02*
G03I-355J0D01*
G01X1286235Y-765889D02*
G03I-355J0D01*
G01X1286595Y-764739D02*
G03I-355J0D01*
G01X1286395Y-765089D02*
G03I-355J0D01*
G01X1286765Y-764539D02*
G03I-355J0D01*
G01X1286865Y-764428D02*
G03I-355J0D01*
G01D02*
G03I-355J0D01*
G01X1286325Y-762359D02*
G03I-355J0D01*
G01X1287695Y-763848D02*
G03I-355J0D01*
G01X1287295Y-764059D02*
G03I-355J0D01*
G01X1287125Y-762219D02*
G03I-355J0D01*
G01X1288345Y-763639D02*
G03I-355J0D01*
G01X1287795Y-763789D02*
G03I-355J0D01*
G01X1287925Y-762189D02*
G03I-355J0D01*
G01X1288915Y-763598D02*
G03I-355J0D01*
G01X1290905Y-763628D02*
G03I-355J0D01*
G01X1290365Y-763598D02*
G03I-355J0D01*
G01X1291035Y-762189D02*
G03I-355J0D01*
G01X1291615Y-763848D02*
G03I-355J0D01*
G01X1291905Y-763989D02*
G03I-355J0D01*
G01X1291425Y-763759D02*
G03I-355J0D01*
G01X1291895Y-762219D02*
G03I-355J0D01*
G01X1267335Y-775409D02*
G03I-355J0D01*
G01X1270645D02*
G03I-355J0D01*
G01X1273855Y-771478D02*
G03I-355J0D01*
G01X1267335Y-774959D02*
G03I-355J0D01*
G01Y-774259D02*
G03I-355J0D01*
G01Y-772869D02*
G03I-355J0D01*
G01Y-773569D02*
G03I-355J0D01*
G01Y-772178D02*
G03I-355J0D01*
G01Y-771478D02*
G03I-355J0D01*
G01Y-770789D02*
G03I-355J0D01*
G01Y-769398D02*
G03I-355J0D01*
G01Y-770098D02*
G03I-355J0D01*
G01Y-768709D02*
G03I-355J0D01*
G01Y-768009D02*
G03I-355J0D01*
G01X1270645Y-774959D02*
G03I-355J0D01*
G01Y-774259D02*
G03I-355J0D01*
G01Y-773569D02*
G03I-355J0D01*
G01Y-772178D02*
G03I-355J0D01*
G01Y-772869D02*
G03I-355J0D01*
G01Y-771478D02*
G03I-355J0D01*
G01Y-770789D02*
G03I-355J0D01*
G01Y-770098D02*
G03I-355J0D01*
G01Y-768709D02*
G03I-355J0D01*
G01Y-769398D02*
G03I-355J0D01*
G01Y-768009D02*
G03I-355J0D01*
G01X1273255Y-770789D02*
G03I-355J0D01*
G01X1272765Y-770098D02*
G03I-355J0D01*
G01Y-769398D02*
G03I-355J0D01*
G01Y-770219D02*
G03I-355J0D01*
G01Y-768798D02*
G03I-355J0D01*
G01X1277215Y-775409D02*
G03I-355J0D01*
G01X1280875D02*
G03I-355J0D01*
G01X1286195Y-775178D02*
G03I-355J0D01*
G01X1287215Y-775348D02*
G03I-355J0D01*
G01X1288245Y-775409D02*
G03I-355J0D01*
G01X1290995D02*
G03I-355J0D01*
G01X1291905Y-775378D02*
G03I-355J0D01*
G01X1274445Y-772178D02*
G03I-355J0D01*
G01X1274545Y-768798D02*
G03I-355J0D01*
G01X1275635Y-773569D02*
G03I-355J0D01*
G01X1275045Y-772869D02*
G03I-355J0D01*
G01X1275315Y-768709D02*
G03I-355J0D01*
G01X1275685Y-768609D02*
G03I-355J0D01*
G01X1275125Y-768759D02*
G03I-355J0D01*
G01X1276235Y-774259D02*
G03I-355J0D01*
G01X1276665Y-770789D02*
G03I-355J0D01*
G01X1276425Y-770528D02*
G03I-355J0D01*
G01Y-770098D02*
G03I-355J0D01*
G01Y-770019D02*
G03I-355J0D01*
G01X1276615Y-768009D02*
G03I-355J0D01*
G01X1276665Y-767969D02*
G03I-355J0D01*
G01X1276205Y-768339D02*
G03I-355J0D01*
G01X1276825Y-774959D02*
G03I-355J0D01*
G01X1277295Y-771478D02*
G03I-355J0D01*
G01X1277125Y-770009D02*
G03I-355J0D01*
G01X1276855Y-767569D02*
G03I-355J0D01*
G01X1277935Y-772178D02*
G03I-355J0D01*
G01X1277805Y-769889D02*
G03I-355J0D01*
G01X1279195Y-773569D02*
G03I-355J0D01*
G01X1278565Y-772869D02*
G03I-355J0D01*
G01X1278905Y-769398D02*
G03I-355J0D01*
G01X1278465Y-769648D02*
G03I-355J0D01*
G01X1279065Y-769309D02*
G03I-355J0D01*
G01X1279825Y-774259D02*
G03I-355J0D01*
G01X1279655Y-768709D02*
G03I-355J0D01*
G01X1279425Y-768998D02*
G03I-355J0D01*
G01X1279715Y-768619D02*
G03I-355J0D01*
G01X1279985Y-768009D02*
G03I-355J0D01*
G01X1279935Y-768198D02*
G03I-355J0D01*
G01X1280055Y-767739D02*
G03I-355J0D01*
G01X1280465Y-774959D02*
G03I-355J0D01*
G01X1283235Y-772869D02*
G03I-355J0D01*
G01X1283335Y-773219D02*
G03I-355J0D01*
G01X1283165Y-772178D02*
G03I-355J0D01*
G01X1283195Y-772748D02*
G03I-355J0D01*
G01X1283165Y-772259D02*
G03I-355J0D01*
G01Y-771478D02*
G03I-355J0D01*
G01Y-770789D02*
G03I-355J0D01*
G01Y-770098D02*
G03I-355J0D01*
G01Y-769398D02*
G03I-355J0D01*
G01Y-768709D02*
G03I-355J0D01*
G01Y-768009D02*
G03I-355J0D01*
G01Y-768328D02*
G03I-355J0D01*
G01D02*
G03I-355J0D01*
G01D02*
G03I-355J0D01*
G01X1284195Y-774259D02*
G03I-355J0D01*
G01X1284265Y-774309D02*
G03I-355J0D01*
G01X1283875Y-774019D02*
G03I-355J0D01*
G01X1283515Y-773569D02*
G03I-355J0D01*
G01X1283565Y-773648D02*
G03I-355J0D01*
G01X1284865Y-774689D02*
G03I-355J0D01*
G01X1285455Y-774959D02*
G03I-355J0D01*
G01X1285515Y-774978D02*
G03I-355J0D01*
G01X1286655Y-772869D02*
G03I-355J0D01*
G01X1286675Y-772898D02*
G03I-355J0D01*
G01X1286325Y-772178D02*
G03I-355J0D01*
G01X1286265Y-772009D02*
G03I-355J0D01*
G01X1286415Y-772478D02*
G03I-355J0D01*
G01X1286235Y-771478D02*
G03I-355J0D01*
G01Y-771519D02*
G03I-355J0D01*
G01Y-770789D02*
G03I-355J0D01*
G01Y-770098D02*
G03I-355J0D01*
G01Y-769398D02*
G03I-355J0D01*
G01Y-768709D02*
G03I-355J0D01*
G01Y-768009D02*
G03I-355J0D01*
G01Y-768328D02*
G03I-355J0D01*
G01D02*
G03I-355J0D01*
G01D02*
G03I-355J0D01*
G01X1287395Y-773569D02*
G03I-355J0D01*
G01X1287025Y-773248D02*
G03I-355J0D01*
G01X1287385Y-773569D02*
G03I-355J0D01*
G01X1287805Y-773798D02*
G03I-355J0D01*
G01X1288275Y-773948D02*
G03I-355J0D01*
G01X1288755Y-773998D02*
G03I-355J0D01*
G01X1290365D02*
G03I-355J0D01*
G01X1290965Y-773959D02*
G03I-355J0D01*
G01X1291535Y-773798D02*
G03I-355J0D01*
G01X1292775Y-783039D02*
G03I-355J0D01*
G01X1292595Y-782909D02*
G03I-355J0D01*
G01X1292435Y-782748D02*
G03I-355J0D01*
G01X1292305Y-782559D02*
G03I-355J0D01*
G01X1292215Y-782359D02*
G03I-355J0D01*
G01X1292155Y-782139D02*
G03I-355J0D01*
G01X1292135Y-781919D02*
G03I-355J0D01*
G01Y-781169D02*
G03I-355J0D01*
G01X1292155Y-780948D02*
G03I-355J0D01*
G01X1292215Y-780739D02*
G03I-355J0D01*
G01X1292305Y-780528D02*
G03I-355J0D01*
G01X1292435Y-780348D02*
G03I-355J0D01*
G01X1292585Y-780198D02*
G03I-355J0D01*
G01X1292775Y-780069D02*
G03I-355J0D01*
G01X1293425Y-783209D02*
G03I-355J0D01*
G01X1293205Y-783189D02*
G03I-355J0D01*
G01X1292985Y-783128D02*
G03I-355J0D01*
G01X1292975Y-779978D02*
G03I-355J0D01*
G01X1293185Y-779919D02*
G03I-355J0D01*
G01X1293405Y-779898D02*
G03I-355J0D01*
G01X1294535Y-783148D02*
G03I-355J0D01*
G01X1294335Y-783189D02*
G03I-355J0D01*
G01X1294125Y-783209D02*
G03I-355J0D01*
G01X1294145Y-779898D02*
G03I-355J0D01*
G01X1294375Y-779919D02*
G03I-355J0D01*
G01X1294585Y-779978D02*
G03I-355J0D01*
G01X1295305Y-782489D02*
G03I-355J0D01*
G01X1295195Y-782669D02*
G03I-355J0D01*
G01X1295055Y-782819D02*
G03I-355J0D01*
G01X1294905Y-782959D02*
G03I-355J0D01*
G01X1294725Y-783069D02*
G03I-355J0D01*
G01X1295445Y-781889D02*
G03I-355J0D01*
G01X1295425Y-782098D02*
G03I-355J0D01*
G01X1295385Y-782298D02*
G03I-355J0D01*
G01X1295445Y-781889D02*
G03I-355J0D01*
G01X1295275Y-780548D02*
G03I-355J0D01*
G01X1295365Y-780759D02*
G03I-355J0D01*
G01X1295425Y-780969D02*
G03I-355J0D01*
G01X1295445Y-781198D02*
G03I-355J0D01*
G01X1294795Y-780069D02*
G03I-355J0D01*
G01X1294985Y-780198D02*
G03I-355J0D01*
G01X1295145Y-780359D02*
G03I-355J0D01*
G01X1297805Y-783209D02*
G03I-355J0D01*
G01Y-779898D02*
G03I-355J0D01*
G01X1298285D02*
G03I-355J0D01*
G01X1292585Y-764539D02*
G03I-355J0D01*
G01X1292665Y-764609D02*
G03I-355J0D01*
G01X1292335Y-764309D02*
G03I-355J0D01*
G01X1292745Y-762378D02*
G03I-355J0D01*
G01X1293085Y-767319D02*
G03I-355J0D01*
G01Y-766628D02*
G03I-355J0D01*
G01X1292995Y-765239D02*
G03I-355J0D01*
G01X1293085Y-765928D02*
G03I-355J0D01*
G01Y-765848D02*
G03I-355J0D01*
G01X1293045Y-765398D02*
G03I-355J0D01*
G01X1292905Y-764978D02*
G03I-355J0D01*
G01X1293555Y-762659D02*
G03I-355J0D01*
G01X1292985Y-762459D02*
G03I-355J0D01*
G01X1294555Y-763159D02*
G03I-355J0D01*
G01X1294185Y-762928D02*
G03I-355J0D01*
G01X1295395Y-763848D02*
G03I-355J0D01*
G01X1295285Y-763719D02*
G03I-355J0D01*
G01X1294765Y-763278D02*
G03I-355J0D01*
G01X1296155Y-767319D02*
G03I-355J0D01*
G01Y-766628D02*
G03I-355J0D01*
G01X1296105Y-765239D02*
G03I-355J0D01*
G01X1296155Y-765928D02*
G03I-355J0D01*
G01X1296105Y-765259D02*
G03I-355J0D01*
G01X1296155Y-765848D02*
G03I-355J0D01*
G01X1295865Y-764539D02*
G03I-355J0D01*
G01X1295945Y-764689D02*
G03I-355J0D01*
G01X1295665Y-764169D02*
G03I-355J0D01*
G01X1292805Y-775239D02*
G03I-355J0D01*
G01X1292005Y-773569D02*
G03I-355J0D01*
G01X1292705Y-772869D02*
G03I-355J0D01*
G01X1292065Y-773539D02*
G03I-355J0D01*
G01X1292535Y-773169D02*
G03I-355J0D01*
G01X1292835Y-772659D02*
G03I-355J0D01*
G01X1293725Y-774959D02*
G03I-355J0D01*
G01X1293675Y-774978D02*
G03I-355J0D01*
G01X1292995Y-772178D02*
G03I-355J0D01*
G01X1293025Y-772098D02*
G03I-355J0D01*
G01X1293085Y-771478D02*
G03I-355J0D01*
G01Y-771519D02*
G03I-355J0D01*
G01Y-770789D02*
G03I-355J0D01*
G01Y-769398D02*
G03I-355J0D01*
G01Y-770098D02*
G03I-355J0D01*
G01Y-768709D02*
G03I-355J0D01*
G01Y-768009D02*
G03I-355J0D01*
G01X1294255Y-774709D02*
G03I-355J0D01*
G01X1294885Y-774259D02*
G03I-355J0D01*
G01X1295245Y-773919D02*
G03I-355J0D01*
G01X1294785Y-774359D02*
G03I-355J0D01*
G01X1295985Y-772869D02*
G03I-355J0D01*
G01X1295595Y-773569D02*
G03I-355J0D01*
G01X1295925Y-773059D02*
G03I-355J0D01*
G01X1295635Y-773528D02*
G03I-355J0D01*
G01X1296135Y-772178D02*
G03I-355J0D01*
G01X1296105Y-772539D02*
G03I-355J0D01*
G01X1296155Y-771478D02*
G03I-355J0D01*
G01Y-771989D02*
G03I-355J0D01*
G01Y-770789D02*
G03I-355J0D01*
G01Y-770098D02*
G03I-355J0D01*
G01Y-768709D02*
G03I-355J0D01*
G01Y-769398D02*
G03I-355J0D01*
G01Y-768009D02*
G03I-355J0D01*
G01X1259500Y758931D02*
Y798931D01*
G01Y758931D02*
Y748931D01*
G01X1300565Y-783209D02*
G03I-355J0D01*
G01X1301115D02*
G03I-355J0D01*
G01Y-779898D02*
G03I-355J0D01*
G01X1303475Y-783209D02*
G03I-355J0D01*
G01Y-779898D02*
G03I-355J0D01*
G01X1305235Y-783209D02*
G03I-355J0D01*
G01X1305435Y-783189D02*
G03I-355J0D01*
G01X1305635Y-783148D02*
G03I-355J0D01*
G01X1305695Y-779978D02*
G03I-355J0D01*
G01X1305475Y-779919D02*
G03I-355J0D01*
G01X1305255Y-779898D02*
G03I-355J0D01*
G01X1305825Y-783069D02*
G03I-355J0D01*
G01X1306005Y-782959D02*
G03I-355J0D01*
G01X1306165Y-782828D02*
G03I-355J0D01*
G01X1306295Y-782669D02*
G03I-355J0D01*
G01X1306405Y-782489D02*
G03I-355J0D01*
G01X1306485Y-782298D02*
G03I-355J0D01*
G01X1306525Y-782098D02*
G03I-355J0D01*
G01X1306545Y-781898D02*
G03I-355J0D01*
G01Y-781189D02*
G03I-355J0D01*
G01X1306525Y-780969D02*
G03I-355J0D01*
G01X1306465Y-780748D02*
G03I-355J0D01*
G01X1306375Y-780539D02*
G03I-355J0D01*
G01X1306545Y-781189D02*
G03I-355J0D01*
G01X1306245Y-780359D02*
G03I-355J0D01*
G01X1306085Y-780198D02*
G03I-355J0D01*
G01X1305905Y-780069D02*
G03I-355J0D01*
G01X1308975Y-782389D02*
G03I-355J0D01*
G01X1309075Y-782589D02*
G03I-355J0D01*
G01X1308915Y-781969D02*
G03I-355J0D01*
G01X1308905D02*
G03I-355J0D01*
G01X1308925Y-782189D02*
G03I-355J0D01*
G01X1308915Y-779898D02*
G03I-355J0D01*
G01X1309195Y-782769D02*
G03I-355J0D01*
G01X1309345Y-782919D02*
G03I-355J0D01*
G01X1309525Y-783039D02*
G03I-355J0D01*
G01X1309725Y-783139D02*
G03I-355J0D01*
G01X1309925Y-783189D02*
G03I-355J0D01*
G01X1310145Y-783209D02*
G03I-355J0D01*
G01X1310665D02*
G03I-355J0D01*
G01X1310895Y-783189D02*
G03I-355J0D01*
G01X1311115Y-783128D02*
G03I-355J0D01*
G01X1311325Y-783028D02*
G03I-355J0D01*
G01X1311505Y-782898D02*
G03I-355J0D01*
G01X1311665Y-782739D02*
G03I-355J0D01*
G01X1311795Y-782548D02*
G03I-355J0D01*
G01X1311895Y-782348D02*
G03I-355J0D01*
G01X1311955Y-782128D02*
G03I-355J0D01*
G01X1311975Y-781898D02*
G03I-355J0D01*
G01X1311985D02*
G03I-355J0D01*
G01Y-779898D02*
G03I-355J0D01*
G01X1314125Y-782328D02*
G03I-355J0D01*
G01X1314165Y-782509D02*
G03I-355J0D01*
G01X1314105Y-782139D02*
G03I-355J0D01*
G01X1314125Y-780759D02*
G03I-355J0D01*
G01X1314105Y-780939D02*
G03I-355J0D01*
G01X1314165Y-780578D02*
G03I-355J0D01*
G01X1314245Y-782669D02*
G03I-355J0D01*
G01X1314355Y-782828D02*
G03I-355J0D01*
G01X1314485Y-782959D02*
G03I-355J0D01*
G01X1314635Y-783069D02*
G03I-355J0D01*
G01X1314805Y-783148D02*
G03I-355J0D01*
G01X1314985Y-783189D02*
G03I-355J0D01*
G01X1314965Y-779919D02*
G03I-355J0D01*
G01X1314785Y-779959D02*
G03I-355J0D01*
G01X1314625Y-780039D02*
G03I-355J0D01*
G01X1314475Y-780139D02*
G03I-355J0D01*
G01X1314345Y-780269D02*
G03I-355J0D01*
G01X1314245Y-780419D02*
G03I-355J0D01*
G01X1315175Y-783209D02*
G03I-355J0D01*
G01X1315145Y-779898D02*
G03I-355J0D01*
G01X1316945Y-783209D02*
G03I-355J0D01*
G01Y-779898D02*
G03I-355J0D01*
G01X1299465Y-767319D02*
G03I-355J0D01*
G01Y-766628D02*
G03I-355J0D01*
G01Y-765928D02*
G03I-355J0D01*
G01Y-765239D02*
G03I-355J0D01*
G01Y-764539D02*
G03I-355J0D01*
G01Y-763848D02*
G03I-355J0D01*
G01Y-762659D02*
G03I-355J0D01*
G01Y-763159D02*
G03I-355J0D01*
G01X1302825Y-767319D02*
G03I-355J0D01*
G01X1302765Y-767048D02*
G03I-355J0D01*
G01X1302795Y-767259D02*
G03I-355J0D01*
G01X1302875Y-767448D02*
G03I-355J0D01*
G01X1302765Y-766628D02*
G03I-355J0D01*
G01Y-765928D02*
G03I-355J0D01*
G01Y-765239D02*
G03I-355J0D01*
G01Y-764539D02*
G03I-355J0D01*
G01Y-763848D02*
G03I-355J0D01*
G01Y-762659D02*
G03I-355J0D01*
G01D02*
G03I-355J0D01*
G01Y-763159D02*
G03I-355J0D01*
G01X1309805Y-767319D02*
G03I-355J0D01*
G01X1309745Y-767459D02*
G03I-355J0D01*
G01X1309825Y-767269D02*
G03I-355J0D01*
G01X1309855Y-767069D02*
G03I-355J0D01*
G01Y-766628D02*
G03I-355J0D01*
G01Y-765239D02*
G03I-355J0D01*
G01Y-765928D02*
G03I-355J0D01*
G01Y-764539D02*
G03I-355J0D01*
G01Y-763848D02*
G03I-355J0D01*
G01Y-763159D02*
G03I-355J0D01*
G01Y-762659D02*
G03I-355J0D01*
G01X1313165Y-767319D02*
G03I-355J0D01*
G01Y-766628D02*
G03I-355J0D01*
G01Y-765239D02*
G03I-355J0D01*
G01Y-765928D02*
G03I-355J0D01*
G01Y-764539D02*
G03I-355J0D01*
G01Y-763848D02*
G03I-355J0D01*
G01Y-763159D02*
G03I-355J0D01*
G01Y-762659D02*
G03I-355J0D01*
G01X1316705Y-767319D02*
G03I-355J0D01*
G01Y-766628D02*
G03I-355J0D01*
G01Y-765928D02*
G03I-355J0D01*
G01Y-764539D02*
G03I-355J0D01*
G01Y-765239D02*
G03I-355J0D01*
G01Y-763848D02*
G03I-355J0D01*
G01Y-763159D02*
G03I-355J0D01*
G01Y-762659D02*
G03I-355J0D01*
G01X1299465Y-775409D02*
G03I-355J0D01*
G01X1302765D02*
G03I-355J0D01*
G01X1309855D02*
G03I-355J0D01*
G01X1313165D02*
G03I-355J0D01*
G01X1316705D02*
G03I-355J0D01*
G01X1299465Y-774959D02*
G03I-355J0D01*
G01Y-774259D02*
G03I-355J0D01*
G01Y-773569D02*
G03I-355J0D01*
G01Y-772869D02*
G03I-355J0D01*
G01Y-772178D02*
G03I-355J0D01*
G01Y-771478D02*
G03I-355J0D01*
G01Y-770789D02*
G03I-355J0D01*
G01Y-770098D02*
G03I-355J0D01*
G01Y-768709D02*
G03I-355J0D01*
G01Y-769398D02*
G03I-355J0D01*
G01Y-768009D02*
G03I-355J0D01*
G01X1302765Y-774959D02*
G03I-355J0D01*
G01Y-774259D02*
G03I-355J0D01*
G01Y-773569D02*
G03I-355J0D01*
G01Y-772869D02*
G03I-355J0D01*
G01Y-772178D02*
G03I-355J0D01*
G01Y-771478D02*
G03I-355J0D01*
G01Y-770789D02*
G03I-355J0D01*
G01Y-770289D02*
G03I-355J0D01*
G01X1302795Y-770098D02*
G03I-355J0D01*
G01X1302995Y-769739D02*
G03I-355J0D01*
G01X1302875Y-769898D02*
G03I-355J0D01*
G01X1302795Y-770089D02*
G03I-355J0D01*
G01X1303005Y-767619D02*
G03I-355J0D01*
G01X1303545Y-769509D02*
G03I-355J0D01*
G01X1303345Y-769528D02*
G03I-355J0D01*
G01X1303155Y-769609D02*
G03I-355J0D01*
G01X1303175Y-767748D02*
G03I-355J0D01*
G01X1303365Y-767828D02*
G03I-355J0D01*
G01X1303575Y-767848D02*
G03I-355J0D01*
G01X1309025Y-769509D02*
G03I-355J0D01*
G01X1309075Y-767848D02*
G03I-355J0D01*
G01X1309855Y-774959D02*
G03I-355J0D01*
G01Y-774259D02*
G03I-355J0D01*
G01Y-773569D02*
G03I-355J0D01*
G01Y-772178D02*
G03I-355J0D01*
G01Y-772869D02*
G03I-355J0D01*
G01Y-771478D02*
G03I-355J0D01*
G01Y-770789D02*
G03I-355J0D01*
G01X1309815Y-770098D02*
G03I-355J0D01*
G01X1309855Y-770339D02*
G03I-355J0D01*
G01X1309825Y-770119D02*
G03I-355J0D01*
G01X1309745Y-769919D02*
G03I-355J0D01*
G01X1309615Y-769748D02*
G03I-355J0D01*
G01X1309445Y-769619D02*
G03I-355J0D01*
G01X1309235Y-769539D02*
G03I-355J0D01*
G01X1309275Y-767828D02*
G03I-355J0D01*
G01X1309465Y-767748D02*
G03I-355J0D01*
G01X1309625Y-767628D02*
G03I-355J0D01*
G01X1313165Y-774959D02*
G03I-355J0D01*
G01Y-774259D02*
G03I-355J0D01*
G01Y-772869D02*
G03I-355J0D01*
G01Y-773569D02*
G03I-355J0D01*
G01Y-772178D02*
G03I-355J0D01*
G01Y-771478D02*
G03I-355J0D01*
G01Y-770789D02*
G03I-355J0D01*
G01Y-770098D02*
G03I-355J0D01*
G01Y-768709D02*
G03I-355J0D01*
G01Y-769398D02*
G03I-355J0D01*
G01Y-768009D02*
G03I-355J0D01*
G01X1316705Y-774959D02*
G03I-355J0D01*
G01Y-774259D02*
G03I-355J0D01*
G01Y-773569D02*
G03I-355J0D01*
G01Y-772178D02*
G03I-355J0D01*
G01Y-772869D02*
G03I-355J0D01*
G01Y-771478D02*
G03I-355J0D01*
G01Y-770789D02*
G03I-355J0D01*
G01Y-770098D02*
G03I-355J0D01*
G01Y-768709D02*
G03I-355J0D01*
G01Y-769398D02*
G03I-355J0D01*
G01Y-768009D02*
G03I-355J0D01*
G01X1324335Y-782959D02*
G03I-355J0D01*
G01X1324175Y-782828D02*
G03I-355J0D01*
G01X1324045Y-782669D02*
G03I-355J0D01*
G01X1323935Y-782489D02*
G03I-355J0D01*
G01X1323955Y-780539D02*
G03I-355J0D01*
G01X1324085Y-780359D02*
G03I-355J0D01*
G01X1324245Y-780198D02*
G03I-355J0D01*
G01X1318835Y-779898D02*
G03I-355J0D01*
G01X1320245Y-783209D02*
G03I-355J0D01*
G01Y-779898D02*
G03I-355J0D01*
G01D02*
G03I-355J0D01*
G01X1321665D02*
G03I-355J0D01*
G01X1323855Y-782298D02*
G03I-355J0D01*
G01X1323815Y-782098D02*
G03I-355J0D01*
G01X1323795Y-781898D02*
G03I-355J0D01*
G01Y-781189D02*
G03I-355J0D01*
G01X1323785D02*
G03I-355J0D01*
G01X1323805Y-780969D02*
G03I-355J0D01*
G01X1323865Y-780748D02*
G03I-355J0D01*
G01X1324435Y-780069D02*
G03I-355J0D01*
G01X1325105Y-783209D02*
G03I-355J0D01*
G01X1324905Y-783189D02*
G03I-355J0D01*
G01X1324705Y-783148D02*
G03I-355J0D01*
G01X1324515Y-783069D02*
G03I-355J0D01*
G01X1324635Y-779978D02*
G03I-355J0D01*
G01X1324855Y-779919D02*
G03I-355J0D01*
G01X1325075Y-779898D02*
G03I-355J0D01*
G01X1326025Y-783189D02*
G03I-355J0D01*
G01X1325795Y-783209D02*
G03I-355J0D01*
G01X1325815Y-779898D02*
G03I-355J0D01*
G01X1326035Y-779919D02*
G03I-355J0D01*
G01X1326925Y-782559D02*
G03I-355J0D01*
G01X1326795Y-782748D02*
G03I-355J0D01*
G01X1326635Y-782909D02*
G03I-355J0D01*
G01X1326445Y-783039D02*
G03I-355J0D01*
G01X1326235Y-783128D02*
G03I-355J0D01*
G01X1327015Y-782348D02*
G03I-355J0D01*
G01X1326255Y-779978D02*
G03I-355J0D01*
G01X1326455Y-780069D02*
G03I-355J0D01*
G01X1326635Y-780198D02*
G03I-355J0D01*
G01X1326795Y-780359D02*
G03I-355J0D01*
G01X1326925Y-780539D02*
G03I-355J0D01*
G01X1327015Y-780739D02*
G03I-355J0D01*
G01X1327095Y-781909D02*
G03I-355J0D01*
G01X1327075Y-782139D02*
G03I-355J0D01*
G01X1327095Y-781909D02*
G03I-355J0D01*
G01X1327075Y-780959D02*
G03I-355J0D01*
G01X1327095Y-781178D02*
G03I-355J0D01*
G01X1329225Y-783209D02*
G03I-355J0D01*
G01Y-781559D02*
G03I-355J0D01*
G01D02*
G03I-355J0D01*
G01Y-779898D02*
G03I-355J0D01*
G01D02*
G03I-355J0D01*
G01X1331155Y-781559D02*
G03I-355J0D01*
G01D02*
G03I-355J0D01*
G01X1332055Y-783209D02*
G03I-355J0D01*
G01X1331435Y-781559D02*
G03I-355J0D01*
G01X1331605Y-781539D02*
G03I-355J0D01*
G01X1331765Y-781489D02*
G03I-355J0D01*
G01X1331915Y-781419D02*
G03I-355J0D01*
G01X1332045Y-781309D02*
G03I-355J0D01*
G01X1332065Y-780128D02*
G03I-355J0D01*
G01X1331935Y-780028D02*
G03I-355J0D01*
G01X1331805Y-779959D02*
G03I-355J0D01*
G01X1331655Y-779919D02*
G03I-355J0D01*
G01X1331495Y-779898D02*
G03I-355J0D01*
G01X1332155Y-781178D02*
G03I-355J0D01*
G01X1332225Y-781028D02*
G03I-355J0D01*
G01X1332275Y-780869D02*
G03I-355J0D01*
G01X1332295Y-780698D02*
G03I-355J0D01*
G01X1332275Y-780539D02*
G03I-355J0D01*
G01X1332235Y-780389D02*
G03I-355J0D01*
G01X1332165Y-780259D02*
G03I-355J0D01*
G01X1318255Y-762459D02*
G03I-355J0D01*
G01X1319775Y-767319D02*
G03I-355J0D01*
G01Y-766628D02*
G03I-355J0D01*
G01Y-765239D02*
G03I-355J0D01*
G01Y-765928D02*
G03I-355J0D01*
G01X1319795Y-764539D02*
G03I-355J0D01*
G01X1319805Y-764448D02*
G03I-355J0D01*
G01X1319775Y-764669D02*
G03I-355J0D01*
G01X1320195Y-763948D02*
G03I-355J0D01*
G01X1320015Y-764078D02*
G03I-355J0D01*
G01X1319885Y-764248D02*
G03I-355J0D01*
G01X1319645Y-762278D02*
G03I-355J0D01*
G01X1320525Y-763848D02*
G03I-355J0D01*
G01X1320605Y-763839D02*
G03I-355J0D01*
G01X1320385Y-763869D02*
G03I-355J0D01*
G01X1322125Y-763848D02*
G03I-355J0D01*
G01X1322735Y-764239D02*
G03I-355J0D01*
G01X1322615Y-764069D02*
G03I-355J0D01*
G01X1322445Y-763948D02*
G03I-355J0D01*
G01X1322255Y-763869D02*
G03I-355J0D01*
G01X1322045Y-763839D02*
G03I-355J0D01*
G01X1322615Y-762189D02*
G03I-355J0D01*
G01X1322845Y-767319D02*
G03I-355J0D01*
G01Y-766628D02*
G03I-355J0D01*
G01Y-765928D02*
G03I-355J0D01*
G01Y-765239D02*
G03I-355J0D01*
G01X1322835Y-764539D02*
G03I-355J0D01*
G01X1322845Y-764639D02*
G03I-355J0D01*
G01X1322825Y-764428D02*
G03I-355J0D01*
G01X1326155Y-767319D02*
G03I-355J0D01*
G01Y-766628D02*
G03I-355J0D01*
G01Y-765928D02*
G03I-355J0D01*
G01Y-765239D02*
G03I-355J0D01*
G01Y-764648D02*
G03I-355J0D01*
G01X1326165Y-764539D02*
G03I-355J0D01*
G01X1326185Y-764439D02*
G03I-355J0D01*
G01X1326885Y-763848D02*
G03I-355J0D01*
G01X1326965Y-763839D02*
G03I-355J0D01*
G01X1326755Y-763869D02*
G03I-355J0D01*
G01X1326565Y-763948D02*
G03I-355J0D01*
G01X1326395Y-764078D02*
G03I-355J0D01*
G01X1326265Y-764239D02*
G03I-355J0D01*
G01X1326945Y-762189D02*
G03I-355J0D01*
G01X1327805Y-763848D02*
G03I-355J0D01*
G01X1327725Y-763839D02*
G03I-355J0D01*
G01X1328715Y-764078D02*
G03I-355J0D01*
G01X1328235Y-763909D02*
G03I-355J0D01*
G01X1328105Y-762248D02*
G03I-355J0D01*
G01X1329225Y-767319D02*
G03I-355J0D01*
G01Y-766628D02*
G03I-355J0D01*
G01Y-765928D02*
G03I-355J0D01*
G01Y-765239D02*
G03I-355J0D01*
G01X1329105Y-764539D02*
G03I-355J0D01*
G01X1329225Y-765098D02*
G03I-355J0D01*
G01X1329195Y-764798D02*
G03I-355J0D01*
G01X1329095Y-764519D02*
G03I-355J0D01*
G01X1328935Y-764278D02*
G03I-355J0D01*
G01X1329405Y-762459D02*
G03I-355J0D01*
G01X1329265Y-762419D02*
G03I-355J0D01*
G01X1330045Y-762639D02*
G03I-355J0D01*
G01X1330775Y-762998D02*
G03I-355J0D01*
G01D02*
G03I-355J0D01*
G01X1330985Y-763159D02*
G03I-355J0D01*
G01X1332135Y-764539D02*
G03I-355J0D01*
G01X1331765Y-763848D02*
G03I-355J0D01*
G01X1331425Y-763478D02*
G03I-355J0D01*
G01X1331805Y-763889D02*
G03I-355J0D01*
G01X1332085Y-764369D02*
G03I-355J0D01*
G01X1332295Y-767319D02*
G03I-355J0D01*
G01Y-766628D02*
G03I-355J0D01*
G01Y-765928D02*
G03I-355J0D01*
G01X1332275Y-765239D02*
G03I-355J0D01*
G01X1332295Y-765448D02*
G03I-355J0D01*
G01X1332245Y-764898D02*
G03I-355J0D01*
G01X1319775Y-775409D02*
G03I-355J0D01*
G01X1322845D02*
G03I-355J0D01*
G01X1319775Y-774959D02*
G03I-355J0D01*
G01Y-774259D02*
G03I-355J0D01*
G01Y-772869D02*
G03I-355J0D01*
G01Y-773569D02*
G03I-355J0D01*
G01Y-772178D02*
G03I-355J0D01*
G01Y-771478D02*
G03I-355J0D01*
G01Y-770789D02*
G03I-355J0D01*
G01Y-769398D02*
G03I-355J0D01*
G01Y-770098D02*
G03I-355J0D01*
G01Y-768709D02*
G03I-355J0D01*
G01Y-768009D02*
G03I-355J0D01*
G01X1322845Y-774959D02*
G03I-355J0D01*
G01Y-774259D02*
G03I-355J0D01*
G01Y-773569D02*
G03I-355J0D01*
G01Y-772869D02*
G03I-355J0D01*
G01Y-772178D02*
G03I-355J0D01*
G01Y-771478D02*
G03I-355J0D01*
G01Y-770789D02*
G03I-355J0D01*
G01Y-770098D02*
G03I-355J0D01*
G01Y-769398D02*
G03I-355J0D01*
G01Y-768709D02*
G03I-355J0D01*
G01Y-768009D02*
G03I-355J0D01*
G01X1326155Y-775409D02*
G03I-355J0D01*
G01X1329225D02*
G03I-355J0D01*
G01X1332295D02*
G03I-355J0D01*
G01X1326155Y-774959D02*
G03I-355J0D01*
G01Y-774259D02*
G03I-355J0D01*
G01Y-773569D02*
G03I-355J0D01*
G01Y-772869D02*
G03I-355J0D01*
G01Y-772178D02*
G03I-355J0D01*
G01Y-771478D02*
G03I-355J0D01*
G01Y-770789D02*
G03I-355J0D01*
G01Y-770098D02*
G03I-355J0D01*
G01Y-769398D02*
G03I-355J0D01*
G01Y-768709D02*
G03I-355J0D01*
G01Y-768009D02*
G03I-355J0D01*
G01X1329225Y-774959D02*
G03I-355J0D01*
G01Y-774259D02*
G03I-355J0D01*
G01Y-773569D02*
G03I-355J0D01*
G01Y-772869D02*
G03I-355J0D01*
G01Y-772178D02*
G03I-355J0D01*
G01Y-771478D02*
G03I-355J0D01*
G01Y-770789D02*
G03I-355J0D01*
G01Y-770098D02*
G03I-355J0D01*
G01Y-769398D02*
G03I-355J0D01*
G01Y-768709D02*
G03I-355J0D01*
G01Y-768009D02*
G03I-355J0D01*
G01X1332295Y-774959D02*
G03I-355J0D01*
G01Y-774259D02*
G03I-355J0D01*
G01Y-773569D02*
G03I-355J0D01*
G01Y-772869D02*
G03I-355J0D01*
G01Y-772178D02*
G03I-355J0D01*
G01Y-771478D02*
G03I-355J0D01*
G01Y-770789D02*
G03I-355J0D01*
G01Y-770098D02*
G03I-355J0D01*
G01Y-769398D02*
G03I-355J0D01*
G01Y-768709D02*
G03I-355J0D01*
G01Y-768009D02*
G03I-355J0D01*
G01X1320500Y698931D02*
Y708931D01*
X1323000D01*
X1324000Y708431D01*
X1324750Y707765D01*
X1325375Y706765D01*
X1325875Y705598D01*
X1326000Y703931D01*
X1325875Y702265D01*
X1325375Y701098D01*
X1324750Y700098D01*
X1324000Y699431D01*
X1323000Y698931D01*
X1320500D01*
G01X1335750D02*
X1330750D01*
Y708931D01*
X1335750D01*
G01X1333750Y704098D02*
X1330750D01*
G01X1340625Y700264D02*
X1341625Y699431D01*
X1342750Y698931D01*
X1343750D01*
X1344750Y699431D01*
X1345500Y700264D01*
X1345875Y701432D01*
X1345625Y702598D01*
X1345000Y703598D01*
X1343875Y704265D01*
X1342375Y704598D01*
X1341500Y705265D01*
X1341125Y706431D01*
X1341375Y707598D01*
X1342000Y708431D01*
X1342875Y708931D01*
X1343750D01*
X1344625Y708598D01*
X1345375Y707765D01*
G01X1356000Y708098D02*
X1355250Y708598D01*
X1354375Y708931D01*
X1353375D01*
X1352250Y708431D01*
X1351375Y707598D01*
X1350750Y706598D01*
X1350250Y704931D01*
X1350125Y703431D01*
X1350375Y701931D01*
X1350750Y700931D01*
X1351500Y699931D01*
X1352375Y699265D01*
X1353250Y698931D01*
X1354125D01*
X1355000Y699265D01*
X1355750Y699765D01*
X1356375Y700431D01*
G01X1360750Y698931D02*
Y708931D01*
X1363875D01*
X1364875Y708431D01*
X1365500Y707765D01*
X1365750Y706431D01*
X1365500Y705098D01*
X1364750Y704265D01*
X1363875Y703765D01*
X1360750D01*
G01X1363875D02*
X1365750Y698931D01*
G01X1371750Y708931D02*
X1374750D01*
G01X1373250D02*
Y698931D01*
G01X1371750D02*
X1374750D01*
G01X1380750D02*
Y708931D01*
X1383750D01*
X1384750Y708431D01*
X1385500Y707265D01*
X1385750Y705931D01*
X1385500Y704598D01*
X1384875Y703598D01*
X1383750Y703098D01*
X1380750D01*
G01X1393250Y708931D02*
Y698931D01*
G01X1390375Y708931D02*
X1396125D01*
G01X1401750D02*
X1404750D01*
G01X1403250D02*
Y698931D01*
G01X1401750D02*
X1404750D01*
G01X1413250D02*
X1412250Y699098D01*
X1411375Y699765D01*
X1410625Y700765D01*
X1410125Y701931D01*
X1409875Y703265D01*
Y704598D01*
X1410125Y705931D01*
X1410625Y707098D01*
X1411375Y708098D01*
X1412250Y708765D01*
X1413250Y708931D01*
X1414250Y708765D01*
X1415125Y708098D01*
X1415875Y707098D01*
X1416375Y705931D01*
X1416625Y704598D01*
Y703265D01*
X1416375Y701931D01*
X1415875Y700765D01*
X1415125Y699765D01*
X1414250Y699098D01*
X1413250Y698931D01*
G01X1420375D02*
Y708931D01*
X1426125Y698931D01*
Y708931D01*
G01X1482000Y-799069D02*
X1374500D01*
G01Y-736069D02*
Y-811069D01*
G01X1492000Y-766069D02*
X1374500D01*
G01X1482000Y-777069D02*
X1374500D01*
G01X1492000Y-788569D02*
X1374500D01*
G01X1407087Y-792902D02*
X1407407Y-792402D01*
X1407780Y-792152D01*
X1408207Y-792069D01*
X1408740Y-792235D01*
X1409113Y-792652D01*
X1409220Y-793152D01*
X1409167Y-793652D01*
X1408953Y-794069D01*
X1407887Y-794902D01*
X1407407Y-795485D01*
X1407087Y-796319D01*
X1406980Y-797069D01*
X1409220D01*
G01X1412300Y-792069D02*
X1411873Y-792235D01*
X1411553Y-792652D01*
X1411340Y-793152D01*
X1411180Y-793819D01*
X1411127Y-794569D01*
X1411180Y-795319D01*
X1411340Y-795985D01*
X1411553Y-796485D01*
X1411873Y-796902D01*
X1412300Y-797069D01*
X1412727Y-796902D01*
X1413047Y-796485D01*
X1413260Y-795985D01*
X1413420Y-795319D01*
X1413473Y-794569D01*
X1413420Y-793819D01*
X1413260Y-793152D01*
X1413047Y-792652D01*
X1412727Y-792235D01*
X1412300Y-792069D01*
G01X1416500Y-797069D02*
Y-792069D01*
X1415860Y-793068D01*
G01Y-797069D02*
X1417140D01*
G01X1421340D02*
Y-792069D01*
X1419367Y-795652D01*
X1422033D01*
G01X1424207Y-795402D02*
X1425593D01*
G01X1429100Y-792069D02*
X1428673Y-792235D01*
X1428353Y-792652D01*
X1428140Y-793152D01*
X1427980Y-793819D01*
X1427927Y-794569D01*
X1427980Y-795319D01*
X1428140Y-795985D01*
X1428353Y-796485D01*
X1428673Y-796902D01*
X1429100Y-797069D01*
X1429527Y-796902D01*
X1429847Y-796485D01*
X1430060Y-795985D01*
X1430220Y-795319D01*
X1430273Y-794569D01*
X1430220Y-793819D01*
X1430060Y-793152D01*
X1429847Y-792652D01*
X1429527Y-792235D01*
X1429100Y-792069D01*
G01X1433300Y-797069D02*
X1433673Y-796985D01*
X1434100Y-796735D01*
X1434367Y-796319D01*
X1434473Y-795735D01*
X1434367Y-795152D01*
X1434047Y-794652D01*
X1433567Y-794402D01*
X1433033D01*
X1432713Y-794235D01*
X1432447Y-793819D01*
X1432340Y-793235D01*
X1432500Y-792652D01*
X1432873Y-792235D01*
X1433300Y-792069D01*
X1433727Y-792235D01*
X1434100Y-792652D01*
X1434260Y-793235D01*
X1434153Y-793819D01*
X1433887Y-794235D01*
X1433567Y-794402D01*
X1433033D01*
X1432553Y-794652D01*
X1432233Y-795152D01*
X1432127Y-795735D01*
X1432233Y-796319D01*
X1432500Y-796735D01*
X1432927Y-796985D01*
X1433300Y-797069D01*
G01X1436807Y-795402D02*
X1438193D01*
G01X1441700Y-797069D02*
Y-792069D01*
X1441060Y-793068D01*
G01Y-797069D02*
X1442340D01*
G01X1444727Y-796069D02*
X1445047Y-796652D01*
X1445473Y-796985D01*
X1445953Y-797069D01*
X1446380Y-796985D01*
X1446807Y-796569D01*
X1447073Y-796069D01*
X1447127Y-795569D01*
X1447020Y-794985D01*
X1446647Y-794569D01*
X1446273Y-794402D01*
X1445793D01*
G01X1446273D02*
X1446593Y-794152D01*
X1446860Y-793735D01*
X1446967Y-793235D01*
X1446860Y-792735D01*
X1446593Y-792319D01*
X1446113Y-792069D01*
X1445633Y-792152D01*
X1445153Y-792485D01*
G01X1380927Y-797069D02*
Y-792069D01*
X1381993D01*
X1382420Y-792319D01*
X1382740Y-792652D01*
X1383007Y-793152D01*
X1383220Y-793735D01*
X1383273Y-794569D01*
X1383220Y-795402D01*
X1383007Y-795985D01*
X1382740Y-796485D01*
X1382420Y-796819D01*
X1381993Y-797069D01*
X1380927D01*
G01X1384967D02*
X1386300Y-792069D01*
X1387633Y-797069D01*
G01X1387153Y-795319D02*
X1385447D01*
G01X1390500Y-792069D02*
Y-797069D01*
G01X1389273Y-792069D02*
X1391727D01*
G01X1395767Y-797069D02*
X1393633D01*
Y-792069D01*
X1395767D01*
G01X1394913Y-794485D02*
X1393633D01*
G01X1398900Y-797235D02*
X1398793Y-797152D01*
Y-796985D01*
X1398900Y-796902D01*
X1399007Y-796985D01*
Y-797152D01*
X1398900Y-797235D01*
G01Y-794985D02*
X1398793Y-794902D01*
Y-794735D01*
X1398900Y-794652D01*
X1399007Y-794735D01*
Y-794902D01*
X1398900Y-794985D01*
G01X1380033Y-807069D02*
X1380300Y-807569D01*
X1380620Y-807902D01*
X1380993Y-808069D01*
X1381420Y-807902D01*
X1381740Y-807569D01*
X1382060Y-807069D01*
X1382167Y-806402D01*
Y-803069D01*
G01X1385300Y-808069D02*
X1384873Y-807985D01*
X1384500Y-807652D01*
X1384180Y-807152D01*
X1383967Y-806569D01*
X1383860Y-805902D01*
Y-805235D01*
X1383967Y-804569D01*
X1384180Y-803985D01*
X1384500Y-803485D01*
X1384873Y-803152D01*
X1385300Y-803069D01*
X1385727Y-803152D01*
X1386100Y-803485D01*
X1386420Y-803985D01*
X1386633Y-804569D01*
X1386740Y-805235D01*
Y-805902D01*
X1386633Y-806569D01*
X1386420Y-807152D01*
X1386100Y-807652D01*
X1385727Y-807985D01*
X1385300Y-808069D01*
G01X1389927Y-805402D02*
X1390140Y-805152D01*
X1390300Y-804735D01*
X1390407Y-804152D01*
X1390300Y-803652D01*
X1390087Y-803319D01*
X1389713Y-803069D01*
X1388273D01*
Y-808069D01*
X1390033D01*
X1390407Y-807735D01*
X1390620Y-807235D01*
X1390727Y-806652D01*
X1390620Y-806069D01*
X1390300Y-805569D01*
X1389927Y-805402D01*
X1388273D01*
G01X1392633Y-809735D02*
X1393700Y-803069D01*
G01X1394767D02*
X1393700Y-809735D01*
G01X1392100Y-807235D02*
X1395300D01*
G01Y-805569D02*
X1392100D01*
G01X1397900Y-808235D02*
X1397793Y-808152D01*
Y-807985D01*
X1397900Y-807902D01*
X1398007Y-807985D01*
Y-808152D01*
X1397900Y-808235D01*
G01Y-805985D02*
X1397793Y-805902D01*
Y-805735D01*
X1397900Y-805652D01*
X1398007Y-805735D01*
Y-805902D01*
X1397900Y-805985D01*
G01X1399933Y-756069D02*
X1402100Y-748069D01*
X1404267Y-756069D01*
G01X1403487Y-753269D02*
X1400713D01*
G01X1407080Y-755002D02*
X1407773Y-755669D01*
X1408553Y-756069D01*
X1409247D01*
X1409940Y-755669D01*
X1410460Y-755002D01*
X1410720Y-754069D01*
X1410547Y-753135D01*
X1410113Y-752335D01*
X1409333Y-751802D01*
X1408293Y-751535D01*
X1407687Y-751002D01*
X1407427Y-750069D01*
X1407600Y-749135D01*
X1408033Y-748469D01*
X1408640Y-748069D01*
X1409247D01*
X1409853Y-748335D01*
X1410373Y-749002D01*
G01X1413880Y-755002D02*
X1414573Y-755669D01*
X1415353Y-756069D01*
X1416047D01*
X1416740Y-755669D01*
X1417260Y-755002D01*
X1417520Y-754069D01*
X1417347Y-753135D01*
X1416913Y-752335D01*
X1416133Y-751802D01*
X1415093Y-751535D01*
X1414487Y-751002D01*
X1414227Y-750069D01*
X1414400Y-749135D01*
X1414833Y-748469D01*
X1415440Y-748069D01*
X1416047D01*
X1416653Y-748335D01*
X1417173Y-749002D01*
G01X1424233Y-756069D02*
X1420767D01*
Y-748069D01*
X1424233D01*
G01X1422847Y-751935D02*
X1420767D01*
G01X1427047Y-756069D02*
Y-748069D01*
X1429300Y-754735D01*
X1431553Y-748069D01*
Y-756069D01*
G01X1436793Y-751802D02*
X1437140Y-751402D01*
X1437400Y-750735D01*
X1437573Y-749802D01*
X1437400Y-749002D01*
X1437053Y-748469D01*
X1436447Y-748069D01*
X1434107D01*
Y-756069D01*
X1436967D01*
X1437573Y-755535D01*
X1437920Y-754735D01*
X1438093Y-753802D01*
X1437920Y-752869D01*
X1437400Y-752069D01*
X1436793Y-751802D01*
X1434107D01*
G01X1441167Y-748069D02*
Y-756069D01*
X1444633D01*
G01X1449700D02*
Y-752469D01*
X1447967Y-748069D01*
G01X1451433D02*
X1449700Y-752469D01*
G01X1463300Y-748069D02*
Y-756069D01*
G01X1461307Y-748069D02*
X1465293D01*
G01X1470100Y-756069D02*
X1469407Y-755935D01*
X1468800Y-755402D01*
X1468280Y-754602D01*
X1467933Y-753669D01*
X1467760Y-752602D01*
Y-751535D01*
X1467933Y-750469D01*
X1468280Y-749535D01*
X1468800Y-748735D01*
X1469407Y-748202D01*
X1470100Y-748069D01*
X1470793Y-748202D01*
X1471400Y-748735D01*
X1471920Y-749535D01*
X1472267Y-750469D01*
X1472440Y-751535D01*
Y-752602D01*
X1472267Y-753669D01*
X1471920Y-754602D01*
X1471400Y-755402D01*
X1470793Y-755935D01*
X1470100Y-756069D01*
G01X1475167D02*
Y-748069D01*
X1477247D01*
X1477940Y-748469D01*
X1478460Y-749402D01*
X1478633Y-750469D01*
X1478460Y-751535D01*
X1478027Y-752335D01*
X1477247Y-752736D01*
X1475167D01*
G01X1379927Y-775069D02*
Y-770069D01*
X1380993D01*
X1381420Y-770319D01*
X1381740Y-770652D01*
X1382007Y-771152D01*
X1382220Y-771735D01*
X1382273Y-772569D01*
X1382220Y-773402D01*
X1382007Y-773985D01*
X1381740Y-774485D01*
X1381420Y-774819D01*
X1380993Y-775069D01*
X1379927D01*
G01X1386367D02*
X1384233D01*
Y-770069D01*
X1386367D01*
G01X1385513Y-772485D02*
X1384233D01*
G01X1388380Y-774402D02*
X1388807Y-774819D01*
X1389287Y-775069D01*
X1389713D01*
X1390140Y-774819D01*
X1390460Y-774402D01*
X1390620Y-773819D01*
X1390513Y-773235D01*
X1390247Y-772735D01*
X1389767Y-772402D01*
X1389127Y-772235D01*
X1388753Y-771902D01*
X1388593Y-771319D01*
X1388700Y-770735D01*
X1388967Y-770319D01*
X1389340Y-770069D01*
X1389713D01*
X1390087Y-770235D01*
X1390407Y-770652D01*
G01X1393060Y-770069D02*
X1394340D01*
G01X1393700D02*
Y-775069D01*
G01X1393060D02*
X1394340D01*
G01X1398220Y-772569D02*
X1399287D01*
Y-774069D01*
X1398967Y-774569D01*
X1398593Y-774902D01*
X1398060Y-775069D01*
X1397527Y-774902D01*
X1397153Y-774569D01*
X1396833Y-774069D01*
X1396620Y-773485D01*
X1396513Y-772819D01*
Y-772235D01*
X1396620Y-771735D01*
X1396833Y-771152D01*
X1397153Y-770652D01*
X1397473Y-770319D01*
X1397900Y-770069D01*
X1398273D01*
X1398700Y-770235D01*
X1399020Y-770569D01*
G01X1400873Y-775069D02*
Y-770069D01*
X1403327Y-775069D01*
Y-770069D01*
G01X1407367Y-775069D02*
X1405233D01*
Y-770069D01*
X1407367D01*
G01X1406513Y-772485D02*
X1405233D01*
G01X1409433Y-775069D02*
Y-770069D01*
X1410767D01*
X1411193Y-770319D01*
X1411460Y-770652D01*
X1411567Y-771319D01*
X1411460Y-771985D01*
X1411140Y-772402D01*
X1410767Y-772652D01*
X1409433D01*
G01X1410767D02*
X1411567Y-775069D01*
G01X1414700Y-775235D02*
X1414593Y-775152D01*
Y-774985D01*
X1414700Y-774902D01*
X1414807Y-774985D01*
Y-775152D01*
X1414700Y-775235D01*
G01Y-772985D02*
X1414593Y-772902D01*
Y-772735D01*
X1414700Y-772652D01*
X1414807Y-772735D01*
Y-772902D01*
X1414700Y-772985D01*
G01X1382273Y-781485D02*
X1381953Y-781235D01*
X1381580Y-781069D01*
X1381153D01*
X1380673Y-781319D01*
X1380300Y-781735D01*
X1380033Y-782235D01*
X1379820Y-783069D01*
X1379767Y-783819D01*
X1379873Y-784569D01*
X1380033Y-785069D01*
X1380353Y-785569D01*
X1380727Y-785902D01*
X1381100Y-786069D01*
X1381473D01*
X1381847Y-785902D01*
X1382167Y-785652D01*
X1382433Y-785319D01*
G01X1384180Y-786069D02*
Y-781069D01*
G01X1386420D02*
Y-786069D01*
G01Y-783569D02*
X1384180D01*
G01X1390567Y-786069D02*
X1388433D01*
Y-781069D01*
X1390567D01*
G01X1389713Y-783485D02*
X1388433D01*
G01X1394873Y-781485D02*
X1394553Y-781235D01*
X1394180Y-781069D01*
X1393753D01*
X1393273Y-781319D01*
X1392900Y-781735D01*
X1392633Y-782235D01*
X1392420Y-783069D01*
X1392367Y-783819D01*
X1392473Y-784569D01*
X1392633Y-785069D01*
X1392953Y-785569D01*
X1393327Y-785902D01*
X1393700Y-786069D01*
X1394073D01*
X1394447Y-785902D01*
X1394767Y-785652D01*
X1395033Y-785319D01*
G01X1396727Y-786069D02*
Y-781069D01*
G01X1398753D02*
X1396727Y-784152D01*
G01X1399073Y-786069D02*
X1397633Y-782735D01*
G01X1403167Y-786069D02*
X1401033D01*
Y-781069D01*
X1403167D01*
G01X1402313Y-783485D02*
X1401033D01*
G01X1405233Y-786069D02*
Y-781069D01*
X1406567D01*
X1406993Y-781319D01*
X1407260Y-781652D01*
X1407367Y-782319D01*
X1407260Y-782985D01*
X1406940Y-783402D01*
X1406567Y-783652D01*
X1405233D01*
G01X1406567D02*
X1407367Y-786069D01*
G01X1410500Y-786235D02*
X1410393Y-786152D01*
Y-785985D01*
X1410500Y-785902D01*
X1410607Y-785985D01*
Y-786152D01*
X1410500Y-786235D01*
G01Y-783985D02*
X1410393Y-783902D01*
Y-783735D01*
X1410500Y-783652D01*
X1410607Y-783735D01*
Y-783902D01*
X1410500Y-783985D01*
G01X1410750Y728931D02*
Y738931D01*
X1413875D01*
X1414875Y738431D01*
X1415500Y737765D01*
X1415750Y736431D01*
X1415500Y735098D01*
X1414750Y734265D01*
X1413875Y733765D01*
X1410750D01*
G01X1413875D02*
X1415750Y728931D01*
G01X1425750D02*
X1420750D01*
Y738931D01*
X1425750D01*
G01X1423750Y734098D02*
X1420750D01*
G01X1430125Y738931D02*
X1433250Y728931D01*
X1436375Y738931D01*
G01X1441750D02*
X1444750D01*
G01X1443250D02*
Y728931D01*
G01X1441750D02*
X1444750D01*
G01X1450625Y730264D02*
X1451625Y729431D01*
X1452750Y728931D01*
X1453750D01*
X1454750Y729431D01*
X1455500Y730264D01*
X1455875Y731432D01*
X1455625Y732598D01*
X1455000Y733598D01*
X1453875Y734265D01*
X1452375Y734598D01*
X1451500Y735265D01*
X1451125Y736431D01*
X1451375Y737598D01*
X1452000Y738431D01*
X1452875Y738931D01*
X1453750D01*
X1454625Y738598D01*
X1455375Y737765D01*
G01X1461750Y738931D02*
X1464750D01*
G01X1463250D02*
Y728931D01*
G01X1461750D02*
X1464750D01*
G01X1473250D02*
X1472250Y729098D01*
X1471375Y729765D01*
X1470625Y730765D01*
X1470125Y731931D01*
X1469875Y733265D01*
Y734598D01*
X1470125Y735931D01*
X1470625Y737098D01*
X1471375Y738098D01*
X1472250Y738765D01*
X1473250Y738931D01*
X1474250Y738765D01*
X1475125Y738098D01*
X1475875Y737098D01*
X1476375Y735931D01*
X1476625Y734598D01*
Y733265D01*
X1476375Y731931D01*
X1475875Y730765D01*
X1475125Y729765D01*
X1474250Y729098D01*
X1473250Y728931D01*
G01X1480375D02*
Y738931D01*
X1486125Y728931D01*
Y738931D01*
G01X1490625Y730264D02*
X1491625Y729431D01*
X1492750Y728931D01*
X1493750D01*
X1494750Y729431D01*
X1495500Y730264D01*
X1495875Y731432D01*
X1495625Y732598D01*
X1495000Y733598D01*
X1493875Y734265D01*
X1492375Y734598D01*
X1491500Y735265D01*
X1491125Y736431D01*
X1491375Y737598D01*
X1492000Y738431D01*
X1492875Y738931D01*
X1493750D01*
X1494625Y738598D01*
X1495375Y737765D01*
G01X1420033Y-775069D02*
Y-770069D01*
X1421313D01*
X1421740Y-770319D01*
X1422060Y-770902D01*
X1422167Y-771569D01*
X1422060Y-772235D01*
X1421793Y-772735D01*
X1421313Y-772985D01*
X1420033D01*
G01X1425300Y-770069D02*
Y-775069D01*
G01X1424073Y-770069D02*
X1426527D01*
G01X1428380Y-775069D02*
Y-770069D01*
G01X1430620D02*
Y-775069D01*
G01Y-772569D02*
X1428380D01*
G01X1432367Y-770069D02*
X1433700Y-775069D01*
X1435033Y-770069D01*
G01X1436727Y-775069D02*
Y-770069D01*
X1437793D01*
X1438220Y-770319D01*
X1438540Y-770652D01*
X1438807Y-771152D01*
X1439020Y-771735D01*
X1439073Y-772569D01*
X1439020Y-773402D01*
X1438807Y-773985D01*
X1438540Y-774485D01*
X1438220Y-774819D01*
X1437793Y-775069D01*
X1436727D01*
G01X1443273Y-770485D02*
X1442953Y-770235D01*
X1442580Y-770069D01*
X1442153D01*
X1441673Y-770319D01*
X1441300Y-770735D01*
X1441033Y-771235D01*
X1440820Y-772069D01*
X1440767Y-772819D01*
X1440873Y-773569D01*
X1441033Y-774069D01*
X1441353Y-774569D01*
X1441727Y-774902D01*
X1442100Y-775069D01*
X1442473D01*
X1442847Y-774902D01*
X1443167Y-774652D01*
X1443433Y-774319D01*
G01X1420460Y-781069D02*
X1421740D01*
G01X1421100D02*
Y-786069D01*
G01X1420460D02*
X1421740D01*
G01X1424073D02*
Y-781069D01*
X1426527Y-786069D01*
Y-781069D01*
G01X1428860D02*
X1430140D01*
G01X1429500D02*
Y-786069D01*
G01X1428860D02*
X1430140D01*
G01X1433700Y-781069D02*
Y-786069D01*
G01X1432473Y-781069D02*
X1434927D01*
G01X1437260D02*
X1438540D01*
G01X1437900D02*
Y-786069D01*
G01X1437260D02*
X1438540D01*
G01X1440767D02*
X1442100Y-781069D01*
X1443433Y-786069D01*
G01X1442953Y-784319D02*
X1441247D01*
G01X1445233Y-781069D02*
Y-786069D01*
X1447367D01*
G01X1495733Y-796169D02*
X1497400Y-790169D01*
X1499067Y-796169D01*
G01X1498467Y-794069D02*
X1496333D01*
G01X1501200Y-795369D02*
X1501733Y-795869D01*
X1502333Y-796169D01*
X1502867D01*
X1503400Y-795869D01*
X1503800Y-795369D01*
X1504000Y-794669D01*
X1503867Y-793969D01*
X1503533Y-793369D01*
X1502933Y-792969D01*
X1502133Y-792769D01*
X1501667Y-792369D01*
X1501467Y-791669D01*
X1501600Y-790969D01*
X1501933Y-790469D01*
X1502400Y-790169D01*
X1502867D01*
X1503333Y-790369D01*
X1503733Y-790869D01*
G01X1506400Y-795369D02*
X1506933Y-795869D01*
X1507533Y-796169D01*
X1508067D01*
X1508600Y-795869D01*
X1509000Y-795369D01*
X1509200Y-794669D01*
X1509067Y-793969D01*
X1508733Y-793369D01*
X1508133Y-792969D01*
X1507333Y-792769D01*
X1506867Y-792369D01*
X1506667Y-791669D01*
X1506800Y-790969D01*
X1507133Y-790469D01*
X1507600Y-790169D01*
X1508067D01*
X1508533Y-790369D01*
X1508933Y-790869D01*
G01X1514333Y-796169D02*
X1511667D01*
Y-790169D01*
X1514333D01*
G01X1513267Y-793068D02*
X1511667D01*
G01X1516467Y-796169D02*
Y-790169D01*
X1518200Y-795169D01*
X1519933Y-790169D01*
Y-796169D01*
G01X1523933Y-792969D02*
X1524200Y-792669D01*
X1524400Y-792169D01*
X1524533Y-791468D01*
X1524400Y-790869D01*
X1524133Y-790469D01*
X1523667Y-790169D01*
X1521867D01*
Y-796169D01*
X1524067D01*
X1524533Y-795769D01*
X1524800Y-795169D01*
X1524933Y-794469D01*
X1524800Y-793769D01*
X1524400Y-793169D01*
X1523933Y-792969D01*
X1521867D01*
G01X1527267Y-790169D02*
Y-796169D01*
X1529933D01*
G01X1533800D02*
Y-793469D01*
X1532467Y-790169D01*
G01X1535133D02*
X1533800Y-793469D01*
G01X1542667Y-796169D02*
Y-790169D01*
X1545733Y-796169D01*
Y-790169D01*
G01X1547933D02*
Y-794469D01*
X1548200Y-795369D01*
X1548733Y-795969D01*
X1549400Y-796169D01*
X1550067Y-795969D01*
X1550600Y-795369D01*
X1550867Y-794469D01*
Y-790169D01*
G01X1552867Y-796169D02*
Y-790169D01*
X1554600Y-795169D01*
X1556333Y-790169D01*
Y-796169D01*
G01X1560333Y-792969D02*
X1560600Y-792669D01*
X1560800Y-792169D01*
X1560933Y-791468D01*
X1560800Y-790869D01*
X1560533Y-790469D01*
X1560067Y-790169D01*
X1558267D01*
Y-796169D01*
X1560467D01*
X1560933Y-795769D01*
X1561200Y-795169D01*
X1561333Y-794469D01*
X1561200Y-793769D01*
X1560800Y-793169D01*
X1560333Y-792969D01*
X1558267D01*
G01X1566333Y-796169D02*
X1563667D01*
Y-790169D01*
X1566333D01*
G01X1565267Y-793068D02*
X1563667D01*
G01X1568867Y-796169D02*
Y-790169D01*
X1570533D01*
X1571067Y-790469D01*
X1571400Y-790869D01*
X1571533Y-791669D01*
X1571400Y-792469D01*
X1571000Y-792969D01*
X1570533Y-793269D01*
X1568867D01*
G01X1570533D02*
X1571533Y-796169D01*
G01X1575400Y-796369D02*
X1575267Y-796269D01*
Y-796069D01*
X1575400Y-795969D01*
X1575533Y-796069D01*
Y-796269D01*
X1575400Y-796369D01*
G01Y-793669D02*
X1575267Y-793569D01*
Y-793369D01*
X1575400Y-793269D01*
X1575533Y-793369D01*
Y-793569D01*
X1575400Y-793669D01*
G01X1502507Y-808569D02*
Y-800569D01*
X1506493Y-808569D01*
Y-800569D01*
G01X1509393D02*
Y-806302D01*
X1509740Y-807502D01*
X1510433Y-808302D01*
X1511300Y-808569D01*
X1512167Y-808302D01*
X1512860Y-807502D01*
X1513207Y-806302D01*
Y-800569D01*
G01X1515847Y-808569D02*
Y-800569D01*
X1518100Y-807235D01*
X1520353Y-800569D01*
Y-808569D01*
G01X1525593Y-804302D02*
X1525940Y-803902D01*
X1526200Y-803235D01*
X1526373Y-802302D01*
X1526200Y-801502D01*
X1525853Y-800969D01*
X1525247Y-800569D01*
X1522907D01*
Y-808569D01*
X1525767D01*
X1526373Y-808035D01*
X1526720Y-807235D01*
X1526893Y-806302D01*
X1526720Y-805369D01*
X1526200Y-804569D01*
X1525593Y-804302D01*
X1522907D01*
G01X1533433Y-808569D02*
X1529967D01*
Y-800569D01*
X1533433D01*
G01X1532047Y-804435D02*
X1529967D01*
G01X1536767Y-808569D02*
Y-800569D01*
X1538933D01*
X1539627Y-800969D01*
X1540060Y-801502D01*
X1540233Y-802569D01*
X1540060Y-803635D01*
X1539540Y-804302D01*
X1538933Y-804702D01*
X1536767D01*
G01X1538933D02*
X1540233Y-808569D01*
G01X1482000Y-736069D02*
Y-811069D01*
G01X1486580Y-784002D02*
X1487273Y-784669D01*
X1488053Y-785069D01*
X1488747D01*
X1489440Y-784669D01*
X1489960Y-784002D01*
X1490220Y-783069D01*
X1490047Y-782135D01*
X1489613Y-781335D01*
X1488833Y-780802D01*
X1487793Y-780535D01*
X1487187Y-780002D01*
X1486927Y-779069D01*
X1487100Y-778135D01*
X1487533Y-777469D01*
X1488140Y-777069D01*
X1488747D01*
X1489353Y-777335D01*
X1489873Y-778002D01*
G01X1496933Y-785069D02*
X1493467D01*
Y-777069D01*
X1496933D01*
G01X1495547Y-780935D02*
X1493467D01*
G01X1500007Y-785069D02*
Y-777069D01*
X1503993Y-785069D01*
Y-777069D01*
G01X1506980Y-784002D02*
X1507673Y-784669D01*
X1508453Y-785069D01*
X1509147D01*
X1509840Y-784669D01*
X1510360Y-784002D01*
X1510620Y-783069D01*
X1510447Y-782135D01*
X1510013Y-781335D01*
X1509233Y-780802D01*
X1508193Y-780535D01*
X1507587Y-780002D01*
X1507327Y-779069D01*
X1507500Y-778135D01*
X1507933Y-777469D01*
X1508540Y-777069D01*
X1509147D01*
X1509753Y-777335D01*
X1510273Y-778002D01*
G01X1515600Y-785069D02*
X1514907Y-784935D01*
X1514300Y-784402D01*
X1513780Y-783602D01*
X1513433Y-782669D01*
X1513260Y-781602D01*
Y-780535D01*
X1513433Y-779469D01*
X1513780Y-778535D01*
X1514300Y-777735D01*
X1514907Y-777202D01*
X1515600Y-777069D01*
X1516293Y-777202D01*
X1516900Y-777735D01*
X1517420Y-778535D01*
X1517767Y-779469D01*
X1517940Y-780535D01*
Y-781602D01*
X1517767Y-782669D01*
X1517420Y-783602D01*
X1516900Y-784402D01*
X1516293Y-784935D01*
X1515600Y-785069D01*
G01X1520667D02*
Y-777069D01*
X1522833D01*
X1523527Y-777469D01*
X1523960Y-778002D01*
X1524133Y-779069D01*
X1523960Y-780135D01*
X1523440Y-780802D01*
X1522833Y-781202D01*
X1520667D01*
G01X1522833D02*
X1524133Y-785069D01*
G01X1534267D02*
Y-777069D01*
X1536347D01*
X1537040Y-777469D01*
X1537560Y-778402D01*
X1537733Y-779469D01*
X1537560Y-780535D01*
X1537127Y-781335D01*
X1536347Y-781736D01*
X1534267D01*
G01X1541067Y-777069D02*
Y-785069D01*
X1544533D01*
G01X1547433D02*
X1549600Y-777069D01*
X1551767Y-785069D01*
G01X1550987Y-782269D02*
X1548213D01*
G01X1556400Y-777069D02*
Y-785069D01*
G01X1554407Y-777069D02*
X1558393D01*
G01X1561553Y-785069D02*
Y-777069D01*
X1564847D01*
G01X1563633Y-780935D02*
X1561553D01*
G01X1570000Y-785069D02*
X1569307Y-784935D01*
X1568700Y-784402D01*
X1568180Y-783602D01*
X1567833Y-782669D01*
X1567660Y-781602D01*
Y-780535D01*
X1567833Y-779469D01*
X1568180Y-778535D01*
X1568700Y-777735D01*
X1569307Y-777202D01*
X1570000Y-777069D01*
X1570693Y-777202D01*
X1571300Y-777735D01*
X1571820Y-778535D01*
X1572167Y-779469D01*
X1572340Y-780535D01*
Y-781602D01*
X1572167Y-782669D01*
X1571820Y-783602D01*
X1571300Y-784402D01*
X1570693Y-784935D01*
X1570000Y-785069D01*
G01X1575067D02*
Y-777069D01*
X1577233D01*
X1577927Y-777469D01*
X1578360Y-778002D01*
X1578533Y-779069D01*
X1578360Y-780135D01*
X1577840Y-780802D01*
X1577233Y-781202D01*
X1575067D01*
G01X1577233D02*
X1578533Y-785069D01*
G01X1581347D02*
Y-777069D01*
X1583600Y-783735D01*
X1585853Y-777069D01*
Y-785069D01*
G01X1587800Y-787735D02*
X1593000D01*
G01X1597893Y-780802D02*
X1598240Y-780402D01*
X1598500Y-779735D01*
X1598673Y-778802D01*
X1598500Y-778002D01*
X1598153Y-777469D01*
X1597547Y-777069D01*
X1595207D01*
Y-785069D01*
X1598067D01*
X1598673Y-784535D01*
X1599020Y-783735D01*
X1599193Y-782802D01*
X1599020Y-781869D01*
X1598500Y-781069D01*
X1597893Y-780802D01*
X1595207D01*
G01X1602267Y-785069D02*
Y-777069D01*
X1604433D01*
X1605127Y-777469D01*
X1605560Y-778002D01*
X1605733Y-779069D01*
X1605560Y-780135D01*
X1605040Y-780802D01*
X1604433Y-781202D01*
X1602267D01*
G01X1604433D02*
X1605733Y-785069D01*
G01X1612533D02*
X1609067D01*
Y-777069D01*
X1612533D01*
G01X1611147Y-780935D02*
X1609067D01*
G01X1615433Y-785069D02*
X1617600Y-777069D01*
X1619767Y-785069D01*
G01X1618987Y-782269D02*
X1616213D01*
G01X1622493Y-785069D02*
Y-777069D01*
G01X1625787D02*
X1622493Y-782002D01*
G01X1626307Y-785069D02*
X1623967Y-779735D01*
G01X1631200Y-785069D02*
X1630507Y-784935D01*
X1629900Y-784402D01*
X1629380Y-783602D01*
X1629033Y-782669D01*
X1628860Y-781602D01*
Y-780535D01*
X1629033Y-779469D01*
X1629380Y-778535D01*
X1629900Y-777735D01*
X1630507Y-777202D01*
X1631200Y-777069D01*
X1631893Y-777202D01*
X1632500Y-777735D01*
X1633020Y-778535D01*
X1633367Y-779469D01*
X1633540Y-780535D01*
Y-781602D01*
X1633367Y-782669D01*
X1633020Y-783602D01*
X1632500Y-784402D01*
X1631893Y-784935D01*
X1631200Y-785069D01*
G01X1636093Y-777069D02*
Y-782802D01*
X1636440Y-784002D01*
X1637133Y-784802D01*
X1638000Y-785069D01*
X1638867Y-784802D01*
X1639560Y-784002D01*
X1639907Y-782802D01*
Y-777069D01*
G01X1644800D02*
Y-785069D01*
G01X1642807Y-777069D02*
X1646793D01*
G01X1649000Y-787735D02*
X1654200D01*
G01X1659093Y-780802D02*
X1659440Y-780402D01*
X1659700Y-779735D01*
X1659873Y-778802D01*
X1659700Y-778002D01*
X1659353Y-777469D01*
X1658747Y-777069D01*
X1656407D01*
Y-785069D01*
X1659267D01*
X1659873Y-784535D01*
X1660220Y-783735D01*
X1660393Y-782802D01*
X1660220Y-781869D01*
X1659700Y-781069D01*
X1659093Y-780802D01*
X1656407D01*
G01X1665200Y-785069D02*
X1664507Y-784935D01*
X1663900Y-784402D01*
X1663380Y-783602D01*
X1663033Y-782669D01*
X1662860Y-781602D01*
Y-780535D01*
X1663033Y-779469D01*
X1663380Y-778535D01*
X1663900Y-777735D01*
X1664507Y-777202D01*
X1665200Y-777069D01*
X1665893Y-777202D01*
X1666500Y-777735D01*
X1667020Y-778535D01*
X1667367Y-779469D01*
X1667540Y-780535D01*
Y-781602D01*
X1667367Y-782669D01*
X1667020Y-783602D01*
X1666500Y-784402D01*
X1665893Y-784935D01*
X1665200Y-785069D01*
G01X1669833D02*
X1672000Y-777069D01*
X1674167Y-785069D01*
G01X1673387Y-782269D02*
X1670613D01*
G01X1677067Y-785069D02*
Y-777069D01*
X1679233D01*
X1679927Y-777469D01*
X1680360Y-778002D01*
X1680533Y-779069D01*
X1680360Y-780135D01*
X1679840Y-780802D01*
X1679233Y-781202D01*
X1677067D01*
G01X1679233D02*
X1680533Y-785069D01*
G01X1683693D02*
Y-777069D01*
X1685427D01*
X1686120Y-777469D01*
X1686640Y-778002D01*
X1687073Y-778802D01*
X1687420Y-779735D01*
X1687507Y-781069D01*
X1687420Y-782402D01*
X1687073Y-783335D01*
X1686640Y-784136D01*
X1686120Y-784669D01*
X1685427Y-785069D01*
X1683693D01*
G01X1490167Y-773569D02*
Y-767569D01*
X1491767D01*
X1492300Y-767869D01*
X1492700Y-768569D01*
X1492833Y-769369D01*
X1492700Y-770169D01*
X1492367Y-770769D01*
X1491767Y-771069D01*
X1490167D01*
G01X1495367Y-773569D02*
Y-767569D01*
X1497033D01*
X1497567Y-767869D01*
X1497900Y-768269D01*
X1498033Y-769069D01*
X1497900Y-769869D01*
X1497500Y-770369D01*
X1497033Y-770669D01*
X1495367D01*
G01X1497033D02*
X1498033Y-773569D01*
G01X1501900D02*
X1501367Y-773469D01*
X1500900Y-773069D01*
X1500500Y-772469D01*
X1500233Y-771769D01*
X1500100Y-770969D01*
Y-770169D01*
X1500233Y-769369D01*
X1500500Y-768669D01*
X1500900Y-768069D01*
X1501367Y-767669D01*
X1501900Y-767569D01*
X1502433Y-767669D01*
X1502900Y-768069D01*
X1503300Y-768669D01*
X1503567Y-769369D01*
X1503700Y-770169D01*
Y-770969D01*
X1503567Y-771769D01*
X1503300Y-772469D01*
X1502900Y-773069D01*
X1502433Y-773469D01*
X1501900Y-773569D01*
G01X1505767Y-772369D02*
X1506100Y-772969D01*
X1506500Y-773369D01*
X1506967Y-773569D01*
X1507500Y-773369D01*
X1507900Y-772969D01*
X1508300Y-772369D01*
X1508433Y-771569D01*
Y-767569D01*
G01X1513633Y-773569D02*
X1510967D01*
Y-767569D01*
X1513633D01*
G01X1512567Y-770468D02*
X1510967D01*
G01X1518967Y-768069D02*
X1518567Y-767769D01*
X1518100Y-767569D01*
X1517567D01*
X1516967Y-767869D01*
X1516500Y-768369D01*
X1516167Y-768969D01*
X1515900Y-769969D01*
X1515833Y-770869D01*
X1515967Y-771769D01*
X1516167Y-772369D01*
X1516567Y-772969D01*
X1517033Y-773369D01*
X1517500Y-773569D01*
X1517967D01*
X1518433Y-773369D01*
X1518833Y-773069D01*
X1519167Y-772669D01*
G01X1522700Y-767569D02*
Y-773569D01*
G01X1521167Y-767569D02*
X1524233D01*
G01X1531567Y-773569D02*
Y-767569D01*
X1534633Y-773569D01*
Y-767569D01*
G01X1536633Y-773569D02*
X1538300Y-767569D01*
X1539967Y-773569D01*
G01X1539367Y-771469D02*
X1537233D01*
G01X1541767Y-773569D02*
Y-767569D01*
X1543500Y-772569D01*
X1545233Y-767569D01*
Y-773569D01*
G01X1550033D02*
X1547367D01*
Y-767569D01*
X1550033D01*
G01X1548967Y-770468D02*
X1547367D01*
G01X1553900Y-773769D02*
X1553767Y-773669D01*
Y-773469D01*
X1553900Y-773369D01*
X1554033Y-773469D01*
Y-773669D01*
X1553900Y-773769D01*
G01Y-771069D02*
X1553767Y-770969D01*
Y-770769D01*
X1553900Y-770669D01*
X1554033Y-770769D01*
Y-770969D01*
X1553900Y-771069D01*
G01X1689500Y-766069D02*
X1492000D01*
G01X1689500Y-788569D02*
X1492000D01*
G01X1492967Y-738069D02*
X1492567Y-737769D01*
X1492100Y-737569D01*
X1491567D01*
X1490967Y-737869D01*
X1490500Y-738369D01*
X1490167Y-738969D01*
X1489900Y-739969D01*
X1489833Y-740869D01*
X1489967Y-741769D01*
X1490167Y-742369D01*
X1490567Y-742969D01*
X1491033Y-743369D01*
X1491500Y-743569D01*
X1491967D01*
X1492433Y-743369D01*
X1492833Y-743069D01*
X1493167Y-742669D01*
G01X1496700Y-743569D02*
X1496167Y-743469D01*
X1495700Y-743069D01*
X1495300Y-742469D01*
X1495033Y-741769D01*
X1494900Y-740969D01*
Y-740169D01*
X1495033Y-739369D01*
X1495300Y-738669D01*
X1495700Y-738069D01*
X1496167Y-737669D01*
X1496700Y-737569D01*
X1497233Y-737669D01*
X1497700Y-738069D01*
X1498100Y-738669D01*
X1498367Y-739369D01*
X1498500Y-740169D01*
Y-740969D01*
X1498367Y-741769D01*
X1498100Y-742469D01*
X1497700Y-743069D01*
X1497233Y-743469D01*
X1496700Y-743569D01*
G01X1500167D02*
Y-737569D01*
X1501900Y-742569D01*
X1503633Y-737569D01*
Y-743569D01*
G01X1505767D02*
Y-737569D01*
X1507367D01*
X1507900Y-737869D01*
X1508300Y-738569D01*
X1508433Y-739369D01*
X1508300Y-740169D01*
X1507967Y-740769D01*
X1507367Y-741069D01*
X1505767D01*
G01X1510633Y-743569D02*
X1512300Y-737569D01*
X1513967Y-743569D01*
G01X1513367Y-741469D02*
X1511233D01*
G01X1515967Y-743569D02*
Y-737569D01*
X1519033Y-743569D01*
Y-737569D01*
G01X1522700Y-743569D02*
Y-740869D01*
X1521367Y-737569D01*
G01X1524033D02*
X1522700Y-740869D01*
G01X1531567Y-743569D02*
Y-737569D01*
X1534633Y-743569D01*
Y-737569D01*
G01X1536633Y-743569D02*
X1538300Y-737569D01*
X1539967Y-743569D01*
G01X1539367Y-741469D02*
X1537233D01*
G01X1541767Y-743569D02*
Y-737569D01*
X1543500Y-742569D01*
X1545233Y-737569D01*
Y-743569D01*
G01X1550033D02*
X1547367D01*
Y-737569D01*
X1550033D01*
G01X1548967Y-740469D02*
X1547367D01*
G01X1553900Y-743769D02*
X1553767Y-743669D01*
Y-743469D01*
X1553900Y-743369D01*
X1554033Y-743469D01*
Y-743669D01*
X1553900Y-743769D01*
G01Y-741069D02*
X1553767Y-740969D01*
Y-740769D01*
X1553900Y-740669D01*
X1554033Y-740769D01*
Y-740969D01*
X1553900Y-741069D01*
G01X1513867Y-761069D02*
Y-753069D01*
X1516033D01*
X1516727Y-753469D01*
X1517160Y-754002D01*
X1517333Y-755069D01*
X1517160Y-756135D01*
X1516640Y-756802D01*
X1516033Y-757202D01*
X1513867D01*
G01X1516033D02*
X1517333Y-761069D01*
G01X1522400D02*
X1521707Y-760935D01*
X1521100Y-760402D01*
X1520580Y-759602D01*
X1520233Y-758669D01*
X1520060Y-757602D01*
Y-756535D01*
X1520233Y-755469D01*
X1520580Y-754535D01*
X1521100Y-753735D01*
X1521707Y-753202D01*
X1522400Y-753069D01*
X1523093Y-753202D01*
X1523700Y-753735D01*
X1524220Y-754535D01*
X1524567Y-755469D01*
X1524740Y-756535D01*
Y-757602D01*
X1524567Y-758669D01*
X1524220Y-759602D01*
X1523700Y-760402D01*
X1523093Y-760935D01*
X1522400Y-761069D01*
G01X1527380D02*
Y-753069D01*
G01X1531020D02*
Y-761069D01*
G01Y-757069D02*
X1527380D01*
G01X1533747Y-761069D02*
Y-753069D01*
X1536000Y-759735D01*
X1538253Y-753069D01*
Y-761069D01*
G01X1547780Y-760002D02*
X1548473Y-760669D01*
X1549253Y-761069D01*
X1549947D01*
X1550640Y-760669D01*
X1551160Y-760002D01*
X1551420Y-759068D01*
X1551247Y-758135D01*
X1550813Y-757335D01*
X1550033Y-756802D01*
X1548993Y-756535D01*
X1548387Y-756002D01*
X1548127Y-755069D01*
X1548300Y-754135D01*
X1548733Y-753469D01*
X1549340Y-753069D01*
X1549947D01*
X1550553Y-753335D01*
X1551073Y-754002D01*
G01X1558133Y-761069D02*
X1554667D01*
Y-753069D01*
X1558133D01*
G01X1556747Y-756935D02*
X1554667D01*
G01X1560947Y-761069D02*
Y-753069D01*
X1563200Y-759735D01*
X1565453Y-753069D01*
Y-761069D01*
G01X1568960Y-753069D02*
X1571040D01*
G01X1570000D02*
Y-761069D01*
G01X1568960D02*
X1571040D01*
G01X1578707Y-753735D02*
X1578187Y-753335D01*
X1577580Y-753069D01*
X1576887D01*
X1576107Y-753469D01*
X1575500Y-754135D01*
X1575067Y-754935D01*
X1574720Y-756269D01*
X1574633Y-757469D01*
X1574807Y-758669D01*
X1575067Y-759469D01*
X1575587Y-760269D01*
X1576193Y-760802D01*
X1576800Y-761069D01*
X1577407D01*
X1578013Y-760802D01*
X1578533Y-760402D01*
X1578967Y-759869D01*
G01X1583600Y-761069D02*
X1582907Y-760935D01*
X1582300Y-760402D01*
X1581780Y-759602D01*
X1581433Y-758669D01*
X1581260Y-757602D01*
Y-756535D01*
X1581433Y-755469D01*
X1581780Y-754535D01*
X1582300Y-753735D01*
X1582907Y-753202D01*
X1583600Y-753069D01*
X1584293Y-753202D01*
X1584900Y-753735D01*
X1585420Y-754535D01*
X1585767Y-755469D01*
X1585940Y-756535D01*
Y-757602D01*
X1585767Y-758669D01*
X1585420Y-759602D01*
X1584900Y-760402D01*
X1584293Y-760935D01*
X1583600Y-761069D01*
G01X1588407D02*
Y-753069D01*
X1592393Y-761069D01*
Y-753069D01*
G01X1595293Y-761069D02*
Y-753069D01*
X1597027D01*
X1597720Y-753469D01*
X1598240Y-754002D01*
X1598673Y-754802D01*
X1599020Y-755735D01*
X1599107Y-757069D01*
X1599020Y-758402D01*
X1598673Y-759335D01*
X1598240Y-760136D01*
X1597720Y-760669D01*
X1597027Y-761069D01*
X1595293D01*
G01X1602093Y-753069D02*
Y-758802D01*
X1602440Y-760002D01*
X1603133Y-760802D01*
X1604000Y-761069D01*
X1604867Y-760802D01*
X1605560Y-760002D01*
X1605907Y-758802D01*
Y-753069D01*
G01X1612707Y-753735D02*
X1612187Y-753335D01*
X1611580Y-753069D01*
X1610887D01*
X1610107Y-753469D01*
X1609500Y-754135D01*
X1609067Y-754935D01*
X1608720Y-756269D01*
X1608633Y-757469D01*
X1608807Y-758669D01*
X1609067Y-759469D01*
X1609587Y-760269D01*
X1610193Y-760802D01*
X1610800Y-761069D01*
X1611407D01*
X1612013Y-760802D01*
X1612533Y-760402D01*
X1612967Y-759869D01*
G01X1617600Y-753069D02*
Y-761069D01*
G01X1615607Y-753069D02*
X1619593D01*
G01X1624400Y-761069D02*
X1623707Y-760935D01*
X1623100Y-760402D01*
X1622580Y-759602D01*
X1622233Y-758669D01*
X1622060Y-757602D01*
Y-756535D01*
X1622233Y-755469D01*
X1622580Y-754535D01*
X1623100Y-753735D01*
X1623707Y-753202D01*
X1624400Y-753069D01*
X1625093Y-753202D01*
X1625700Y-753735D01*
X1626220Y-754535D01*
X1626567Y-755469D01*
X1626740Y-756535D01*
Y-757602D01*
X1626567Y-758669D01*
X1626220Y-759602D01*
X1625700Y-760402D01*
X1625093Y-760935D01*
X1624400Y-761069D01*
G01X1629467D02*
Y-753069D01*
X1631633D01*
X1632327Y-753469D01*
X1632760Y-754002D01*
X1632933Y-755069D01*
X1632760Y-756135D01*
X1632240Y-756802D01*
X1631633Y-757202D01*
X1629467D01*
G01X1631633D02*
X1632933Y-761069D01*
G01X1642893Y-753069D02*
Y-758802D01*
X1643240Y-760002D01*
X1643933Y-760802D01*
X1644800Y-761069D01*
X1645667Y-760802D01*
X1646360Y-760002D01*
X1646707Y-758802D01*
Y-753069D01*
G01X1649780Y-760002D02*
X1650473Y-760669D01*
X1651253Y-761069D01*
X1651947D01*
X1652640Y-760669D01*
X1653160Y-760002D01*
X1653420Y-759068D01*
X1653247Y-758135D01*
X1652813Y-757335D01*
X1652033Y-756802D01*
X1650993Y-756535D01*
X1650387Y-756002D01*
X1650127Y-755069D01*
X1650300Y-754135D01*
X1650733Y-753469D01*
X1651340Y-753069D01*
X1651947D01*
X1652553Y-753335D01*
X1653073Y-754002D01*
G01X1656233Y-761069D02*
X1658400Y-753069D01*
X1660567Y-761069D01*
G01X1659787Y-758269D02*
X1657013D01*
G01X1549500Y-861069D02*
Y-831069D01*
G01X1579500Y657000D02*
Y718931D01*
G01X1559500Y768931D02*
Y798931D01*
G01X1615967Y-796069D02*
Y-790069D01*
X1617633D01*
X1618167Y-790369D01*
X1618500Y-790769D01*
X1618633Y-791569D01*
X1618500Y-792369D01*
X1618100Y-792869D01*
X1617633Y-793169D01*
X1615967D01*
G01X1617633D02*
X1618633Y-796069D01*
G01X1623833D02*
X1621167D01*
Y-790069D01*
X1623833D01*
G01X1622767Y-792969D02*
X1621167D01*
G01X1626033Y-790069D02*
X1627700Y-796069D01*
X1629367Y-790069D01*
G01X1632900Y-796269D02*
X1632767Y-796169D01*
Y-795969D01*
X1632900Y-795869D01*
X1633033Y-795969D01*
Y-796169D01*
X1632900Y-796269D01*
G01X1618600Y-800569D02*
X1617907Y-800835D01*
X1617387Y-801502D01*
X1617040Y-802302D01*
X1616780Y-803369D01*
X1616693Y-804569D01*
X1616780Y-805769D01*
X1617040Y-806835D01*
X1617387Y-807636D01*
X1617907Y-808302D01*
X1618600Y-808569D01*
X1619293Y-808302D01*
X1619813Y-807636D01*
X1620160Y-806835D01*
X1620420Y-805769D01*
X1620507Y-804569D01*
X1620420Y-803369D01*
X1620160Y-802302D01*
X1619813Y-801502D01*
X1619293Y-800835D01*
X1618600Y-800569D01*
G01X1625400Y-808569D02*
Y-800569D01*
X1624360Y-802168D01*
G01Y-808569D02*
X1626440D01*
G01X1610100Y-788569D02*
Y-811069D01*
G01X1610500Y698931D02*
Y708931D01*
X1613000D01*
X1614000Y708431D01*
X1614750Y707765D01*
X1615375Y706765D01*
X1615875Y705598D01*
X1616000Y703931D01*
X1615875Y702265D01*
X1615375Y701098D01*
X1614750Y700098D01*
X1614000Y699431D01*
X1613000Y698931D01*
X1610500D01*
G01X1620125D02*
X1623250Y708931D01*
X1626375Y698931D01*
G01X1625250Y702431D02*
X1621250D01*
G01X1633250Y708931D02*
Y698931D01*
G01X1630375Y708931D02*
X1636125D01*
G01X1645750Y698931D02*
X1640750D01*
Y708931D01*
X1645750D01*
G01X1643750Y704098D02*
X1640750D01*
G01X1645700Y-795269D02*
X1646233Y-795769D01*
X1646833Y-796069D01*
X1647367D01*
X1647900Y-795769D01*
X1648300Y-795269D01*
X1648500Y-794569D01*
X1648367Y-793869D01*
X1648033Y-793269D01*
X1647433Y-792869D01*
X1646633Y-792669D01*
X1646167Y-792269D01*
X1645967Y-791569D01*
X1646100Y-790869D01*
X1646433Y-790369D01*
X1646900Y-790069D01*
X1647367D01*
X1647833Y-790269D01*
X1648233Y-790769D01*
G01X1650900Y-796069D02*
Y-790069D01*
G01X1653700D02*
Y-796069D01*
G01Y-793069D02*
X1650900D01*
G01X1658833Y-796069D02*
X1656167D01*
Y-790069D01*
X1658833D01*
G01X1657767Y-792969D02*
X1656167D01*
G01X1664033Y-796069D02*
X1661367D01*
Y-790069D01*
X1664033D01*
G01X1662967Y-792969D02*
X1661367D01*
G01X1667900Y-790069D02*
Y-796069D01*
G01X1666367Y-790069D02*
X1669433D01*
G01X1673100Y-796269D02*
X1672967Y-796169D01*
Y-795969D01*
X1673100Y-795869D01*
X1673233Y-795969D01*
Y-796169D01*
X1673100Y-796269D01*
G01Y-793569D02*
X1672967Y-793469D01*
Y-793269D01*
X1673100Y-793169D01*
X1673233Y-793269D01*
Y-793469D01*
X1673100Y-793569D01*
G01X1647000Y-808569D02*
Y-800569D01*
X1645960Y-802168D01*
G01Y-808569D02*
X1648040D01*
G01X1660600D02*
X1659907Y-808435D01*
X1659300Y-807902D01*
X1658780Y-807102D01*
X1658433Y-806169D01*
X1658260Y-805102D01*
Y-804035D01*
X1658433Y-802969D01*
X1658780Y-802035D01*
X1659300Y-801235D01*
X1659907Y-800702D01*
X1660600Y-800569D01*
X1661293Y-800702D01*
X1661900Y-801235D01*
X1662420Y-802035D01*
X1662767Y-802969D01*
X1662940Y-804035D01*
Y-805102D01*
X1662767Y-806169D01*
X1662420Y-807102D01*
X1661900Y-807902D01*
X1661293Y-808435D01*
X1660600Y-808569D01*
G01X1665753D02*
Y-800569D01*
X1669047D01*
G01X1667833Y-804435D02*
X1665753D01*
G01X1679353Y-801902D02*
X1679873Y-801102D01*
X1680480Y-800702D01*
X1681173Y-800569D01*
X1682040Y-800835D01*
X1682647Y-801502D01*
X1682820Y-802302D01*
X1682733Y-803102D01*
X1682387Y-803769D01*
X1680653Y-805102D01*
X1679873Y-806035D01*
X1679353Y-807369D01*
X1679180Y-808569D01*
X1682820D01*
G01X1640100Y-788569D02*
Y-811069D01*
G01X1698890Y-798569D02*
X1700710Y-794569D01*
G01X1698890D02*
X1700710Y-798569D01*
G01X1702290D02*
X1704110Y-794569D01*
G01X1702290D02*
X1704110Y-798569D01*
G01X1695490Y-804569D02*
X1697310Y-800569D01*
G01X1695490D02*
X1697310Y-804569D01*
G01X1698890D02*
X1700710Y-800569D01*
G01X1698890D02*
X1700710Y-804569D01*
G01X1702290D02*
X1704110Y-800569D01*
G01X1702290D02*
X1704110Y-804569D01*
G01X1689500Y-736069D02*
Y-811069D01*
G01X1700547Y-744569D02*
Y-747435D01*
X1700720Y-748035D01*
X1701067Y-748435D01*
X1701500Y-748569D01*
X1701933Y-748435D01*
X1702280Y-748035D01*
X1702453Y-747435D01*
Y-744569D01*
G01X1703903Y-748569D02*
Y-744569D01*
X1705897Y-748569D01*
Y-744569D01*
G01X1707433D02*
Y-748569D01*
X1709167D01*
G01X1712567D02*
X1710833D01*
Y-744569D01*
X1712567D01*
G01X1711873Y-746502D02*
X1710833D01*
G01X1714190Y-748035D02*
X1714537Y-748369D01*
X1714927Y-748569D01*
X1715273D01*
X1715620Y-748369D01*
X1715880Y-748035D01*
X1716010Y-747569D01*
X1715923Y-747102D01*
X1715707Y-746702D01*
X1715317Y-746435D01*
X1714797Y-746302D01*
X1714493Y-746035D01*
X1714363Y-745569D01*
X1714450Y-745102D01*
X1714667Y-744769D01*
X1714970Y-744569D01*
X1715273D01*
X1715577Y-744702D01*
X1715837Y-745035D01*
G01X1717590Y-748035D02*
X1717937Y-748369D01*
X1718327Y-748569D01*
X1718673D01*
X1719020Y-748369D01*
X1719280Y-748035D01*
X1719410Y-747569D01*
X1719323Y-747102D01*
X1719107Y-746702D01*
X1718717Y-746435D01*
X1718197Y-746302D01*
X1717893Y-746035D01*
X1717763Y-745569D01*
X1717850Y-745102D01*
X1718067Y-744769D01*
X1718370Y-744569D01*
X1718673D01*
X1718977Y-744702D01*
X1719237Y-745035D01*
G01X1725300Y-748569D02*
X1724953Y-748502D01*
X1724650Y-748235D01*
X1724390Y-747835D01*
X1724217Y-747369D01*
X1724130Y-746835D01*
Y-746302D01*
X1724217Y-745769D01*
X1724390Y-745302D01*
X1724650Y-744902D01*
X1724953Y-744635D01*
X1725300Y-744569D01*
X1725647Y-744635D01*
X1725950Y-744902D01*
X1726210Y-745302D01*
X1726383Y-745769D01*
X1726470Y-746302D01*
Y-746835D01*
X1726383Y-747369D01*
X1726210Y-747835D01*
X1725950Y-748235D01*
X1725647Y-748502D01*
X1725300Y-748569D01*
G01X1728700Y-744569D02*
Y-748569D01*
G01X1727703Y-744569D02*
X1729697D01*
G01X1731190Y-748569D02*
Y-744569D01*
G01X1733010D02*
Y-748569D01*
G01Y-746569D02*
X1731190D01*
G01X1736367Y-748569D02*
X1734633D01*
Y-744569D01*
X1736367D01*
G01X1735673Y-746502D02*
X1734633D01*
G01X1738033Y-748569D02*
Y-744569D01*
X1739117D01*
X1739463Y-744769D01*
X1739680Y-745035D01*
X1739767Y-745569D01*
X1739680Y-746102D01*
X1739420Y-746435D01*
X1739117Y-746635D01*
X1738033D01*
G01X1739117D02*
X1739767Y-748569D01*
G01X1741000Y-744569D02*
X1741607Y-748569D01*
X1742300Y-744569D01*
X1742993Y-748569D01*
X1743600Y-744569D01*
G01X1745180D02*
X1746220D01*
G01X1745700D02*
Y-748569D01*
G01X1745180D02*
X1746220D01*
G01X1748190Y-748035D02*
X1748537Y-748369D01*
X1748927Y-748569D01*
X1749273D01*
X1749620Y-748369D01*
X1749880Y-748035D01*
X1750010Y-747569D01*
X1749923Y-747102D01*
X1749707Y-746702D01*
X1749317Y-746435D01*
X1748797Y-746302D01*
X1748493Y-746035D01*
X1748363Y-745569D01*
X1748450Y-745102D01*
X1748667Y-744769D01*
X1748970Y-744569D01*
X1749273D01*
X1749577Y-744702D01*
X1749837Y-745035D01*
G01X1753367Y-748569D02*
X1751633D01*
Y-744569D01*
X1753367D01*
G01X1752673Y-746502D02*
X1751633D01*
G01X1693790Y-755535D02*
X1694137Y-755869D01*
X1694527Y-756069D01*
X1694873D01*
X1695220Y-755869D01*
X1695480Y-755535D01*
X1695610Y-755069D01*
X1695523Y-754602D01*
X1695307Y-754202D01*
X1694917Y-753935D01*
X1694397Y-753802D01*
X1694093Y-753535D01*
X1693963Y-753069D01*
X1694050Y-752602D01*
X1694267Y-752269D01*
X1694570Y-752069D01*
X1694873D01*
X1695177Y-752202D01*
X1695437Y-752535D01*
G01X1697233Y-756069D02*
Y-752069D01*
X1698273D01*
X1698620Y-752269D01*
X1698880Y-752735D01*
X1698967Y-753269D01*
X1698880Y-753802D01*
X1698663Y-754202D01*
X1698273Y-754402D01*
X1697233D01*
G01X1702367Y-756069D02*
X1700633D01*
Y-752069D01*
X1702367D01*
G01X1701673Y-754002D02*
X1700633D01*
G01X1705853Y-752402D02*
X1705593Y-752202D01*
X1705290Y-752069D01*
X1704943D01*
X1704553Y-752269D01*
X1704250Y-752602D01*
X1704033Y-753002D01*
X1703860Y-753669D01*
X1703817Y-754269D01*
X1703903Y-754869D01*
X1704033Y-755269D01*
X1704293Y-755669D01*
X1704597Y-755935D01*
X1704900Y-756069D01*
X1705203D01*
X1705507Y-755935D01*
X1705767Y-755735D01*
X1705983Y-755469D01*
G01X1707780Y-752069D02*
X1708820D01*
G01X1708300D02*
Y-756069D01*
G01X1707780D02*
X1708820D01*
G01X1710877D02*
Y-752069D01*
X1712523D01*
G01X1711917Y-754002D02*
X1710877D01*
G01X1714580Y-752069D02*
X1715620D01*
G01X1715100D02*
Y-756069D01*
G01X1714580D02*
X1715620D01*
G01X1719367D02*
X1717633D01*
Y-752069D01*
X1719367D01*
G01X1718673Y-754002D02*
X1717633D01*
G01X1720947Y-756069D02*
Y-752069D01*
X1721813D01*
X1722160Y-752269D01*
X1722420Y-752535D01*
X1722637Y-752935D01*
X1722810Y-753402D01*
X1722853Y-754069D01*
X1722810Y-754735D01*
X1722637Y-755202D01*
X1722420Y-755602D01*
X1722160Y-755869D01*
X1721813Y-756069D01*
X1720947D01*
G01X1727747D02*
Y-752069D01*
X1728613D01*
X1728960Y-752269D01*
X1729220Y-752535D01*
X1729437Y-752935D01*
X1729610Y-753402D01*
X1729653Y-754069D01*
X1729610Y-754735D01*
X1729437Y-755202D01*
X1729220Y-755602D01*
X1728960Y-755869D01*
X1728613Y-756069D01*
X1727747D01*
G01X1731580Y-752069D02*
X1732620D01*
G01X1732100D02*
Y-756069D01*
G01X1731580D02*
X1732620D01*
G01X1734373D02*
Y-752069D01*
X1735500Y-755402D01*
X1736627Y-752069D01*
Y-756069D01*
G01X1739767D02*
X1738033D01*
Y-752069D01*
X1739767D01*
G01X1739073Y-754002D02*
X1738033D01*
G01X1741303Y-756069D02*
Y-752069D01*
X1743297Y-756069D01*
Y-752069D01*
G01X1744790Y-755535D02*
X1745137Y-755869D01*
X1745527Y-756069D01*
X1745873D01*
X1746220Y-755869D01*
X1746480Y-755535D01*
X1746610Y-755069D01*
X1746523Y-754602D01*
X1746307Y-754202D01*
X1745917Y-753935D01*
X1745397Y-753802D01*
X1745093Y-753535D01*
X1744963Y-753069D01*
X1745050Y-752602D01*
X1745267Y-752269D01*
X1745570Y-752069D01*
X1745873D01*
X1746177Y-752202D01*
X1746437Y-752535D01*
G01X1748580Y-752069D02*
X1749620D01*
G01X1749100D02*
Y-756069D01*
G01X1748580D02*
X1749620D01*
G01X1752500D02*
X1752153Y-756002D01*
X1751850Y-755735D01*
X1751590Y-755335D01*
X1751417Y-754869D01*
X1751330Y-754335D01*
Y-753802D01*
X1751417Y-753269D01*
X1751590Y-752802D01*
X1751850Y-752402D01*
X1752153Y-752135D01*
X1752500Y-752069D01*
X1752847Y-752135D01*
X1753150Y-752402D01*
X1753410Y-752802D01*
X1753583Y-753269D01*
X1753670Y-753802D01*
Y-754335D01*
X1753583Y-754869D01*
X1753410Y-755335D01*
X1753150Y-755735D01*
X1752847Y-756002D01*
X1752500Y-756069D01*
G01X1754903D02*
Y-752069D01*
X1756897Y-756069D01*
Y-752069D01*
G01X1758390Y-755535D02*
X1758737Y-755869D01*
X1759127Y-756069D01*
X1759473D01*
X1759820Y-755869D01*
X1760080Y-755535D01*
X1760210Y-755069D01*
X1760123Y-754602D01*
X1759907Y-754202D01*
X1759517Y-753935D01*
X1758997Y-753802D01*
X1758693Y-753535D01*
X1758563Y-753069D01*
X1758650Y-752602D01*
X1758867Y-752269D01*
X1759170Y-752069D01*
X1759473D01*
X1759777Y-752202D01*
X1760037Y-752535D01*
G01X1696847Y-787069D02*
Y-783069D01*
X1697713D01*
X1698060Y-783269D01*
X1698320Y-783535D01*
X1698537Y-783935D01*
X1698710Y-784402D01*
X1698753Y-785069D01*
X1698710Y-785735D01*
X1698537Y-786202D01*
X1698320Y-786602D01*
X1698060Y-786869D01*
X1697713Y-787069D01*
X1696847D01*
G01X1702067D02*
X1700333D01*
Y-783069D01*
X1702067D01*
G01X1701373Y-785002D02*
X1700333D01*
G01X1705553Y-783402D02*
X1705293Y-783202D01*
X1704990Y-783069D01*
X1704643D01*
X1704253Y-783269D01*
X1703950Y-783602D01*
X1703733Y-784002D01*
X1703560Y-784669D01*
X1703517Y-785269D01*
X1703603Y-785869D01*
X1703733Y-786269D01*
X1703993Y-786669D01*
X1704297Y-786935D01*
X1704600Y-787069D01*
X1704903D01*
X1705207Y-786935D01*
X1705467Y-786735D01*
X1705683Y-786469D01*
G01X1707480Y-783069D02*
X1708520D01*
G01X1708000D02*
Y-787069D01*
G01X1707480D02*
X1708520D01*
G01X1710273D02*
Y-783069D01*
X1711400Y-786402D01*
X1712527Y-783069D01*
Y-787069D01*
G01X1713717D02*
X1714800Y-783069D01*
X1715883Y-787069D01*
G01X1715493Y-785669D02*
X1714107D01*
G01X1717333Y-783069D02*
Y-787069D01*
X1719067D01*
G01X1669500Y657000D02*
Y718931D01*
G01X1680125Y698931D02*
X1683250Y708931D01*
X1686375Y698931D01*
G01X1685250Y702431D02*
X1681250D01*
G01X1690750Y698931D02*
Y708931D01*
X1693750D01*
X1694750Y708431D01*
X1695500Y707265D01*
X1695750Y705931D01*
X1695500Y704598D01*
X1694875Y703598D01*
X1693750Y703098D01*
X1690750D01*
G01X1700750Y698931D02*
Y708931D01*
X1703750D01*
X1704750Y708431D01*
X1705500Y707265D01*
X1705750Y705931D01*
X1705500Y704598D01*
X1704875Y703598D01*
X1703750Y703098D01*
X1700750D01*
G01X1710750Y698931D02*
Y708931D01*
X1713875D01*
X1714875Y708431D01*
X1715500Y707765D01*
X1715750Y706431D01*
X1715500Y705098D01*
X1714750Y704265D01*
X1713875Y703765D01*
X1710750D01*
G01X1713875D02*
X1715750Y698931D01*
G01X1723250D02*
X1722250Y699098D01*
X1721375Y699765D01*
X1720625Y700765D01*
X1720125Y701931D01*
X1719875Y703265D01*
Y704598D01*
X1720125Y705931D01*
X1720625Y707098D01*
X1721375Y708098D01*
X1722250Y708765D01*
X1723250Y708931D01*
X1724250Y708765D01*
X1725125Y708098D01*
X1725875Y707098D01*
X1726375Y705931D01*
X1726625Y704598D01*
Y703265D01*
X1726375Y701931D01*
X1725875Y700765D01*
X1725125Y699765D01*
X1724250Y699098D01*
X1723250Y698931D01*
G01X1730125Y708931D02*
X1733250Y698931D01*
X1736375Y708931D01*
G01X1745750Y698931D02*
X1740750D01*
Y708931D01*
X1745750D01*
G01X1743750Y704098D02*
X1740750D01*
G01X1750500Y698931D02*
Y708931D01*
X1753000D01*
X1754000Y708431D01*
X1754750Y707765D01*
X1755375Y706765D01*
X1755875Y705598D01*
X1756000Y703931D01*
X1755875Y702265D01*
X1755375Y701098D01*
X1754750Y700098D01*
X1754000Y699431D01*
X1753000Y698931D01*
X1750500D01*
G01X1729373Y-799069D02*
Y-795069D01*
X1730500Y-798402D01*
X1731627Y-795069D01*
Y-799069D01*
G01X1732817D02*
X1733900Y-795069D01*
X1734983Y-799069D01*
G01X1734593Y-797669D02*
X1733207D01*
G01X1738253Y-795402D02*
X1737993Y-795202D01*
X1737690Y-795069D01*
X1737343D01*
X1736953Y-795269D01*
X1736650Y-795602D01*
X1736433Y-796002D01*
X1736260Y-796669D01*
X1736217Y-797269D01*
X1736303Y-797869D01*
X1736433Y-798269D01*
X1736693Y-798669D01*
X1736997Y-798935D01*
X1737300Y-799069D01*
X1737603D01*
X1737907Y-798935D01*
X1738167Y-798735D01*
X1738383Y-798469D01*
G01X1739790Y-799069D02*
Y-795069D01*
G01X1741610D02*
Y-799069D01*
G01Y-797069D02*
X1739790D01*
G01X1746677Y-799069D02*
Y-795069D01*
X1748323D01*
G01X1747717Y-797002D02*
X1746677D01*
G01X1750380Y-795069D02*
X1751420D01*
G01X1750900D02*
Y-799069D01*
G01X1750380D02*
X1751420D01*
G01X1753303D02*
Y-795069D01*
X1755297Y-799069D01*
Y-795069D01*
G01X1757180D02*
X1758220D01*
G01X1757700D02*
Y-799069D01*
G01X1757180D02*
X1758220D01*
G01X1760190Y-798535D02*
X1760537Y-798869D01*
X1760927Y-799069D01*
X1761273D01*
X1761620Y-798869D01*
X1761880Y-798535D01*
X1762010Y-798069D01*
X1761923Y-797602D01*
X1761707Y-797202D01*
X1761317Y-796935D01*
X1760797Y-796802D01*
X1760493Y-796535D01*
X1760363Y-796069D01*
X1760450Y-795602D01*
X1760667Y-795269D01*
X1760970Y-795069D01*
X1761273D01*
X1761577Y-795202D01*
X1761837Y-795535D01*
G01X1763590Y-799069D02*
Y-795069D01*
G01X1765410D02*
Y-799069D01*
G01Y-797069D02*
X1763590D01*
G01X1702290Y-792569D02*
X1704110Y-788569D01*
G01X1702290D02*
X1704110Y-792569D01*
G01X1711800Y-798702D02*
X1711713Y-798635D01*
Y-798502D01*
X1711800Y-798435D01*
X1711887Y-798502D01*
Y-798635D01*
X1711800Y-798702D01*
G01X1715200Y-794569D02*
X1714853Y-794702D01*
X1714593Y-795035D01*
X1714420Y-795435D01*
X1714290Y-795969D01*
X1714247Y-796569D01*
X1714290Y-797169D01*
X1714420Y-797702D01*
X1714593Y-798102D01*
X1714853Y-798435D01*
X1715200Y-798569D01*
X1715547Y-798435D01*
X1715807Y-798102D01*
X1715980Y-797702D01*
X1716110Y-797169D01*
X1716153Y-796569D01*
X1716110Y-795969D01*
X1715980Y-795435D01*
X1715807Y-795035D01*
X1715547Y-794702D01*
X1715200Y-794569D01*
G01X1717647Y-797769D02*
X1717907Y-798235D01*
X1718253Y-798502D01*
X1718643Y-798569D01*
X1718990Y-798502D01*
X1719337Y-798169D01*
X1719553Y-797769D01*
X1719597Y-797369D01*
X1719510Y-796902D01*
X1719207Y-796569D01*
X1718903Y-796435D01*
X1718513D01*
G01X1718903D02*
X1719163Y-796235D01*
X1719380Y-795902D01*
X1719467Y-795502D01*
X1719380Y-795102D01*
X1719163Y-794769D01*
X1718773Y-794569D01*
X1718383Y-794635D01*
X1717993Y-794902D01*
G01X1711800Y-792702D02*
X1711713Y-792635D01*
Y-792502D01*
X1711800Y-792435D01*
X1711887Y-792502D01*
Y-792635D01*
X1711800Y-792702D01*
G01X1715200Y-792569D02*
Y-788569D01*
X1714680Y-789369D01*
G01Y-792569D02*
X1715720D01*
G01X1711800Y-804702D02*
X1711713Y-804635D01*
Y-804502D01*
X1711800Y-804435D01*
X1711887Y-804502D01*
Y-804635D01*
X1711800Y-804702D01*
G01X1715200Y-800569D02*
X1714853Y-800702D01*
X1714593Y-801035D01*
X1714420Y-801435D01*
X1714290Y-801969D01*
X1714247Y-802569D01*
X1714290Y-803169D01*
X1714420Y-803702D01*
X1714593Y-804102D01*
X1714853Y-804435D01*
X1715200Y-804569D01*
X1715547Y-804435D01*
X1715807Y-804102D01*
X1715980Y-803702D01*
X1716110Y-803169D01*
X1716153Y-802569D01*
X1716110Y-801969D01*
X1715980Y-801435D01*
X1715807Y-801035D01*
X1715547Y-800702D01*
X1715200Y-800569D01*
G01X1718600Y-804569D02*
Y-800569D01*
X1718080Y-801369D01*
G01Y-804569D02*
X1719120D01*
G01X1722000Y-800569D02*
X1721653Y-800702D01*
X1721393Y-801035D01*
X1721220Y-801435D01*
X1721090Y-801969D01*
X1721047Y-802569D01*
X1721090Y-803169D01*
X1721220Y-803702D01*
X1721393Y-804102D01*
X1721653Y-804435D01*
X1722000Y-804569D01*
X1722347Y-804435D01*
X1722607Y-804102D01*
X1722780Y-803702D01*
X1722910Y-803169D01*
X1722953Y-802569D01*
X1722910Y-801969D01*
X1722780Y-801435D01*
X1722607Y-801035D01*
X1722347Y-800702D01*
X1722000Y-800569D01*
G01X1706500Y-790369D02*
X1709500D01*
G01X1706500Y-802369D02*
X1709500D01*
G01X1706500Y-796369D02*
X1709500D01*
G01X1708000Y-794869D02*
Y-797869D01*
G01X1706500Y-798569D02*
X1709500D01*
G01X1708000Y-788869D02*
Y-791869D01*
G01X1706500Y-792569D02*
X1709500D01*
G01X1708000Y-800869D02*
Y-803869D01*
G01X1706500Y-804569D02*
X1709500D01*
G01X1736617Y-787069D02*
X1737700Y-783069D01*
X1738783Y-787069D01*
G01X1738393Y-785669D02*
X1737007D01*
G01X1740103Y-787069D02*
Y-783069D01*
X1742097Y-787069D01*
Y-783069D01*
G01X1744760Y-785069D02*
X1745627D01*
Y-786269D01*
X1745367Y-786669D01*
X1745063Y-786935D01*
X1744630Y-787069D01*
X1744197Y-786935D01*
X1743893Y-786669D01*
X1743633Y-786269D01*
X1743460Y-785802D01*
X1743373Y-785269D01*
Y-784802D01*
X1743460Y-784402D01*
X1743633Y-783935D01*
X1743893Y-783535D01*
X1744153Y-783269D01*
X1744500Y-783069D01*
X1744803D01*
X1745150Y-783202D01*
X1745410Y-783469D01*
G01X1747033Y-783069D02*
Y-787069D01*
X1748767D01*
G01X1752167D02*
X1750433D01*
Y-783069D01*
X1752167D01*
G01X1751473Y-785002D02*
X1750433D01*
G01X1705517Y-763569D02*
X1706600Y-759569D01*
X1707683Y-763569D01*
G01X1707293Y-762169D02*
X1705907D01*
G01X1709133Y-763569D02*
Y-759569D01*
X1710217D01*
X1710563Y-759769D01*
X1710780Y-760035D01*
X1710867Y-760569D01*
X1710780Y-761102D01*
X1710520Y-761435D01*
X1710217Y-761635D01*
X1709133D01*
G01X1710217D02*
X1710867Y-763569D01*
G01X1714267D02*
X1712533D01*
Y-759569D01*
X1714267D01*
G01X1713573Y-761502D02*
X1712533D01*
G01X1719680Y-759569D02*
X1720720D01*
G01X1720200D02*
Y-763569D01*
G01X1719680D02*
X1720720D01*
G01X1722603D02*
Y-759569D01*
X1724597Y-763569D01*
Y-759569D01*
G01X1729880D02*
X1730920D01*
G01X1730400D02*
Y-763569D01*
G01X1729880D02*
X1730920D01*
G01X1732803D02*
Y-759569D01*
X1734797Y-763569D01*
Y-759569D01*
G01X1738153Y-759902D02*
X1737893Y-759702D01*
X1737590Y-759569D01*
X1737243D01*
X1736853Y-759769D01*
X1736550Y-760102D01*
X1736333Y-760502D01*
X1736160Y-761169D01*
X1736117Y-761769D01*
X1736203Y-762369D01*
X1736333Y-762769D01*
X1736593Y-763169D01*
X1736897Y-763435D01*
X1737200Y-763569D01*
X1737503D01*
X1737807Y-763435D01*
X1738067Y-763235D01*
X1738283Y-762969D01*
G01X1739690Y-763569D02*
Y-759569D01*
G01X1741510D02*
Y-763569D01*
G01Y-761569D02*
X1739690D01*
G01X1744867Y-763569D02*
X1743133D01*
Y-759569D01*
X1744867D01*
G01X1744173Y-761502D02*
X1743133D01*
G01X1746490Y-763035D02*
X1746837Y-763369D01*
X1747227Y-763569D01*
X1747573D01*
X1747920Y-763369D01*
X1748180Y-763035D01*
X1748310Y-762569D01*
X1748223Y-762102D01*
X1748007Y-761702D01*
X1747617Y-761435D01*
X1747097Y-761302D01*
X1746793Y-761035D01*
X1746663Y-760569D01*
X1746750Y-760102D01*
X1746967Y-759769D01*
X1747270Y-759569D01*
X1747573D01*
X1747877Y-759702D01*
X1748137Y-760035D01*
G01X1711700Y-774569D02*
Y-778569D01*
G01X1710703Y-774569D02*
X1712697D01*
G01X1715100Y-778569D02*
X1714753Y-778502D01*
X1714450Y-778235D01*
X1714190Y-777835D01*
X1714017Y-777369D01*
X1713930Y-776835D01*
Y-776302D01*
X1714017Y-775769D01*
X1714190Y-775302D01*
X1714450Y-774902D01*
X1714753Y-774635D01*
X1715100Y-774569D01*
X1715447Y-774635D01*
X1715750Y-774902D01*
X1716010Y-775302D01*
X1716183Y-775769D01*
X1716270Y-776302D01*
Y-776835D01*
X1716183Y-777369D01*
X1716010Y-777835D01*
X1715750Y-778235D01*
X1715447Y-778502D01*
X1715100Y-778569D01*
G01X1717633Y-774569D02*
Y-778569D01*
X1719367D01*
G01X1722767D02*
X1721033D01*
Y-774569D01*
X1722767D01*
G01X1722073Y-776502D02*
X1721033D01*
G01X1724433Y-778569D02*
Y-774569D01*
X1725517D01*
X1725863Y-774769D01*
X1726080Y-775035D01*
X1726167Y-775569D01*
X1726080Y-776102D01*
X1725820Y-776435D01*
X1725517Y-776635D01*
X1724433D01*
G01X1725517D02*
X1726167Y-778569D01*
G01X1727617D02*
X1728700Y-774569D01*
X1729783Y-778569D01*
G01X1729393Y-777169D02*
X1728007D01*
G01X1731103Y-778569D02*
Y-774569D01*
X1733097Y-778569D01*
Y-774569D01*
G01X1736453Y-774902D02*
X1736193Y-774702D01*
X1735890Y-774569D01*
X1735543D01*
X1735153Y-774769D01*
X1734850Y-775102D01*
X1734633Y-775502D01*
X1734460Y-776169D01*
X1734417Y-776769D01*
X1734503Y-777369D01*
X1734633Y-777769D01*
X1734893Y-778169D01*
X1735197Y-778435D01*
X1735500Y-778569D01*
X1735803D01*
X1736107Y-778435D01*
X1736367Y-778235D01*
X1736583Y-777969D01*
G01X1739767Y-778569D02*
X1738033D01*
Y-774569D01*
X1739767D01*
G01X1739073Y-776502D02*
X1738033D01*
G01X1741390Y-778035D02*
X1741737Y-778369D01*
X1742127Y-778569D01*
X1742473D01*
X1742820Y-778369D01*
X1743080Y-778035D01*
X1743210Y-777569D01*
X1743123Y-777102D01*
X1742907Y-776702D01*
X1742517Y-776435D01*
X1741997Y-776302D01*
X1741693Y-776035D01*
X1741563Y-775569D01*
X1741650Y-775102D01*
X1741867Y-774769D01*
X1742170Y-774569D01*
X1742473D01*
X1742777Y-774702D01*
X1743037Y-775035D01*
G01X1748347Y-792269D02*
X1748607Y-792735D01*
X1748953Y-793002D01*
X1749343Y-793069D01*
X1749690Y-793002D01*
X1750037Y-792669D01*
X1750253Y-792269D01*
X1750297Y-791869D01*
X1750210Y-791402D01*
X1749907Y-791069D01*
X1749603Y-790935D01*
X1749213D01*
G01X1749603D02*
X1749863Y-790735D01*
X1750080Y-790402D01*
X1750167Y-790002D01*
X1750080Y-789602D01*
X1749863Y-789269D01*
X1749473Y-789069D01*
X1749083Y-789135D01*
X1748693Y-789402D01*
G01X1752700Y-789069D02*
X1752353Y-789202D01*
X1752093Y-789535D01*
X1751920Y-789935D01*
X1751790Y-790469D01*
X1751747Y-791069D01*
X1751790Y-791669D01*
X1751920Y-792202D01*
X1752093Y-792602D01*
X1752353Y-792935D01*
X1752700Y-793069D01*
X1753047Y-792935D01*
X1753307Y-792602D01*
X1753480Y-792202D01*
X1753610Y-791669D01*
X1753653Y-791069D01*
X1753610Y-790469D01*
X1753480Y-789935D01*
X1753307Y-789535D01*
X1753047Y-789202D01*
X1752700Y-789069D01*
G01X1748500Y-800069D02*
X1751500D01*
G01X1743200Y-790369D02*
X1746200D01*
G01X1744700Y-788869D02*
Y-791869D01*
G01X1743200Y-792569D02*
X1746200D01*
G01X1750000Y-800069D02*
X1747700Y-804569D01*
X1746200Y-802369D01*
G01X1769500Y-451069D02*
X1799500D01*
G01X1769500Y-21069D02*
X1799500D01*
G01X1795880Y161848D02*
X1793990Y163098D01*
X1791785Y163931D01*
X1789265D01*
X1786430Y162681D01*
X1784225Y160598D01*
X1782650Y158098D01*
X1781390Y153931D01*
X1781075Y150181D01*
X1781705Y146431D01*
X1782650Y143931D01*
X1784540Y141431D01*
X1786745Y139765D01*
X1788950Y138931D01*
X1791155D01*
X1793360Y139765D01*
X1795250Y141014D01*
X1796825Y142681D01*
G01X1769500Y408931D02*
X1799500D01*
G01X1759500Y748931D02*
X1769500D01*
G01X1791075Y-641069D02*
X1798950Y-616069D01*
X1806825Y-641069D01*
G01X1803990Y-632319D02*
X1793910D01*
G01X1801470Y-257735D02*
X1802730Y-256485D01*
X1803675Y-254402D01*
X1804305Y-251485D01*
X1803675Y-248985D01*
X1802415Y-247319D01*
X1800210Y-246069D01*
X1791705D01*
Y-271069D01*
X1802100D01*
X1804305Y-269402D01*
X1805565Y-266902D01*
X1806195Y-263985D01*
X1805565Y-261069D01*
X1803675Y-258569D01*
X1801470Y-257735D01*
X1791705D01*
G01X1792020Y588931D02*
Y613931D01*
X1798320D01*
X1800840Y612681D01*
X1802730Y611015D01*
X1804305Y608515D01*
X1805565Y605598D01*
X1805880Y601431D01*
X1805565Y597265D01*
X1804305Y594348D01*
X1802730Y591847D01*
X1800840Y590181D01*
X1798320Y588931D01*
X1792020D01*
M02*
