G04 ================== begin FILE IDENTIFICATION RECORD ==================*
G04 Layout Name:  SENSOR_PLATFORM_BREAKOUT_BOARD_6KITBoards_REV02_2014-10-20.brd*
G04 Film Name:    SILK_BOTTOM*
G04 File Format:  Gerber RS274X*
G04 File Origin:  Cadence Allegro 16.5-S001*
G04 Origin Date:  Mon Oct 20 15:18:46 2014*
G04 *
G04 Layer:  BOARD GEOMETRY/LOGO_M*
G04 Layer:  REF DES/SILKSCREEN_BOTTOM*
G04 Layer:  PACKAGE GEOMETRY/SILKSCREEN_BOTTOM*
G04 Layer:  DRAWING FORMAT/SILKSCREEN_BOTTOM*
G04 Layer:  BOARD GEOMETRY/SILKSCREEN_BOTTOM*
G04 Layer:  BOARD GEOMETRY/OUTLINE*
G04 *
G04 Offset:    (0.000 0.000)*
G04 Mirror:    No*
G04 Mode:      Positive*
G04 Rotation:  0*
G04 FullContactRelief:  No*
G04 UndefLineWidth:     0.000*
G04 ================== end FILE IDENTIFICATION RECORD ====================*
%FSLAX25Y25*MOIN*%
%IR0*IPPOS*OFA0.00000B0.00000*MIA0B0*SFA1.00000B1.00000*%
%ADD10C,.006*%
%ADD11C,.007098*%
G75*
%LPD*%
G75*
G36*
G01X50834Y117037D02*
Y107037D01*
X45834Y112037D01*
X50834Y117037D01*
G37*
G36*
G01X51001Y181911D02*
Y171911D01*
X46001Y176911D01*
X51001Y181911D01*
G37*
G36*
G01X52500Y246500D02*
Y236500D01*
X47500Y241500D01*
X52500Y246500D01*
G37*
G36*
G01X102334Y105537D02*
Y115537D01*
X107334Y110537D01*
X102334Y105537D01*
G37*
G36*
G01X107334Y135537D02*
X97334D01*
X102334Y140537D01*
X107334Y135537D01*
G37*
G36*
G01X102501Y170411D02*
Y180411D01*
X107501Y175411D01*
X102501Y170411D01*
G37*
G36*
G01X107501Y200411D02*
X97501D01*
X102501Y205411D01*
X107501Y200411D01*
G37*
G36*
G01X102513Y235437D02*
Y245437D01*
X107514Y240437D01*
X102513Y235437D01*
G37*
G36*
G01X107514Y265437D02*
X97514D01*
X102513Y270437D01*
X107514Y265437D01*
G37*
G36*
G01X158500Y115500D02*
Y105500D01*
X153500Y110500D01*
X158500Y115500D01*
G37*
G36*
G01X158000Y180500D02*
Y170500D01*
X153000Y175500D01*
X158000Y180500D01*
G37*
G36*
G01X159000Y245000D02*
Y235000D01*
X154000Y240000D01*
X159000Y245000D01*
G37*
G36*
G01X209540Y105393D02*
Y115393D01*
X214540Y110393D01*
X209540Y105393D01*
G37*
G36*
G01X214540Y135393D02*
X204540D01*
X209540Y140393D01*
X214540Y135393D01*
G37*
G36*
G01X209500Y170506D02*
Y180506D01*
X214500Y175506D01*
X209500Y170506D01*
G37*
G36*
G01X214500Y200506D02*
X204500D01*
X209500Y205506D01*
X214500Y200506D01*
G37*
G36*
G01X209488Y235330D02*
Y245330D01*
X214489Y240330D01*
X209488Y235330D01*
G37*
G36*
G01X214489Y265330D02*
X204488D01*
X209488Y270330D01*
X214489Y265330D01*
G37*
G54D10*
G01X52245Y122180D02*
X48661D01*
X47911Y122434D01*
X47411Y122940D01*
X47245Y123573D01*
X47411Y124207D01*
X47911Y124714D01*
X48661Y124967D01*
X52245D01*
G01X49328Y126970D02*
X49911Y127414D01*
X50245Y127794D01*
X50411Y128300D01*
X50245Y128744D01*
X49911Y129060D01*
X49411Y129313D01*
X48828Y129377D01*
X48328Y129313D01*
X47828Y129060D01*
X47411Y128680D01*
X47245Y128237D01*
X47411Y127730D01*
X47911Y127287D01*
X48661Y127034D01*
X49495Y126970D01*
X50578Y127097D01*
X51161Y127287D01*
X51745Y127603D01*
X52161Y128047D01*
X52245Y128490D01*
X52078Y128934D01*
X51661Y129250D01*
G01X52245Y132773D02*
X52078Y132267D01*
X51661Y131887D01*
X51161Y131634D01*
X50494Y131444D01*
X49744Y131380D01*
X48994Y131444D01*
X48328Y131634D01*
X47828Y131887D01*
X47411Y132267D01*
X47245Y132773D01*
X47411Y133280D01*
X47828Y133660D01*
X48328Y133914D01*
X48994Y134104D01*
X49744Y134167D01*
X50494Y134104D01*
X51161Y133914D01*
X51661Y133660D01*
X52078Y133280D01*
X52245Y132773D01*
G01X44342Y155537D02*
X30326D01*
Y105537D01*
X44342D01*
Y155537D01*
G01X51913Y139329D02*
X51644Y139690D01*
X51414Y139897D01*
X51107Y140000D01*
X50839Y139897D01*
X50648Y139690D01*
X50494Y139380D01*
X50456Y139019D01*
X50494Y138709D01*
X50648Y138399D01*
X50878Y138140D01*
X51146Y138037D01*
X51452Y138140D01*
X51721Y138450D01*
X51874Y138915D01*
X51913Y139432D01*
X51836Y140104D01*
X51721Y140465D01*
X51529Y140827D01*
X51261Y141085D01*
X50993Y141137D01*
X50724Y141034D01*
X50532Y140775D01*
G01X47934Y157547D02*
Y143527D01*
X106334D01*
Y157547D01*
X47934D01*
G01X46955Y149905D02*
X46725Y149647D01*
X46456Y149492D01*
X46111Y149440D01*
X45766Y149543D01*
X45498Y149750D01*
X45306Y150112D01*
X45268Y150525D01*
X45345Y150938D01*
X45536Y151197D01*
X45805Y151403D01*
X46073Y151455D01*
X46341Y151403D01*
X46686Y151197D01*
X46571Y152540D01*
X45536D01*
G01X44509Y220411D02*
X30493D01*
Y170411D01*
X44509D01*
Y220411D01*
G01X52080Y204203D02*
X51811Y204564D01*
X51581Y204771D01*
X51274Y204874D01*
X51006Y204771D01*
X50814Y204564D01*
X50661Y204254D01*
X50623Y203893D01*
X50661Y203583D01*
X50814Y203273D01*
X51045Y203014D01*
X51313Y202911D01*
X51619Y203014D01*
X51888Y203324D01*
X52041Y203789D01*
X52080Y204306D01*
X52003Y204978D01*
X51888Y205339D01*
X51696Y205701D01*
X51428Y205959D01*
X51159Y206011D01*
X50891Y205908D01*
X50699Y205649D01*
G01X48101Y222421D02*
Y208401D01*
X106501D01*
Y222421D01*
X48101D01*
G01X59505Y194333D02*
Y190750D01*
X59251Y190000D01*
X58745Y189500D01*
X58111Y189333D01*
X57478Y189500D01*
X56971Y190000D01*
X56718Y190750D01*
Y194333D01*
G01X53511Y189333D02*
Y194333D01*
X54271Y193333D01*
G01Y189333D02*
X52751D01*
G01X48911D02*
Y194333D01*
X49671Y193333D01*
G01Y189333D02*
X48151D01*
G01X46855Y214432D02*
X46625Y214173D01*
X46356Y214018D01*
X46011Y213967D01*
X45666Y214070D01*
X45398Y214276D01*
X45206Y214638D01*
X45168Y215052D01*
X45245Y215465D01*
X45436Y215723D01*
X45705Y215930D01*
X45973Y215982D01*
X46241Y215930D01*
X46586Y215723D01*
X46471Y217067D01*
X45436D01*
G01X59507Y256346D02*
Y252762D01*
X59254Y252012D01*
X58747Y251512D01*
X58114Y251346D01*
X57480Y251512D01*
X56974Y252012D01*
X56720Y252762D01*
Y256346D01*
G01X53514Y251346D02*
Y256346D01*
X54274Y255346D01*
G01Y251346D02*
X52754D01*
G01X48154D02*
Y256346D01*
X50497Y252762D01*
X47330D01*
G01X44521Y285437D02*
X30506D01*
Y235437D01*
X44521D01*
Y285437D01*
G01X52742Y270271D02*
X52474Y270632D01*
X52244Y270839D01*
X51937Y270942D01*
X51668Y270839D01*
X51477Y270632D01*
X51324Y270322D01*
X51285Y269961D01*
X51324Y269651D01*
X51477Y269341D01*
X51707Y269082D01*
X51975Y268979D01*
X52282Y269082D01*
X52550Y269392D01*
X52704Y269857D01*
X52742Y270374D01*
X52665Y271046D01*
X52550Y271408D01*
X52359Y271769D01*
X52090Y272027D01*
X51822Y272079D01*
X51554Y271976D01*
X51362Y271717D01*
G01X48114Y287447D02*
Y273427D01*
X106514D01*
Y287447D01*
X48114D01*
G01X46857Y279944D02*
X46627Y279686D01*
X46358Y279531D01*
X46014Y279479D01*
X45668Y279582D01*
X45400Y279789D01*
X45208Y280151D01*
X45170Y280564D01*
X45247Y280977D01*
X45438Y281236D01*
X45707Y281442D01*
X45975Y281494D01*
X46244Y281442D01*
X46588Y281236D01*
X46474Y282579D01*
X45438D01*
G01X85905Y140907D02*
Y137324D01*
X85651Y136573D01*
X85145Y136073D01*
X84511Y135907D01*
X83878Y136073D01*
X83371Y136573D01*
X83118Y137324D01*
Y140907D01*
G01X81115Y137990D02*
X80671Y138574D01*
X80291Y138907D01*
X79785Y139073D01*
X79341Y138907D01*
X79025Y138574D01*
X78771Y138073D01*
X78708Y137490D01*
X78771Y136990D01*
X79025Y136490D01*
X79405Y136073D01*
X79848Y135907D01*
X80355Y136073D01*
X80798Y136573D01*
X81051Y137324D01*
X81115Y138157D01*
X80988Y139240D01*
X80798Y139824D01*
X80481Y140407D01*
X80038Y140824D01*
X79595Y140907D01*
X79151Y140740D01*
X78835Y140323D01*
G01X75311Y135907D02*
Y140907D01*
X76071Y139907D01*
G01Y135907D02*
X74551D01*
G01X64055Y114660D02*
X63825Y114298D01*
X63518Y114092D01*
X63173Y114040D01*
X62866Y114092D01*
X62560Y114350D01*
X62368Y114660D01*
X62330Y114970D01*
X62406Y115332D01*
X62675Y115590D01*
X62943Y115694D01*
X63288D01*
G01X62943D02*
X62713Y115848D01*
X62521Y116107D01*
X62445Y116417D01*
X62521Y116727D01*
X62713Y116985D01*
X63058Y117140D01*
X63403Y117088D01*
X63748Y116882D01*
G01X83505Y206333D02*
Y202750D01*
X83251Y202000D01*
X82745Y201500D01*
X82111Y201333D01*
X81478Y201500D01*
X80971Y202000D01*
X80718Y202750D01*
Y206333D01*
G01X77511Y201333D02*
Y206333D01*
X78271Y205333D01*
G01Y201333D02*
X76751D01*
G01X74115Y203417D02*
X73671Y204000D01*
X73291Y204333D01*
X72785Y204500D01*
X72341Y204333D01*
X72025Y204000D01*
X71771Y203500D01*
X71708Y202917D01*
X71771Y202417D01*
X72025Y201916D01*
X72405Y201500D01*
X72848Y201333D01*
X73355Y201500D01*
X73798Y202000D01*
X74051Y202750D01*
X74115Y203583D01*
X73988Y204666D01*
X73798Y205250D01*
X73481Y205833D01*
X73038Y206250D01*
X72595Y206333D01*
X72151Y206167D01*
X71835Y205750D01*
G01X81507Y269846D02*
Y266262D01*
X81254Y265512D01*
X80747Y265012D01*
X80114Y264846D01*
X79480Y265012D01*
X78974Y265512D01*
X78720Y266262D01*
Y269846D01*
G01X75514Y264846D02*
Y269846D01*
X76274Y268846D01*
G01Y264846D02*
X74754D01*
G01X71040D02*
X70914Y265929D01*
X70724Y266846D01*
X70470Y267679D01*
X70154Y268596D01*
X69647Y269846D01*
X72180D01*
G01X106505Y123707D02*
Y120123D01*
X106251Y119373D01*
X105745Y118873D01*
X105111Y118707D01*
X104478Y118873D01*
X103971Y119373D01*
X103718Y120123D01*
Y123707D01*
G01X101905Y119457D02*
X101525Y119040D01*
X101081Y118790D01*
X100511Y118707D01*
X99941Y118873D01*
X99498Y119207D01*
X99181Y119790D01*
X99118Y120457D01*
X99245Y121123D01*
X99561Y121540D01*
X100005Y121873D01*
X100448Y121957D01*
X100891Y121873D01*
X101461Y121540D01*
X101271Y123707D01*
X99561D01*
G01X95911Y118707D02*
X95468Y118790D01*
X94961Y119040D01*
X94645Y119457D01*
X94518Y120040D01*
X94645Y120623D01*
X95025Y121123D01*
X95595Y121374D01*
X96228D01*
X96608Y121540D01*
X96925Y121957D01*
X97051Y122540D01*
X96861Y123123D01*
X96418Y123540D01*
X95911Y123707D01*
X95405Y123540D01*
X94961Y123123D01*
X94771Y122540D01*
X94898Y121957D01*
X95215Y121540D01*
X95595Y121374D01*
X96228D01*
X96798Y121123D01*
X97178Y120623D01*
X97305Y120040D01*
X97178Y119457D01*
X96861Y119040D01*
X96355Y118790D01*
X95911Y118707D01*
G01X124344Y154737D02*
X110324D01*
Y106337D01*
X124344D01*
Y154737D01*
G01X124511Y219611D02*
X110491D01*
Y171211D01*
X124511D01*
Y219611D01*
G01X109355Y150005D02*
X109125Y149747D01*
X108856Y149592D01*
X108511Y149540D01*
X108166Y149643D01*
X107898Y149850D01*
X107706Y150212D01*
X107668Y150625D01*
X107745Y151038D01*
X107936Y151297D01*
X108205Y151503D01*
X108473Y151555D01*
X108741Y151503D01*
X109086Y151297D01*
X108971Y152640D01*
X107936D01*
G01X104705Y190833D02*
Y187250D01*
X104451Y186500D01*
X103945Y186000D01*
X103311Y185833D01*
X102678Y186000D01*
X102171Y186500D01*
X101918Y187250D01*
Y190833D01*
G01X99788Y186416D02*
X99345Y186000D01*
X98838Y185833D01*
X98331Y186000D01*
X97888Y186500D01*
X97571Y187250D01*
X97445Y188000D01*
Y188917D01*
X97571Y189667D01*
X97888Y190333D01*
X98268Y190667D01*
X98711Y190833D01*
X99218Y190667D01*
X99598Y190333D01*
X99851Y189833D01*
X99978Y189166D01*
X99851Y188583D01*
X99535Y188000D01*
X99155Y187666D01*
X98711Y187583D01*
X98205Y187750D01*
X97825Y188167D01*
X97445Y188917D01*
G01X109355Y214932D02*
X109125Y214673D01*
X108856Y214518D01*
X108511Y214467D01*
X108166Y214570D01*
X107898Y214776D01*
X107706Y215138D01*
X107668Y215552D01*
X107745Y215965D01*
X107936Y216223D01*
X108205Y216430D01*
X108473Y216482D01*
X108741Y216430D01*
X109086Y216223D01*
X108971Y217567D01*
X107936D01*
G01X107507Y260346D02*
Y256762D01*
X107254Y256012D01*
X106747Y255512D01*
X106114Y255346D01*
X105480Y255512D01*
X104973Y256012D01*
X104720Y256762D01*
Y260346D01*
G01X101514Y255346D02*
Y260346D01*
X102274Y259346D01*
G01Y255346D02*
X100754D01*
G01X98117Y259512D02*
X97737Y260012D01*
X97294Y260262D01*
X96787Y260346D01*
X96154Y260179D01*
X95710Y259762D01*
X95584Y259262D01*
X95647Y258762D01*
X95900Y258346D01*
X97167Y257512D01*
X97737Y256929D01*
X98117Y256096D01*
X98244Y255346D01*
X95584D01*
G01X124523Y284637D02*
X110504D01*
Y236237D01*
X124523D01*
Y284637D01*
G01X109557Y279344D02*
X109327Y279086D01*
X109059Y278931D01*
X108714Y278879D01*
X108368Y278982D01*
X108100Y279189D01*
X107908Y279551D01*
X107870Y279964D01*
X107947Y280377D01*
X108138Y280636D01*
X108407Y280842D01*
X108675Y280894D01*
X108944Y280842D01*
X109289Y280636D01*
X109173Y281979D01*
X108138D01*
G01X171295Y113870D02*
X171065Y113509D01*
X170758Y113302D01*
X170413Y113250D01*
X170106Y113302D01*
X169800Y113560D01*
X169608Y113870D01*
X169570Y114180D01*
X169646Y114542D01*
X169915Y114800D01*
X170183Y114904D01*
X170528D01*
G01X170183D02*
X169953Y115059D01*
X169761Y115317D01*
X169685Y115627D01*
X169761Y115937D01*
X169953Y116195D01*
X170298Y116350D01*
X170643Y116299D01*
X170988Y116092D01*
G01X158870Y120672D02*
X155287D01*
X154537Y120926D01*
X154037Y121432D01*
X153870Y122066D01*
X154037Y122699D01*
X154537Y123206D01*
X155287Y123459D01*
X158870D01*
G01X153870Y127426D02*
X158870D01*
X155287Y125082D01*
Y128249D01*
G01X155954Y130062D02*
X156537Y130506D01*
X156870Y130886D01*
X157037Y131392D01*
X156870Y131836D01*
X156537Y132152D01*
X156037Y132406D01*
X155454Y132469D01*
X154954Y132406D01*
X154454Y132152D01*
X154037Y131772D01*
X153870Y131329D01*
X154037Y130822D01*
X154537Y130379D01*
X155287Y130126D01*
X156120Y130062D01*
X157204Y130189D01*
X157787Y130379D01*
X158370Y130696D01*
X158787Y131139D01*
X158870Y131582D01*
X158704Y132026D01*
X158287Y132342D01*
G01X151548Y155393D02*
X137532D01*
Y105393D01*
X151548D01*
Y155393D01*
G01X159118Y139185D02*
X158850Y139547D01*
X158620Y139753D01*
X158313Y139857D01*
X158045Y139753D01*
X157853Y139547D01*
X157700Y139237D01*
X157662Y138875D01*
X157700Y138565D01*
X157853Y138255D01*
X158084Y137997D01*
X158352Y137893D01*
X158658Y137997D01*
X158927Y138306D01*
X159080Y138772D01*
X159118Y139288D01*
X159042Y139960D01*
X158927Y140322D01*
X158735Y140683D01*
X158467Y140942D01*
X158198Y140993D01*
X157930Y140890D01*
X157738Y140632D01*
G01X155140Y157403D02*
Y143383D01*
X213540D01*
Y157403D01*
X155140D01*
G01X151508Y220507D02*
X137492D01*
Y170506D01*
X151508D01*
Y220507D01*
G01X154295Y149715D02*
X154065Y149457D01*
X153796Y149302D01*
X153451Y149250D01*
X153106Y149354D01*
X152838Y149560D01*
X152646Y149922D01*
X152608Y150335D01*
X152685Y150749D01*
X152876Y151007D01*
X153145Y151214D01*
X153413Y151265D01*
X153681Y151214D01*
X154026Y151007D01*
X153911Y152350D01*
X152876D01*
G01X159078Y204298D02*
X158810Y204660D01*
X158580Y204867D01*
X158273Y204970D01*
X158005Y204867D01*
X157813Y204660D01*
X157660Y204350D01*
X157622Y203988D01*
X157660Y203678D01*
X157813Y203368D01*
X158043Y203110D01*
X158312Y203006D01*
X158618Y203110D01*
X158887Y203420D01*
X159040Y203885D01*
X159078Y204402D01*
X159002Y205073D01*
X158887Y205435D01*
X158695Y205797D01*
X158427Y206055D01*
X158158Y206107D01*
X157890Y206003D01*
X157698Y205745D01*
G01X155100Y222516D02*
Y208497D01*
X213500D01*
Y222516D01*
X155100D01*
G01X169405Y192254D02*
Y188671D01*
X169151Y187921D01*
X168645Y187421D01*
X168011Y187254D01*
X167378Y187421D01*
X166871Y187921D01*
X166618Y188671D01*
Y192254D01*
G01X164615Y189337D02*
X164171Y189921D01*
X163791Y190254D01*
X163285Y190421D01*
X162841Y190254D01*
X162525Y189921D01*
X162271Y189421D01*
X162208Y188837D01*
X162271Y188337D01*
X162525Y187837D01*
X162905Y187421D01*
X163348Y187254D01*
X163855Y187421D01*
X164298Y187921D01*
X164551Y188671D01*
X164615Y189504D01*
X164488Y190587D01*
X164298Y191171D01*
X163981Y191754D01*
X163538Y192171D01*
X163095Y192254D01*
X162651Y192088D01*
X162335Y191671D01*
G01X158938Y187254D02*
X158811Y188337D01*
X158621Y189254D01*
X158368Y190087D01*
X158051Y191004D01*
X157545Y192254D01*
X160078D01*
G01X154055Y214852D02*
X153825Y214594D01*
X153556Y214439D01*
X153211Y214387D01*
X152866Y214491D01*
X152598Y214697D01*
X152406Y215059D01*
X152368Y215472D01*
X152445Y215886D01*
X152636Y216144D01*
X152905Y216351D01*
X153173Y216402D01*
X153441Y216351D01*
X153786Y216144D01*
X153671Y217487D01*
X152636D01*
G01X173305Y252161D02*
Y248578D01*
X173051Y247828D01*
X172545Y247328D01*
X171911Y247161D01*
X171278Y247328D01*
X170771Y247828D01*
X170518Y248578D01*
Y252161D01*
G01X167311Y247161D02*
Y252161D01*
X168071Y251162D01*
G01Y247161D02*
X166551D01*
G01X162711D02*
Y252161D01*
X163471Y251162D01*
G01Y247161D02*
X161951D01*
G01X159505Y248161D02*
X159125Y247578D01*
X158618Y247245D01*
X158048Y247161D01*
X157541Y247245D01*
X157035Y247661D01*
X156718Y248161D01*
X156655Y248661D01*
X156781Y249245D01*
X157225Y249661D01*
X157668Y249828D01*
X158238D01*
G01X157668D02*
X157288Y250078D01*
X156971Y250495D01*
X156845Y250995D01*
X156971Y251495D01*
X157288Y251911D01*
X157858Y252161D01*
X158428Y252078D01*
X158998Y251745D01*
G01X151496Y285330D02*
X137481D01*
Y235330D01*
X151496D01*
Y285330D01*
G01X190805Y270661D02*
Y267078D01*
X190551Y266328D01*
X190045Y265828D01*
X189411Y265661D01*
X188778Y265828D01*
X188271Y266328D01*
X188018Y267078D01*
Y270661D01*
G01X184811Y265661D02*
Y270661D01*
X185571Y269662D01*
G01Y265661D02*
X184051D01*
G01X180211D02*
Y270661D01*
X180971Y269662D01*
G01Y265661D02*
X179451D01*
G01X176815Y269828D02*
X176435Y270328D01*
X175991Y270578D01*
X175485Y270661D01*
X174851Y270495D01*
X174408Y270078D01*
X174281Y269578D01*
X174345Y269078D01*
X174598Y268661D01*
X175865Y267828D01*
X176435Y267245D01*
X176815Y266411D01*
X176941Y265661D01*
X174281D01*
G01X159067Y269121D02*
X158798Y269483D01*
X158568Y269690D01*
X158262Y269793D01*
X157994Y269690D01*
X157802Y269483D01*
X157648Y269173D01*
X157610Y268811D01*
X157648Y268501D01*
X157802Y268191D01*
X158032Y267933D01*
X158300Y267830D01*
X158607Y267933D01*
X158875Y268243D01*
X159029Y268708D01*
X159067Y269224D01*
X158990Y269896D01*
X158875Y270258D01*
X158684Y270620D01*
X158415Y270878D01*
X158147Y270930D01*
X157878Y270826D01*
X157687Y270568D01*
G01X155088Y287340D02*
Y273320D01*
X213488D01*
Y287340D01*
X155088D01*
G01X154355Y279260D02*
X154125Y279001D01*
X153856Y278846D01*
X153511Y278795D01*
X153166Y278898D01*
X152898Y279105D01*
X152706Y279466D01*
X152668Y279880D01*
X152745Y280293D01*
X152936Y280551D01*
X153205Y280758D01*
X153473Y280810D01*
X153741Y280758D01*
X154086Y280551D01*
X153971Y281895D01*
X152936D01*
G01X181544Y134832D02*
Y138416D01*
X181797Y139166D01*
X182304Y139666D01*
X182937Y139832D01*
X183570Y139666D01*
X184077Y139166D01*
X184330Y138416D01*
Y134832D01*
G01X186144Y139083D02*
X186524Y139499D01*
X186967Y139749D01*
X187537Y139832D01*
X188107Y139666D01*
X188550Y139333D01*
X188867Y138749D01*
X188930Y138083D01*
X188804Y137416D01*
X188487Y136999D01*
X188044Y136666D01*
X187600Y136583D01*
X187157Y136666D01*
X186587Y136999D01*
X186777Y134832D01*
X188487D01*
G01X190934Y135666D02*
X191314Y135166D01*
X191757Y134916D01*
X192264Y134832D01*
X192897Y134999D01*
X193340Y135416D01*
X193467Y135916D01*
X193404Y136416D01*
X193150Y136832D01*
X191884Y137666D01*
X191314Y138249D01*
X190934Y139083D01*
X190807Y139832D01*
X193467D01*
G01X214370Y116672D02*
X210787D01*
X210037Y116926D01*
X209537Y117432D01*
X209370Y118066D01*
X209537Y118699D01*
X210037Y119206D01*
X210787Y119459D01*
X214370D01*
G01X210120Y121272D02*
X209704Y121652D01*
X209454Y122096D01*
X209370Y122666D01*
X209537Y123236D01*
X209870Y123679D01*
X210454Y123996D01*
X211120Y124059D01*
X211787Y123932D01*
X212204Y123616D01*
X212537Y123172D01*
X212620Y122729D01*
X212537Y122286D01*
X212204Y121716D01*
X214370Y121906D01*
Y123616D01*
G01Y127266D02*
X214204Y126759D01*
X213787Y126379D01*
X213287Y126126D01*
X212620Y125936D01*
X211870Y125872D01*
X211120Y125936D01*
X210454Y126126D01*
X209954Y126379D01*
X209537Y126759D01*
X209370Y127266D01*
X209537Y127772D01*
X209954Y128152D01*
X210454Y128406D01*
X211120Y128596D01*
X211870Y128659D01*
X212620Y128596D01*
X213287Y128406D01*
X213787Y128152D01*
X214204Y127772D01*
X214370Y127266D01*
G01X193905Y205654D02*
Y202071D01*
X193651Y201321D01*
X193145Y200821D01*
X192511Y200654D01*
X191878Y200821D01*
X191371Y201321D01*
X191118Y202071D01*
Y205654D01*
G01X189115Y202737D02*
X188671Y203321D01*
X188291Y203654D01*
X187785Y203821D01*
X187341Y203654D01*
X187025Y203321D01*
X186771Y202821D01*
X186708Y202237D01*
X186771Y201737D01*
X187025Y201237D01*
X187405Y200821D01*
X187848Y200654D01*
X188355Y200821D01*
X188798Y201321D01*
X189051Y202071D01*
X189115Y202904D01*
X188988Y203987D01*
X188798Y204571D01*
X188481Y205154D01*
X188038Y205571D01*
X187595Y205654D01*
X187151Y205488D01*
X186835Y205071D01*
G01X184388Y201237D02*
X183945Y200821D01*
X183438Y200654D01*
X182931Y200821D01*
X182488Y201321D01*
X182171Y202071D01*
X182045Y202821D01*
Y203737D01*
X182171Y204487D01*
X182488Y205154D01*
X182868Y205488D01*
X183311Y205654D01*
X183818Y205488D01*
X184198Y205154D01*
X184451Y204654D01*
X184578Y203987D01*
X184451Y203404D01*
X184135Y202821D01*
X183755Y202487D01*
X183311Y202404D01*
X182805Y202571D01*
X182425Y202987D01*
X182045Y203737D01*
G01X214005Y188554D02*
Y184971D01*
X213751Y184221D01*
X213245Y183721D01*
X212611Y183554D01*
X211978Y183721D01*
X211471Y184221D01*
X211218Y184971D01*
Y188554D01*
G01X209215Y185637D02*
X208771Y186221D01*
X208391Y186554D01*
X207885Y186721D01*
X207441Y186554D01*
X207125Y186221D01*
X206871Y185721D01*
X206808Y185137D01*
X206871Y184637D01*
X207125Y184137D01*
X207505Y183721D01*
X207948Y183554D01*
X208455Y183721D01*
X208898Y184221D01*
X209151Y184971D01*
X209215Y185804D01*
X209088Y186887D01*
X208898Y187471D01*
X208581Y188054D01*
X208138Y188471D01*
X207695Y188554D01*
X207251Y188388D01*
X206935Y187971D01*
G01X204805Y184304D02*
X204425Y183887D01*
X203981Y183637D01*
X203411Y183554D01*
X202841Y183721D01*
X202398Y184054D01*
X202081Y184637D01*
X202018Y185304D01*
X202145Y185971D01*
X202461Y186387D01*
X202905Y186721D01*
X203348Y186804D01*
X203791Y186721D01*
X204361Y186387D01*
X204171Y188554D01*
X202461D01*
G01X213305Y254161D02*
Y250578D01*
X213051Y249828D01*
X212545Y249328D01*
X211911Y249161D01*
X211278Y249328D01*
X210771Y249828D01*
X210518Y250578D01*
Y254161D01*
G01X207311Y249161D02*
Y254161D01*
X208071Y253162D01*
G01Y249161D02*
X206551D01*
G01X202711D02*
Y254161D01*
X203471Y253162D01*
G01Y249161D02*
X201951D01*
G01X198111D02*
Y254161D01*
X198871Y253162D01*
G01Y249161D02*
X197351D01*
G01X231550Y154593D02*
X217530D01*
Y106193D01*
X231550D01*
Y154593D01*
G01X231510Y219707D02*
X217490D01*
Y171306D01*
X231510D01*
Y219707D01*
G01X216395Y149715D02*
X216165Y149457D01*
X215896Y149302D01*
X215551Y149250D01*
X215206Y149354D01*
X214938Y149560D01*
X214746Y149922D01*
X214708Y150335D01*
X214785Y150749D01*
X214976Y151007D01*
X215245Y151214D01*
X215513Y151265D01*
X215781Y151214D01*
X216126Y151007D01*
X216011Y152350D01*
X214976D01*
G01X216355Y214752D02*
X216125Y214494D01*
X215856Y214339D01*
X215511Y214287D01*
X215166Y214391D01*
X214898Y214597D01*
X214706Y214959D01*
X214668Y215372D01*
X214745Y215786D01*
X214936Y216044D01*
X215205Y216251D01*
X215473Y216302D01*
X215741Y216251D01*
X216086Y216044D01*
X215971Y217387D01*
X214936D01*
G01X231498Y284530D02*
X217478D01*
Y236130D01*
X231498D01*
Y284530D01*
G01X216355Y279260D02*
X216125Y279001D01*
X215856Y278847D01*
X215511Y278795D01*
X215166Y278898D01*
X214898Y279105D01*
X214706Y279466D01*
X214668Y279880D01*
X214745Y280293D01*
X214936Y280552D01*
X215205Y280758D01*
X215473Y280810D01*
X215741Y280758D01*
X216086Y280552D01*
X215971Y281895D01*
X214936D01*
G54D11*
G01X414210Y-67469D02*
X415110Y-65819D01*
G01X414830D02*
X415110D01*
G01X414660Y-65798D02*
X414830Y-65819D01*
G01X414500Y-65748D02*
X414660Y-65798D01*
G01X414350Y-65678D02*
X414500Y-65748D01*
G01X414220Y-65569D02*
X414350Y-65678D01*
G01X417040Y-64159D02*
X414770D01*
G01X414110Y-65439D02*
X414220Y-65569D01*
G01X414040Y-65289D02*
X414110Y-65439D01*
G01X413990Y-65128D02*
X414040Y-65289D01*
G01X414100Y-64519D02*
X414030Y-64648D01*
G01X414200Y-64389D02*
X414100Y-64519D01*
G01X414330Y-64289D02*
X414200Y-64389D01*
G01X414460Y-64219D02*
X414330Y-64289D01*
G01X414610Y-64178D02*
X414460Y-64219D01*
G01X414770Y-64159D02*
X414610Y-64178D01*
G01X413970Y-64959D02*
X413990Y-65128D01*
G01Y-64798D02*
X413970Y-64959D01*
G01X414030Y-64648D02*
X413990Y-64798D01*
G01X414500Y-48109D02*
X418460D01*
G01X417040Y-51578D02*
X413970D01*
G01Y-50889D02*
X417040D01*
G01Y-50189D02*
X413970D01*
G01X413990Y-49498D02*
X417040D01*
G01X417160Y-48798D02*
X414130D01*
G01X414840Y-47739D02*
X415490Y-47259D01*
G01X414460Y-48148D02*
X414840Y-47739D01*
G01X414180Y-48628D02*
X414460Y-48148D01*
G01X414020Y-49159D02*
X414180Y-48628D01*
G01X413970Y-59669D02*
Y-49709D01*
G01D02*
X414020Y-49159D01*
G01X417040Y-59669D02*
X413970D01*
G01Y-59219D02*
X417040D01*
G01Y-58519D02*
X413970D01*
G01Y-57828D02*
X417040D01*
G01Y-57128D02*
X413970D01*
G01Y-56439D02*
X417040D01*
G01Y-55739D02*
X413970D01*
G01Y-55048D02*
X417040D01*
G01Y-54359D02*
X413970D01*
G01Y-53659D02*
X417040D01*
G01Y-52969D02*
X413970D01*
G01Y-52269D02*
X417040D01*
G01X453490Y-67298D02*
X453280Y-67389D01*
G01X453670Y-67169D02*
X453490Y-67298D01*
G01X453830Y-67009D02*
X453670Y-67169D01*
G01X453960Y-66819D02*
X453830Y-67009D01*
G01X454050Y-66619D02*
X453960Y-66819D01*
G01X454110Y-66398D02*
X454050Y-66619D01*
G01X454130Y-66178D02*
X454110Y-66398D01*
G01X454130Y-65428D02*
Y-66178D01*
G01X452840Y-67469D02*
X452140D01*
G01X453060Y-67448D02*
X452840Y-67469D01*
G01X453280Y-67389D02*
X453060Y-67448D01*
G01X451540Y-67328D02*
X451360Y-67219D01*
G01X451730Y-67409D02*
X451540Y-67328D01*
G01X451930Y-67448D02*
X451730Y-67409D01*
G01X452140Y-67469D02*
X451930Y-67448D01*
G01X450880Y-66559D02*
X450840Y-66359D01*
G01X450960Y-66748D02*
X450880Y-66559D01*
G01X451070Y-66928D02*
X450960Y-66748D01*
G01X451210Y-67078D02*
X451070Y-66928D01*
G01X451360Y-67219D02*
X451210Y-67078D01*
G01X450840Y-66359D02*
X450820Y-66148D01*
G01D02*
Y-65459D01*
G01X448460Y-64159D02*
Y-67469D01*
G01X445700D02*
X447980Y-64159D01*
G01X445150Y-67469D02*
X445700D01*
G01X445150Y-64159D02*
Y-67469D01*
G01X442790D02*
Y-64159D01*
G01X441030Y-67469D02*
X442790D01*
G01X440830Y-67448D02*
X441030Y-67469D01*
G01X440630Y-67409D02*
X440830Y-67448D01*
G01X440440Y-67328D02*
X440630Y-67409D01*
G01X440260Y-67219D02*
X440440Y-67328D01*
G01X440100Y-67089D02*
X440260Y-67219D01*
G01X439970Y-66928D02*
X440100Y-67089D01*
G01X439860Y-66748D02*
X439970Y-66928D01*
G01X439780Y-66559D02*
X439860Y-66748D01*
G01X439740Y-66359D02*
X439780Y-66559D01*
G01X439720Y-66159D02*
X439740Y-66359D01*
G01X439720Y-65448D02*
Y-66159D01*
G01X437340Y-66448D02*
X437360Y-66228D01*
G01X437290Y-66648D02*
X437340Y-66448D01*
G01X437190Y-66848D02*
X437290Y-66648D01*
G01X437070Y-67028D02*
X437190Y-66848D01*
G01X436920Y-67178D02*
X437070Y-67028D01*
G01X437350Y-66228D02*
Y-64159D01*
G01X436740Y-67298D02*
X436920Y-67178D01*
G01X436540Y-67398D02*
X436740Y-67298D01*
G01X436340Y-67448D02*
X436540Y-67398D01*
G01X436120Y-67469D02*
X436340Y-67448D01*
G01X435600Y-67469D02*
X436120D01*
G01X435370Y-67448D02*
X435600Y-67469D01*
G01X435150Y-67389D02*
X435370Y-67448D01*
G01X434940Y-67289D02*
X435150Y-67389D01*
G01X434760Y-67159D02*
X434940Y-67289D01*
G01X434600Y-66998D02*
X434760Y-67159D01*
G01X434470Y-66809D02*
X434600Y-66998D01*
G01X434370Y-66609D02*
X434470Y-66809D01*
G01X434310Y-66389D02*
X434370Y-66609D01*
G01X434290Y-66159D02*
X434310Y-66389D01*
G01X434280Y-64159D02*
Y-66159D01*
G01X432140Y-66589D02*
X432160Y-66398D01*
G01X432100Y-66769D02*
X432140Y-66589D01*
G01X432020Y-66928D02*
X432100Y-66769D01*
G01X431910Y-67089D02*
X432020Y-66928D01*
G01X431780Y-67219D02*
X431910Y-67089D01*
G01X432160Y-66398D02*
Y-65199D01*
G01X431630Y-67328D02*
X431780Y-67219D01*
G01X431460Y-67409D02*
X431630Y-67328D01*
G01X431280Y-67448D02*
X431460Y-67409D01*
G01X431090Y-67469D02*
X431280Y-67448D01*
G01X429320Y-67469D02*
X431090D01*
G01X421750Y-67328D02*
X421560Y-67409D01*
G01X421930Y-67219D02*
X421750Y-67328D01*
G01X422090Y-67089D02*
X421930Y-67219D01*
G01X422220Y-66928D02*
X422090Y-67089D01*
G01X426020Y-64159D02*
Y-67469D01*
G01X422330Y-66748D02*
X422220Y-66928D01*
G01X422410Y-66559D02*
X422330Y-66748D01*
G01X422450Y-66359D02*
X422410Y-66559D01*
G01X422470Y-66159D02*
X422450Y-66359D01*
G01X422470Y-65448D02*
Y-66159D01*
G01X421160Y-67469D02*
X420470D01*
G01X421360Y-67448D02*
X421160Y-67469D01*
G01X421560Y-67409D02*
X421360Y-67448D01*
G01X420030Y-67389D02*
X419820Y-67298D01*
G01X420240Y-67448D02*
X420030Y-67389D01*
G01X420470Y-67469D02*
X420240Y-67448D01*
G01X419250Y-66609D02*
X419190Y-66398D01*
G01X419340Y-66819D02*
X419250Y-66609D01*
G01X419470Y-67009D02*
X419340Y-66819D01*
G01X419630Y-67169D02*
X419470Y-67009D01*
G01X419820Y-67298D02*
X419630Y-67169D01*
G01X419190Y-66398D02*
X419170Y-66169D01*
G01D02*
Y-65439D01*
G01X417040Y-65819D02*
Y-67469D01*
G01Y-64159D02*
Y-65819D01*
G01X415110D02*
X417040D01*
G01X461590Y-47419D02*
X451710D01*
G01X453280Y-46719D02*
X460230D01*
G01X455360Y-47889D02*
X454840Y-48019D01*
G01X454370Y-46478D02*
X455230Y-46449D01*
G01X450870Y-48109D02*
X454650D01*
G01X454360Y-48248D02*
X453930Y-48569D01*
G01X454840Y-48019D02*
X454360Y-48248D01*
G01X453520Y-46639D02*
X454370Y-46478D01*
G01X455270Y-59669D02*
X454360Y-59639D01*
G01D02*
X453460Y-59498D01*
G01X462070Y-58519D02*
X451380D01*
G01X460810Y-59219D02*
X452540D01*
G01X454730Y-58059D02*
X455300Y-58219D01*
G01X454200Y-57798D02*
X454730Y-58059D01*
G01X453730Y-57428D02*
X454200Y-57798D01*
G01X454110Y-65209D02*
X454130Y-65428D01*
G01X454050Y-64998D02*
X454110Y-65209D01*
G01X453960Y-64789D02*
X454050Y-64998D01*
G01X453830Y-64609D02*
X453960Y-64789D01*
G01X453680Y-64459D02*
X453830Y-64609D01*
G01X453490Y-64328D02*
X453680Y-64459D01*
G01X453290Y-64239D02*
X453490Y-64328D01*
G01X453080Y-64178D02*
X453290Y-64239D01*
G01X452860Y-64159D02*
X453080Y-64178D01*
G01X452120Y-64159D02*
X452860D01*
G01X451890Y-64178D02*
X452120Y-64159D01*
G01X451680Y-64239D02*
X451890Y-64178D01*
G01X451470Y-64328D02*
X451680Y-64239D01*
G01X450990Y-64809D02*
X451120Y-64619D01*
G01X450900Y-65019D02*
X450990Y-64809D01*
G01X450840Y-65228D02*
X450900Y-65019D01*
G01X450820Y-65459D02*
X450840Y-65228D01*
G01X451280Y-64459D02*
X451470Y-64328D01*
G01X451120Y-64619D02*
X451280Y-64459D01*
G01X447980Y-64159D02*
X448460D01*
G01X442790D02*
X441010D01*
G01X440570Y-64239D02*
X440360Y-64328D01*
G01X440790Y-64178D02*
X440570Y-64239D01*
G01X441010Y-64159D02*
X440790Y-64178D01*
G01X439740Y-65228D02*
X439720Y-65448D01*
G01X439800Y-65009D02*
X439740Y-65228D01*
G01X439890Y-64798D02*
X439800Y-65009D01*
G01X440020Y-64619D02*
X439890Y-64798D01*
G01X440180Y-64459D02*
X440020Y-64619D01*
G01X440360Y-64328D02*
X440180Y-64459D01*
G01X432140Y-65019D02*
X432100Y-64839D01*
G01X432160Y-65199D02*
X432140Y-65019D01*
G01X431920Y-64528D02*
X431790Y-64398D01*
G01X432020Y-64678D02*
X431920Y-64528D01*
G01X432100Y-64839D02*
X432020Y-64678D01*
G01X431300Y-64178D02*
X431120Y-64159D01*
G01X431480Y-64219D02*
X431300Y-64178D01*
G01X431640Y-64298D02*
X431480Y-64219D01*
G01X431790Y-64398D02*
X431640Y-64298D01*
G01X431120Y-64159D02*
X429320D01*
G01X453680Y-48798D02*
X450400D01*
G01X453360Y-49239D02*
X453220Y-49659D01*
G01X453600Y-48869D02*
X453360Y-49239D01*
G01X453930Y-48569D02*
X453600Y-48869D01*
G01X452710Y-46919D02*
X453520Y-46639D01*
G01X453180Y-50109D02*
Y-55778D01*
G01Y-51578D02*
X450110D01*
G01Y-50889D02*
X453180D01*
G01X450160Y-49498D02*
X453270D01*
G01X453180Y-50189D02*
X450110D01*
G01X453220Y-49659D02*
X453180Y-50109D01*
G01X452080Y-47189D02*
X452710Y-46919D01*
G01X451500Y-47539D02*
X452080Y-47189D01*
G01X450980Y-47978D02*
X451500Y-47539D01*
G01X450600Y-48428D02*
X450980Y-47978D01*
G01X450110Y-56248D02*
Y-50109D01*
G01X450160Y-49519D02*
X450320Y-48948D01*
G01X450110Y-50109D02*
X450160Y-49519D01*
G01X450320Y-48948D02*
X450600Y-48428D01*
G01X446800Y-46919D02*
Y-59669D01*
G01Y-51578D02*
X443440D01*
G01X443500Y-50889D02*
X446800D01*
G01Y-50189D02*
X443500D01*
G01Y-49498D02*
X446800D01*
G01Y-48798D02*
X443500D01*
G01Y-48109D02*
X446800D01*
G01X443500Y-46919D02*
X446800D01*
G01Y-47419D02*
X443500D01*
G01Y-51309D02*
Y-46919D01*
G01X443470Y-51519D02*
X443500Y-51309D01*
G01X443390Y-51709D02*
X443470Y-51519D01*
G01X443260Y-51878D02*
X443390Y-51709D01*
G01X443090Y-52009D02*
X443260Y-51878D01*
G01X436640Y-51889D02*
X436800Y-52009D01*
G01X436520Y-51719D02*
X436640Y-51889D01*
G01X436460Y-51578D02*
X433100D01*
G01X436440Y-51528D02*
X436520Y-51719D01*
G01X436410Y-51328D02*
X436440Y-51528D01*
G01X436410Y-46919D02*
Y-51328D01*
G01X433100Y-50889D02*
X436410D01*
G01X433100Y-49498D02*
X436410D01*
G01Y-50189D02*
X433100D01*
G01X436410Y-48798D02*
X433100D01*
G01Y-48109D02*
X436410D01*
G01Y-47419D02*
X433100D01*
G01Y-46919D02*
X436410D01*
G01X433100Y-59669D02*
Y-46919D01*
G01X429560D02*
Y-59669D01*
G01Y-51578D02*
X426490D01*
G01Y-50889D02*
X429560D01*
G01X426490Y-49498D02*
X429560D01*
G01Y-50189D02*
X426490D01*
G01X429560Y-48798D02*
X426470D01*
G01X425740Y-48109D02*
X429560D01*
G01X426620Y-46539D02*
X429560Y-46919D01*
G01Y-47419D02*
X415280D01*
G01X450670Y-57828D02*
X454260D01*
G01X453460Y-59498D02*
X452590Y-59239D01*
G01X453560Y-57128D02*
X450280D01*
G01X453430Y-56919D02*
X453730Y-57428D01*
G01X453240Y-56359D02*
X453430Y-56919D01*
G01X452590Y-59239D02*
X452010Y-58969D01*
G01X450130Y-56439D02*
X453270D01*
G01X453180Y-55778D02*
X453240Y-56359D01*
G01X453180Y-55739D02*
X450110D01*
G01Y-55048D02*
X453180D01*
G01X450110Y-53659D02*
X453180D01*
G01Y-54359D02*
X450110D01*
G01X453180Y-52969D02*
X450110D01*
G01Y-52269D02*
X453180D01*
G01X452010Y-58969D02*
X451480Y-58619D01*
G01X451020Y-58178D02*
X450630Y-57789D01*
G01X451480Y-58619D02*
X451020Y-58178D01*
G01X450630Y-57789D02*
X450340Y-57319D01*
G01D02*
X450160Y-56799D01*
G01D02*
X450110Y-56248D01*
G01X446800Y-59669D02*
X443500D01*
G01X436410D02*
X433100D01*
G01X429560D02*
X426490D01*
G01X446800Y-59219D02*
X443500D01*
G01Y-58519D02*
X446800D01*
G01Y-57828D02*
X443500D01*
G01Y-57128D02*
X446800D01*
G01Y-56439D02*
X443500D01*
G01Y-55739D02*
X446800D01*
G01Y-55048D02*
X443500D01*
G01X446800Y-53659D02*
X433100D01*
G01X443470Y-54359D02*
X446800D01*
G01X433100Y-52969D02*
X446800D01*
G01Y-52269D02*
X433100D01*
G01X443500Y-59669D02*
Y-54548D01*
G01D02*
X443470Y-54348D01*
G01X443270Y-53999D02*
X443110Y-53869D01*
G01X443390Y-54159D02*
X443270Y-53999D01*
G01X443470Y-54348D02*
X443390Y-54159D01*
G01X443110Y-53869D02*
X442920Y-53789D01*
G01X442900Y-52089D02*
X443090Y-52009D01*
G01X442720Y-53769D02*
X437240D01*
G01X442920Y-53789D02*
X442720Y-53769D01*
G01X442690Y-52109D02*
X442900Y-52089D01*
G01X437190Y-52109D02*
X442690D01*
G01X437240Y-53769D02*
X437030Y-53799D01*
G01X436990Y-52089D02*
X437190Y-52109D01*
G01X436410Y-54599D02*
Y-59669D01*
G01Y-59219D02*
X433100D01*
G01Y-58519D02*
X436410D01*
G01X433100Y-57128D02*
X436410D01*
G01Y-57828D02*
X433100D01*
G01X436410Y-56439D02*
X433100D01*
G01Y-55739D02*
X436410D01*
G01Y-55048D02*
X433100D01*
G01X436440Y-54378D02*
X436410Y-54599D01*
G01X433100Y-54359D02*
X436450D01*
G01X436520Y-54178D02*
X436440Y-54378D01*
G01X436650Y-54009D02*
X436520Y-54178D01*
G01X436820Y-53878D02*
X436650Y-54009D01*
G01X437030Y-53799D02*
X436820Y-53878D01*
G01X436800Y-52009D02*
X436990Y-52089D01*
G01X426490Y-59219D02*
X429560D01*
G01Y-58519D02*
X426490D01*
G01X429560Y-57128D02*
X426490D01*
G01Y-57828D02*
X429560D01*
G01X426490Y-56439D02*
X429560D01*
G01Y-55739D02*
X426490D01*
G01Y-55048D02*
X429560D01*
G01X426490Y-53659D02*
X429560D01*
G01Y-54359D02*
X426490D01*
G01X429560Y-52969D02*
X426490D01*
G01Y-52269D02*
X429560D01*
G01X422020Y-64459D02*
X422180Y-64619D01*
G01X421830Y-64328D02*
X422020Y-64459D01*
G01X421630Y-64239D02*
X421830Y-64328D01*
G01X427430Y-64159D02*
X426020D01*
G01X424600D02*
X426020D01*
G01X422460Y-65228D02*
X422480Y-65448D01*
G01X422400Y-65009D02*
X422460Y-65228D01*
G01X422310Y-64798D02*
X422400Y-65009D01*
G01X422180Y-64619D02*
X422310Y-64798D01*
G01X421410Y-64178D02*
X421630Y-64239D01*
G01X421190Y-64159D02*
X421410Y-64178D01*
G01X420450Y-64159D02*
X421190D01*
G01X420230Y-64178D02*
X420450Y-64159D01*
G01X420010Y-64239D02*
X420230Y-64178D01*
G01X419810Y-64328D02*
X420010Y-64239D01*
G01X419630Y-64459D02*
X419810Y-64328D01*
G01X419470Y-64619D02*
X419630Y-64459D01*
G01X419340Y-64798D02*
X419470Y-64619D01*
G01X419250Y-64998D02*
X419340Y-64798D01*
G01X419190Y-65219D02*
X419250Y-64998D01*
G01X419170Y-65439D02*
X419190Y-65219D01*
G01X428010Y-46719D02*
X416860D01*
G01X426490Y-59669D02*
Y-48928D01*
G01X426380Y-48509D02*
X426250Y-48339D01*
G01X426460Y-48709D02*
X426380Y-48509D01*
G01X426490Y-48928D02*
X426460Y-48709D01*
G01X426070Y-48209D02*
X425880Y-48128D01*
G01X426250Y-48339D02*
X426070Y-48209D01*
G01X423650Y-46449D02*
X426620Y-46539D01*
G01X425660Y-48099D02*
X424220D01*
G01X425880Y-48128D02*
X425660Y-48099D01*
G01X419380Y-48109D02*
X424140D01*
G01X423530Y-48498D02*
X423440Y-48689D01*
G01X423650Y-48328D02*
X423530Y-48498D01*
G01X423820Y-48209D02*
X423650Y-48328D01*
G01X424010Y-48128D02*
X423820Y-48209D01*
G01X424220Y-48099D02*
X424010Y-48128D01*
G01X419320Y-46449D02*
X423650D01*
G01X423420Y-48898D02*
Y-59669D01*
G01Y-51578D02*
X420110D01*
G01Y-50889D02*
X423420D01*
G01Y-50189D02*
X420110D01*
G01Y-49498D02*
X423420D01*
G01X423430Y-48798D02*
X420100D01*
G01X423440Y-48689D02*
X423420Y-48898D01*
G01X420110Y-59669D02*
Y-48909D01*
G01X420080Y-48698D02*
X420000Y-48498D01*
G01X420110Y-48909D02*
X420080Y-48698D01*
G01X420000Y-48498D02*
X419870Y-48339D01*
G01X419300Y-48099D02*
X418540D01*
G01X419510Y-48128D02*
X419300Y-48099D01*
G01X419700Y-48209D02*
X419510Y-48128D01*
G01X419870Y-48339D02*
X419700Y-48209D01*
G01X418160Y-46509D02*
X419320Y-46449D01*
G01X418540Y-48099D02*
X418030Y-48169D01*
G01X417550Y-48339D02*
X417330Y-48539D01*
G01X418030Y-48169D02*
X417550Y-48339D01*
G01X417000Y-46678D02*
X418160Y-46509D01*
G01X417040Y-49359D02*
Y-59669D01*
G01X417070Y-49059D02*
X417040Y-49359D01*
G01X417170Y-48778D02*
X417070Y-49059D01*
G01X417330Y-48539D02*
X417170Y-48778D01*
G01X416220Y-46899D02*
X417000Y-46678D01*
G01X415490Y-47259D02*
X416220Y-46899D01*
G01X423420Y-59669D02*
X420110D01*
G01Y-59219D02*
X423420D01*
G01Y-58519D02*
X420110D01*
G01Y-57828D02*
X423420D01*
G01Y-57128D02*
X420110D01*
G01Y-56439D02*
X423420D01*
G01Y-55739D02*
X420110D01*
G01Y-55048D02*
X423420D01*
G01Y-54359D02*
X420110D01*
G01Y-53659D02*
X423420D01*
G01Y-52969D02*
X420110D01*
G01Y-52269D02*
X423420D01*
G01X472430Y-67469D02*
X472610Y-67448D01*
G01X470660Y-67469D02*
X472430D01*
G01X476480D02*
X478930D01*
G01X478210Y-65789D02*
X478040Y-65809D01*
G01X478380Y-65739D02*
X478210Y-65789D01*
G01X478530Y-65659D02*
X478380Y-65739D01*
G01X478670Y-65548D02*
X478530Y-65659D01*
G01X478040Y-65819D02*
X476420D01*
G01X476310Y-67448D02*
X476480Y-67469D01*
G01X476420Y-65809D02*
X476260Y-65828D01*
G01X476150Y-67398D02*
X476310Y-67448D01*
G01X476000Y-67328D02*
X476150Y-67398D01*
G01X475870Y-67219D02*
X476000Y-67328D01*
G01X475760Y-67089D02*
X475870Y-67219D01*
G01X475690Y-66939D02*
X475760Y-67089D01*
G01X475640Y-66778D02*
X475690Y-66939D01*
G01X475620Y-66609D02*
X475640Y-66778D01*
G01Y-66448D02*
X475620Y-66609D01*
G01X475680Y-66298D02*
X475640Y-66448D01*
G01X475750Y-66169D02*
X475680Y-66298D01*
G01X475850Y-66039D02*
X475750Y-66169D01*
G01X475980Y-65939D02*
X475850Y-66039D01*
G01X476110Y-65869D02*
X475980Y-65939D01*
G01X476260Y-65828D02*
X476110Y-65869D01*
G01X473470Y-66589D02*
X473490Y-66409D01*
G01X473430Y-66769D02*
X473470Y-66589D01*
G01X473350Y-66939D02*
X473430Y-66769D01*
G01X473240Y-67089D02*
X473350Y-66939D01*
G01X473110Y-67219D02*
X473240Y-67089D01*
G01X472960Y-67328D02*
X473110Y-67219D01*
G01X472790Y-67409D02*
X472960Y-67328D01*
G01X473500Y-65178D02*
Y-65819D01*
G01D02*
X470660D01*
G01X473500Y-66409D02*
Y-65819D01*
G01X472610Y-67448D02*
X472790Y-67409D01*
G01X468300Y-64159D02*
Y-67469D01*
G01X466210D02*
X467750Y-64159D01*
G01X464800D02*
X466210Y-67469D01*
G01X464280D02*
Y-64159D01*
G01X461690D02*
Y-67469D01*
G01X459070Y-66569D02*
X459090Y-66378D01*
G01X459020Y-66748D02*
X459070Y-66569D01*
G01X458940Y-66919D02*
X459020Y-66748D01*
G01X458830Y-67078D02*
X458940Y-66919D01*
G01X458700Y-67209D02*
X458830Y-67078D01*
G01X458550Y-67319D02*
X458700Y-67209D01*
G01X458370Y-67398D02*
X458550Y-67319D01*
G01X459090Y-66378D02*
Y-65248D01*
G01X458190Y-67448D02*
X458370Y-67398D01*
G01X458000Y-67469D02*
X458190Y-67448D01*
G01X456250Y-67469D02*
X458000D01*
G01X472470Y-64159D02*
X472670Y-64178D01*
G01X470660Y-64159D02*
X472470D01*
G01X478860Y-65259D02*
X478780Y-65409D01*
G01X478910Y-64748D02*
X478930Y-64919D01*
G01X478910Y-65089D02*
X478860Y-65259D01*
G01X478930Y-64919D02*
X478910Y-65089D01*
G01X478850Y-64589D02*
X478910Y-64748D01*
G01X478760Y-64448D02*
X478850Y-64589D01*
G01X478780Y-65409D02*
X478670Y-65548D01*
G01X478640Y-64328D02*
X478760Y-64448D01*
G01X478500Y-64239D02*
X478640Y-64328D01*
G01X478340Y-64178D02*
X478500Y-64239D01*
G01X478170Y-64159D02*
X478340Y-64178D01*
G01X475620Y-64159D02*
X478170D01*
G01X473470Y-64978D02*
X473490Y-65178D01*
G01X473410Y-64789D02*
X473470Y-64978D01*
G01X473320Y-64609D02*
X473410Y-64789D01*
G01X473190Y-64459D02*
X473320Y-64609D01*
G01X473040Y-64328D02*
X473190Y-64459D01*
G01X472860Y-64239D02*
X473040Y-64328D01*
G01X472670Y-64178D02*
X472860Y-64239D01*
G01X469050Y-59669D02*
X473500Y-54478D01*
G01X467750Y-64159D02*
X468300D01*
G01X464280D02*
X464800D01*
G01X458910Y-64639D02*
X458770Y-64478D01*
G01X459010Y-64828D02*
X458910Y-64639D01*
G01X459070Y-65039D02*
X459010Y-64828D01*
G01X459090Y-65248D02*
X459070Y-65039D01*
G01X458610Y-64339D02*
X458420Y-64239D01*
G01X458770Y-64478D02*
X458610Y-64339D01*
G01X458420Y-64239D02*
X458210Y-64178D01*
G01X458000Y-64159D02*
X456250D01*
G01X458210Y-64178D02*
X458000Y-64159D01*
G01X469840Y-54789D02*
X465390Y-59669D01*
G01X478930Y-46919D02*
X476690Y-46589D01*
G01X478930Y-59669D02*
Y-46919D01*
G01Y-51578D02*
X475620D01*
G01Y-50889D02*
X478930D01*
G01X475620Y-49498D02*
X478930D01*
G01Y-50189D02*
X475620D01*
G01X478930Y-48798D02*
X475620D01*
G01X475410Y-48109D02*
X478930D01*
G01Y-47419D02*
X467310D01*
G01X477590Y-46719D02*
X469020D01*
G01X476690Y-46589D02*
X474440Y-46449D01*
G01X475620Y-48639D02*
Y-59669D01*
G01X475600Y-48439D02*
X475620Y-48639D01*
G01X475520Y-48248D02*
X475600Y-48439D01*
G01X475400Y-48089D02*
X475520Y-48248D01*
G01X475230Y-47969D02*
X475400Y-48089D01*
G01X475050Y-47889D02*
X475230Y-47969D01*
G01X474850Y-47859D02*
X475050Y-47889D01*
G01X472000Y-47859D02*
X474850D01*
G01X474440Y-46449D02*
X471410D01*
G01X471310Y-47889D02*
X472000Y-47859D01*
G01X470630Y-48049D02*
X471310Y-47889D01*
G01X471410Y-46449D02*
X469740Y-46569D01*
G01X466640Y-48109D02*
X470500D01*
G01X469990Y-48339D02*
X470630Y-48049D01*
G01X469600Y-52228D02*
X469410Y-51828D01*
G01X469580Y-48798D02*
X466270D01*
G01X469680Y-48648D02*
X469990Y-48339D01*
G01X469450Y-49019D02*
X469680Y-48648D01*
G01X469740Y-46569D02*
X468100Y-46919D01*
G01X469340Y-51578D02*
X466180D01*
G01X469290Y-51409D02*
X469240Y-50969D01*
G01X469410Y-51828D02*
X469290Y-51409D01*
G01X466170Y-50889D02*
X469240D01*
G01Y-50969D02*
Y-49869D01*
G01Y-50189D02*
X466170D01*
G01Y-49498D02*
X469290D01*
G01X469300Y-49428D02*
X469450Y-49019D01*
G01X469240Y-49869D02*
X469300Y-49428D01*
G01X468100Y-46919D02*
X467550Y-47219D01*
G01X467060Y-47619D02*
X466650Y-48099D01*
G01X467550Y-47219D02*
X467060Y-47619D01*
G01X466170Y-51519D02*
X466210Y-51998D01*
G01X466170Y-49519D02*
Y-51519D01*
G01X466190Y-49139D02*
X466170Y-49519D01*
G01X466280Y-48759D02*
X466190Y-49139D01*
G01X466430Y-48409D02*
X466280Y-48759D01*
G01X466650Y-48099D02*
X466430Y-48409D01*
G01X463100Y-49828D02*
Y-52589D01*
G01Y-51578D02*
X460030D01*
G01Y-50889D02*
X463100D01*
G01Y-50189D02*
X460030D01*
G01X459920Y-49498D02*
X463070D01*
G01X463060Y-49348D02*
X463100Y-49828D01*
G01X462880Y-48798D02*
X459500D01*
G01X462700Y-48469D02*
X462930Y-48889D01*
G01D02*
X463060Y-49348D01*
G01X462410Y-48089D02*
X462700Y-48469D01*
G01X458570Y-48109D02*
X462420D01*
G01X462040Y-47778D02*
X462410Y-48089D01*
G01X461410Y-47269D02*
X462040Y-47778D01*
G01X460700Y-46878D02*
X461410Y-47269D01*
G01X459940Y-46619D02*
X460700Y-46878D01*
G01X460030Y-52589D02*
Y-50149D01*
G01X459870Y-49348D02*
X459670Y-48998D01*
G01X459990Y-49739D02*
X459870Y-49348D01*
G01X460030Y-50149D02*
X459990Y-49739D01*
G01X459670Y-48998D02*
X459400Y-48689D01*
G01D02*
X458970Y-48319D01*
G01X459140Y-46478D02*
X459940Y-46619D01*
G01X458470Y-48049D02*
X457920Y-47899D01*
G01X458970Y-48319D02*
X458470Y-48049D01*
G01X458340Y-46449D02*
X459140Y-46478D01*
G01X457920Y-47899D02*
X457350Y-47859D01*
G01X455230Y-46449D02*
X458340D01*
G01X457350Y-47859D02*
X455900D01*
G01D02*
X455360Y-47889D01*
G01X475620Y-59669D02*
X478930D01*
G01X472410Y-55739D02*
X468970D01*
G01X475620Y-59219D02*
X478930D01*
G01Y-58519D02*
X475620D01*
G01X478930Y-57128D02*
X475620D01*
G01Y-57828D02*
X478930D01*
G01X475620Y-56439D02*
X478930D01*
G01Y-55739D02*
X475620D01*
G01Y-55048D02*
X478930D01*
G01X475620Y-53659D02*
X478930D01*
G01Y-54359D02*
X475620D01*
G01X478930Y-52969D02*
X475620D01*
G01Y-52269D02*
X478930D01*
G01X469600Y-55048D02*
X473010D01*
G01X473500Y-54359D02*
X469840D01*
G01X467360Y-53659D02*
X473500D01*
G01Y-54478D02*
Y-53059D01*
G01D02*
X471720D01*
G01X465390Y-59669D02*
X469050D01*
G01X460070Y-59439D02*
X459050Y-59609D01*
G01D02*
X458020Y-59669D01*
G01D02*
X455270D01*
G01X468330Y-56439D02*
X471820D01*
G01X471720Y-53059D02*
X471140Y-53019D01*
G01X467070Y-57828D02*
X470630D01*
G01X471220Y-57128D02*
X467700D01*
G01X470950Y-52969D02*
X466610D01*
G01X470580Y-52869D02*
X470060Y-52598D01*
G01X471140Y-53019D02*
X470580Y-52869D01*
G01X470030Y-58519D02*
X466440D01*
G01X469840Y-54278D02*
Y-54789D01*
G01X469140Y-54269D02*
X469840Y-54278D01*
G01X466280Y-52269D02*
X469650D01*
G01X470060Y-52598D02*
X469600Y-52228D01*
G01X465800Y-59219D02*
X469440D01*
G01X468460Y-54148D02*
X469140Y-54269D01*
G01X467800Y-53909D02*
X468460Y-54148D01*
G01X467200Y-53569D02*
X467800Y-53909D01*
G01X466840Y-53259D02*
X467200Y-53569D01*
G01X466550Y-52878D02*
X466840Y-53259D01*
G01X466330Y-52459D02*
X466550Y-52878D01*
G01X466210Y-51998D02*
X466330Y-52459D01*
G01X463030Y-57128D02*
X459610D01*
G01X462700Y-57909D02*
X462390Y-58278D01*
G01X462930Y-57478D02*
X462700Y-57909D01*
G01X463070Y-57009D02*
X462930Y-57478D01*
G01X459940Y-56439D02*
X463100D01*
G01Y-56519D02*
X463070Y-57009D01*
G01X463100Y-52589D02*
Y-56519D01*
G01Y-55739D02*
X460030D01*
G01Y-55048D02*
X463100D01*
G01Y-54359D02*
X460030D01*
G01Y-53659D02*
X463100D01*
G01Y-52969D02*
X460030D01*
G01Y-52269D02*
X463100D01*
G01X460030Y-52589D02*
X463100D01*
G01D02*
X460030D01*
G01X462000Y-58569D02*
X461400Y-58949D01*
G01X462390Y-58278D02*
X462000Y-58569D01*
G01X458870Y-57828D02*
X462750D01*
G01X461400Y-58949D02*
X460750Y-59239D01*
G01D02*
X460070Y-59439D01*
G01X459590Y-57159D02*
X459850Y-56739D01*
G01X459240Y-57509D02*
X459590Y-57159D01*
G01X458880Y-57828D02*
X459240Y-57509D01*
G01X460000Y-56269D02*
X460030Y-55778D01*
G01X459850Y-56739D02*
X460000Y-56269D01*
G01X460030Y-55778D02*
Y-52589D01*
G01X457990Y-58209D02*
X458460Y-58059D01*
G01D02*
X458880Y-57828D01*
G01X457510Y-58259D02*
X457990Y-58209D01*
G01X455900Y-58259D02*
X457510D01*
G01X455300Y-58219D02*
X455900Y-58259D01*
M02*
