G04 ================== begin FILE IDENTIFICATION RECORD ==================*
G04 Layout Name:  SENSOR_PLATFORM_BREAKOUT_BOARD_6KITBoards_REV02_2014-10-20.brd*
G04 Film Name:    SMASK_BOTTOM*
G04 File Format:  Gerber RS274X*
G04 File Origin:  Cadence Allegro 16.5-S001*
G04 Origin Date:  Mon Oct 20 15:18:46 2014*
G04 *
G04 Layer:  VIA CLASS/SOLDERMASK_BOTTOM*
G04 Layer:  PIN/SOLDERMASK_BOTTOM*
G04 Layer:  PACKAGE GEOMETRY/SOLDERMASK_BOTTOM*
G04 Layer:  DRAWING FORMAT/SOLDERMASK_BOTTOM*
G04 Layer:  BOARD GEOMETRY/OUTLINE*
G04 Layer:  BOARD GEOMETRY/SOLDERMASK_BOTTOM*
G04 Layer:  BOARD GEOMETRY/LOGO_M*
G04 *
G04 Offset:    (0.000 0.000)*
G04 Mirror:    No*
G04 Mode:      Positive*
G04 Rotation:  0*
G04 FullContactRelief:  No*
G04 UndefLineWidth:     5.000*
G04 ================== end FILE IDENTIFICATION RECORD ====================*
%FSLAX25Y25*MOIN*%
%IR0*IPPOS*OFA0.00000B0.00000*MIA0B0*SFA1.00000B1.00000*%
%ADD10C,.025*%
%ADD13C,.018*%
%ADD12C,.065*%
%ADD11R,.065X.065*%
%ADD14C,.007098*%
%ADD15C,.005*%
G75*
%LPD*%
G75*
G54D10*
X28000Y126599D03*
Y130599D03*
Y122599D03*
X20000Y126599D03*
Y130599D03*
Y122599D03*
Y192599D03*
Y200599D03*
Y196599D03*
X28000Y192599D03*
Y200599D03*
Y196599D03*
X20000Y257599D03*
Y265599D03*
Y261599D03*
X28000Y257599D03*
Y265599D03*
Y261599D03*
X79255Y95000D03*
X83255D03*
X75255D03*
X79255Y103000D03*
X83255D03*
X75255D03*
X74755Y168000D03*
X82755D03*
X78755D03*
X74755Y160000D03*
X82755D03*
X78755D03*
X72255Y233000D03*
X80255D03*
X76255D03*
X72255Y225000D03*
X80255D03*
X76255D03*
X72255Y290000D03*
X80255D03*
X76255D03*
X72255Y298000D03*
X80255D03*
X76255D03*
X127000Y127599D03*
Y135599D03*
Y131599D03*
D03*
Y135599D03*
Y127599D03*
Y131599D03*
Y135599D03*
Y127599D03*
Y192599D03*
Y200599D03*
Y196599D03*
Y192599D03*
Y200599D03*
Y196599D03*
Y257599D03*
Y265599D03*
Y261599D03*
Y257599D03*
Y265599D03*
Y261599D03*
X135000Y127599D03*
Y135599D03*
Y131599D03*
D03*
Y135599D03*
Y127599D03*
Y131599D03*
Y135599D03*
Y127599D03*
Y192599D03*
Y200599D03*
Y196599D03*
Y192599D03*
Y200599D03*
Y196599D03*
Y257599D03*
Y265599D03*
Y261599D03*
Y257599D03*
Y265599D03*
Y261599D03*
X179255Y95000D03*
X187255D03*
X183255D03*
X183099D03*
X187099D03*
X179099D03*
X179255Y103000D03*
X187255D03*
X183255D03*
X183099D03*
X187099D03*
X179099D03*
X179255Y168000D03*
X187255D03*
X183255D03*
X179255Y160000D03*
X187255D03*
X183255D03*
X179255Y168000D03*
X187255D03*
X183255D03*
X179255Y160000D03*
X187255D03*
X183255D03*
X179255Y233000D03*
X187255D03*
X183255D03*
X179255Y225000D03*
X187255D03*
X183255D03*
X179255Y233000D03*
X187255D03*
X183255D03*
X179255Y225000D03*
X187255D03*
X183255D03*
X179255Y290000D03*
X187255D03*
X183255D03*
X179255D03*
X187255D03*
X183255D03*
X179255Y298000D03*
X187255D03*
X183255D03*
X179255D03*
X187255D03*
X183255D03*
X242000Y135500D03*
Y127500D03*
Y131500D03*
X234000Y135500D03*
Y127500D03*
Y131500D03*
Y127599D03*
Y135599D03*
Y131599D03*
X242000Y127599D03*
Y135599D03*
Y131599D03*
D03*
Y135599D03*
Y127599D03*
X234000Y131599D03*
Y135599D03*
Y127599D03*
X242000Y197099D03*
Y201099D03*
Y193099D03*
X234000Y197099D03*
Y201099D03*
Y193099D03*
X242000Y197099D03*
Y201099D03*
Y193099D03*
X234000Y197099D03*
Y201099D03*
Y193099D03*
X242000Y261599D03*
Y265599D03*
Y257599D03*
X234000Y261599D03*
Y265599D03*
Y257599D03*
X242000Y261599D03*
Y265599D03*
Y257599D03*
X234000Y261599D03*
Y265599D03*
Y257599D03*
G54D11*
X37334Y110537D03*
X37501Y175411D03*
X37514Y240437D03*
X57334Y135537D03*
X117334Y110537D03*
X102334Y150537D03*
X117501Y175411D03*
X102501Y215411D03*
X117514Y240437D03*
X102513Y280437D03*
X164540Y134893D03*
X144540Y110393D03*
X144500Y175506D03*
X144488Y240330D03*
X209540Y150393D03*
X209500Y215506D03*
X209488Y280330D03*
X224540Y110393D03*
X224500Y175506D03*
X224489Y240330D03*
G54D12*
X37334Y120537D03*
Y130537D03*
X52334Y150537D03*
X37334Y140537D03*
Y150537D03*
X52501Y215411D03*
X37501Y185411D03*
Y195411D03*
Y205411D03*
Y215411D03*
X37514Y250437D03*
X52514Y280437D03*
X37514Y260437D03*
Y270437D03*
Y280437D03*
X57334Y125537D03*
Y115537D03*
X62334Y150537D03*
X72334D03*
X82334D03*
X92334D03*
X62501Y215411D03*
X72501D03*
X82501D03*
X92501D03*
X62514Y280437D03*
X72514D03*
X82514D03*
X92514D03*
X117334Y130537D03*
Y120537D03*
Y150537D03*
Y140537D03*
X117501Y215411D03*
Y205411D03*
Y195411D03*
Y185411D03*
X117514Y250437D03*
Y280437D03*
Y270437D03*
Y260437D03*
X164540Y124893D03*
Y114893D03*
X144540Y120393D03*
Y130393D03*
X159540Y150393D03*
X169540D03*
X144540Y140393D03*
Y150393D03*
X159500Y215506D03*
X169500D03*
X144500Y185507D03*
Y195506D03*
Y205506D03*
Y215506D03*
X144488Y250330D03*
X159488Y280330D03*
X169488D03*
X144488Y260330D03*
Y270330D03*
Y280330D03*
X179540Y150393D03*
X189540D03*
X199540D03*
X179500Y215506D03*
X189500D03*
X199500D03*
X179488Y280330D03*
X189488D03*
X199488D03*
X224540Y130393D03*
Y120393D03*
Y150393D03*
Y140393D03*
X224500Y215506D03*
Y205506D03*
Y195506D03*
Y185507D03*
X224489Y250330D03*
Y280330D03*
Y270330D03*
Y260330D03*
G54D13*
X31334Y126537D03*
Y116537D03*
Y106537D03*
X53334D03*
X53501Y171411D03*
X31501D03*
X31334Y156537D03*
Y146537D03*
Y136537D03*
X53334Y156537D03*
X43334D03*
X31501Y191411D03*
Y181411D03*
Y211411D03*
Y201411D03*
X43501Y221411D03*
X53501D03*
X31501D03*
X53514Y236437D03*
X31514D03*
Y256437D03*
Y246437D03*
X43514Y286437D03*
X53514D03*
X31514Y276437D03*
Y266437D03*
Y286437D03*
X82834Y124537D03*
X78366Y124568D03*
X83334Y106537D03*
X93334D03*
X63334D03*
X73334D03*
X93501Y171411D03*
X83501D03*
X73501D03*
X63501D03*
X93334Y156537D03*
X83334D03*
X73334D03*
X63334D03*
X72258Y188254D03*
X72580Y193568D03*
X89164Y253437D03*
X71045Y250337D03*
X83501Y221411D03*
X93501D03*
X63501D03*
X73501D03*
X93514Y236437D03*
X83514D03*
X73514D03*
X63514D03*
X83514Y286437D03*
X93514D03*
X63514D03*
X73514D03*
X123334Y126537D03*
X103334Y106537D03*
X123334Y116537D03*
Y106537D03*
X123501Y171411D03*
X103501D03*
X103334Y156537D03*
X123334D03*
X113334D03*
X123334Y136537D03*
Y146537D03*
X123501Y191411D03*
Y181411D03*
Y211411D03*
Y201411D03*
Y221411D03*
X103501D03*
X123514Y236437D03*
Y256437D03*
Y246437D03*
X103513Y236437D03*
X123514Y276437D03*
Y266437D03*
Y286437D03*
X103513D03*
X113514D03*
X138540Y136393D03*
Y126393D03*
X170540Y106393D03*
X138540D03*
Y116393D03*
X160540Y106393D03*
X170540Y156393D03*
X138540Y146393D03*
Y156393D03*
X160540D03*
X150540D03*
X170500Y171506D03*
X160500D03*
X138500D03*
Y181507D03*
Y191506D03*
Y201506D03*
Y211506D03*
X170500Y221506D03*
X150500D03*
X160500D03*
X138500D03*
X170488Y236330D03*
X160488D03*
X138488D03*
Y256330D03*
Y246330D03*
X170488Y286330D03*
X150488D03*
X160488D03*
X138488D03*
Y276330D03*
Y266330D03*
X202040Y120989D03*
X210540Y106393D03*
X190540D03*
X200540D03*
X180540D03*
X200540Y156393D03*
X190540D03*
X210540D03*
X180540D03*
X210500Y171506D03*
X200500D03*
X190500D03*
X180500D03*
X185000Y183507D03*
Y187006D03*
X210500Y221506D03*
X190500D03*
X200500D03*
X180500D03*
X190488Y236330D03*
X210489D03*
X200489D03*
Y251330D03*
X180488Y236330D03*
X190488Y286330D03*
X210489D03*
X200489D03*
X180488D03*
X230540Y136393D03*
Y126393D03*
Y116393D03*
Y106393D03*
X220540Y156393D03*
X230540Y146393D03*
Y156393D03*
X230500Y171506D03*
Y181507D03*
Y191506D03*
Y201506D03*
Y211506D03*
X220500Y221506D03*
X230500D03*
X230488Y236330D03*
Y256330D03*
Y246330D03*
Y286330D03*
Y276330D03*
X220489Y286330D03*
X230488Y266330D03*
G54D14*
G01X414210Y-67469D02*
X415110Y-65819D01*
G01X414830D02*
X415110D01*
G01X414660Y-65798D02*
X414830Y-65819D01*
G01X414500Y-65748D02*
X414660Y-65798D01*
G01X414350Y-65678D02*
X414500Y-65748D01*
G01X414220Y-65569D02*
X414350Y-65678D01*
G01X417040Y-64159D02*
X414770D01*
G01X414110Y-65439D02*
X414220Y-65569D01*
G01X414040Y-65289D02*
X414110Y-65439D01*
G01X413990Y-65128D02*
X414040Y-65289D01*
G01X414100Y-64519D02*
X414030Y-64648D01*
G01X414200Y-64389D02*
X414100Y-64519D01*
G01X414330Y-64289D02*
X414200Y-64389D01*
G01X414460Y-64219D02*
X414330Y-64289D01*
G01X414610Y-64178D02*
X414460Y-64219D01*
G01X414770Y-64159D02*
X414610Y-64178D01*
G01X413970Y-64959D02*
X413990Y-65128D01*
G01Y-64798D02*
X413970Y-64959D01*
G01X414030Y-64648D02*
X413990Y-64798D01*
G01X414500Y-48109D02*
X418460D01*
G01X417040Y-51578D02*
X413970D01*
G01Y-50889D02*
X417040D01*
G01Y-50189D02*
X413970D01*
G01X413990Y-49498D02*
X417040D01*
G01X417160Y-48798D02*
X414130D01*
G01X414840Y-47739D02*
X415490Y-47259D01*
G01X414460Y-48148D02*
X414840Y-47739D01*
G01X414180Y-48628D02*
X414460Y-48148D01*
G01X414020Y-49159D02*
X414180Y-48628D01*
G01X413970Y-59669D02*
Y-49709D01*
G01D02*
X414020Y-49159D01*
G01X417040Y-59669D02*
X413970D01*
G01Y-59219D02*
X417040D01*
G01Y-58519D02*
X413970D01*
G01Y-57828D02*
X417040D01*
G01Y-57128D02*
X413970D01*
G01Y-56439D02*
X417040D01*
G01Y-55739D02*
X413970D01*
G01Y-55048D02*
X417040D01*
G01Y-54359D02*
X413970D01*
G01Y-53659D02*
X417040D01*
G01Y-52969D02*
X413970D01*
G01Y-52269D02*
X417040D01*
G01X453490Y-67298D02*
X453280Y-67389D01*
G01X453670Y-67169D02*
X453490Y-67298D01*
G01X453830Y-67009D02*
X453670Y-67169D01*
G01X453960Y-66819D02*
X453830Y-67009D01*
G01X454050Y-66619D02*
X453960Y-66819D01*
G01X454110Y-66398D02*
X454050Y-66619D01*
G01X454130Y-66178D02*
X454110Y-66398D01*
G01X454130Y-65428D02*
Y-66178D01*
G01X452840Y-67469D02*
X452140D01*
G01X453060Y-67448D02*
X452840Y-67469D01*
G01X453280Y-67389D02*
X453060Y-67448D01*
G01X451540Y-67328D02*
X451360Y-67219D01*
G01X451730Y-67409D02*
X451540Y-67328D01*
G01X451930Y-67448D02*
X451730Y-67409D01*
G01X452140Y-67469D02*
X451930Y-67448D01*
G01X450880Y-66559D02*
X450840Y-66359D01*
G01X450960Y-66748D02*
X450880Y-66559D01*
G01X451070Y-66928D02*
X450960Y-66748D01*
G01X451210Y-67078D02*
X451070Y-66928D01*
G01X451360Y-67219D02*
X451210Y-67078D01*
G01X450840Y-66359D02*
X450820Y-66148D01*
G01D02*
Y-65459D01*
G01X448460Y-64159D02*
Y-67469D01*
G01X445700D02*
X447980Y-64159D01*
G01X445150Y-67469D02*
X445700D01*
G01X445150Y-64159D02*
Y-67469D01*
G01X442790D02*
Y-64159D01*
G01X441030Y-67469D02*
X442790D01*
G01X440830Y-67448D02*
X441030Y-67469D01*
G01X440630Y-67409D02*
X440830Y-67448D01*
G01X440440Y-67328D02*
X440630Y-67409D01*
G01X440260Y-67219D02*
X440440Y-67328D01*
G01X440100Y-67089D02*
X440260Y-67219D01*
G01X439970Y-66928D02*
X440100Y-67089D01*
G01X439860Y-66748D02*
X439970Y-66928D01*
G01X439780Y-66559D02*
X439860Y-66748D01*
G01X439740Y-66359D02*
X439780Y-66559D01*
G01X439720Y-66159D02*
X439740Y-66359D01*
G01X439720Y-65448D02*
Y-66159D01*
G01X437340Y-66448D02*
X437360Y-66228D01*
G01X437290Y-66648D02*
X437340Y-66448D01*
G01X437190Y-66848D02*
X437290Y-66648D01*
G01X437070Y-67028D02*
X437190Y-66848D01*
G01X436920Y-67178D02*
X437070Y-67028D01*
G01X437350Y-66228D02*
Y-64159D01*
G01X436740Y-67298D02*
X436920Y-67178D01*
G01X436540Y-67398D02*
X436740Y-67298D01*
G01X436340Y-67448D02*
X436540Y-67398D01*
G01X436120Y-67469D02*
X436340Y-67448D01*
G01X435600Y-67469D02*
X436120D01*
G01X435370Y-67448D02*
X435600Y-67469D01*
G01X435150Y-67389D02*
X435370Y-67448D01*
G01X434940Y-67289D02*
X435150Y-67389D01*
G01X434760Y-67159D02*
X434940Y-67289D01*
G01X434600Y-66998D02*
X434760Y-67159D01*
G01X434470Y-66809D02*
X434600Y-66998D01*
G01X434370Y-66609D02*
X434470Y-66809D01*
G01X434310Y-66389D02*
X434370Y-66609D01*
G01X434290Y-66159D02*
X434310Y-66389D01*
G01X434280Y-64159D02*
Y-66159D01*
G01X432140Y-66589D02*
X432160Y-66398D01*
G01X432100Y-66769D02*
X432140Y-66589D01*
G01X432020Y-66928D02*
X432100Y-66769D01*
G01X431910Y-67089D02*
X432020Y-66928D01*
G01X431780Y-67219D02*
X431910Y-67089D01*
G01X432160Y-66398D02*
Y-65199D01*
G01X431630Y-67328D02*
X431780Y-67219D01*
G01X431460Y-67409D02*
X431630Y-67328D01*
G01X431280Y-67448D02*
X431460Y-67409D01*
G01X431090Y-67469D02*
X431280Y-67448D01*
G01X429320Y-67469D02*
X431090D01*
G01X421750Y-67328D02*
X421560Y-67409D01*
G01X421930Y-67219D02*
X421750Y-67328D01*
G01X422090Y-67089D02*
X421930Y-67219D01*
G01X422220Y-66928D02*
X422090Y-67089D01*
G01X426020Y-64159D02*
Y-67469D01*
G01X422330Y-66748D02*
X422220Y-66928D01*
G01X422410Y-66559D02*
X422330Y-66748D01*
G01X422450Y-66359D02*
X422410Y-66559D01*
G01X422470Y-66159D02*
X422450Y-66359D01*
G01X422470Y-65448D02*
Y-66159D01*
G01X421160Y-67469D02*
X420470D01*
G01X421360Y-67448D02*
X421160Y-67469D01*
G01X421560Y-67409D02*
X421360Y-67448D01*
G01X420030Y-67389D02*
X419820Y-67298D01*
G01X420240Y-67448D02*
X420030Y-67389D01*
G01X420470Y-67469D02*
X420240Y-67448D01*
G01X419250Y-66609D02*
X419190Y-66398D01*
G01X419340Y-66819D02*
X419250Y-66609D01*
G01X419470Y-67009D02*
X419340Y-66819D01*
G01X419630Y-67169D02*
X419470Y-67009D01*
G01X419820Y-67298D02*
X419630Y-67169D01*
G01X419190Y-66398D02*
X419170Y-66169D01*
G01D02*
Y-65439D01*
G01X417040Y-65819D02*
Y-67469D01*
G01Y-64159D02*
Y-65819D01*
G01X415110D02*
X417040D01*
G01X461590Y-47419D02*
X451710D01*
G01X453280Y-46719D02*
X460230D01*
G01X455360Y-47889D02*
X454840Y-48019D01*
G01X454370Y-46478D02*
X455230Y-46449D01*
G01X450870Y-48109D02*
X454650D01*
G01X454360Y-48248D02*
X453930Y-48569D01*
G01X454840Y-48019D02*
X454360Y-48248D01*
G01X453520Y-46639D02*
X454370Y-46478D01*
G01X455270Y-59669D02*
X454360Y-59639D01*
G01D02*
X453460Y-59498D01*
G01X462070Y-58519D02*
X451380D01*
G01X460810Y-59219D02*
X452540D01*
G01X454730Y-58059D02*
X455300Y-58219D01*
G01X454200Y-57798D02*
X454730Y-58059D01*
G01X453730Y-57428D02*
X454200Y-57798D01*
G01X454110Y-65209D02*
X454130Y-65428D01*
G01X454050Y-64998D02*
X454110Y-65209D01*
G01X453960Y-64789D02*
X454050Y-64998D01*
G01X453830Y-64609D02*
X453960Y-64789D01*
G01X453680Y-64459D02*
X453830Y-64609D01*
G01X453490Y-64328D02*
X453680Y-64459D01*
G01X453290Y-64239D02*
X453490Y-64328D01*
G01X453080Y-64178D02*
X453290Y-64239D01*
G01X452860Y-64159D02*
X453080Y-64178D01*
G01X452120Y-64159D02*
X452860D01*
G01X451890Y-64178D02*
X452120Y-64159D01*
G01X451680Y-64239D02*
X451890Y-64178D01*
G01X451470Y-64328D02*
X451680Y-64239D01*
G01X450990Y-64809D02*
X451120Y-64619D01*
G01X450900Y-65019D02*
X450990Y-64809D01*
G01X450840Y-65228D02*
X450900Y-65019D01*
G01X450820Y-65459D02*
X450840Y-65228D01*
G01X451280Y-64459D02*
X451470Y-64328D01*
G01X451120Y-64619D02*
X451280Y-64459D01*
G01X447980Y-64159D02*
X448460D01*
G01X442790D02*
X441010D01*
G01X440570Y-64239D02*
X440360Y-64328D01*
G01X440790Y-64178D02*
X440570Y-64239D01*
G01X441010Y-64159D02*
X440790Y-64178D01*
G01X439740Y-65228D02*
X439720Y-65448D01*
G01X439800Y-65009D02*
X439740Y-65228D01*
G01X439890Y-64798D02*
X439800Y-65009D01*
G01X440020Y-64619D02*
X439890Y-64798D01*
G01X440180Y-64459D02*
X440020Y-64619D01*
G01X440360Y-64328D02*
X440180Y-64459D01*
G01X432140Y-65019D02*
X432100Y-64839D01*
G01X432160Y-65199D02*
X432140Y-65019D01*
G01X431920Y-64528D02*
X431790Y-64398D01*
G01X432020Y-64678D02*
X431920Y-64528D01*
G01X432100Y-64839D02*
X432020Y-64678D01*
G01X431300Y-64178D02*
X431120Y-64159D01*
G01X431480Y-64219D02*
X431300Y-64178D01*
G01X431640Y-64298D02*
X431480Y-64219D01*
G01X431790Y-64398D02*
X431640Y-64298D01*
G01X431120Y-64159D02*
X429320D01*
G01X453680Y-48798D02*
X450400D01*
G01X453360Y-49239D02*
X453220Y-49659D01*
G01X453600Y-48869D02*
X453360Y-49239D01*
G01X453930Y-48569D02*
X453600Y-48869D01*
G01X452710Y-46919D02*
X453520Y-46639D01*
G01X453180Y-50109D02*
Y-55778D01*
G01Y-51578D02*
X450110D01*
G01Y-50889D02*
X453180D01*
G01X450160Y-49498D02*
X453270D01*
G01X453180Y-50189D02*
X450110D01*
G01X453220Y-49659D02*
X453180Y-50109D01*
G01X452080Y-47189D02*
X452710Y-46919D01*
G01X451500Y-47539D02*
X452080Y-47189D01*
G01X450980Y-47978D02*
X451500Y-47539D01*
G01X450600Y-48428D02*
X450980Y-47978D01*
G01X450110Y-56248D02*
Y-50109D01*
G01X450160Y-49519D02*
X450320Y-48948D01*
G01X450110Y-50109D02*
X450160Y-49519D01*
G01X450320Y-48948D02*
X450600Y-48428D01*
G01X446800Y-46919D02*
Y-59669D01*
G01Y-51578D02*
X443440D01*
G01X443500Y-50889D02*
X446800D01*
G01Y-50189D02*
X443500D01*
G01Y-49498D02*
X446800D01*
G01Y-48798D02*
X443500D01*
G01Y-48109D02*
X446800D01*
G01X443500Y-46919D02*
X446800D01*
G01Y-47419D02*
X443500D01*
G01Y-51309D02*
Y-46919D01*
G01X443470Y-51519D02*
X443500Y-51309D01*
G01X443390Y-51709D02*
X443470Y-51519D01*
G01X443260Y-51878D02*
X443390Y-51709D01*
G01X443090Y-52009D02*
X443260Y-51878D01*
G01X436640Y-51889D02*
X436800Y-52009D01*
G01X436520Y-51719D02*
X436640Y-51889D01*
G01X436460Y-51578D02*
X433100D01*
G01X436440Y-51528D02*
X436520Y-51719D01*
G01X436410Y-51328D02*
X436440Y-51528D01*
G01X436410Y-46919D02*
Y-51328D01*
G01X433100Y-50889D02*
X436410D01*
G01X433100Y-49498D02*
X436410D01*
G01Y-50189D02*
X433100D01*
G01X436410Y-48798D02*
X433100D01*
G01Y-48109D02*
X436410D01*
G01Y-47419D02*
X433100D01*
G01Y-46919D02*
X436410D01*
G01X433100Y-59669D02*
Y-46919D01*
G01X429560D02*
Y-59669D01*
G01Y-51578D02*
X426490D01*
G01Y-50889D02*
X429560D01*
G01X426490Y-49498D02*
X429560D01*
G01Y-50189D02*
X426490D01*
G01X429560Y-48798D02*
X426470D01*
G01X425740Y-48109D02*
X429560D01*
G01X426620Y-46539D02*
X429560Y-46919D01*
G01Y-47419D02*
X415280D01*
G01X450670Y-57828D02*
X454260D01*
G01X453460Y-59498D02*
X452590Y-59239D01*
G01X453560Y-57128D02*
X450280D01*
G01X453430Y-56919D02*
X453730Y-57428D01*
G01X453240Y-56359D02*
X453430Y-56919D01*
G01X452590Y-59239D02*
X452010Y-58969D01*
G01X450130Y-56439D02*
X453270D01*
G01X453180Y-55778D02*
X453240Y-56359D01*
G01X453180Y-55739D02*
X450110D01*
G01Y-55048D02*
X453180D01*
G01X450110Y-53659D02*
X453180D01*
G01Y-54359D02*
X450110D01*
G01X453180Y-52969D02*
X450110D01*
G01Y-52269D02*
X453180D01*
G01X452010Y-58969D02*
X451480Y-58619D01*
G01X451020Y-58178D02*
X450630Y-57789D01*
G01X451480Y-58619D02*
X451020Y-58178D01*
G01X450630Y-57789D02*
X450340Y-57319D01*
G01D02*
X450160Y-56799D01*
G01D02*
X450110Y-56248D01*
G01X446800Y-59669D02*
X443500D01*
G01X436410D02*
X433100D01*
G01X429560D02*
X426490D01*
G01X446800Y-59219D02*
X443500D01*
G01Y-58519D02*
X446800D01*
G01Y-57828D02*
X443500D01*
G01Y-57128D02*
X446800D01*
G01Y-56439D02*
X443500D01*
G01Y-55739D02*
X446800D01*
G01Y-55048D02*
X443500D01*
G01X446800Y-53659D02*
X433100D01*
G01X443470Y-54359D02*
X446800D01*
G01X433100Y-52969D02*
X446800D01*
G01Y-52269D02*
X433100D01*
G01X443500Y-59669D02*
Y-54548D01*
G01D02*
X443470Y-54348D01*
G01X443270Y-53999D02*
X443110Y-53869D01*
G01X443390Y-54159D02*
X443270Y-53999D01*
G01X443470Y-54348D02*
X443390Y-54159D01*
G01X443110Y-53869D02*
X442920Y-53789D01*
G01X442900Y-52089D02*
X443090Y-52009D01*
G01X442720Y-53769D02*
X437240D01*
G01X442920Y-53789D02*
X442720Y-53769D01*
G01X442690Y-52109D02*
X442900Y-52089D01*
G01X437190Y-52109D02*
X442690D01*
G01X437240Y-53769D02*
X437030Y-53799D01*
G01X436990Y-52089D02*
X437190Y-52109D01*
G01X436410Y-54599D02*
Y-59669D01*
G01Y-59219D02*
X433100D01*
G01Y-58519D02*
X436410D01*
G01X433100Y-57128D02*
X436410D01*
G01Y-57828D02*
X433100D01*
G01X436410Y-56439D02*
X433100D01*
G01Y-55739D02*
X436410D01*
G01Y-55048D02*
X433100D01*
G01X436440Y-54378D02*
X436410Y-54599D01*
G01X433100Y-54359D02*
X436450D01*
G01X436520Y-54178D02*
X436440Y-54378D01*
G01X436650Y-54009D02*
X436520Y-54178D01*
G01X436820Y-53878D02*
X436650Y-54009D01*
G01X437030Y-53799D02*
X436820Y-53878D01*
G01X436800Y-52009D02*
X436990Y-52089D01*
G01X426490Y-59219D02*
X429560D01*
G01Y-58519D02*
X426490D01*
G01X429560Y-57128D02*
X426490D01*
G01Y-57828D02*
X429560D01*
G01X426490Y-56439D02*
X429560D01*
G01Y-55739D02*
X426490D01*
G01Y-55048D02*
X429560D01*
G01X426490Y-53659D02*
X429560D01*
G01Y-54359D02*
X426490D01*
G01X429560Y-52969D02*
X426490D01*
G01Y-52269D02*
X429560D01*
G01X422020Y-64459D02*
X422180Y-64619D01*
G01X421830Y-64328D02*
X422020Y-64459D01*
G01X421630Y-64239D02*
X421830Y-64328D01*
G01X427430Y-64159D02*
X426020D01*
G01X424600D02*
X426020D01*
G01X422460Y-65228D02*
X422480Y-65448D01*
G01X422400Y-65009D02*
X422460Y-65228D01*
G01X422310Y-64798D02*
X422400Y-65009D01*
G01X422180Y-64619D02*
X422310Y-64798D01*
G01X421410Y-64178D02*
X421630Y-64239D01*
G01X421190Y-64159D02*
X421410Y-64178D01*
G01X420450Y-64159D02*
X421190D01*
G01X420230Y-64178D02*
X420450Y-64159D01*
G01X420010Y-64239D02*
X420230Y-64178D01*
G01X419810Y-64328D02*
X420010Y-64239D01*
G01X419630Y-64459D02*
X419810Y-64328D01*
G01X419470Y-64619D02*
X419630Y-64459D01*
G01X419340Y-64798D02*
X419470Y-64619D01*
G01X419250Y-64998D02*
X419340Y-64798D01*
G01X419190Y-65219D02*
X419250Y-64998D01*
G01X419170Y-65439D02*
X419190Y-65219D01*
G01X428010Y-46719D02*
X416860D01*
G01X426490Y-59669D02*
Y-48928D01*
G01X426380Y-48509D02*
X426250Y-48339D01*
G01X426460Y-48709D02*
X426380Y-48509D01*
G01X426490Y-48928D02*
X426460Y-48709D01*
G01X426070Y-48209D02*
X425880Y-48128D01*
G01X426250Y-48339D02*
X426070Y-48209D01*
G01X423650Y-46449D02*
X426620Y-46539D01*
G01X425660Y-48099D02*
X424220D01*
G01X425880Y-48128D02*
X425660Y-48099D01*
G01X419380Y-48109D02*
X424140D01*
G01X423530Y-48498D02*
X423440Y-48689D01*
G01X423650Y-48328D02*
X423530Y-48498D01*
G01X423820Y-48209D02*
X423650Y-48328D01*
G01X424010Y-48128D02*
X423820Y-48209D01*
G01X424220Y-48099D02*
X424010Y-48128D01*
G01X419320Y-46449D02*
X423650D01*
G01X423420Y-48898D02*
Y-59669D01*
G01Y-51578D02*
X420110D01*
G01Y-50889D02*
X423420D01*
G01Y-50189D02*
X420110D01*
G01Y-49498D02*
X423420D01*
G01X423430Y-48798D02*
X420100D01*
G01X423440Y-48689D02*
X423420Y-48898D01*
G01X420110Y-59669D02*
Y-48909D01*
G01X420080Y-48698D02*
X420000Y-48498D01*
G01X420110Y-48909D02*
X420080Y-48698D01*
G01X420000Y-48498D02*
X419870Y-48339D01*
G01X419300Y-48099D02*
X418540D01*
G01X419510Y-48128D02*
X419300Y-48099D01*
G01X419700Y-48209D02*
X419510Y-48128D01*
G01X419870Y-48339D02*
X419700Y-48209D01*
G01X418160Y-46509D02*
X419320Y-46449D01*
G01X418540Y-48099D02*
X418030Y-48169D01*
G01X417550Y-48339D02*
X417330Y-48539D01*
G01X418030Y-48169D02*
X417550Y-48339D01*
G01X417000Y-46678D02*
X418160Y-46509D01*
G01X417040Y-49359D02*
Y-59669D01*
G01X417070Y-49059D02*
X417040Y-49359D01*
G01X417170Y-48778D02*
X417070Y-49059D01*
G01X417330Y-48539D02*
X417170Y-48778D01*
G01X416220Y-46899D02*
X417000Y-46678D01*
G01X415490Y-47259D02*
X416220Y-46899D01*
G01X423420Y-59669D02*
X420110D01*
G01Y-59219D02*
X423420D01*
G01Y-58519D02*
X420110D01*
G01Y-57828D02*
X423420D01*
G01Y-57128D02*
X420110D01*
G01Y-56439D02*
X423420D01*
G01Y-55739D02*
X420110D01*
G01Y-55048D02*
X423420D01*
G01Y-54359D02*
X420110D01*
G01Y-53659D02*
X423420D01*
G01Y-52969D02*
X420110D01*
G01Y-52269D02*
X423420D01*
G01X472430Y-67469D02*
X472610Y-67448D01*
G01X470660Y-67469D02*
X472430D01*
G01X476480D02*
X478930D01*
G01X478210Y-65789D02*
X478040Y-65809D01*
G01X478380Y-65739D02*
X478210Y-65789D01*
G01X478530Y-65659D02*
X478380Y-65739D01*
G01X478670Y-65548D02*
X478530Y-65659D01*
G01X478040Y-65819D02*
X476420D01*
G01X476310Y-67448D02*
X476480Y-67469D01*
G01X476420Y-65809D02*
X476260Y-65828D01*
G01X476150Y-67398D02*
X476310Y-67448D01*
G01X476000Y-67328D02*
X476150Y-67398D01*
G01X475870Y-67219D02*
X476000Y-67328D01*
G01X475760Y-67089D02*
X475870Y-67219D01*
G01X475690Y-66939D02*
X475760Y-67089D01*
G01X475640Y-66778D02*
X475690Y-66939D01*
G01X475620Y-66609D02*
X475640Y-66778D01*
G01Y-66448D02*
X475620Y-66609D01*
G01X475680Y-66298D02*
X475640Y-66448D01*
G01X475750Y-66169D02*
X475680Y-66298D01*
G01X475850Y-66039D02*
X475750Y-66169D01*
G01X475980Y-65939D02*
X475850Y-66039D01*
G01X476110Y-65869D02*
X475980Y-65939D01*
G01X476260Y-65828D02*
X476110Y-65869D01*
G01X473470Y-66589D02*
X473490Y-66409D01*
G01X473430Y-66769D02*
X473470Y-66589D01*
G01X473350Y-66939D02*
X473430Y-66769D01*
G01X473240Y-67089D02*
X473350Y-66939D01*
G01X473110Y-67219D02*
X473240Y-67089D01*
G01X472960Y-67328D02*
X473110Y-67219D01*
G01X472790Y-67409D02*
X472960Y-67328D01*
G01X473500Y-65178D02*
Y-65819D01*
G01D02*
X470660D01*
G01X473500Y-66409D02*
Y-65819D01*
G01X472610Y-67448D02*
X472790Y-67409D01*
G01X468300Y-64159D02*
Y-67469D01*
G01X466210D02*
X467750Y-64159D01*
G01X464800D02*
X466210Y-67469D01*
G01X464280D02*
Y-64159D01*
G01X461690D02*
Y-67469D01*
G01X459070Y-66569D02*
X459090Y-66378D01*
G01X459020Y-66748D02*
X459070Y-66569D01*
G01X458940Y-66919D02*
X459020Y-66748D01*
G01X458830Y-67078D02*
X458940Y-66919D01*
G01X458700Y-67209D02*
X458830Y-67078D01*
G01X458550Y-67319D02*
X458700Y-67209D01*
G01X458370Y-67398D02*
X458550Y-67319D01*
G01X459090Y-66378D02*
Y-65248D01*
G01X458190Y-67448D02*
X458370Y-67398D01*
G01X458000Y-67469D02*
X458190Y-67448D01*
G01X456250Y-67469D02*
X458000D01*
G01X472470Y-64159D02*
X472670Y-64178D01*
G01X470660Y-64159D02*
X472470D01*
G01X478860Y-65259D02*
X478780Y-65409D01*
G01X478910Y-64748D02*
X478930Y-64919D01*
G01X478910Y-65089D02*
X478860Y-65259D01*
G01X478930Y-64919D02*
X478910Y-65089D01*
G01X478850Y-64589D02*
X478910Y-64748D01*
G01X478760Y-64448D02*
X478850Y-64589D01*
G01X478780Y-65409D02*
X478670Y-65548D01*
G01X478640Y-64328D02*
X478760Y-64448D01*
G01X478500Y-64239D02*
X478640Y-64328D01*
G01X478340Y-64178D02*
X478500Y-64239D01*
G01X478170Y-64159D02*
X478340Y-64178D01*
G01X475620Y-64159D02*
X478170D01*
G01X473470Y-64978D02*
X473490Y-65178D01*
G01X473410Y-64789D02*
X473470Y-64978D01*
G01X473320Y-64609D02*
X473410Y-64789D01*
G01X473190Y-64459D02*
X473320Y-64609D01*
G01X473040Y-64328D02*
X473190Y-64459D01*
G01X472860Y-64239D02*
X473040Y-64328D01*
G01X472670Y-64178D02*
X472860Y-64239D01*
G01X469050Y-59669D02*
X473500Y-54478D01*
G01X467750Y-64159D02*
X468300D01*
G01X464280D02*
X464800D01*
G01X458910Y-64639D02*
X458770Y-64478D01*
G01X459010Y-64828D02*
X458910Y-64639D01*
G01X459070Y-65039D02*
X459010Y-64828D01*
G01X459090Y-65248D02*
X459070Y-65039D01*
G01X458610Y-64339D02*
X458420Y-64239D01*
G01X458770Y-64478D02*
X458610Y-64339D01*
G01X458420Y-64239D02*
X458210Y-64178D01*
G01X458000Y-64159D02*
X456250D01*
G01X458210Y-64178D02*
X458000Y-64159D01*
G01X469840Y-54789D02*
X465390Y-59669D01*
G01X478930Y-46919D02*
X476690Y-46589D01*
G01X478930Y-59669D02*
Y-46919D01*
G01Y-51578D02*
X475620D01*
G01Y-50889D02*
X478930D01*
G01X475620Y-49498D02*
X478930D01*
G01Y-50189D02*
X475620D01*
G01X478930Y-48798D02*
X475620D01*
G01X475410Y-48109D02*
X478930D01*
G01Y-47419D02*
X467310D01*
G01X477590Y-46719D02*
X469020D01*
G01X476690Y-46589D02*
X474440Y-46449D01*
G01X475620Y-48639D02*
Y-59669D01*
G01X475600Y-48439D02*
X475620Y-48639D01*
G01X475520Y-48248D02*
X475600Y-48439D01*
G01X475400Y-48089D02*
X475520Y-48248D01*
G01X475230Y-47969D02*
X475400Y-48089D01*
G01X475050Y-47889D02*
X475230Y-47969D01*
G01X474850Y-47859D02*
X475050Y-47889D01*
G01X472000Y-47859D02*
X474850D01*
G01X474440Y-46449D02*
X471410D01*
G01X471310Y-47889D02*
X472000Y-47859D01*
G01X470630Y-48049D02*
X471310Y-47889D01*
G01X471410Y-46449D02*
X469740Y-46569D01*
G01X466640Y-48109D02*
X470500D01*
G01X469990Y-48339D02*
X470630Y-48049D01*
G01X469600Y-52228D02*
X469410Y-51828D01*
G01X469580Y-48798D02*
X466270D01*
G01X469680Y-48648D02*
X469990Y-48339D01*
G01X469450Y-49019D02*
X469680Y-48648D01*
G01X469740Y-46569D02*
X468100Y-46919D01*
G01X469340Y-51578D02*
X466180D01*
G01X469290Y-51409D02*
X469240Y-50969D01*
G01X469410Y-51828D02*
X469290Y-51409D01*
G01X466170Y-50889D02*
X469240D01*
G01Y-50969D02*
Y-49869D01*
G01Y-50189D02*
X466170D01*
G01Y-49498D02*
X469290D01*
G01X469300Y-49428D02*
X469450Y-49019D01*
G01X469240Y-49869D02*
X469300Y-49428D01*
G01X468100Y-46919D02*
X467550Y-47219D01*
G01X467060Y-47619D02*
X466650Y-48099D01*
G01X467550Y-47219D02*
X467060Y-47619D01*
G01X466170Y-51519D02*
X466210Y-51998D01*
G01X466170Y-49519D02*
Y-51519D01*
G01X466190Y-49139D02*
X466170Y-49519D01*
G01X466280Y-48759D02*
X466190Y-49139D01*
G01X466430Y-48409D02*
X466280Y-48759D01*
G01X466650Y-48099D02*
X466430Y-48409D01*
G01X463100Y-49828D02*
Y-52589D01*
G01Y-51578D02*
X460030D01*
G01Y-50889D02*
X463100D01*
G01Y-50189D02*
X460030D01*
G01X459920Y-49498D02*
X463070D01*
G01X463060Y-49348D02*
X463100Y-49828D01*
G01X462880Y-48798D02*
X459500D01*
G01X462700Y-48469D02*
X462930Y-48889D01*
G01D02*
X463060Y-49348D01*
G01X462410Y-48089D02*
X462700Y-48469D01*
G01X458570Y-48109D02*
X462420D01*
G01X462040Y-47778D02*
X462410Y-48089D01*
G01X461410Y-47269D02*
X462040Y-47778D01*
G01X460700Y-46878D02*
X461410Y-47269D01*
G01X459940Y-46619D02*
X460700Y-46878D01*
G01X460030Y-52589D02*
Y-50149D01*
G01X459870Y-49348D02*
X459670Y-48998D01*
G01X459990Y-49739D02*
X459870Y-49348D01*
G01X460030Y-50149D02*
X459990Y-49739D01*
G01X459670Y-48998D02*
X459400Y-48689D01*
G01D02*
X458970Y-48319D01*
G01X459140Y-46478D02*
X459940Y-46619D01*
G01X458470Y-48049D02*
X457920Y-47899D01*
G01X458970Y-48319D02*
X458470Y-48049D01*
G01X458340Y-46449D02*
X459140Y-46478D01*
G01X457920Y-47899D02*
X457350Y-47859D01*
G01X455230Y-46449D02*
X458340D01*
G01X457350Y-47859D02*
X455900D01*
G01D02*
X455360Y-47889D01*
G01X475620Y-59669D02*
X478930D01*
G01X472410Y-55739D02*
X468970D01*
G01X475620Y-59219D02*
X478930D01*
G01Y-58519D02*
X475620D01*
G01X478930Y-57128D02*
X475620D01*
G01Y-57828D02*
X478930D01*
G01X475620Y-56439D02*
X478930D01*
G01Y-55739D02*
X475620D01*
G01Y-55048D02*
X478930D01*
G01X475620Y-53659D02*
X478930D01*
G01Y-54359D02*
X475620D01*
G01X478930Y-52969D02*
X475620D01*
G01Y-52269D02*
X478930D01*
G01X469600Y-55048D02*
X473010D01*
G01X473500Y-54359D02*
X469840D01*
G01X467360Y-53659D02*
X473500D01*
G01Y-54478D02*
Y-53059D01*
G01D02*
X471720D01*
G01X465390Y-59669D02*
X469050D01*
G01X460070Y-59439D02*
X459050Y-59609D01*
G01D02*
X458020Y-59669D01*
G01D02*
X455270D01*
G01X468330Y-56439D02*
X471820D01*
G01X471720Y-53059D02*
X471140Y-53019D01*
G01X467070Y-57828D02*
X470630D01*
G01X471220Y-57128D02*
X467700D01*
G01X470950Y-52969D02*
X466610D01*
G01X470580Y-52869D02*
X470060Y-52598D01*
G01X471140Y-53019D02*
X470580Y-52869D01*
G01X470030Y-58519D02*
X466440D01*
G01X469840Y-54278D02*
Y-54789D01*
G01X469140Y-54269D02*
X469840Y-54278D01*
G01X466280Y-52269D02*
X469650D01*
G01X470060Y-52598D02*
X469600Y-52228D01*
G01X465800Y-59219D02*
X469440D01*
G01X468460Y-54148D02*
X469140Y-54269D01*
G01X467800Y-53909D02*
X468460Y-54148D01*
G01X467200Y-53569D02*
X467800Y-53909D01*
G01X466840Y-53259D02*
X467200Y-53569D01*
G01X466550Y-52878D02*
X466840Y-53259D01*
G01X466330Y-52459D02*
X466550Y-52878D01*
G01X466210Y-51998D02*
X466330Y-52459D01*
G01X463030Y-57128D02*
X459610D01*
G01X462700Y-57909D02*
X462390Y-58278D01*
G01X462930Y-57478D02*
X462700Y-57909D01*
G01X463070Y-57009D02*
X462930Y-57478D01*
G01X459940Y-56439D02*
X463100D01*
G01Y-56519D02*
X463070Y-57009D01*
G01X463100Y-52589D02*
Y-56519D01*
G01Y-55739D02*
X460030D01*
G01Y-55048D02*
X463100D01*
G01Y-54359D02*
X460030D01*
G01Y-53659D02*
X463100D01*
G01Y-52969D02*
X460030D01*
G01Y-52269D02*
X463100D01*
G01X460030Y-52589D02*
X463100D01*
G01D02*
X460030D01*
G01X462000Y-58569D02*
X461400Y-58949D01*
G01X462390Y-58278D02*
X462000Y-58569D01*
G01X458870Y-57828D02*
X462750D01*
G01X461400Y-58949D02*
X460750Y-59239D01*
G01D02*
X460070Y-59439D01*
G01X459590Y-57159D02*
X459850Y-56739D01*
G01X459240Y-57509D02*
X459590Y-57159D01*
G01X458880Y-57828D02*
X459240Y-57509D01*
G01X460000Y-56269D02*
X460030Y-55778D01*
G01X459850Y-56739D02*
X460000Y-56269D01*
G01X460030Y-55778D02*
Y-52589D01*
G01X457990Y-58209D02*
X458460Y-58059D01*
G01D02*
X458880Y-57828D01*
G01X457510Y-58259D02*
X457990Y-58209D01*
G01X455900Y-58259D02*
X457510D01*
G01X455300Y-58219D02*
X455900Y-58259D01*
G54D15*
G01X22127Y-79819D02*
Y-75819D01*
X21000Y-79152D01*
X19873Y-75819D01*
Y-79819D01*
G01X18683D02*
X17600Y-75819D01*
X16517Y-79819D01*
G01X16907Y-78419D02*
X18293D01*
G01X13247Y-76152D02*
X13507Y-75952D01*
X13810Y-75819D01*
X14157D01*
X14547Y-76019D01*
X14850Y-76352D01*
X15067Y-76752D01*
X15240Y-77419D01*
X15283Y-78019D01*
X15197Y-78619D01*
X15067Y-79019D01*
X14807Y-79419D01*
X14503Y-79685D01*
X14200Y-79819D01*
X13897D01*
X13593Y-79685D01*
X13333Y-79485D01*
X13117Y-79219D01*
G01X11710Y-79819D02*
Y-75819D01*
G01X9890D02*
Y-79819D01*
G01Y-77819D02*
X11710D01*
G01X4823Y-79819D02*
Y-75819D01*
X3177D01*
G01X3783Y-77752D02*
X4823D01*
G01X1120Y-75819D02*
X80D01*
G01X600D02*
Y-79819D01*
G01X1120D02*
X80D01*
G01X-1803D02*
Y-75819D01*
X-3797Y-79819D01*
Y-75819D01*
G01X-5680D02*
X-6720D01*
G01X-6200D02*
Y-79819D01*
G01X-5680D02*
X-6720D01*
G01X-8690Y-79285D02*
X-9037Y-79619D01*
X-9427Y-79819D01*
X-9773D01*
X-10120Y-79619D01*
X-10380Y-79285D01*
X-10510Y-78819D01*
X-10423Y-78352D01*
X-10207Y-77952D01*
X-9817Y-77685D01*
X-9297Y-77552D01*
X-8993Y-77285D01*
X-8863Y-76819D01*
X-8950Y-76352D01*
X-9167Y-76019D01*
X-9470Y-75819D01*
X-9773D01*
X-10077Y-75952D01*
X-10337Y-76285D01*
G01X-12090Y-79819D02*
Y-75819D01*
G01X-13910D02*
Y-79819D01*
G01Y-77819D02*
X-12090D01*
G01X3153Y-73019D02*
X2893Y-73485D01*
X2547Y-73752D01*
X2157Y-73819D01*
X1810Y-73752D01*
X1463Y-73419D01*
X1247Y-73019D01*
X1203Y-72619D01*
X1290Y-72152D01*
X1593Y-71819D01*
X1897Y-71685D01*
X2287D01*
G01X1897D02*
X1637Y-71485D01*
X1420Y-71152D01*
X1333Y-70752D01*
X1420Y-70352D01*
X1637Y-70019D01*
X2027Y-69819D01*
X2417Y-69885D01*
X2807Y-70152D01*
G01X-1200Y-69819D02*
X-853Y-69952D01*
X-593Y-70285D01*
X-420Y-70685D01*
X-290Y-71219D01*
X-247Y-71819D01*
X-290Y-72419D01*
X-420Y-72952D01*
X-593Y-73352D01*
X-853Y-73685D01*
X-1200Y-73819D01*
X-1547Y-73685D01*
X-1807Y-73352D01*
X-1980Y-72952D01*
X-2110Y-72419D01*
X-2153Y-71819D01*
X-2110Y-71219D01*
X-1980Y-70685D01*
X-1807Y-70285D01*
X-1547Y-69952D01*
X-1200Y-69819D01*
G01X14883Y-67819D02*
X13800Y-63819D01*
X12717Y-67819D01*
G01X13107Y-66419D02*
X14493D01*
G01X11397Y-67819D02*
Y-63819D01*
X9403Y-67819D01*
Y-63819D01*
G01X6740Y-65819D02*
X5873D01*
Y-67019D01*
X6133Y-67419D01*
X6437Y-67685D01*
X6870Y-67819D01*
X7303Y-67685D01*
X7607Y-67419D01*
X7867Y-67019D01*
X8040Y-66552D01*
X8127Y-66019D01*
Y-65552D01*
X8040Y-65152D01*
X7867Y-64685D01*
X7607Y-64285D01*
X7347Y-64019D01*
X7000Y-63819D01*
X6697D01*
X6350Y-63952D01*
X6090Y-64219D01*
G01X4467Y-63819D02*
Y-67819D01*
X2733D01*
G01X-667D02*
X1067D01*
Y-63819D01*
X-667D01*
G01X27Y-65752D02*
X1067D01*
G01X529000Y-91819D02*
Y-16819D01*
X-16000D01*
Y-91819D01*
X529000D01*
G01X3000Y-80819D02*
X0D01*
G01X1500D02*
X3800Y-85319D01*
X5300Y-83119D01*
G01X8300Y-71119D02*
X5300D01*
G01X8300Y-73319D02*
X5300D01*
G01X6800Y-69619D02*
Y-72619D01*
G01X57710Y-36285D02*
X57363Y-36619D01*
X56973Y-36819D01*
X56627D01*
X56280Y-36619D01*
X56020Y-36285D01*
X55890Y-35819D01*
X55977Y-35352D01*
X56193Y-34952D01*
X56583Y-34685D01*
X57103Y-34552D01*
X57407Y-34285D01*
X57537Y-33819D01*
X57450Y-33352D01*
X57233Y-33019D01*
X56930Y-32819D01*
X56627D01*
X56323Y-32952D01*
X56063Y-33285D01*
G01X54267Y-36819D02*
Y-32819D01*
X53227D01*
X52880Y-33019D01*
X52620Y-33485D01*
X52533Y-34019D01*
X52620Y-34552D01*
X52837Y-34952D01*
X53227Y-35152D01*
X54267D01*
G01X49133Y-36819D02*
X50867D01*
Y-32819D01*
X49133D01*
G01X49827Y-34752D02*
X50867D01*
G01X45647Y-33152D02*
X45907Y-32952D01*
X46210Y-32819D01*
X46557D01*
X46947Y-33019D01*
X47250Y-33352D01*
X47467Y-33752D01*
X47640Y-34419D01*
X47683Y-35019D01*
X47597Y-35619D01*
X47467Y-36019D01*
X47207Y-36419D01*
X46903Y-36685D01*
X46600Y-36819D01*
X46297D01*
X45993Y-36685D01*
X45733Y-36485D01*
X45517Y-36219D01*
G01X43720Y-32819D02*
X42680D01*
G01X43200D02*
Y-36819D01*
G01X43720D02*
X42680D01*
G01X40623D02*
Y-32819D01*
X38977D01*
G01X39583Y-34752D02*
X40623D01*
G01X36920Y-32819D02*
X35880D01*
G01X36400D02*
Y-36819D01*
G01X36920D02*
X35880D01*
G01X32133D02*
X33867D01*
Y-32819D01*
X32133D01*
G01X32827Y-34752D02*
X33867D01*
G01X30553Y-36819D02*
Y-32819D01*
X29687D01*
X29340Y-33019D01*
X29080Y-33285D01*
X28863Y-33685D01*
X28690Y-34152D01*
X28647Y-34819D01*
X28690Y-35485D01*
X28863Y-35952D01*
X29080Y-36352D01*
X29340Y-36619D01*
X29687Y-36819D01*
X30553D01*
G01X23753D02*
Y-32819D01*
X22887D01*
X22540Y-33019D01*
X22280Y-33285D01*
X22063Y-33685D01*
X21890Y-34152D01*
X21847Y-34819D01*
X21890Y-35485D01*
X22063Y-35952D01*
X22280Y-36352D01*
X22540Y-36619D01*
X22887Y-36819D01*
X23753D01*
G01X19920Y-32819D02*
X18880D01*
G01X19400D02*
Y-36819D01*
G01X19920D02*
X18880D01*
G01X17127D02*
Y-32819D01*
X16000Y-36152D01*
X14873Y-32819D01*
Y-36819D01*
G01X11733D02*
X13467D01*
Y-32819D01*
X11733D01*
G01X12427Y-34752D02*
X13467D01*
G01X10197Y-36819D02*
Y-32819D01*
X8203Y-36819D01*
Y-32819D01*
G01X6710Y-36285D02*
X6363Y-36619D01*
X5973Y-36819D01*
X5627D01*
X5280Y-36619D01*
X5020Y-36285D01*
X4890Y-35819D01*
X4977Y-35352D01*
X5193Y-34952D01*
X5583Y-34685D01*
X6103Y-34552D01*
X6407Y-34285D01*
X6537Y-33819D01*
X6450Y-33352D01*
X6233Y-33019D01*
X5930Y-32819D01*
X5627D01*
X5323Y-32952D01*
X5063Y-33285D01*
G01X2920Y-32819D02*
X1880D01*
G01X2400D02*
Y-36819D01*
G01X2920D02*
X1880D01*
G01X-1000D02*
X-653Y-36752D01*
X-350Y-36485D01*
X-90Y-36085D01*
X83Y-35619D01*
X170Y-35085D01*
Y-34552D01*
X83Y-34019D01*
X-90Y-33552D01*
X-350Y-33152D01*
X-653Y-32885D01*
X-1000Y-32819D01*
X-1347Y-32885D01*
X-1650Y-33152D01*
X-1910Y-33552D01*
X-2083Y-34019D01*
X-2170Y-34552D01*
Y-35085D01*
X-2083Y-35619D01*
X-1910Y-36085D01*
X-1650Y-36485D01*
X-1347Y-36752D01*
X-1000Y-36819D01*
G01X-3403D02*
Y-32819D01*
X-5397Y-36819D01*
Y-32819D01*
G01X-6890Y-36285D02*
X-7237Y-36619D01*
X-7627Y-36819D01*
X-7973D01*
X-8320Y-36619D01*
X-8580Y-36285D01*
X-8710Y-35819D01*
X-8623Y-35352D01*
X-8407Y-34952D01*
X-8017Y-34685D01*
X-7497Y-34552D01*
X-7193Y-34285D01*
X-7063Y-33819D01*
X-7150Y-33352D01*
X-7367Y-33019D01*
X-7670Y-32819D01*
X-7973D01*
X-8277Y-32952D01*
X-8537Y-33285D01*
G01X45983Y-44319D02*
X44900Y-40319D01*
X43817Y-44319D01*
G01X44207Y-42919D02*
X45593D01*
G01X42367Y-44319D02*
Y-40319D01*
X41283D01*
X40937Y-40519D01*
X40720Y-40785D01*
X40633Y-41319D01*
X40720Y-41852D01*
X40980Y-42185D01*
X41283Y-42385D01*
X42367D01*
G01X41283D02*
X40633Y-44319D01*
G01X37233D02*
X38967D01*
Y-40319D01*
X37233D01*
G01X37927Y-42252D02*
X38967D01*
G01X31820Y-40319D02*
X30780D01*
G01X31300D02*
Y-44319D01*
G01X31820D02*
X30780D01*
G01X28897D02*
Y-40319D01*
X26903Y-44319D01*
Y-40319D01*
G01X21620D02*
X20580D01*
G01X21100D02*
Y-44319D01*
G01X21620D02*
X20580D01*
G01X18697D02*
Y-40319D01*
X16703Y-44319D01*
Y-40319D01*
G01X13347Y-40652D02*
X13607Y-40452D01*
X13910Y-40319D01*
X14257D01*
X14647Y-40519D01*
X14950Y-40852D01*
X15167Y-41252D01*
X15340Y-41919D01*
X15383Y-42519D01*
X15297Y-43119D01*
X15167Y-43519D01*
X14907Y-43919D01*
X14603Y-44185D01*
X14300Y-44319D01*
X13997D01*
X13693Y-44185D01*
X13433Y-43985D01*
X13217Y-43719D01*
G01X11810Y-44319D02*
Y-40319D01*
G01X9990D02*
Y-44319D01*
G01Y-42319D02*
X11810D01*
G01X6633Y-44319D02*
X8367D01*
Y-40319D01*
X6633D01*
G01X7327Y-42252D02*
X8367D01*
G01X5010Y-43785D02*
X4663Y-44119D01*
X4273Y-44319D01*
X3927D01*
X3580Y-44119D01*
X3320Y-43785D01*
X3190Y-43319D01*
X3277Y-42852D01*
X3493Y-42452D01*
X3883Y-42185D01*
X4403Y-42052D01*
X4707Y-41785D01*
X4837Y-41319D01*
X4750Y-40852D01*
X4533Y-40519D01*
X4230Y-40319D01*
X3927D01*
X3623Y-40452D01*
X3363Y-40785D01*
G01X50953Y-25319D02*
Y-28185D01*
X50780Y-28785D01*
X50433Y-29185D01*
X50000Y-29319D01*
X49567Y-29185D01*
X49220Y-28785D01*
X49047Y-28185D01*
Y-25319D01*
G01X47597Y-29319D02*
Y-25319D01*
X45603Y-29319D01*
Y-25319D01*
G01X44067D02*
Y-29319D01*
X42333D01*
G01X38933D02*
X40667D01*
Y-25319D01*
X38933D01*
G01X39627Y-27252D02*
X40667D01*
G01X37310Y-28785D02*
X36963Y-29119D01*
X36573Y-29319D01*
X36227D01*
X35880Y-29119D01*
X35620Y-28785D01*
X35490Y-28319D01*
X35577Y-27852D01*
X35793Y-27452D01*
X36183Y-27185D01*
X36703Y-27052D01*
X37007Y-26785D01*
X37137Y-26319D01*
X37050Y-25852D01*
X36833Y-25519D01*
X36530Y-25319D01*
X36227D01*
X35923Y-25452D01*
X35663Y-25785D01*
G01X33910Y-28785D02*
X33563Y-29119D01*
X33173Y-29319D01*
X32827D01*
X32480Y-29119D01*
X32220Y-28785D01*
X32090Y-28319D01*
X32177Y-27852D01*
X32393Y-27452D01*
X32783Y-27185D01*
X33303Y-27052D01*
X33607Y-26785D01*
X33737Y-26319D01*
X33650Y-25852D01*
X33433Y-25519D01*
X33130Y-25319D01*
X32827D01*
X32523Y-25452D01*
X32263Y-25785D01*
G01X26200Y-29319D02*
X26547Y-29252D01*
X26850Y-28985D01*
X27110Y-28585D01*
X27283Y-28119D01*
X27370Y-27585D01*
Y-27052D01*
X27283Y-26519D01*
X27110Y-26052D01*
X26850Y-25652D01*
X26547Y-25385D01*
X26200Y-25319D01*
X25853Y-25385D01*
X25550Y-25652D01*
X25290Y-26052D01*
X25117Y-26519D01*
X25030Y-27052D01*
Y-27585D01*
X25117Y-28119D01*
X25290Y-28585D01*
X25550Y-28985D01*
X25853Y-29252D01*
X26200Y-29319D01*
G01X22800Y-25319D02*
Y-29319D01*
G01X23797Y-25319D02*
X21803D01*
G01X20310Y-29319D02*
Y-25319D01*
G01X18490D02*
Y-29319D01*
G01Y-27319D02*
X20310D01*
G01X15133Y-29319D02*
X16867D01*
Y-25319D01*
X15133D01*
G01X15827Y-27252D02*
X16867D01*
G01X13467Y-29319D02*
Y-25319D01*
X12383D01*
X12037Y-25519D01*
X11820Y-25785D01*
X11733Y-26319D01*
X11820Y-26852D01*
X12080Y-27185D01*
X12383Y-27385D01*
X13467D01*
G01X12383D02*
X11733Y-29319D01*
G01X10500Y-25319D02*
X9893Y-29319D01*
X9200Y-25319D01*
X8507Y-29319D01*
X7900Y-25319D01*
G01X6320D02*
X5280D01*
G01X5800D02*
Y-29319D01*
G01X6320D02*
X5280D01*
G01X3310Y-28785D02*
X2963Y-29119D01*
X2573Y-29319D01*
X2227D01*
X1880Y-29119D01*
X1620Y-28785D01*
X1490Y-28319D01*
X1577Y-27852D01*
X1793Y-27452D01*
X2183Y-27185D01*
X2703Y-27052D01*
X3007Y-26785D01*
X3137Y-26319D01*
X3050Y-25852D01*
X2833Y-25519D01*
X2530Y-25319D01*
X2227D01*
X1923Y-25452D01*
X1663Y-25785D01*
G01X-1867Y-29319D02*
X-133D01*
Y-25319D01*
X-1867D01*
G01X-1173Y-27252D02*
X-133D01*
G01X39800Y-55319D02*
Y-59319D01*
G01X40797Y-55319D02*
X38803D01*
G01X36400Y-59319D02*
X36747Y-59252D01*
X37050Y-58985D01*
X37310Y-58585D01*
X37483Y-58119D01*
X37570Y-57585D01*
Y-57052D01*
X37483Y-56519D01*
X37310Y-56052D01*
X37050Y-55652D01*
X36747Y-55385D01*
X36400Y-55319D01*
X36053Y-55385D01*
X35750Y-55652D01*
X35490Y-56052D01*
X35317Y-56519D01*
X35230Y-57052D01*
Y-57585D01*
X35317Y-58119D01*
X35490Y-58585D01*
X35750Y-58985D01*
X36053Y-59252D01*
X36400Y-59319D01*
G01X33867Y-55319D02*
Y-59319D01*
X32133D01*
G01X28733D02*
X30467D01*
Y-55319D01*
X28733D01*
G01X29427Y-57252D02*
X30467D01*
G01X27067Y-59319D02*
Y-55319D01*
X25983D01*
X25637Y-55519D01*
X25420Y-55785D01*
X25333Y-56319D01*
X25420Y-56852D01*
X25680Y-57185D01*
X25983Y-57385D01*
X27067D01*
G01X25983D02*
X25333Y-59319D01*
G01X23883D02*
X22800Y-55319D01*
X21717Y-59319D01*
G01X22107Y-57919D02*
X23493D01*
G01X20397Y-59319D02*
Y-55319D01*
X18403Y-59319D01*
Y-55319D01*
G01X15047Y-55652D02*
X15307Y-55452D01*
X15610Y-55319D01*
X15957D01*
X16347Y-55519D01*
X16650Y-55852D01*
X16867Y-56252D01*
X17040Y-56919D01*
X17083Y-57519D01*
X16997Y-58119D01*
X16867Y-58519D01*
X16607Y-58919D01*
X16303Y-59185D01*
X16000Y-59319D01*
X15697D01*
X15393Y-59185D01*
X15133Y-58985D01*
X14917Y-58719D01*
G01X11733Y-59319D02*
X13467D01*
Y-55319D01*
X11733D01*
G01X12427Y-57252D02*
X13467D01*
G01X10110Y-58785D02*
X9763Y-59119D01*
X9373Y-59319D01*
X9027D01*
X8680Y-59119D01*
X8420Y-58785D01*
X8290Y-58319D01*
X8377Y-57852D01*
X8593Y-57452D01*
X8983Y-57185D01*
X9503Y-57052D01*
X9807Y-56785D01*
X9937Y-56319D01*
X9850Y-55852D01*
X9633Y-55519D01*
X9330Y-55319D01*
X9027D01*
X8723Y-55452D01*
X8463Y-55785D01*
G01X12000Y87500D02*
Y304000D01*
X248500D01*
Y87500D01*
X12000D01*
G01X39700Y-85452D02*
X39787Y-85385D01*
Y-85252D01*
X39700Y-85185D01*
X39613Y-85252D01*
Y-85385D01*
X39700Y-85452D01*
G01X36300Y-81319D02*
X36647Y-81452D01*
X36907Y-81785D01*
X37080Y-82185D01*
X37210Y-82719D01*
X37253Y-83319D01*
X37210Y-83919D01*
X37080Y-84452D01*
X36907Y-84852D01*
X36647Y-85185D01*
X36300Y-85319D01*
X35953Y-85185D01*
X35693Y-84852D01*
X35520Y-84452D01*
X35390Y-83919D01*
X35347Y-83319D01*
X35390Y-82719D01*
X35520Y-82185D01*
X35693Y-81785D01*
X35953Y-81452D01*
X36300Y-81319D01*
G01X32900Y-85319D02*
Y-81319D01*
X33420Y-82119D01*
G01Y-85319D02*
X32380D01*
G01X29500Y-81319D02*
X29847Y-81452D01*
X30107Y-81785D01*
X30280Y-82185D01*
X30410Y-82719D01*
X30453Y-83319D01*
X30410Y-83919D01*
X30280Y-84452D01*
X30107Y-84852D01*
X29847Y-85185D01*
X29500Y-85319D01*
X29153Y-85185D01*
X28893Y-84852D01*
X28720Y-84452D01*
X28590Y-83919D01*
X28547Y-83319D01*
X28590Y-82719D01*
X28720Y-82185D01*
X28893Y-81785D01*
X29153Y-81452D01*
X29500Y-81319D01*
G01X39700Y-79452D02*
X39787Y-79385D01*
Y-79252D01*
X39700Y-79185D01*
X39613Y-79252D01*
Y-79385D01*
X39700Y-79452D01*
G01X36300Y-75319D02*
X36647Y-75452D01*
X36907Y-75785D01*
X37080Y-76185D01*
X37210Y-76719D01*
X37253Y-77319D01*
X37210Y-77919D01*
X37080Y-78452D01*
X36907Y-78852D01*
X36647Y-79185D01*
X36300Y-79319D01*
X35953Y-79185D01*
X35693Y-78852D01*
X35520Y-78452D01*
X35390Y-77919D01*
X35347Y-77319D01*
X35390Y-76719D01*
X35520Y-76185D01*
X35693Y-75785D01*
X35953Y-75452D01*
X36300Y-75319D01*
G01X33853Y-78519D02*
X33593Y-78985D01*
X33247Y-79252D01*
X32857Y-79319D01*
X32510Y-79252D01*
X32163Y-78919D01*
X31947Y-78519D01*
X31903Y-78119D01*
X31990Y-77652D01*
X32293Y-77319D01*
X32597Y-77185D01*
X32987D01*
G01X32597D02*
X32337Y-76985D01*
X32120Y-76652D01*
X32033Y-76252D01*
X32120Y-75852D01*
X32337Y-75519D01*
X32727Y-75319D01*
X33117Y-75385D01*
X33507Y-75652D01*
G01X39700Y-73452D02*
X39787Y-73385D01*
Y-73252D01*
X39700Y-73185D01*
X39613Y-73252D01*
Y-73385D01*
X39700Y-73452D01*
G01X36300Y-73319D02*
Y-69319D01*
X36820Y-70119D01*
G01Y-73319D02*
X35780D01*
G01X54653Y-67819D02*
Y-63819D01*
X53787D01*
X53440Y-64019D01*
X53180Y-64285D01*
X52963Y-64685D01*
X52790Y-65152D01*
X52747Y-65819D01*
X52790Y-66485D01*
X52963Y-66952D01*
X53180Y-67352D01*
X53440Y-67619D01*
X53787Y-67819D01*
X54653D01*
G01X49433D02*
X51167D01*
Y-63819D01*
X49433D01*
G01X50127Y-65752D02*
X51167D01*
G01X45947Y-64152D02*
X46207Y-63952D01*
X46510Y-63819D01*
X46857D01*
X47247Y-64019D01*
X47550Y-64352D01*
X47767Y-64752D01*
X47940Y-65419D01*
X47983Y-66019D01*
X47897Y-66619D01*
X47767Y-67019D01*
X47507Y-67419D01*
X47203Y-67685D01*
X46900Y-67819D01*
X46597D01*
X46293Y-67685D01*
X46033Y-67485D01*
X45817Y-67219D01*
G01X44020Y-63819D02*
X42980D01*
G01X43500D02*
Y-67819D01*
G01X44020D02*
X42980D01*
G01X41227D02*
Y-63819D01*
X40100Y-67152D01*
X38973Y-63819D01*
Y-67819D01*
G01X37783D02*
X36700Y-63819D01*
X35617Y-67819D01*
G01X36007Y-66419D02*
X37393D01*
G01X34167Y-63819D02*
Y-67819D01*
X32433D01*
G01X52610Y-79319D02*
X50790Y-75319D01*
G01X52610D02*
X50790Y-79319D01*
G01X49210D02*
X47390Y-75319D01*
G01X49210D02*
X47390Y-79319D01*
G01X56010Y-85319D02*
X54190Y-81319D01*
G01X56010D02*
X54190Y-85319D01*
G01X52610D02*
X50790Y-81319D01*
G01X52610D02*
X50790Y-85319D01*
G01X49210D02*
X47390Y-81319D01*
G01X49210D02*
X47390Y-85319D01*
G01X49210Y-73319D02*
X47390Y-69319D01*
G01X49210D02*
X47390Y-73319D01*
G01X47000Y-85319D02*
X44000D01*
G01X43500Y-81619D02*
Y-84619D01*
G01X45000Y-83119D02*
X42000D01*
G01X45000Y-71119D02*
X42000D01*
G01X45000Y-73319D02*
X42000D01*
G01X43500Y-69619D02*
Y-72619D01*
G01X45000Y-79319D02*
X42000D01*
G01X43500Y-75619D02*
Y-78619D01*
G01X45000Y-77119D02*
X42000D01*
G01X127000Y103000D02*
Y160000D01*
X28000D01*
Y103000D01*
X127000D01*
G01X242000Y298000D02*
X20000D01*
Y95000D01*
X242000D01*
Y298000D01*
G01X20000Y142999D02*
Y136999D01*
G03X24000Y132999I4000J0D01*
G03X28000Y136999I0J4000D01*
G01Y142999D01*
G01Y110199D02*
Y116199D01*
G03X24000Y120199I-4000J0D01*
G03X20000Y116199I0J-4000D01*
G01Y110199D01*
G01X127000Y168000D02*
Y225000D01*
X28000D01*
Y168000D01*
X127000D01*
G01D02*
Y225000D01*
X28000D01*
Y168000D01*
X127000D01*
G01D02*
Y225000D01*
X28000D01*
Y168000D01*
X127000D01*
G01X28000Y180199D02*
Y186199D01*
G03X24000Y190199I-4000J0D01*
G03X20000Y186199I0J-4000D01*
G01Y180199D01*
G01Y212999D02*
Y206999D01*
G03X24000Y202999I4000J0D01*
G03X28000Y206999I0J4000D01*
G01Y212999D01*
G01X127000Y233000D02*
Y290000D01*
X28000D01*
Y233000D01*
X127000D01*
G01D02*
Y290000D01*
X28000D01*
Y233000D01*
X127000D01*
G01D02*
Y290000D01*
X28000D01*
Y233000D01*
X127000D01*
G01X28000Y245199D02*
Y251199D01*
G03X24000Y255199I-4000J0D01*
G03X20000Y251199I0J-4000D01*
G01Y245199D01*
G01Y277999D02*
Y271999D01*
G03X24000Y267999I4000J0D01*
G03X28000Y271999I0J4000D01*
G01Y277999D01*
G01X82400Y-81319D02*
X83093Y-81585D01*
X83613Y-82252D01*
X83960Y-83052D01*
X84220Y-84119D01*
X84307Y-85319D01*
X84220Y-86519D01*
X83960Y-87585D01*
X83613Y-88386D01*
X83093Y-89052D01*
X82400Y-89319D01*
X81707Y-89052D01*
X81187Y-88386D01*
X80840Y-87585D01*
X80580Y-86519D01*
X80493Y-85319D01*
X80580Y-84119D01*
X80840Y-83052D01*
X81187Y-82252D01*
X81707Y-81585D01*
X82400Y-81319D01*
G01X75600Y-89319D02*
Y-81319D01*
X76640Y-82918D01*
G01Y-89319D02*
X74560D01*
G01X88133Y-76819D02*
Y-70819D01*
X86467D01*
X85933Y-71119D01*
X85600Y-71519D01*
X85467Y-72319D01*
X85600Y-73119D01*
X86000Y-73619D01*
X86467Y-73919D01*
X88133D01*
G01X86467D02*
X85467Y-76819D01*
G01X80267D02*
X82933D01*
Y-70819D01*
X80267D01*
G01X81333Y-73718D02*
X82933D01*
G01X78067Y-70819D02*
X76400Y-76819D01*
X74733Y-70819D01*
G01X71200Y-77019D02*
X71333Y-76919D01*
Y-76719D01*
X71200Y-76619D01*
X71067Y-76719D01*
Y-76919D01*
X71200Y-77019D01*
G01X260420Y-65752D02*
X259727Y-66419D01*
X258947Y-66819D01*
X258253D01*
X257560Y-66419D01*
X257040Y-65752D01*
X256780Y-64818D01*
X256953Y-63885D01*
X257387Y-63085D01*
X258167Y-62552D01*
X259207Y-62285D01*
X259813Y-61752D01*
X260073Y-60819D01*
X259900Y-59885D01*
X259467Y-59219D01*
X258860Y-58819D01*
X258253D01*
X257647Y-59085D01*
X257127Y-59752D01*
G01X250067Y-66819D02*
X253533D01*
Y-58819D01*
X250067D01*
G01X251453Y-62685D02*
X253533D01*
G01X246993Y-66819D02*
Y-58819D01*
X243007Y-66819D01*
Y-58819D01*
G01X240020Y-65752D02*
X239327Y-66419D01*
X238547Y-66819D01*
X237853D01*
X237160Y-66419D01*
X236640Y-65752D01*
X236380Y-64818D01*
X236553Y-63885D01*
X236987Y-63085D01*
X237767Y-62552D01*
X238807Y-62285D01*
X239413Y-61752D01*
X239673Y-60819D01*
X239500Y-59885D01*
X239067Y-59219D01*
X238460Y-58819D01*
X237853D01*
X237247Y-59085D01*
X236727Y-59752D01*
G01X231400Y-66819D02*
X232093Y-66685D01*
X232700Y-66152D01*
X233220Y-65352D01*
X233567Y-64419D01*
X233740Y-63352D01*
Y-62285D01*
X233567Y-61219D01*
X233220Y-60285D01*
X232700Y-59485D01*
X232093Y-58952D01*
X231400Y-58819D01*
X230707Y-58952D01*
X230100Y-59485D01*
X229580Y-60285D01*
X229233Y-61219D01*
X229060Y-62285D01*
Y-63352D01*
X229233Y-64419D01*
X229580Y-65352D01*
X230100Y-66152D01*
X230707Y-66685D01*
X231400Y-66819D01*
G01X226333D02*
Y-58819D01*
X224167D01*
X223473Y-59219D01*
X223040Y-59752D01*
X222867Y-60819D01*
X223040Y-61885D01*
X223560Y-62552D01*
X224167Y-62952D01*
X226333D01*
G01X224167D02*
X222867Y-66819D01*
G01X220400Y-69485D02*
X215200D01*
G01X212733Y-66819D02*
Y-58819D01*
X210653D01*
X209960Y-59219D01*
X209440Y-60152D01*
X209267Y-61219D01*
X209440Y-62285D01*
X209873Y-63085D01*
X210653Y-63486D01*
X212733D01*
G01X205933Y-58819D02*
Y-66819D01*
X202467D01*
G01X199567D02*
X197400Y-58819D01*
X195233Y-66819D01*
G01X196013Y-64019D02*
X198787D01*
G01X190600Y-58819D02*
Y-66819D01*
G01X192593Y-58819D02*
X188607D01*
G01X185447Y-66819D02*
Y-58819D01*
X182153D01*
G01X183367Y-62685D02*
X185447D01*
G01X177000Y-66819D02*
X177693Y-66685D01*
X178300Y-66152D01*
X178820Y-65352D01*
X179167Y-64419D01*
X179340Y-63352D01*
Y-62285D01*
X179167Y-61219D01*
X178820Y-60285D01*
X178300Y-59485D01*
X177693Y-58952D01*
X177000Y-58819D01*
X176307Y-58952D01*
X175700Y-59485D01*
X175180Y-60285D01*
X174833Y-61219D01*
X174660Y-62285D01*
Y-63352D01*
X174833Y-64419D01*
X175180Y-65352D01*
X175700Y-66152D01*
X176307Y-66685D01*
X177000Y-66819D01*
G01X171933D02*
Y-58819D01*
X169767D01*
X169073Y-59219D01*
X168640Y-59752D01*
X168467Y-60819D01*
X168640Y-61885D01*
X169160Y-62552D01*
X169767Y-62952D01*
X171933D01*
G01X169767D02*
X168467Y-66819D01*
G01X165653D02*
Y-58819D01*
X163400Y-65485D01*
X161147Y-58819D01*
Y-66819D01*
G01X159200Y-69485D02*
X154000D01*
G01X149107Y-62552D02*
X148760Y-62152D01*
X148500Y-61485D01*
X148327Y-60552D01*
X148500Y-59752D01*
X148847Y-59219D01*
X149453Y-58819D01*
X151793D01*
Y-66819D01*
X148933D01*
X148327Y-66285D01*
X147980Y-65485D01*
X147807Y-64552D01*
X147980Y-63619D01*
X148500Y-62819D01*
X149107Y-62552D01*
X151793D01*
G01X144733Y-66819D02*
Y-58819D01*
X142567D01*
X141873Y-59219D01*
X141440Y-59752D01*
X141267Y-60819D01*
X141440Y-61885D01*
X141960Y-62552D01*
X142567Y-62952D01*
X144733D01*
G01X142567D02*
X141267Y-66819D01*
G01X134467D02*
X137933D01*
Y-58819D01*
X134467D01*
G01X135853Y-62685D02*
X137933D01*
G01X131567Y-66819D02*
X129400Y-58819D01*
X127233Y-66819D01*
G01X128013Y-64019D02*
X130787D01*
G01X124507Y-66819D02*
Y-58819D01*
G01X121213D02*
X124507Y-63752D01*
G01X120693Y-66819D02*
X123033Y-61485D01*
G01X115800Y-66819D02*
X116493Y-66685D01*
X117100Y-66152D01*
X117620Y-65352D01*
X117967Y-64419D01*
X118140Y-63352D01*
Y-62285D01*
X117967Y-61219D01*
X117620Y-60285D01*
X117100Y-59485D01*
X116493Y-58952D01*
X115800Y-58819D01*
X115107Y-58952D01*
X114500Y-59485D01*
X113980Y-60285D01*
X113633Y-61219D01*
X113460Y-62285D01*
Y-63352D01*
X113633Y-64419D01*
X113980Y-65352D01*
X114500Y-66152D01*
X115107Y-66685D01*
X115800Y-66819D01*
G01X110907Y-58819D02*
Y-64552D01*
X110560Y-65752D01*
X109867Y-66552D01*
X109000Y-66819D01*
X108133Y-66552D01*
X107440Y-65752D01*
X107093Y-64552D01*
Y-58819D01*
G01X102200D02*
Y-66819D01*
G01X104193Y-58819D02*
X100207D01*
G01X98000Y-69485D02*
X92800D01*
G01X87907Y-62552D02*
X87560Y-62152D01*
X87300Y-61485D01*
X87127Y-60552D01*
X87300Y-59752D01*
X87647Y-59219D01*
X88253Y-58819D01*
X90593D01*
Y-66819D01*
X87733D01*
X87127Y-66285D01*
X86780Y-65485D01*
X86607Y-64552D01*
X86780Y-63619D01*
X87300Y-62819D01*
X87907Y-62552D01*
X90593D01*
G01X81800Y-66819D02*
X82493Y-66685D01*
X83100Y-66152D01*
X83620Y-65352D01*
X83967Y-64419D01*
X84140Y-63352D01*
Y-62285D01*
X83967Y-61219D01*
X83620Y-60285D01*
X83100Y-59485D01*
X82493Y-58952D01*
X81800Y-58819D01*
X81107Y-58952D01*
X80500Y-59485D01*
X79980Y-60285D01*
X79633Y-61219D01*
X79460Y-62285D01*
Y-63352D01*
X79633Y-64419D01*
X79980Y-65352D01*
X80500Y-66152D01*
X81107Y-66685D01*
X81800Y-66819D01*
G01X77167D02*
X75000Y-58819D01*
X72833Y-66819D01*
G01X73613Y-64019D02*
X76387D01*
G01X69933Y-66819D02*
Y-58819D01*
X67767D01*
X67073Y-59219D01*
X66640Y-59752D01*
X66467Y-60819D01*
X66640Y-61885D01*
X67160Y-62552D01*
X67767Y-62952D01*
X69933D01*
G01X67767D02*
X66467Y-66819D01*
G01X63307D02*
Y-58819D01*
X61573D01*
X60880Y-59219D01*
X60360Y-59752D01*
X59927Y-60552D01*
X59580Y-61485D01*
X59493Y-62819D01*
X59580Y-64152D01*
X59927Y-65085D01*
X60360Y-65886D01*
X60880Y-66419D01*
X61573Y-66819D01*
X63307D01*
G01X59000Y-16819D02*
Y-91819D01*
G01Y-69319D02*
X261500D01*
G01X234633Y-41819D02*
Y-33819D01*
X232467D01*
X231773Y-34219D01*
X231340Y-34752D01*
X231167Y-35819D01*
X231340Y-36885D01*
X231860Y-37552D01*
X232467Y-37952D01*
X234633D01*
G01X232467D02*
X231167Y-41819D01*
G01X226100D02*
X226793Y-41685D01*
X227400Y-41152D01*
X227920Y-40352D01*
X228267Y-39419D01*
X228440Y-38352D01*
Y-37285D01*
X228267Y-36219D01*
X227920Y-35285D01*
X227400Y-34485D01*
X226793Y-33952D01*
X226100Y-33819D01*
X225407Y-33952D01*
X224800Y-34485D01*
X224280Y-35285D01*
X223933Y-36219D01*
X223760Y-37285D01*
Y-38352D01*
X223933Y-39419D01*
X224280Y-40352D01*
X224800Y-41152D01*
X225407Y-41685D01*
X226100Y-41819D01*
G01X221120D02*
Y-33819D01*
G01X217480D02*
Y-41819D01*
G01Y-37819D02*
X221120D01*
G01X214753Y-41819D02*
Y-33819D01*
X212500Y-40485D01*
X210247Y-33819D01*
Y-41819D01*
G01X200720Y-40752D02*
X200027Y-41419D01*
X199247Y-41819D01*
X198553D01*
X197860Y-41419D01*
X197340Y-40752D01*
X197080Y-39818D01*
X197253Y-38885D01*
X197687Y-38085D01*
X198467Y-37552D01*
X199507Y-37285D01*
X200113Y-36752D01*
X200373Y-35819D01*
X200200Y-34885D01*
X199767Y-34219D01*
X199160Y-33819D01*
X198553D01*
X197947Y-34085D01*
X197427Y-34752D01*
G01X190367Y-41819D02*
X193833D01*
Y-33819D01*
X190367D01*
G01X191753Y-37685D02*
X193833D01*
G01X187553Y-41819D02*
Y-33819D01*
X185300Y-40485D01*
X183047Y-33819D01*
Y-41819D01*
G01X179540Y-33819D02*
X177460D01*
G01X178500D02*
Y-41819D01*
G01X179540D02*
X177460D01*
G01X169793Y-34485D02*
X170313Y-34085D01*
X170920Y-33819D01*
X171613D01*
X172393Y-34219D01*
X173000Y-34885D01*
X173433Y-35685D01*
X173780Y-37019D01*
X173867Y-38219D01*
X173693Y-39419D01*
X173433Y-40219D01*
X172913Y-41019D01*
X172307Y-41552D01*
X171700Y-41819D01*
X171093D01*
X170487Y-41552D01*
X169967Y-41152D01*
X169533Y-40619D01*
G01X164900Y-41819D02*
X165593Y-41685D01*
X166200Y-41152D01*
X166720Y-40352D01*
X167067Y-39419D01*
X167240Y-38352D01*
Y-37285D01*
X167067Y-36219D01*
X166720Y-35285D01*
X166200Y-34485D01*
X165593Y-33952D01*
X164900Y-33819D01*
X164207Y-33952D01*
X163600Y-34485D01*
X163080Y-35285D01*
X162733Y-36219D01*
X162560Y-37285D01*
Y-38352D01*
X162733Y-39419D01*
X163080Y-40352D01*
X163600Y-41152D01*
X164207Y-41685D01*
X164900Y-41819D01*
G01X160093D02*
Y-33819D01*
X156107Y-41819D01*
Y-33819D01*
G01X153207Y-41819D02*
Y-33819D01*
X151473D01*
X150780Y-34219D01*
X150260Y-34752D01*
X149827Y-35552D01*
X149480Y-36485D01*
X149393Y-37819D01*
X149480Y-39152D01*
X149827Y-40085D01*
X150260Y-40886D01*
X150780Y-41419D01*
X151473Y-41819D01*
X153207D01*
G01X146407Y-33819D02*
Y-39552D01*
X146060Y-40752D01*
X145367Y-41552D01*
X144500Y-41819D01*
X143633Y-41552D01*
X142940Y-40752D01*
X142593Y-39552D01*
Y-33819D01*
G01X135793Y-34485D02*
X136313Y-34085D01*
X136920Y-33819D01*
X137613D01*
X138393Y-34219D01*
X139000Y-34885D01*
X139433Y-35685D01*
X139780Y-37019D01*
X139867Y-38219D01*
X139693Y-39419D01*
X139433Y-40219D01*
X138913Y-41019D01*
X138307Y-41552D01*
X137700Y-41819D01*
X137093D01*
X136487Y-41552D01*
X135967Y-41152D01*
X135533Y-40619D01*
G01X130900Y-33819D02*
Y-41819D01*
G01X132893Y-33819D02*
X128907D01*
G01X124100Y-41819D02*
X124793Y-41685D01*
X125400Y-41152D01*
X125920Y-40352D01*
X126267Y-39419D01*
X126440Y-38352D01*
Y-37285D01*
X126267Y-36219D01*
X125920Y-35285D01*
X125400Y-34485D01*
X124793Y-33952D01*
X124100Y-33819D01*
X123407Y-33952D01*
X122800Y-34485D01*
X122280Y-35285D01*
X121933Y-36219D01*
X121760Y-37285D01*
Y-38352D01*
X121933Y-39419D01*
X122280Y-40352D01*
X122800Y-41152D01*
X123407Y-41685D01*
X124100Y-41819D01*
G01X119033D02*
Y-33819D01*
X116867D01*
X116173Y-34219D01*
X115740Y-34752D01*
X115567Y-35819D01*
X115740Y-36885D01*
X116260Y-37552D01*
X116867Y-37952D01*
X119033D01*
G01X116867D02*
X115567Y-41819D01*
G01X105607Y-33819D02*
Y-39552D01*
X105260Y-40752D01*
X104567Y-41552D01*
X103700Y-41819D01*
X102833Y-41552D01*
X102140Y-40752D01*
X101793Y-39552D01*
Y-33819D01*
G01X98720Y-40752D02*
X98027Y-41419D01*
X97247Y-41819D01*
X96553D01*
X95860Y-41419D01*
X95340Y-40752D01*
X95080Y-39818D01*
X95253Y-38885D01*
X95687Y-38085D01*
X96467Y-37552D01*
X97507Y-37285D01*
X98113Y-36752D01*
X98373Y-35819D01*
X98200Y-34885D01*
X97767Y-34219D01*
X97160Y-33819D01*
X96553D01*
X95947Y-34085D01*
X95427Y-34752D01*
G01X92267Y-41819D02*
X90100Y-33819D01*
X87933Y-41819D01*
G01X88713Y-39019D02*
X91487D01*
G01X59000Y-46819D02*
X261500D01*
G01X95655Y103000D02*
X89655D01*
G03X85655Y99000I0J-4000D01*
G03X89655Y95000I4000J0D01*
G01X95655D01*
G01X62855D02*
X68855D01*
G03X72855Y99000I0J4000D01*
G03X68855Y103000I-4000J0D01*
G01X62855D01*
G01X62355Y160000D02*
X68355D01*
G03X72355Y164000I0J4000D01*
G03X68355Y168000I-4000J0D01*
G01X62355D01*
G01X95155D02*
X89155D01*
G03X85155Y164000I0J-4000D01*
G03X89155Y160000I4000J0D01*
G01X95155D01*
G01X59855Y225000D02*
X65855D01*
G03X69855Y229000I0J4000D01*
G03X65855Y233000I-4000J0D01*
G01X59855D01*
G01X92655D02*
X86655D01*
G03X82655Y229000I0J-4000D01*
G03X86655Y225000I4000J0D01*
G01X92655D01*
G01X59855Y290000D02*
X65855D01*
G03X69855Y294000I0J4000D01*
G03X65855Y298000I-4000J0D01*
G01X59855D01*
G01X92655D02*
X86655D01*
G03X82655Y294000I0J-4000D01*
G03X86655Y290000I4000J0D01*
G01X92655D01*
G01X94000Y-69319D02*
Y-91819D01*
G01X135000Y115199D02*
Y121199D01*
G03X131000Y125199I-4000J0D01*
G01D02*
G03X127000Y121199I0J-4000D01*
G01Y115199D01*
G01X131000Y137999D02*
G03X135000Y141999I0J4000D01*
G01Y147999D01*
G01X127000D02*
Y141999D01*
G03X131000Y137999I4000J0D01*
G01X135000Y180199D02*
Y186199D01*
G03X131000Y190199I-4000J0D01*
G01Y202999D02*
G03X135000Y206999I0J4000D01*
G01Y212999D01*
G01X127000D02*
Y206999D01*
G03X131000Y202999I4000J0D01*
G01Y190199D02*
G03X127000Y186199I0J-4000D01*
G01Y180199D01*
G01X135000Y245199D02*
Y251199D01*
G03X131000Y255199I-4000J0D01*
G01X135000Y245199D02*
Y251199D01*
G03X131000Y255199I-4000J0D01*
G03X127000Y251199I0J-4000D01*
G01Y245199D01*
G01X131000Y267999D02*
G03X135000Y271999I0J4000D01*
G01Y277999D01*
G01X127000D02*
Y271999D01*
G03X131000Y267999I4000J0D01*
G03X135000Y271999I0J4000D01*
G01Y277999D01*
G01X197993Y-89319D02*
Y-81319D01*
X194007Y-89319D01*
Y-81319D01*
G01X191107D02*
Y-87052D01*
X190760Y-88252D01*
X190067Y-89052D01*
X189200Y-89319D01*
X188333Y-89052D01*
X187640Y-88252D01*
X187293Y-87052D01*
Y-81319D01*
G01X184653Y-89319D02*
Y-81319D01*
X182400Y-87985D01*
X180147Y-81319D01*
Y-89319D01*
G01X174907Y-85052D02*
X174560Y-84652D01*
X174300Y-83985D01*
X174127Y-83052D01*
X174300Y-82252D01*
X174647Y-81719D01*
X175253Y-81319D01*
X177593D01*
Y-89319D01*
X174733D01*
X174127Y-88785D01*
X173780Y-87985D01*
X173607Y-87052D01*
X173780Y-86119D01*
X174300Y-85319D01*
X174907Y-85052D01*
X177593D01*
G01X167067Y-89319D02*
X170533D01*
Y-81319D01*
X167067D01*
G01X168453Y-85185D02*
X170533D01*
G01X163733Y-89319D02*
Y-81319D01*
X161567D01*
X160873Y-81719D01*
X160440Y-82252D01*
X160267Y-83319D01*
X160440Y-84385D01*
X160960Y-85052D01*
X161567Y-85452D01*
X163733D01*
G01X161567D02*
X160267Y-89319D01*
G01X234000Y103000D02*
Y160000D01*
X135000D01*
Y103000D01*
X234000D01*
G01X166699Y95000D02*
X172699D01*
G03X176699Y99000I0J4000D01*
G03X172699Y103000I-4000J0D01*
G01X166699D01*
G01X234000Y168000D02*
Y225000D01*
X135000D01*
Y168000D01*
X234000D01*
G01D02*
Y225000D01*
X135000D01*
Y168000D01*
X234000D01*
G01D02*
Y225000D01*
X135000D01*
Y168000D01*
X234000D01*
G01X166855Y160000D02*
X172855D01*
G03X176855Y164000I0J4000D01*
G03X172855Y168000I-4000J0D01*
G01X166855D01*
G01X234000Y233000D02*
Y290000D01*
X135000D01*
Y233000D01*
X234000D01*
G01X135000Y290000D02*
Y233000D01*
G01Y290000D02*
Y233000D01*
G01Y290000D02*
Y233000D01*
G01X166855Y225000D02*
X172855D01*
G03X176855Y229000I0J4000D01*
G01D02*
G03X172855Y233000I-4000J0D01*
G01X166855D01*
G01Y290000D02*
X172855D01*
G03X176855Y294000I0J4000D01*
G03X172855Y298000I-4000J0D01*
G01X166855D01*
G01Y290000D02*
X172855D01*
G03X176855Y294000I0J4000D01*
G01X258333Y-76819D02*
Y-70819D01*
X256733D01*
X256200Y-71119D01*
X255800Y-71819D01*
X255667Y-72619D01*
X255800Y-73419D01*
X256133Y-74019D01*
X256733Y-74319D01*
X258333D01*
G01X253133Y-76819D02*
Y-70819D01*
X251467D01*
X250933Y-71119D01*
X250600Y-71519D01*
X250467Y-72319D01*
X250600Y-73119D01*
X251000Y-73619D01*
X251467Y-73919D01*
X253133D01*
G01X251467D02*
X250467Y-76819D01*
G01X246600D02*
X247133Y-76719D01*
X247600Y-76319D01*
X248000Y-75719D01*
X248267Y-75019D01*
X248400Y-74219D01*
Y-73419D01*
X248267Y-72619D01*
X248000Y-71918D01*
X247600Y-71319D01*
X247133Y-70919D01*
X246600Y-70819D01*
X246067Y-70919D01*
X245600Y-71319D01*
X245200Y-71918D01*
X244933Y-72619D01*
X244800Y-73419D01*
Y-74219D01*
X244933Y-75019D01*
X245200Y-75719D01*
X245600Y-76319D01*
X246067Y-76719D01*
X246600Y-76819D01*
G01X242733Y-75619D02*
X242400Y-76219D01*
X242000Y-76619D01*
X241533Y-76819D01*
X241000Y-76619D01*
X240600Y-76219D01*
X240200Y-75619D01*
X240067Y-74819D01*
Y-70819D01*
G01X234867Y-76819D02*
X237533D01*
Y-70819D01*
X234867D01*
G01X235933Y-73718D02*
X237533D01*
G01X229533Y-71319D02*
X229933Y-71019D01*
X230400Y-70819D01*
X230933D01*
X231533Y-71119D01*
X232000Y-71619D01*
X232333Y-72219D01*
X232600Y-73219D01*
X232667Y-74119D01*
X232533Y-75019D01*
X232333Y-75619D01*
X231933Y-76219D01*
X231467Y-76619D01*
X231000Y-76819D01*
X230533D01*
X230067Y-76619D01*
X229667Y-76319D01*
X229333Y-75919D01*
G01X225800Y-70819D02*
Y-76819D01*
G01X227333Y-70819D02*
X224267D01*
G01X216933Y-76819D02*
Y-70819D01*
X213867Y-76819D01*
Y-70819D01*
G01X211667D02*
Y-75119D01*
X211400Y-76019D01*
X210867Y-76619D01*
X210200Y-76819D01*
X209533Y-76619D01*
X209000Y-76019D01*
X208733Y-75119D01*
Y-70819D01*
G01X206733Y-76819D02*
Y-70819D01*
X205000Y-75819D01*
X203267Y-70819D01*
Y-76819D01*
G01X199267Y-73619D02*
X199000Y-73319D01*
X198800Y-72819D01*
X198667Y-72118D01*
X198800Y-71519D01*
X199067Y-71119D01*
X199533Y-70819D01*
X201333D01*
Y-76819D01*
X199133D01*
X198667Y-76419D01*
X198400Y-75819D01*
X198267Y-75119D01*
X198400Y-74419D01*
X198800Y-73819D01*
X199267Y-73619D01*
X201333D01*
G01X193267Y-76819D02*
X195933D01*
Y-70819D01*
X193267D01*
G01X194333Y-73718D02*
X195933D01*
G01X190733Y-76819D02*
Y-70819D01*
X189067D01*
X188533Y-71119D01*
X188200Y-71519D01*
X188067Y-72319D01*
X188200Y-73119D01*
X188600Y-73619D01*
X189067Y-73919D01*
X190733D01*
G01X189067D02*
X188067Y-76819D01*
G01X184200Y-77019D02*
X184333Y-76919D01*
Y-76719D01*
X184200Y-76619D01*
X184067Y-76719D01*
Y-76919D01*
X184200Y-77019D01*
G01Y-74319D02*
X184333Y-74219D01*
Y-74019D01*
X184200Y-73919D01*
X184067Y-74019D01*
Y-74219D01*
X184200Y-74319D01*
G01X258333Y-54319D02*
Y-48319D01*
X256733D01*
X256200Y-48619D01*
X255800Y-49319D01*
X255667Y-50119D01*
X255800Y-50919D01*
X256133Y-51519D01*
X256733Y-51819D01*
X258333D01*
G01X253133Y-54319D02*
Y-48319D01*
X251467D01*
X250933Y-48619D01*
X250600Y-49019D01*
X250467Y-49819D01*
X250600Y-50619D01*
X251000Y-51119D01*
X251467Y-51419D01*
X253133D01*
G01X251467D02*
X250467Y-54319D01*
G01X246600D02*
X247133Y-54219D01*
X247600Y-53819D01*
X248000Y-53219D01*
X248267Y-52519D01*
X248400Y-51719D01*
Y-50919D01*
X248267Y-50119D01*
X248000Y-49418D01*
X247600Y-48819D01*
X247133Y-48419D01*
X246600Y-48319D01*
X246067Y-48419D01*
X245600Y-48819D01*
X245200Y-49418D01*
X244933Y-50119D01*
X244800Y-50919D01*
Y-51719D01*
X244933Y-52519D01*
X245200Y-53219D01*
X245600Y-53819D01*
X246067Y-54219D01*
X246600Y-54319D01*
G01X242733Y-53119D02*
X242400Y-53719D01*
X242000Y-54119D01*
X241533Y-54319D01*
X241000Y-54119D01*
X240600Y-53719D01*
X240200Y-53119D01*
X240067Y-52319D01*
Y-48319D01*
G01X234867Y-54319D02*
X237533D01*
Y-48319D01*
X234867D01*
G01X235933Y-51218D02*
X237533D01*
G01X229533Y-48819D02*
X229933Y-48519D01*
X230400Y-48319D01*
X230933D01*
X231533Y-48619D01*
X232000Y-49119D01*
X232333Y-49719D01*
X232600Y-50719D01*
X232667Y-51619D01*
X232533Y-52519D01*
X232333Y-53119D01*
X231933Y-53719D01*
X231467Y-54119D01*
X231000Y-54319D01*
X230533D01*
X230067Y-54119D01*
X229667Y-53819D01*
X229333Y-53419D01*
G01X225800Y-48319D02*
Y-54319D01*
G01X227333Y-48319D02*
X224267D01*
G01X216933Y-54319D02*
Y-48319D01*
X213867Y-54319D01*
Y-48319D01*
G01X211867Y-54319D02*
X210200Y-48319D01*
X208533Y-54319D01*
G01X209133Y-52219D02*
X211267D01*
G01X206733Y-54319D02*
Y-48319D01*
X205000Y-53319D01*
X203267Y-48319D01*
Y-54319D01*
G01X198467D02*
X201133D01*
Y-48319D01*
X198467D01*
G01X199533Y-51218D02*
X201133D01*
G01X194600Y-54519D02*
X194733Y-54419D01*
Y-54219D01*
X194600Y-54119D01*
X194467Y-54219D01*
Y-54419D01*
X194600Y-54519D01*
G01Y-51819D02*
X194733Y-51719D01*
Y-51519D01*
X194600Y-51419D01*
X194467Y-51519D01*
Y-51719D01*
X194600Y-51819D01*
G01X255533Y-18819D02*
X255933Y-18519D01*
X256400Y-18319D01*
X256933D01*
X257533Y-18619D01*
X258000Y-19119D01*
X258333Y-19719D01*
X258600Y-20719D01*
X258667Y-21619D01*
X258533Y-22519D01*
X258333Y-23119D01*
X257933Y-23719D01*
X257467Y-24119D01*
X257000Y-24319D01*
X256533D01*
X256067Y-24119D01*
X255667Y-23819D01*
X255333Y-23419D01*
G01X251800Y-24319D02*
X252333Y-24219D01*
X252800Y-23819D01*
X253200Y-23219D01*
X253467Y-22519D01*
X253600Y-21719D01*
Y-20919D01*
X253467Y-20119D01*
X253200Y-19418D01*
X252800Y-18819D01*
X252333Y-18419D01*
X251800Y-18319D01*
X251267Y-18419D01*
X250800Y-18819D01*
X250400Y-19418D01*
X250133Y-20119D01*
X250000Y-20919D01*
Y-21719D01*
X250133Y-22519D01*
X250400Y-23219D01*
X250800Y-23819D01*
X251267Y-24219D01*
X251800Y-24319D01*
G01X248333D02*
Y-18319D01*
X246600Y-23319D01*
X244867Y-18319D01*
Y-24319D01*
G01X242733D02*
Y-18319D01*
X241133D01*
X240600Y-18619D01*
X240200Y-19319D01*
X240067Y-20119D01*
X240200Y-20919D01*
X240533Y-21519D01*
X241133Y-21819D01*
X242733D01*
G01X237867Y-24319D02*
X236200Y-18319D01*
X234533Y-24319D01*
G01X235133Y-22219D02*
X237267D01*
G01X232533Y-24319D02*
Y-18319D01*
X229467Y-24319D01*
Y-18319D01*
G01X225800Y-24319D02*
Y-21619D01*
X227133Y-18319D01*
G01X224467D02*
X225800Y-21619D01*
G01X216933Y-24319D02*
Y-18319D01*
X213867Y-24319D01*
Y-18319D01*
G01X211867Y-24319D02*
X210200Y-18319D01*
X208533Y-24319D01*
G01X209133Y-22219D02*
X211267D01*
G01X206733Y-24319D02*
Y-18319D01*
X205000Y-23319D01*
X203267Y-18319D01*
Y-24319D01*
G01X198467D02*
X201133D01*
Y-18319D01*
X198467D01*
G01X199533Y-21218D02*
X201133D01*
G01X194600Y-24519D02*
X194733Y-24419D01*
Y-24219D01*
X194600Y-24119D01*
X194467Y-24219D01*
Y-24419D01*
X194600Y-24519D01*
G01Y-21819D02*
X194733Y-21719D01*
Y-21519D01*
X194600Y-21419D01*
X194467Y-21519D01*
Y-21719D01*
X194600Y-21819D01*
G01X199499Y103000D02*
X193499D01*
G03X189499Y99000I0J-4000D01*
G03X193499Y95000I4000J0D01*
G01X199499D01*
G01X199655Y168000D02*
X193655D01*
G03X189655Y164000I0J-4000D01*
G03X193655Y160000I4000J0D01*
G01X199655D01*
G01X189655Y229000D02*
G03X193655Y225000I4000J0D01*
G01X199655D01*
G01Y233000D02*
X193655D01*
G03X189655Y229000I0J-4000D01*
G01X199655Y298000D02*
X193655D01*
G03X189655Y294000I0J-4000D01*
G03X193655Y290000I4000J0D01*
G01X199655D01*
G01X189655Y294000D02*
G03X193655Y290000I4000J0D01*
G01X199655D01*
G01X238000Y125100D02*
G03X234000Y121100I0J-4000D01*
G01Y115100D01*
G01X242000Y115199D02*
Y121199D01*
G03X238000Y125199I-4000J0D01*
G01X234000Y147900D02*
Y141900D01*
G03X238000Y137900I4000J0D01*
G01Y137999D02*
G03X242000Y141999I0J4000D01*
G01Y147999D01*
G01X238000Y203499D02*
G03X242000Y207499I0J4000D01*
G01Y213499D01*
G01Y180699D02*
Y186699D01*
G03X238000Y190699I-4000J0D01*
G01D02*
G03X234000Y186699I0J-4000D01*
G01Y180699D01*
G01Y213499D02*
Y207499D01*
G03X238000Y203499I4000J0D01*
G01X242000Y245199D02*
Y251199D01*
G03X238000Y255199I-4000J0D01*
G01D02*
G03X234000Y251199I0J-4000D01*
G01Y245199D01*
G01X238000Y267999D02*
G03X242000Y271999I0J4000D01*
G01Y277999D01*
G01X234000D02*
Y271999D01*
G03X238000Y267999I4000J0D01*
G01X339967Y-66819D02*
Y-61819D01*
X338633D01*
X338207Y-62069D01*
X337940Y-62402D01*
X337833Y-63069D01*
X337940Y-63735D01*
X338260Y-64152D01*
X338633Y-64402D01*
X339967D01*
G01X338633D02*
X337833Y-66819D01*
G01X334700D02*
X335127Y-66735D01*
X335500Y-66402D01*
X335820Y-65902D01*
X336033Y-65319D01*
X336140Y-64652D01*
Y-63985D01*
X336033Y-63319D01*
X335820Y-62735D01*
X335500Y-62235D01*
X335127Y-61902D01*
X334700Y-61819D01*
X334273Y-61902D01*
X333900Y-62235D01*
X333580Y-62735D01*
X333367Y-63319D01*
X333260Y-63985D01*
Y-64652D01*
X333367Y-65319D01*
X333580Y-65902D01*
X333900Y-66402D01*
X334273Y-66735D01*
X334700Y-66819D01*
G01X331620D02*
Y-61819D01*
G01X329380D02*
Y-66819D01*
G01Y-64319D02*
X331620D01*
G01X327687Y-66819D02*
Y-61819D01*
X326300Y-65985D01*
X324913Y-61819D01*
Y-66819D01*
G01X319020Y-66152D02*
X318593Y-66569D01*
X318113Y-66819D01*
X317687D01*
X317260Y-66569D01*
X316940Y-66152D01*
X316780Y-65569D01*
X316887Y-64985D01*
X317153Y-64485D01*
X317633Y-64152D01*
X318273Y-63985D01*
X318647Y-63652D01*
X318807Y-63069D01*
X318700Y-62485D01*
X318433Y-62069D01*
X318060Y-61819D01*
X317687D01*
X317313Y-61985D01*
X316993Y-62402D01*
G01X312633Y-66819D02*
X314767D01*
Y-61819D01*
X312633D01*
G01X313487Y-64235D02*
X314767D01*
G01X310887Y-66819D02*
Y-61819D01*
X309500Y-65985D01*
X308113Y-61819D01*
Y-66819D01*
G01X305940Y-61819D02*
X304660D01*
G01X305300D02*
Y-66819D01*
G01X305940D02*
X304660D01*
G01X299927Y-62235D02*
X300247Y-61985D01*
X300620Y-61819D01*
X301047D01*
X301527Y-62069D01*
X301900Y-62485D01*
X302167Y-62985D01*
X302380Y-63819D01*
X302433Y-64569D01*
X302327Y-65319D01*
X302167Y-65819D01*
X301847Y-66319D01*
X301473Y-66652D01*
X301100Y-66819D01*
X300727D01*
X300353Y-66652D01*
X300033Y-66402D01*
X299767Y-66069D01*
G01X296900Y-66819D02*
X297327Y-66735D01*
X297700Y-66402D01*
X298020Y-65902D01*
X298233Y-65319D01*
X298340Y-64652D01*
Y-63985D01*
X298233Y-63319D01*
X298020Y-62735D01*
X297700Y-62235D01*
X297327Y-61902D01*
X296900Y-61819D01*
X296473Y-61902D01*
X296100Y-62235D01*
X295780Y-62735D01*
X295567Y-63319D01*
X295460Y-63985D01*
Y-64652D01*
X295567Y-65319D01*
X295780Y-65902D01*
X296100Y-66402D01*
X296473Y-66735D01*
X296900Y-66819D01*
G01X293927D02*
Y-61819D01*
X291473Y-66819D01*
Y-61819D01*
G01X289673Y-66819D02*
Y-61819D01*
X288607D01*
X288180Y-62069D01*
X287860Y-62402D01*
X287593Y-62902D01*
X287380Y-63485D01*
X287327Y-64319D01*
X287380Y-65152D01*
X287593Y-65735D01*
X287860Y-66235D01*
X288180Y-66569D01*
X288607Y-66819D01*
X289673D01*
G01X285473Y-61819D02*
Y-65402D01*
X285260Y-66152D01*
X284833Y-66652D01*
X284300Y-66819D01*
X283767Y-66652D01*
X283340Y-66152D01*
X283127Y-65402D01*
Y-61819D01*
G01X278927Y-62235D02*
X279247Y-61985D01*
X279620Y-61819D01*
X280047D01*
X280527Y-62069D01*
X280900Y-62485D01*
X281167Y-62985D01*
X281380Y-63819D01*
X281433Y-64569D01*
X281327Y-65319D01*
X281167Y-65819D01*
X280847Y-66319D01*
X280473Y-66652D01*
X280100Y-66819D01*
X279727D01*
X279353Y-66652D01*
X279033Y-66402D01*
X278767Y-66069D01*
G01X275900Y-61819D02*
Y-66819D01*
G01X277127Y-61819D02*
X274673D01*
G01X271700Y-66819D02*
X272127Y-66735D01*
X272500Y-66402D01*
X272820Y-65902D01*
X273033Y-65319D01*
X273140Y-64652D01*
Y-63985D01*
X273033Y-63319D01*
X272820Y-62735D01*
X272500Y-62235D01*
X272127Y-61902D01*
X271700Y-61819D01*
X271273Y-61902D01*
X270900Y-62235D01*
X270580Y-62735D01*
X270367Y-63319D01*
X270260Y-63985D01*
Y-64652D01*
X270367Y-65319D01*
X270580Y-65902D01*
X270900Y-66402D01*
X271273Y-66735D01*
X271700Y-66819D01*
G01X268567D02*
Y-61819D01*
X267233D01*
X266807Y-62069D01*
X266540Y-62402D01*
X266433Y-63069D01*
X266540Y-63735D01*
X266860Y-64152D01*
X267233Y-64402D01*
X268567D01*
G01X267233D02*
X266433Y-66819D01*
G01X261500Y-16819D02*
Y-91819D01*
G01Y-68819D02*
X379000D01*
G01X261500Y-79819D02*
X379000D01*
G01X372750Y-40819D02*
X372083Y-41444D01*
X371333Y-41819D01*
X370667D01*
X370000Y-41444D01*
X369500Y-40819D01*
X369250Y-39944D01*
X369417Y-39069D01*
X369833Y-38319D01*
X370583Y-37818D01*
X371583Y-37569D01*
X372167Y-37069D01*
X372417Y-36194D01*
X372250Y-35319D01*
X371833Y-34694D01*
X371250Y-34319D01*
X370667D01*
X370083Y-34568D01*
X369583Y-35194D01*
G01X362833Y-41819D02*
X366167D01*
Y-34319D01*
X362833D01*
G01X364167Y-37944D02*
X366167D01*
G01X356167Y-34944D02*
X356667Y-34568D01*
X357250Y-34319D01*
X357917D01*
X358667Y-34694D01*
X359250Y-35319D01*
X359667Y-36069D01*
X360000Y-37319D01*
X360083Y-38444D01*
X359917Y-39569D01*
X359667Y-40319D01*
X359167Y-41069D01*
X358583Y-41569D01*
X358000Y-41819D01*
X357417D01*
X356833Y-41569D01*
X356333Y-41194D01*
X355917Y-40694D01*
G01X351500Y-41819D02*
X352167Y-41694D01*
X352750Y-41194D01*
X353250Y-40444D01*
X353583Y-39569D01*
X353750Y-38569D01*
Y-37569D01*
X353583Y-36569D01*
X353250Y-35694D01*
X352750Y-34944D01*
X352167Y-34444D01*
X351500Y-34319D01*
X350833Y-34444D01*
X350250Y-34944D01*
X349750Y-35694D01*
X349417Y-36569D01*
X349250Y-37569D01*
Y-38569D01*
X349417Y-39569D01*
X349750Y-40444D01*
X350250Y-41194D01*
X350833Y-41694D01*
X351500Y-41819D01*
G01X346917D02*
Y-34319D01*
X343083Y-41819D01*
Y-34319D01*
G01X340333Y-41819D02*
Y-34319D01*
X338667D01*
X338000Y-34694D01*
X337500Y-35194D01*
X337083Y-35944D01*
X336750Y-36819D01*
X336667Y-38069D01*
X336750Y-39319D01*
X337083Y-40194D01*
X337500Y-40944D01*
X338000Y-41444D01*
X338667Y-41819D01*
X340333D01*
G01X334083D02*
X332000Y-34319D01*
X329917Y-41819D01*
G01X330667Y-39194D02*
X333333D01*
G01X327167Y-41819D02*
Y-34319D01*
X325083D01*
X324417Y-34694D01*
X324000Y-35194D01*
X323833Y-36194D01*
X324000Y-37194D01*
X324500Y-37818D01*
X325083Y-38194D01*
X327167D01*
G01X325083D02*
X323833Y-41819D01*
G01X319000D02*
Y-38444D01*
X320667Y-34319D01*
G01X317333D02*
X319000Y-38444D01*
G01X313583Y-39319D02*
X311417D01*
G01X307750Y-40819D02*
X307083Y-41444D01*
X306333Y-41819D01*
X305667D01*
X305000Y-41444D01*
X304500Y-40819D01*
X304250Y-39944D01*
X304417Y-39069D01*
X304833Y-38319D01*
X305583Y-37818D01*
X306583Y-37569D01*
X307167Y-37069D01*
X307417Y-36194D01*
X307250Y-35319D01*
X306833Y-34694D01*
X306250Y-34319D01*
X305667D01*
X305083Y-34568D01*
X304583Y-35194D01*
G01X300500Y-34319D02*
X298500D01*
G01X299500D02*
Y-41819D01*
G01X300500D02*
X298500D01*
G01X294833D02*
Y-34319D01*
X293167D01*
X292500Y-34694D01*
X292000Y-35194D01*
X291583Y-35944D01*
X291250Y-36819D01*
X291167Y-38069D01*
X291250Y-39319D01*
X291583Y-40194D01*
X292000Y-40944D01*
X292500Y-41444D01*
X293167Y-41819D01*
X294833D01*
G01X284833D02*
X288167D01*
Y-34319D01*
X284833D01*
G01X286167Y-37944D02*
X288167D01*
G01X261500Y-57819D02*
X379000D01*
G01X261500Y-46819D02*
X379000D01*
G01X346413Y-73652D02*
X346093Y-73152D01*
X345720Y-72902D01*
X345293Y-72819D01*
X344760Y-72985D01*
X344387Y-73402D01*
X344280Y-73902D01*
X344333Y-74402D01*
X344547Y-74819D01*
X345613Y-75652D01*
X346093Y-76235D01*
X346413Y-77069D01*
X346520Y-77819D01*
X344280D01*
G01X341200Y-72819D02*
X341627Y-72985D01*
X341947Y-73402D01*
X342160Y-73902D01*
X342320Y-74569D01*
X342373Y-75319D01*
X342320Y-76069D01*
X342160Y-76735D01*
X341947Y-77235D01*
X341627Y-77652D01*
X341200Y-77819D01*
X340773Y-77652D01*
X340453Y-77235D01*
X340240Y-76735D01*
X340080Y-76069D01*
X340027Y-75319D01*
X340080Y-74569D01*
X340240Y-73902D01*
X340453Y-73402D01*
X340773Y-72985D01*
X341200Y-72819D01*
G01X337000Y-77819D02*
Y-72819D01*
X337640Y-73818D01*
G01Y-77819D02*
X336360D01*
G01X332160D02*
Y-72819D01*
X334133Y-76402D01*
X331467D01*
G01X329293Y-76152D02*
X327907D01*
G01X324400Y-72819D02*
X324827Y-72985D01*
X325147Y-73402D01*
X325360Y-73902D01*
X325520Y-74569D01*
X325573Y-75319D01*
X325520Y-76069D01*
X325360Y-76735D01*
X325147Y-77235D01*
X324827Y-77652D01*
X324400Y-77819D01*
X323973Y-77652D01*
X323653Y-77235D01*
X323440Y-76735D01*
X323280Y-76069D01*
X323227Y-75319D01*
X323280Y-74569D01*
X323440Y-73902D01*
X323653Y-73402D01*
X323973Y-72985D01*
X324400Y-72819D01*
G01X320200Y-77819D02*
X319827Y-77735D01*
X319400Y-77485D01*
X319133Y-77069D01*
X319027Y-76485D01*
X319133Y-75902D01*
X319453Y-75402D01*
X319933Y-75152D01*
X320467D01*
X320787Y-74985D01*
X321053Y-74569D01*
X321160Y-73985D01*
X321000Y-73402D01*
X320627Y-72985D01*
X320200Y-72819D01*
X319773Y-72985D01*
X319400Y-73402D01*
X319240Y-73985D01*
X319347Y-74569D01*
X319613Y-74985D01*
X319933Y-75152D01*
X320467D01*
X320947Y-75402D01*
X321267Y-75902D01*
X321373Y-76485D01*
X321267Y-77069D01*
X321000Y-77485D01*
X320573Y-77735D01*
X320200Y-77819D01*
G01X316693Y-76152D02*
X315307D01*
G01X311800Y-77819D02*
Y-72819D01*
X312440Y-73818D01*
G01Y-77819D02*
X311160D01*
G01X308773Y-76819D02*
X308453Y-77402D01*
X308027Y-77735D01*
X307547Y-77819D01*
X307120Y-77735D01*
X306693Y-77319D01*
X306427Y-76819D01*
X306373Y-76319D01*
X306480Y-75735D01*
X306853Y-75319D01*
X307227Y-75152D01*
X307707D01*
G01X307227D02*
X306907Y-74902D01*
X306640Y-74485D01*
X306533Y-73985D01*
X306640Y-73485D01*
X306907Y-73069D01*
X307387Y-72819D01*
X307867Y-72902D01*
X308347Y-73235D01*
G01X333467Y-55819D02*
Y-50819D01*
X332187D01*
X331760Y-51069D01*
X331440Y-51652D01*
X331333Y-52319D01*
X331440Y-52985D01*
X331707Y-53485D01*
X332187Y-53735D01*
X333467D01*
G01X328200Y-50819D02*
Y-55819D01*
G01X329427Y-50819D02*
X326973D01*
G01X325120Y-55819D02*
Y-50819D01*
G01X322880D02*
Y-55819D01*
G01Y-53319D02*
X325120D01*
G01X321133Y-50819D02*
X319800Y-55819D01*
X318467Y-50819D01*
G01X316773Y-55819D02*
Y-50819D01*
X315707D01*
X315280Y-51069D01*
X314960Y-51402D01*
X314693Y-51902D01*
X314480Y-52485D01*
X314427Y-53319D01*
X314480Y-54152D01*
X314693Y-54735D01*
X314960Y-55235D01*
X315280Y-55569D01*
X315707Y-55819D01*
X316773D01*
G01X310227Y-51235D02*
X310547Y-50985D01*
X310920Y-50819D01*
X311347D01*
X311827Y-51069D01*
X312200Y-51485D01*
X312467Y-51985D01*
X312680Y-52819D01*
X312733Y-53569D01*
X312627Y-54319D01*
X312467Y-54819D01*
X312147Y-55319D01*
X311773Y-55652D01*
X311400Y-55819D01*
X311027D01*
X310653Y-55652D01*
X310333Y-55402D01*
X310067Y-55069D01*
G01X371750Y-28319D02*
X371083Y-28944D01*
X370333Y-29319D01*
X369667D01*
X369000Y-28944D01*
X368500Y-28319D01*
X368250Y-27444D01*
X368417Y-26569D01*
X368833Y-25819D01*
X369583Y-25318D01*
X370583Y-25069D01*
X371167Y-24569D01*
X371417Y-23694D01*
X371250Y-22819D01*
X370833Y-22194D01*
X370250Y-21819D01*
X369667D01*
X369083Y-22069D01*
X368583Y-22694D01*
G01X363500Y-29319D02*
X364167Y-29194D01*
X364750Y-28694D01*
X365250Y-27944D01*
X365583Y-27069D01*
X365750Y-26069D01*
Y-25069D01*
X365583Y-24069D01*
X365250Y-23194D01*
X364750Y-22444D01*
X364167Y-21944D01*
X363500Y-21819D01*
X362833Y-21944D01*
X362250Y-22444D01*
X361750Y-23194D01*
X361417Y-24069D01*
X361250Y-25069D01*
Y-26069D01*
X361417Y-27069D01*
X361750Y-27944D01*
X362250Y-28694D01*
X362833Y-29194D01*
X363500Y-29319D01*
G01X358667Y-21819D02*
Y-29319D01*
X355333D01*
G01X352333D02*
Y-21819D01*
X350667D01*
X350000Y-22194D01*
X349500Y-22694D01*
X349083Y-23444D01*
X348750Y-24319D01*
X348667Y-25569D01*
X348750Y-26819D01*
X349083Y-27694D01*
X349500Y-28444D01*
X350000Y-28944D01*
X350667Y-29319D01*
X352333D01*
G01X342333D02*
X345667D01*
Y-21819D01*
X342333D01*
G01X343667Y-25444D02*
X345667D01*
G01X339167Y-29319D02*
Y-21819D01*
X337083D01*
X336417Y-22194D01*
X336000Y-22694D01*
X335833Y-23694D01*
X336000Y-24694D01*
X336500Y-25318D01*
X337083Y-25694D01*
X339167D01*
G01X337083D02*
X335833Y-29319D01*
G01X333167D02*
Y-21819D01*
X331000Y-28069D01*
X328833Y-21819D01*
Y-29319D01*
G01X326583D02*
X324500Y-21819D01*
X322417Y-29319D01*
G01X323167Y-26694D02*
X325833D01*
G01X319750Y-28319D02*
X319083Y-28944D01*
X318333Y-29319D01*
X317667D01*
X317000Y-28944D01*
X316500Y-28319D01*
X316250Y-27444D01*
X316417Y-26569D01*
X316833Y-25819D01*
X317583Y-25318D01*
X318583Y-25069D01*
X319167Y-24569D01*
X319417Y-23694D01*
X319250Y-22819D01*
X318833Y-22194D01*
X318250Y-21819D01*
X317667D01*
X317083Y-22069D01*
X316583Y-22694D01*
G01X313333Y-29319D02*
Y-21819D01*
G01X310167D02*
X313333Y-26444D01*
G01X309667Y-29319D02*
X311917Y-24319D01*
G01X371227Y-62235D02*
X371547Y-61985D01*
X371920Y-61819D01*
X372347D01*
X372827Y-62069D01*
X373200Y-62485D01*
X373467Y-62985D01*
X373680Y-63819D01*
X373733Y-64569D01*
X373627Y-65319D01*
X373467Y-65819D01*
X373147Y-66319D01*
X372773Y-66652D01*
X372400Y-66819D01*
X372027D01*
X371653Y-66652D01*
X371333Y-66402D01*
X371067Y-66069D01*
G01X369320Y-66819D02*
Y-61819D01*
G01X367080D02*
Y-66819D01*
G01Y-64319D02*
X369320D01*
G01X362933Y-66819D02*
X365067D01*
Y-61819D01*
X362933D01*
G01X363787Y-64235D02*
X365067D01*
G01X358627Y-62235D02*
X358947Y-61985D01*
X359320Y-61819D01*
X359747D01*
X360227Y-62069D01*
X360600Y-62485D01*
X360867Y-62985D01*
X361080Y-63819D01*
X361133Y-64569D01*
X361027Y-65319D01*
X360867Y-65819D01*
X360547Y-66319D01*
X360173Y-66652D01*
X359800Y-66819D01*
X359427D01*
X359053Y-66652D01*
X358733Y-66402D01*
X358467Y-66069D01*
G01X356773Y-66819D02*
Y-61819D01*
G01X354747D02*
X356773Y-64902D01*
G01X354427Y-66819D02*
X355867Y-63485D01*
G01X350333Y-66819D02*
X352467D01*
Y-61819D01*
X350333D01*
G01X351187Y-64235D02*
X352467D01*
G01X348267Y-66819D02*
Y-61819D01*
X346933D01*
X346507Y-62069D01*
X346240Y-62402D01*
X346133Y-63069D01*
X346240Y-63735D01*
X346560Y-64152D01*
X346933Y-64402D01*
X348267D01*
G01X346933D02*
X346133Y-66819D01*
G01X343000Y-66985D02*
X343107Y-66902D01*
Y-66735D01*
X343000Y-66652D01*
X342893Y-66735D01*
Y-66902D01*
X343000Y-66985D01*
G01Y-64735D02*
X343107Y-64652D01*
Y-64485D01*
X343000Y-64402D01*
X342893Y-64485D01*
Y-64652D01*
X343000Y-64735D01*
G01X373467Y-87819D02*
X373200Y-88319D01*
X372880Y-88652D01*
X372507Y-88819D01*
X372080Y-88652D01*
X371760Y-88319D01*
X371440Y-87819D01*
X371333Y-87152D01*
Y-83819D01*
G01X368200Y-88819D02*
X368627Y-88735D01*
X369000Y-88402D01*
X369320Y-87902D01*
X369533Y-87319D01*
X369640Y-86652D01*
Y-85985D01*
X369533Y-85319D01*
X369320Y-84735D01*
X369000Y-84235D01*
X368627Y-83902D01*
X368200Y-83819D01*
X367773Y-83902D01*
X367400Y-84235D01*
X367080Y-84735D01*
X366867Y-85319D01*
X366760Y-85985D01*
Y-86652D01*
X366867Y-87319D01*
X367080Y-87902D01*
X367400Y-88402D01*
X367773Y-88735D01*
X368200Y-88819D01*
G01X363573Y-86152D02*
X363360Y-85902D01*
X363200Y-85485D01*
X363093Y-84902D01*
X363200Y-84402D01*
X363413Y-84069D01*
X363787Y-83819D01*
X365227D01*
Y-88819D01*
X363467D01*
X363093Y-88485D01*
X362880Y-87985D01*
X362773Y-87402D01*
X362880Y-86819D01*
X363200Y-86319D01*
X363573Y-86152D01*
X365227D01*
G01X360867Y-90485D02*
X359800Y-83819D01*
G01X358733D02*
X359800Y-90485D01*
G01X361400Y-87985D02*
X358200D01*
G01Y-86319D02*
X361400D01*
G01X355600Y-88985D02*
X355707Y-88902D01*
Y-88735D01*
X355600Y-88652D01*
X355493Y-88735D01*
Y-88902D01*
X355600Y-88985D01*
G01Y-86735D02*
X355707Y-86652D01*
Y-86485D01*
X355600Y-86402D01*
X355493Y-86485D01*
Y-86652D01*
X355600Y-86735D01*
G01X372573Y-77819D02*
Y-72819D01*
X371507D01*
X371080Y-73069D01*
X370760Y-73402D01*
X370493Y-73902D01*
X370280Y-74485D01*
X370227Y-75319D01*
X370280Y-76152D01*
X370493Y-76735D01*
X370760Y-77235D01*
X371080Y-77569D01*
X371507Y-77819D01*
X372573D01*
G01X368533D02*
X367200Y-72819D01*
X365867Y-77819D01*
G01X366347Y-76069D02*
X368053D01*
G01X363000Y-72819D02*
Y-77819D01*
G01X364227Y-72819D02*
X361773D01*
G01X357733Y-77819D02*
X359867D01*
Y-72819D01*
X357733D01*
G01X358587Y-75235D02*
X359867D01*
G01X354600Y-77985D02*
X354707Y-77902D01*
Y-77735D01*
X354600Y-77652D01*
X354493Y-77735D01*
Y-77902D01*
X354600Y-77985D01*
G01Y-75735D02*
X354707Y-75652D01*
Y-75485D01*
X354600Y-75402D01*
X354493Y-75485D01*
Y-75652D01*
X354600Y-75735D01*
G01X373573Y-55819D02*
Y-50819D01*
X372507D01*
X372080Y-51069D01*
X371760Y-51402D01*
X371493Y-51902D01*
X371280Y-52485D01*
X371227Y-53319D01*
X371280Y-54152D01*
X371493Y-54735D01*
X371760Y-55235D01*
X372080Y-55569D01*
X372507Y-55819D01*
X373573D01*
G01X367133D02*
X369267D01*
Y-50819D01*
X367133D01*
G01X367987Y-53235D02*
X369267D01*
G01X365120Y-55152D02*
X364693Y-55569D01*
X364213Y-55819D01*
X363787D01*
X363360Y-55569D01*
X363040Y-55152D01*
X362880Y-54569D01*
X362987Y-53985D01*
X363253Y-53485D01*
X363733Y-53152D01*
X364373Y-52985D01*
X364747Y-52652D01*
X364907Y-52069D01*
X364800Y-51485D01*
X364533Y-51069D01*
X364160Y-50819D01*
X363787D01*
X363413Y-50985D01*
X363093Y-51402D01*
G01X360440Y-50819D02*
X359160D01*
G01X359800D02*
Y-55819D01*
G01X360440D02*
X359160D01*
G01X355280Y-53319D02*
X354213D01*
Y-54819D01*
X354533Y-55319D01*
X354907Y-55652D01*
X355440Y-55819D01*
X355973Y-55652D01*
X356347Y-55319D01*
X356667Y-54819D01*
X356880Y-54235D01*
X356987Y-53569D01*
Y-52985D01*
X356880Y-52485D01*
X356667Y-51902D01*
X356347Y-51402D01*
X356027Y-51069D01*
X355600Y-50819D01*
X355227D01*
X354800Y-50985D01*
X354480Y-51319D01*
G01X352627Y-55819D02*
Y-50819D01*
X350173Y-55819D01*
Y-50819D01*
G01X346133Y-55819D02*
X348267D01*
Y-50819D01*
X346133D01*
G01X346987Y-53235D02*
X348267D01*
G01X344067Y-55819D02*
Y-50819D01*
X342733D01*
X342307Y-51069D01*
X342040Y-51402D01*
X341933Y-52069D01*
X342040Y-52735D01*
X342360Y-53152D01*
X342733Y-53402D01*
X344067D01*
G01X342733D02*
X341933Y-55819D01*
G01X338800Y-55985D02*
X338907Y-55902D01*
Y-55735D01*
X338800Y-55652D01*
X338693Y-55735D01*
Y-55902D01*
X338800Y-55985D01*
G01Y-53735D02*
X338907Y-53652D01*
Y-53485D01*
X338800Y-53402D01*
X338693Y-53485D01*
Y-53652D01*
X338800Y-53735D01*
G01X414565Y-67469D02*
G03I-355J0D01*
G01X415185Y-65819D02*
G03I-355J0D01*
G01X415015Y-65799D02*
G03I-355J0D01*
G01X379000Y-16819D02*
Y-91819D01*
G01X414855Y-65749D02*
G03I-355J0D01*
G01X414705Y-65679D02*
G03I-355J0D01*
G01X414575Y-65569D02*
G03I-355J0D01*
G01X414555Y-64389D02*
G03I-355J0D01*
G01X414685Y-64289D02*
G03I-355J0D01*
G01X414815Y-64219D02*
G03I-355J0D01*
G01X414965Y-64179D02*
G03I-355J0D01*
G01X415125Y-64159D02*
G03I-355J0D01*
G01X414465Y-65439D02*
G03I-355J0D01*
G01X414395Y-65289D02*
G03I-355J0D01*
G01X414345Y-65129D02*
G03I-355J0D01*
G01X414325Y-64959D02*
G03I-355J0D01*
G01X414345Y-64799D02*
G03I-355J0D01*
G01X414385Y-64649D02*
G03I-355J0D01*
G01X414455Y-64519D02*
G03I-355J0D01*
G01X414485Y-48799D02*
G03I-355J0D01*
G01X414855Y-48109D02*
G03I-355J0D01*
G01X415195Y-47739D02*
G03I-355J0D01*
G01X414815Y-48149D02*
G03I-355J0D01*
G01X414535Y-48629D02*
G03I-355J0D01*
G01X414325Y-51579D02*
G03I-355J0D01*
G01Y-50889D02*
G03I-355J0D01*
G01Y-50189D02*
G03I-355J0D01*
G01X414345Y-49499D02*
G03I-355J0D01*
G01X414325Y-49709D02*
G03I-355J0D01*
G01X414375Y-49159D02*
G03I-355J0D01*
G01X414325Y-59669D02*
G03I-355J0D01*
G01Y-59219D02*
G03I-355J0D01*
G01Y-58519D02*
G03I-355J0D01*
G01Y-57829D02*
G03I-355J0D01*
G01Y-57129D02*
G03I-355J0D01*
G01Y-56439D02*
G03I-355J0D01*
G01Y-55739D02*
G03I-355J0D01*
G01Y-55049D02*
G03I-355J0D01*
G01Y-54359D02*
G03I-355J0D01*
G01Y-53659D02*
G03I-355J0D01*
G01Y-52969D02*
G03I-355J0D01*
G01Y-52269D02*
G03I-355J0D01*
G01X453845Y-67299D02*
G03I-355J0D01*
G01X454025Y-67169D02*
G03I-355J0D01*
G01X454185Y-67009D02*
G03I-355J0D01*
G01X454315Y-66819D02*
G03I-355J0D01*
G01X454405Y-66619D02*
G03I-355J0D01*
G01X454465Y-66399D02*
G03I-355J0D01*
G01X454485Y-66179D02*
G03I-355J0D01*
G01X453195Y-67469D02*
G03I-355J0D01*
G01X453415Y-67449D02*
G03I-355J0D01*
G01X453635Y-67389D02*
G03I-355J0D01*
G01X452085Y-67409D02*
G03I-355J0D01*
G01X452285Y-67449D02*
G03I-355J0D01*
G01X452495Y-67469D02*
G03I-355J0D01*
G01X451315Y-66749D02*
G03I-355J0D01*
G01X451425Y-66929D02*
G03I-355J0D01*
G01X451565Y-67079D02*
G03I-355J0D01*
G01X451715Y-67219D02*
G03I-355J0D01*
G01X451895Y-67329D02*
G03I-355J0D01*
G01X451175Y-66149D02*
G03I-355J0D01*
G01X451195Y-66359D02*
G03I-355J0D01*
G01X451235Y-66559D02*
G03I-355J0D01*
G01X451175Y-66149D02*
G03I-355J0D01*
G01X448815Y-67469D02*
G03I-355J0D01*
G01X446055D02*
G03I-355J0D01*
G01X445505D02*
G03I-355J0D01*
G01X443145D02*
G03I-355J0D01*
G01X441385D02*
G03I-355J0D01*
G01X441185Y-67449D02*
G03I-355J0D01*
G01X440985Y-67409D02*
G03I-355J0D01*
G01X440795Y-67329D02*
G03I-355J0D01*
G01X440615Y-67219D02*
G03I-355J0D01*
G01X440455Y-67089D02*
G03I-355J0D01*
G01X440325Y-66929D02*
G03I-355J0D01*
G01X440215Y-66749D02*
G03I-355J0D01*
G01X440135Y-66559D02*
G03I-355J0D01*
G01X440095Y-66359D02*
G03I-355J0D01*
G01X440075Y-66159D02*
G03I-355J0D01*
G01X437645Y-66649D02*
G03I-355J0D01*
G01X437545Y-66849D02*
G03I-355J0D01*
G01X437705Y-66229D02*
G03I-355J0D01*
G01X437715D02*
G03I-355J0D01*
G01X437695Y-66449D02*
G03I-355J0D01*
G01X437425Y-67029D02*
G03I-355J0D01*
G01X437275Y-67179D02*
G03I-355J0D01*
G01X437095Y-67299D02*
G03I-355J0D01*
G01X436895Y-67399D02*
G03I-355J0D01*
G01X436695Y-67449D02*
G03I-355J0D01*
G01X436475Y-67469D02*
G03I-355J0D01*
G01X435955D02*
G03I-355J0D01*
G01X435725Y-67449D02*
G03I-355J0D01*
G01X435505Y-67389D02*
G03I-355J0D01*
G01X435295Y-67289D02*
G03I-355J0D01*
G01X435115Y-67159D02*
G03I-355J0D01*
G01X434955Y-66999D02*
G03I-355J0D01*
G01X434825Y-66809D02*
G03I-355J0D01*
G01X434725Y-66609D02*
G03I-355J0D01*
G01X434665Y-66389D02*
G03I-355J0D01*
G01X434645Y-66159D02*
G03I-355J0D01*
G01X434635D02*
G03I-355J0D01*
G01X432495Y-66589D02*
G03I-355J0D01*
G01X432455Y-66769D02*
G03I-355J0D01*
G01X432515Y-66399D02*
G03I-355J0D01*
G01X432375Y-66929D02*
G03I-355J0D01*
G01X432265Y-67089D02*
G03I-355J0D01*
G01X432135Y-67219D02*
G03I-355J0D01*
G01X431985Y-67329D02*
G03I-355J0D01*
G01X431815Y-67409D02*
G03I-355J0D01*
G01X431635Y-67449D02*
G03I-355J0D01*
G01X431445Y-67469D02*
G03I-355J0D01*
G01X429675D02*
G03I-355J0D01*
G01X422285Y-67219D02*
G03I-355J0D01*
G01X422445Y-67089D02*
G03I-355J0D01*
G01X422575Y-66929D02*
G03I-355J0D01*
G01X422685Y-66749D02*
G03I-355J0D01*
G01X426375Y-67469D02*
G03I-355J0D01*
G01X422765Y-66559D02*
G03I-355J0D01*
G01X422805Y-66359D02*
G03I-355J0D01*
G01X422825Y-66159D02*
G03I-355J0D01*
G01X421515Y-67469D02*
G03I-355J0D01*
G01X421715Y-67449D02*
G03I-355J0D01*
G01X421915Y-67409D02*
G03I-355J0D01*
G01X422105Y-67329D02*
G03I-355J0D01*
G01X420595Y-67449D02*
G03I-355J0D01*
G01X420825Y-67469D02*
G03I-355J0D01*
G01X419695Y-66819D02*
G03I-355J0D01*
G01X419825Y-67009D02*
G03I-355J0D01*
G01X419985Y-67169D02*
G03I-355J0D01*
G01X420175Y-67299D02*
G03I-355J0D01*
G01X420385Y-67389D02*
G03I-355J0D01*
G01X419605Y-66609D02*
G03I-355J0D01*
G01X419525Y-66169D02*
G03I-355J0D01*
G01X419545Y-66399D02*
G03I-355J0D01*
G01X419525Y-66169D02*
G03I-355J0D01*
G01X417395Y-67469D02*
G03I-355J0D01*
G01Y-65819D02*
G03I-355J0D01*
G01D02*
G03I-355J0D01*
G01X415465D02*
G03I-355J0D01*
G01D02*
G03I-355J0D01*
G01X455005Y-48109D02*
G03I-355J0D01*
G01X454715Y-48249D02*
G03I-355J0D01*
G01X455195Y-48019D02*
G03I-355J0D01*
G01X454725Y-46479D02*
G03I-355J0D01*
G01X454715Y-59639D02*
G03I-355J0D01*
G01X455085Y-58059D02*
G03I-355J0D01*
G01X454485Y-65429D02*
G03I-355J0D01*
G01X454465Y-65209D02*
G03I-355J0D01*
G01X454405Y-64999D02*
G03I-355J0D01*
G01X454315Y-64789D02*
G03I-355J0D01*
G01X454185Y-64609D02*
G03I-355J0D01*
G01X454035Y-64459D02*
G03I-355J0D01*
G01X453845Y-64329D02*
G03I-355J0D01*
G01X453645Y-64239D02*
G03I-355J0D01*
G01X453435Y-64179D02*
G03I-355J0D01*
G01X453215Y-64159D02*
G03I-355J0D01*
G01X452475D02*
G03I-355J0D01*
G01X452245Y-64179D02*
G03I-355J0D01*
G01X452035Y-64239D02*
G03I-355J0D01*
G01X451345Y-64809D02*
G03I-355J0D01*
G01X451255Y-65019D02*
G03I-355J0D01*
G01X451195Y-65229D02*
G03I-355J0D01*
G01X451175Y-65459D02*
G03I-355J0D01*
G01X451825Y-64329D02*
G03I-355J0D01*
G01X451635Y-64459D02*
G03I-355J0D01*
G01X451475Y-64619D02*
G03I-355J0D01*
G01X448815Y-64159D02*
G03I-355J0D01*
G01X448335D02*
G03I-355J0D01*
G01X445505D02*
G03I-355J0D01*
G01X443145D02*
G03I-355J0D01*
G01X440925Y-64239D02*
G03I-355J0D01*
G01X441145Y-64179D02*
G03I-355J0D01*
G01X441365Y-64159D02*
G03I-355J0D01*
G01X440075Y-65449D02*
G03I-355J0D01*
G01X440095Y-65229D02*
G03I-355J0D01*
G01X440155Y-65009D02*
G03I-355J0D01*
G01X440245Y-64799D02*
G03I-355J0D01*
G01X440075Y-65449D02*
G03I-355J0D01*
G01X440375Y-64619D02*
G03I-355J0D01*
G01X440535Y-64459D02*
G03I-355J0D01*
G01X440715Y-64329D02*
G03I-355J0D01*
G01X437705Y-64159D02*
G03I-355J0D01*
G01X434635D02*
G03I-355J0D01*
G01X432495Y-65019D02*
G03I-355J0D01*
G01X432515Y-65199D02*
G03I-355J0D01*
G01X432455Y-64839D02*
G03I-355J0D01*
G01X431655Y-64179D02*
G03I-355J0D01*
G01X431835Y-64219D02*
G03I-355J0D01*
G01X431995Y-64299D02*
G03I-355J0D01*
G01X432145Y-64399D02*
G03I-355J0D01*
G01X432275Y-64529D02*
G03I-355J0D01*
G01X432375Y-64679D02*
G03I-355J0D01*
G01X431475Y-64159D02*
G03I-355J0D01*
G01X429675D02*
G03I-355J0D01*
G01X454035Y-48799D02*
G03I-355J0D01*
G01X453955Y-48869D02*
G03I-355J0D01*
G01X454285Y-48569D02*
G03I-355J0D01*
G01X453875Y-46639D02*
G03I-355J0D01*
G01X453535Y-51579D02*
G03I-355J0D01*
G01Y-50889D02*
G03I-355J0D01*
G01X453625Y-49499D02*
G03I-355J0D01*
G01X453535Y-50189D02*
G03I-355J0D01*
G01Y-50109D02*
G03I-355J0D01*
G01X453575Y-49659D02*
G03I-355J0D01*
G01X453715Y-49239D02*
G03I-355J0D01*
G01X453065Y-46919D02*
G03I-355J0D01*
G01X453635Y-46719D02*
G03I-355J0D01*
G01X452065Y-47419D02*
G03I-355J0D01*
G01X452435Y-47189D02*
G03I-355J0D01*
G01X451225Y-48109D02*
G03I-355J0D01*
G01X451335Y-47979D02*
G03I-355J0D01*
G01X451855Y-47539D02*
G03I-355J0D01*
G01X450465Y-51579D02*
G03I-355J0D01*
G01Y-50889D02*
G03I-355J0D01*
G01X450515Y-49499D02*
G03I-355J0D01*
G01X450465Y-50189D02*
G03I-355J0D01*
G01X450515Y-49519D02*
G03I-355J0D01*
G01X450465Y-50109D02*
G03I-355J0D01*
G01X450755Y-48799D02*
G03I-355J0D01*
G01X450675Y-48949D02*
G03I-355J0D01*
G01X450955Y-48429D02*
G03I-355J0D01*
G01X447155Y-51579D02*
G03I-355J0D01*
G01Y-50889D02*
G03I-355J0D01*
G01Y-50189D02*
G03I-355J0D01*
G01Y-49499D02*
G03I-355J0D01*
G01Y-48799D02*
G03I-355J0D01*
G01Y-48109D02*
G03I-355J0D01*
G01Y-46919D02*
G03I-355J0D01*
G01Y-47419D02*
G03I-355J0D01*
G01X443795Y-51579D02*
G03I-355J0D01*
G01X443855Y-51309D02*
G03I-355J0D01*
G01X443825Y-51519D02*
G03I-355J0D01*
G01X443745Y-51709D02*
G03I-355J0D01*
G01X443855Y-50889D02*
G03I-355J0D01*
G01Y-50189D02*
G03I-355J0D01*
G01Y-49499D02*
G03I-355J0D01*
G01Y-48799D02*
G03I-355J0D01*
G01Y-48109D02*
G03I-355J0D01*
G01Y-46919D02*
G03I-355J0D01*
G01D02*
G03I-355J0D01*
G01Y-47419D02*
G03I-355J0D01*
G01X436815Y-51579D02*
G03I-355J0D01*
G01X436875Y-51719D02*
G03I-355J0D01*
G01X436795Y-51529D02*
G03I-355J0D01*
G01X436765Y-51329D02*
G03I-355J0D01*
G01Y-50889D02*
G03I-355J0D01*
G01Y-49499D02*
G03I-355J0D01*
G01Y-50189D02*
G03I-355J0D01*
G01Y-48799D02*
G03I-355J0D01*
G01Y-48109D02*
G03I-355J0D01*
G01Y-47419D02*
G03I-355J0D01*
G01Y-46919D02*
G03I-355J0D01*
G01X433455Y-51579D02*
G03I-355J0D01*
G01Y-50889D02*
G03I-355J0D01*
G01Y-49499D02*
G03I-355J0D01*
G01Y-50189D02*
G03I-355J0D01*
G01Y-48799D02*
G03I-355J0D01*
G01Y-48109D02*
G03I-355J0D01*
G01Y-47419D02*
G03I-355J0D01*
G01Y-46919D02*
G03I-355J0D01*
G01X429915Y-51579D02*
G03I-355J0D01*
G01Y-50889D02*
G03I-355J0D01*
G01Y-50189D02*
G03I-355J0D01*
G01Y-48799D02*
G03I-355J0D01*
G01Y-49499D02*
G03I-355J0D01*
G01Y-48109D02*
G03I-355J0D01*
G01Y-47419D02*
G03I-355J0D01*
G01Y-46919D02*
G03I-355J0D01*
G01X453815Y-59499D02*
G03I-355J0D01*
G01X454615Y-57829D02*
G03I-355J0D01*
G01X453915Y-57129D02*
G03I-355J0D01*
G01X454555Y-57799D02*
G03I-355J0D01*
G01X454085Y-57429D02*
G03I-355J0D01*
G01X453785Y-56919D02*
G03I-355J0D01*
G01X452895Y-59219D02*
G03I-355J0D01*
G01X452945Y-59239D02*
G03I-355J0D01*
G01X453625Y-56439D02*
G03I-355J0D01*
G01X453595Y-56359D02*
G03I-355J0D01*
G01X453535Y-55739D02*
G03I-355J0D01*
G01Y-55779D02*
G03I-355J0D01*
G01Y-55049D02*
G03I-355J0D01*
G01Y-53659D02*
G03I-355J0D01*
G01Y-54359D02*
G03I-355J0D01*
G01Y-52969D02*
G03I-355J0D01*
G01Y-52269D02*
G03I-355J0D01*
G01X452365Y-58969D02*
G03I-355J0D01*
G01X451735Y-58519D02*
G03I-355J0D01*
G01X451375Y-58179D02*
G03I-355J0D01*
G01X451835Y-58619D02*
G03I-355J0D01*
G01X450635Y-57129D02*
G03I-355J0D01*
G01X451025Y-57829D02*
G03I-355J0D01*
G01X450695Y-57319D02*
G03I-355J0D01*
G01X450985Y-57789D02*
G03I-355J0D01*
G01X450485Y-56439D02*
G03I-355J0D01*
G01X450515Y-56799D02*
G03I-355J0D01*
G01X450465Y-55739D02*
G03I-355J0D01*
G01Y-56249D02*
G03I-355J0D01*
G01Y-55049D02*
G03I-355J0D01*
G01Y-54359D02*
G03I-355J0D01*
G01Y-52969D02*
G03I-355J0D01*
G01Y-53659D02*
G03I-355J0D01*
G01Y-52269D02*
G03I-355J0D01*
G01X447155Y-59669D02*
G03I-355J0D01*
G01X443855D02*
G03I-355J0D01*
G01X436765D02*
G03I-355J0D01*
G01X433455D02*
G03I-355J0D01*
G01X429915D02*
G03I-355J0D01*
G01X447155Y-59219D02*
G03I-355J0D01*
G01Y-58519D02*
G03I-355J0D01*
G01Y-57829D02*
G03I-355J0D01*
G01Y-57129D02*
G03I-355J0D01*
G01Y-56439D02*
G03I-355J0D01*
G01Y-55739D02*
G03I-355J0D01*
G01Y-55049D02*
G03I-355J0D01*
G01Y-54359D02*
G03I-355J0D01*
G01Y-52969D02*
G03I-355J0D01*
G01Y-53659D02*
G03I-355J0D01*
G01Y-52269D02*
G03I-355J0D01*
G01X443855Y-59219D02*
G03I-355J0D01*
G01Y-58519D02*
G03I-355J0D01*
G01Y-57829D02*
G03I-355J0D01*
G01Y-57129D02*
G03I-355J0D01*
G01Y-56439D02*
G03I-355J0D01*
G01Y-55739D02*
G03I-355J0D01*
G01Y-55049D02*
G03I-355J0D01*
G01Y-54549D02*
G03I-355J0D01*
G01X443825Y-54359D02*
G03I-355J0D01*
G01X443625Y-53999D02*
G03I-355J0D01*
G01X443745Y-54159D02*
G03I-355J0D01*
G01X443825Y-54349D02*
G03I-355J0D01*
G01X443615Y-51879D02*
G03I-355J0D01*
G01X443075Y-53769D02*
G03I-355J0D01*
G01X443275Y-53789D02*
G03I-355J0D01*
G01X443465Y-53869D02*
G03I-355J0D01*
G01X443445Y-52009D02*
G03I-355J0D01*
G01X443255Y-52089D02*
G03I-355J0D01*
G01X443045Y-52109D02*
G03I-355J0D01*
G01X437595Y-53769D02*
G03I-355J0D01*
G01X437545Y-52109D02*
G03I-355J0D01*
G01X436765Y-59219D02*
G03I-355J0D01*
G01Y-58519D02*
G03I-355J0D01*
G01Y-57829D02*
G03I-355J0D01*
G01Y-56439D02*
G03I-355J0D01*
G01Y-57129D02*
G03I-355J0D01*
G01Y-55739D02*
G03I-355J0D01*
G01Y-55049D02*
G03I-355J0D01*
G01X436805Y-54359D02*
G03I-355J0D01*
G01X436765Y-54599D02*
G03I-355J0D01*
G01X436795Y-54379D02*
G03I-355J0D01*
G01X436875Y-54179D02*
G03I-355J0D01*
G01X437005Y-54009D02*
G03I-355J0D01*
G01X437175Y-53879D02*
G03I-355J0D01*
G01X437385Y-53799D02*
G03I-355J0D01*
G01X437345Y-52089D02*
G03I-355J0D01*
G01X437155Y-52009D02*
G03I-355J0D01*
G01X436995Y-51889D02*
G03I-355J0D01*
G01X433455Y-59219D02*
G03I-355J0D01*
G01Y-58519D02*
G03I-355J0D01*
G01Y-57129D02*
G03I-355J0D01*
G01Y-57829D02*
G03I-355J0D01*
G01Y-56439D02*
G03I-355J0D01*
G01Y-55739D02*
G03I-355J0D01*
G01Y-55049D02*
G03I-355J0D01*
G01Y-54359D02*
G03I-355J0D01*
G01Y-52969D02*
G03I-355J0D01*
G01Y-53659D02*
G03I-355J0D01*
G01Y-52269D02*
G03I-355J0D01*
G01X429915Y-59219D02*
G03I-355J0D01*
G01Y-58519D02*
G03I-355J0D01*
G01Y-57829D02*
G03I-355J0D01*
G01Y-56439D02*
G03I-355J0D01*
G01Y-57129D02*
G03I-355J0D01*
G01Y-55739D02*
G03I-355J0D01*
G01Y-55049D02*
G03I-355J0D01*
G01Y-54359D02*
G03I-355J0D01*
G01Y-52969D02*
G03I-355J0D01*
G01Y-53659D02*
G03I-355J0D01*
G01Y-52269D02*
G03I-355J0D01*
G01X422665Y-64799D02*
G03I-355J0D01*
G01X422535Y-64619D02*
G03I-355J0D01*
G01X422375Y-64459D02*
G03I-355J0D01*
G01X427785Y-64159D02*
G03I-355J0D01*
G01X426375D02*
G03I-355J0D01*
G01D02*
G03I-355J0D01*
G01X424955D02*
G03I-355J0D01*
G01X422825Y-65449D02*
G03I-355J0D01*
G01X422835D02*
G03I-355J0D01*
G01X422815Y-65229D02*
G03I-355J0D01*
G01X422755Y-65009D02*
G03I-355J0D01*
G01X422185Y-64329D02*
G03I-355J0D01*
G01X421985Y-64239D02*
G03I-355J0D01*
G01X421765Y-64179D02*
G03I-355J0D01*
G01X421545Y-64159D02*
G03I-355J0D01*
G01X420805D02*
G03I-355J0D01*
G01X420585Y-64179D02*
G03I-355J0D01*
G01X420365Y-64239D02*
G03I-355J0D01*
G01X420165Y-64329D02*
G03I-355J0D01*
G01X419985Y-64459D02*
G03I-355J0D01*
G01X419825Y-64619D02*
G03I-355J0D01*
G01X419695Y-64799D02*
G03I-355J0D01*
G01X419605Y-64999D02*
G03I-355J0D01*
G01X419545Y-65219D02*
G03I-355J0D01*
G01X419525Y-65439D02*
G03I-355J0D01*
G01X417395Y-64159D02*
G03I-355J0D01*
G01D02*
G03I-355J0D01*
G01X428365Y-46719D02*
G03I-355J0D01*
G01X426845Y-51579D02*
G03I-355J0D01*
G01Y-50889D02*
G03I-355J0D01*
G01Y-49499D02*
G03I-355J0D01*
G01Y-50189D02*
G03I-355J0D01*
G01X426825Y-48799D02*
G03I-355J0D01*
G01X426815Y-48709D02*
G03I-355J0D01*
G01X426845Y-48929D02*
G03I-355J0D01*
G01X426425Y-48209D02*
G03I-355J0D01*
G01X426605Y-48339D02*
G03I-355J0D01*
G01X426735Y-48509D02*
G03I-355J0D01*
G01X426975Y-46539D02*
G03I-355J0D01*
G01X426095Y-48109D02*
G03I-355J0D01*
G01X426015Y-48099D02*
G03I-355J0D01*
G01X426235Y-48129D02*
G03I-355J0D01*
G01X424495Y-48109D02*
G03I-355J0D01*
G01X423885Y-48499D02*
G03I-355J0D01*
G01X424005Y-48329D02*
G03I-355J0D01*
G01X424175Y-48209D02*
G03I-355J0D01*
G01X424365Y-48129D02*
G03I-355J0D01*
G01X424575Y-48099D02*
G03I-355J0D01*
G01X424005Y-46449D02*
G03I-355J0D01*
G01X423775Y-51579D02*
G03I-355J0D01*
G01Y-50889D02*
G03I-355J0D01*
G01Y-50189D02*
G03I-355J0D01*
G01Y-49499D02*
G03I-355J0D01*
G01X423785Y-48799D02*
G03I-355J0D01*
G01X423775Y-48899D02*
G03I-355J0D01*
G01X423795Y-48689D02*
G03I-355J0D01*
G01X420465Y-51579D02*
G03I-355J0D01*
G01Y-50889D02*
G03I-355J0D01*
G01Y-50189D02*
G03I-355J0D01*
G01Y-49499D02*
G03I-355J0D01*
G01Y-48909D02*
G03I-355J0D01*
G01X420455Y-48799D02*
G03I-355J0D01*
G01X420435Y-48699D02*
G03I-355J0D01*
G01X419735Y-48109D02*
G03I-355J0D01*
G01X419655Y-48099D02*
G03I-355J0D01*
G01X419865Y-48129D02*
G03I-355J0D01*
G01X420055Y-48209D02*
G03I-355J0D01*
G01X420225Y-48339D02*
G03I-355J0D01*
G01X420355Y-48499D02*
G03I-355J0D01*
G01X419675Y-46449D02*
G03I-355J0D01*
G01X418815Y-48109D02*
G03I-355J0D01*
G01X418895Y-48099D02*
G03I-355J0D01*
G01X417905Y-48339D02*
G03I-355J0D01*
G01X418385Y-48169D02*
G03I-355J0D01*
G01X418515Y-46509D02*
G03I-355J0D01*
G01X417395Y-51579D02*
G03I-355J0D01*
G01Y-50889D02*
G03I-355J0D01*
G01Y-50189D02*
G03I-355J0D01*
G01Y-49499D02*
G03I-355J0D01*
G01X417515Y-48799D02*
G03I-355J0D01*
G01X417395Y-49359D02*
G03I-355J0D01*
G01X417425Y-49059D02*
G03I-355J0D01*
G01X417525Y-48779D02*
G03I-355J0D01*
G01X417685Y-48539D02*
G03I-355J0D01*
G01X417215Y-46719D02*
G03I-355J0D01*
G01X417355Y-46679D02*
G03I-355J0D01*
G01X416575Y-46899D02*
G03I-355J0D01*
G01X415845Y-47259D02*
G03I-355J0D01*
G01D02*
G03I-355J0D01*
G01X415635Y-47419D02*
G03I-355J0D01*
G01X426845Y-59669D02*
G03I-355J0D01*
G01X423775D02*
G03I-355J0D01*
G01X426845Y-59219D02*
G03I-355J0D01*
G01Y-58519D02*
G03I-355J0D01*
G01Y-57129D02*
G03I-355J0D01*
G01Y-57829D02*
G03I-355J0D01*
G01Y-56439D02*
G03I-355J0D01*
G01Y-55739D02*
G03I-355J0D01*
G01Y-55049D02*
G03I-355J0D01*
G01Y-53659D02*
G03I-355J0D01*
G01Y-54359D02*
G03I-355J0D01*
G01Y-52969D02*
G03I-355J0D01*
G01Y-52269D02*
G03I-355J0D01*
G01X423775Y-59219D02*
G03I-355J0D01*
G01Y-58519D02*
G03I-355J0D01*
G01Y-57829D02*
G03I-355J0D01*
G01Y-57129D02*
G03I-355J0D01*
G01Y-56439D02*
G03I-355J0D01*
G01Y-55739D02*
G03I-355J0D01*
G01Y-55049D02*
G03I-355J0D01*
G01Y-54359D02*
G03I-355J0D01*
G01Y-53659D02*
G03I-355J0D01*
G01Y-52969D02*
G03I-355J0D01*
G01Y-52269D02*
G03I-355J0D01*
G01X420465Y-59669D02*
G03I-355J0D01*
G01X417395D02*
G03I-355J0D01*
G01X420465Y-59219D02*
G03I-355J0D01*
G01Y-58519D02*
G03I-355J0D01*
G01Y-57829D02*
G03I-355J0D01*
G01Y-57129D02*
G03I-355J0D01*
G01Y-56439D02*
G03I-355J0D01*
G01Y-55739D02*
G03I-355J0D01*
G01Y-55049D02*
G03I-355J0D01*
G01Y-54359D02*
G03I-355J0D01*
G01Y-53659D02*
G03I-355J0D01*
G01Y-52969D02*
G03I-355J0D01*
G01Y-52269D02*
G03I-355J0D01*
G01X417395Y-59219D02*
G03I-355J0D01*
G01Y-58519D02*
G03I-355J0D01*
G01Y-57829D02*
G03I-355J0D01*
G01Y-57129D02*
G03I-355J0D01*
G01Y-56439D02*
G03I-355J0D01*
G01Y-55739D02*
G03I-355J0D01*
G01Y-55049D02*
G03I-355J0D01*
G01Y-54359D02*
G03I-355J0D01*
G01Y-53659D02*
G03I-355J0D01*
G01Y-52969D02*
G03I-355J0D01*
G01Y-52269D02*
G03I-355J0D01*
G01X473145Y-67409D02*
G03I-355J0D01*
G01X472965Y-67449D02*
G03I-355J0D01*
G01X472785Y-67469D02*
G03I-355J0D01*
G01X479285D02*
G03I-355J0D01*
G01X478565Y-65789D02*
G03I-355J0D01*
G01X478395Y-65819D02*
G03I-355J0D01*
G01Y-65809D02*
G03I-355J0D01*
G01X476835Y-67469D02*
G03I-355J0D01*
G01X476775Y-65809D02*
G03I-355J0D01*
G01Y-65819D02*
G03I-355J0D01*
G01X476665Y-67449D02*
G03I-355J0D01*
G01X476505Y-67399D02*
G03I-355J0D01*
G01X476355Y-67329D02*
G03I-355J0D01*
G01X476225Y-67219D02*
G03I-355J0D01*
G01X476115Y-67089D02*
G03I-355J0D01*
G01X476045Y-66939D02*
G03I-355J0D01*
G01X475995Y-66779D02*
G03I-355J0D01*
G01X475975Y-66609D02*
G03I-355J0D01*
G01X475995Y-66449D02*
G03I-355J0D01*
G01X476035Y-66299D02*
G03I-355J0D01*
G01X476105Y-66169D02*
G03I-355J0D01*
G01X476205Y-66039D02*
G03I-355J0D01*
G01X476335Y-65939D02*
G03I-355J0D01*
G01X476465Y-65869D02*
G03I-355J0D01*
G01X476615Y-65829D02*
G03I-355J0D01*
G01X473825Y-66589D02*
G03I-355J0D01*
G01X473785Y-66769D02*
G03I-355J0D01*
G01X473705Y-66939D02*
G03I-355J0D01*
G01X473595Y-67089D02*
G03I-355J0D01*
G01X473465Y-67219D02*
G03I-355J0D01*
G01X473855Y-65819D02*
G03I-355J0D01*
G01D02*
G03I-355J0D01*
G01Y-66409D02*
G03I-355J0D01*
G01X473845D02*
G03I-355J0D01*
G01X473315Y-67329D02*
G03I-355J0D01*
G01X471015Y-67469D02*
G03I-355J0D01*
G01Y-65819D02*
G03I-355J0D01*
G01X468655Y-67469D02*
G03I-355J0D01*
G01X466565D02*
G03I-355J0D01*
G01X464635D02*
G03I-355J0D01*
G01X462045D02*
G03I-355J0D01*
G01X459425Y-66569D02*
G03I-355J0D01*
G01X459375Y-66749D02*
G03I-355J0D01*
G01X459295Y-66919D02*
G03I-355J0D01*
G01X459185Y-67079D02*
G03I-355J0D01*
G01X459055Y-67209D02*
G03I-355J0D01*
G01X458905Y-67319D02*
G03I-355J0D01*
G01X459445Y-66379D02*
G03I-355J0D01*
G01X458725Y-67399D02*
G03I-355J0D01*
G01X458545Y-67449D02*
G03I-355J0D01*
G01X458355Y-67469D02*
G03I-355J0D01*
G01X456605D02*
G03I-355J0D01*
G01X473025Y-64179D02*
G03I-355J0D01*
G01X472825Y-64159D02*
G03I-355J0D01*
G01X478735Y-65739D02*
G03I-355J0D01*
G01X478885Y-65659D02*
G03I-355J0D01*
G01X479025Y-65549D02*
G03I-355J0D01*
G01X479135Y-65409D02*
G03I-355J0D01*
G01X479215Y-65259D02*
G03I-355J0D01*
G01X479265Y-65089D02*
G03I-355J0D01*
G01X479285Y-64919D02*
G03I-355J0D01*
G01X479265Y-64749D02*
G03I-355J0D01*
G01X479205Y-64589D02*
G03I-355J0D01*
G01X479115Y-64449D02*
G03I-355J0D01*
G01X478995Y-64329D02*
G03I-355J0D01*
G01X478855Y-64239D02*
G03I-355J0D01*
G01X478695Y-64179D02*
G03I-355J0D01*
G01X478525Y-64159D02*
G03I-355J0D01*
G01X475975D02*
G03I-355J0D01*
G01X473855Y-65179D02*
G03I-355J0D01*
G01X473845D02*
G03I-355J0D01*
G01X473825Y-64979D02*
G03I-355J0D01*
G01X473765Y-64789D02*
G03I-355J0D01*
G01X473675Y-64609D02*
G03I-355J0D01*
G01X473545Y-64459D02*
G03I-355J0D01*
G01X473395Y-64329D02*
G03I-355J0D01*
G01X473215Y-64239D02*
G03I-355J0D01*
G01X471015Y-64159D02*
G03I-355J0D01*
G01X468655D02*
G03I-355J0D01*
G01X468105D02*
G03I-355J0D01*
G01X465155D02*
G03I-355J0D01*
G01X464635D02*
G03I-355J0D01*
G01X462045D02*
G03I-355J0D01*
G01X459365Y-64829D02*
G03I-355J0D01*
G01X459425Y-65039D02*
G03I-355J0D01*
G01X459445Y-65249D02*
G03I-355J0D01*
G01X458965Y-64339D02*
G03I-355J0D01*
G01X459125Y-64479D02*
G03I-355J0D01*
G01X459265Y-64639D02*
G03I-355J0D01*
G01X458355Y-64159D02*
G03I-355J0D01*
G01X458565Y-64179D02*
G03I-355J0D01*
G01X458775Y-64239D02*
G03I-355J0D01*
G01X456605Y-64159D02*
G03I-355J0D01*
G01X479285Y-51579D02*
G03I-355J0D01*
G01Y-50889D02*
G03I-355J0D01*
G01Y-49499D02*
G03I-355J0D01*
G01Y-50189D02*
G03I-355J0D01*
G01Y-48799D02*
G03I-355J0D01*
G01Y-48109D02*
G03I-355J0D01*
G01Y-47419D02*
G03I-355J0D01*
G01Y-46919D02*
G03I-355J0D01*
G01D02*
G03I-355J0D01*
G01X477945Y-46719D02*
G03I-355J0D01*
G01X477045Y-46589D02*
G03I-355J0D01*
G01X475975Y-51579D02*
G03I-355J0D01*
G01Y-50889D02*
G03I-355J0D01*
G01Y-50189D02*
G03I-355J0D01*
G01Y-48799D02*
G03I-355J0D01*
G01Y-49499D02*
G03I-355J0D01*
G01Y-48639D02*
G03I-355J0D01*
G01X475955Y-48439D02*
G03I-355J0D01*
G01X475765Y-48109D02*
G03I-355J0D01*
G01X475875Y-48249D02*
G03I-355J0D01*
G01X475755Y-48089D02*
G03I-355J0D01*
G01X475585Y-47969D02*
G03I-355J0D01*
G01X475405Y-47889D02*
G03I-355J0D01*
G01X475205Y-47859D02*
G03I-355J0D01*
G01X474795Y-46449D02*
G03I-355J0D01*
G01X472355Y-47859D02*
G03I-355J0D01*
G01X471665Y-47889D02*
G03I-355J0D01*
G01X471765Y-46449D02*
G03I-355J0D01*
G01X470855Y-48109D02*
G03I-355J0D01*
G01X470985Y-48049D02*
G03I-355J0D01*
G01X470035Y-48649D02*
G03I-355J0D01*
G01X469935Y-48799D02*
G03I-355J0D01*
G01X470345Y-48339D02*
G03I-355J0D01*
G01X470095Y-46569D02*
G03I-355J0D01*
G01X469695Y-51579D02*
G03I-355J0D01*
G01X469645Y-51409D02*
G03I-355J0D01*
G01X469595Y-50889D02*
G03I-355J0D01*
G01Y-50969D02*
G03I-355J0D01*
G01Y-50189D02*
G03I-355J0D01*
G01X469645Y-49499D02*
G03I-355J0D01*
G01X469655Y-49429D02*
G03I-355J0D01*
G01X469595Y-49869D02*
G03I-355J0D01*
G01X469805Y-49019D02*
G03I-355J0D01*
G01X469375Y-46719D02*
G03I-355J0D01*
G01X468455Y-46919D02*
G03I-355J0D01*
G01X467665Y-47419D02*
G03I-355J0D01*
G01X467415Y-47619D02*
G03I-355J0D01*
G01X467905Y-47219D02*
G03I-355J0D01*
G01X466535Y-51579D02*
G03I-355J0D01*
G01X466525Y-51519D02*
G03I-355J0D01*
G01Y-50889D02*
G03I-355J0D01*
G01Y-50189D02*
G03I-355J0D01*
G01Y-49499D02*
G03I-355J0D01*
G01X466625Y-48799D02*
G03I-355J0D01*
G01X466525Y-49519D02*
G03I-355J0D01*
G01X466545Y-49139D02*
G03I-355J0D01*
G01X466635Y-48759D02*
G03I-355J0D01*
G01X466995Y-48109D02*
G03I-355J0D01*
G01X466785Y-48409D02*
G03I-355J0D01*
G01X467005Y-48099D02*
G03I-355J0D01*
G01X463455Y-51579D02*
G03I-355J0D01*
G01Y-50889D02*
G03I-355J0D01*
G01Y-50189D02*
G03I-355J0D01*
G01X463425Y-49499D02*
G03I-355J0D01*
G01X463455Y-49829D02*
G03I-355J0D01*
G01X463235Y-48799D02*
G03I-355J0D01*
G01X463285Y-48889D02*
G03I-355J0D01*
G01X463415Y-49349D02*
G03I-355J0D01*
G01X463285Y-48889D02*
G03I-355J0D01*
G01X462775Y-48109D02*
G03I-355J0D01*
G01X463055Y-48469D02*
G03I-355J0D01*
G01X462765Y-48089D02*
G03I-355J0D01*
G01X462395Y-47779D02*
G03I-355J0D01*
G01X461945Y-47419D02*
G03I-355J0D01*
G01X461765Y-47269D02*
G03I-355J0D01*
G01X461055Y-46879D02*
G03I-355J0D01*
G01X460585Y-46719D02*
G03I-355J0D01*
G01X460385Y-51579D02*
G03I-355J0D01*
G01Y-50889D02*
G03I-355J0D01*
G01Y-50189D02*
G03I-355J0D01*
G01X460275Y-49499D02*
G03I-355J0D01*
G01X460345Y-49739D02*
G03I-355J0D01*
G01X460385Y-50149D02*
G03I-355J0D01*
G01X460025Y-48999D02*
G03I-355J0D01*
G01X460225Y-49349D02*
G03I-355J0D01*
G01X459855Y-48799D02*
G03I-355J0D01*
G01X459755Y-48689D02*
G03I-355J0D01*
G01D02*
G03I-355J0D01*
G01X460295Y-46619D02*
G03I-355J0D01*
G01X458925Y-48109D02*
G03I-355J0D01*
G01X459325Y-48319D02*
G03I-355J0D01*
G01X459495Y-46479D02*
G03I-355J0D01*
G01X458275Y-47899D02*
G03I-355J0D01*
G01X458825Y-48049D02*
G03I-355J0D01*
G01X458695Y-46449D02*
G03I-355J0D01*
G01X457705Y-47859D02*
G03I-355J0D01*
G01X455715Y-47889D02*
G03I-355J0D01*
G01X456255Y-47859D02*
G03I-355J0D01*
G01X455585Y-46449D02*
G03I-355J0D01*
G01X479285Y-59669D02*
G03I-355J0D01*
G01X475975D02*
G03I-355J0D01*
G01X472765Y-55739D02*
G03I-355J0D01*
G01X479285Y-59219D02*
G03I-355J0D01*
G01Y-58519D02*
G03I-355J0D01*
G01Y-57129D02*
G03I-355J0D01*
G01Y-57829D02*
G03I-355J0D01*
G01Y-56439D02*
G03I-355J0D01*
G01Y-55739D02*
G03I-355J0D01*
G01Y-55049D02*
G03I-355J0D01*
G01Y-53659D02*
G03I-355J0D01*
G01Y-54359D02*
G03I-355J0D01*
G01Y-52969D02*
G03I-355J0D01*
G01Y-52269D02*
G03I-355J0D01*
G01X475975Y-59219D02*
G03I-355J0D01*
G01Y-58519D02*
G03I-355J0D01*
G01Y-57829D02*
G03I-355J0D01*
G01Y-56439D02*
G03I-355J0D01*
G01Y-57129D02*
G03I-355J0D01*
G01Y-55739D02*
G03I-355J0D01*
G01Y-55049D02*
G03I-355J0D01*
G01Y-54359D02*
G03I-355J0D01*
G01Y-52969D02*
G03I-355J0D01*
G01Y-53659D02*
G03I-355J0D01*
G01Y-52269D02*
G03I-355J0D01*
G01X473365Y-55049D02*
G03I-355J0D01*
G01X473855Y-54359D02*
G03I-355J0D01*
G01Y-53659D02*
G03I-355J0D01*
G01Y-54479D02*
G03I-355J0D01*
G01Y-53059D02*
G03I-355J0D01*
G01X469405Y-59669D02*
G03I-355J0D01*
G01X465745D02*
G03I-355J0D01*
G01X460425Y-59439D02*
G03I-355J0D01*
G01X459405Y-59609D02*
G03I-355J0D01*
G01X458375Y-59669D02*
G03I-355J0D01*
G01X455625D02*
G03I-355J0D01*
G01X472175Y-56439D02*
G03I-355J0D01*
G01X472075Y-53059D02*
G03I-355J0D01*
G01X470985Y-57829D02*
G03I-355J0D01*
G01X471575Y-57129D02*
G03I-355J0D01*
G01X471305Y-52969D02*
G03I-355J0D01*
G01X470935Y-52869D02*
G03I-355J0D01*
G01X471495Y-53019D02*
G03I-355J0D01*
G01X470385Y-58519D02*
G03I-355J0D01*
G01X469955Y-55049D02*
G03I-355J0D01*
G01X470195Y-54789D02*
G03I-355J0D01*
G01Y-54359D02*
G03I-355J0D01*
G01Y-54279D02*
G03I-355J0D01*
G01X470005Y-52269D02*
G03I-355J0D01*
G01X469955Y-52229D02*
G03I-355J0D01*
G01X470415Y-52599D02*
G03I-355J0D01*
G01X469795Y-59219D02*
G03I-355J0D01*
G01X469325Y-55739D02*
G03I-355J0D01*
G01X469495Y-54269D02*
G03I-355J0D01*
G01X469765Y-51829D02*
G03I-355J0D01*
G01X468685Y-56439D02*
G03I-355J0D01*
G01X468815Y-54149D02*
G03I-355J0D01*
G01X467425Y-57829D02*
G03I-355J0D01*
G01X468055Y-57129D02*
G03I-355J0D01*
G01X467715Y-53659D02*
G03I-355J0D01*
G01X468155Y-53909D02*
G03I-355J0D01*
G01X467555Y-53569D02*
G03I-355J0D01*
G01X466795Y-58519D02*
G03I-355J0D01*
G01X466965Y-52969D02*
G03I-355J0D01*
G01X467195Y-53259D02*
G03I-355J0D01*
G01X466905Y-52879D02*
G03I-355J0D01*
G01X466635Y-52269D02*
G03I-355J0D01*
G01X466685Y-52459D02*
G03I-355J0D01*
G01X466565Y-51999D02*
G03I-355J0D01*
G01X466155Y-59219D02*
G03I-355J0D01*
G01X463385Y-57129D02*
G03I-355J0D01*
G01X463285Y-57479D02*
G03I-355J0D01*
G01X463455Y-56439D02*
G03I-355J0D01*
G01X463425Y-57009D02*
G03I-355J0D01*
G01X463455Y-56519D02*
G03I-355J0D01*
G01Y-55739D02*
G03I-355J0D01*
G01Y-55049D02*
G03I-355J0D01*
G01Y-54359D02*
G03I-355J0D01*
G01Y-53659D02*
G03I-355J0D01*
G01Y-52969D02*
G03I-355J0D01*
G01Y-52269D02*
G03I-355J0D01*
G01Y-52589D02*
G03I-355J0D01*
G01D02*
G03I-355J0D01*
G01D02*
G03I-355J0D01*
G01X462425Y-58519D02*
G03I-355J0D01*
G01X462355Y-58569D02*
G03I-355J0D01*
G01X462745Y-58279D02*
G03I-355J0D01*
G01X463105Y-57829D02*
G03I-355J0D01*
G01X463055Y-57909D02*
G03I-355J0D01*
G01X461755Y-58949D02*
G03I-355J0D01*
G01X461165Y-59219D02*
G03I-355J0D01*
G01X461105Y-59239D02*
G03I-355J0D01*
G01X459965Y-57129D02*
G03I-355J0D01*
G01X459945Y-57159D02*
G03I-355J0D01*
G01X460295Y-56439D02*
G03I-355J0D01*
G01X460355Y-56269D02*
G03I-355J0D01*
G01X460205Y-56739D02*
G03I-355J0D01*
G01X460385Y-55739D02*
G03I-355J0D01*
G01Y-55779D02*
G03I-355J0D01*
G01Y-55049D02*
G03I-355J0D01*
G01Y-54359D02*
G03I-355J0D01*
G01Y-53659D02*
G03I-355J0D01*
G01Y-52969D02*
G03I-355J0D01*
G01Y-52269D02*
G03I-355J0D01*
G01Y-52589D02*
G03I-355J0D01*
G01D02*
G03I-355J0D01*
G01D02*
G03I-355J0D01*
G01X459225Y-57829D02*
G03I-355J0D01*
G01X459595Y-57509D02*
G03I-355J0D01*
G01X459235Y-57829D02*
G03I-355J0D01*
G01X458815Y-58059D02*
G03I-355J0D01*
G01X458345Y-58209D02*
G03I-355J0D01*
G01X457865Y-58259D02*
G03I-355J0D01*
G01X456255D02*
G03I-355J0D01*
G01X455655Y-58219D02*
G03I-355J0D01*
M02*
