G04 ================== begin FILE IDENTIFICATION RECORD ==================*
G04 Layout Name:  SENSOR_PLATFORM_BREAKOUT_BOARD_6KITBoards_REV02_2014-10-20.brd*
G04 Film Name:    TOP*
G04 File Format:  Gerber RS274X*
G04 File Origin:  Cadence Allegro 16.5-S001*
G04 Origin Date:  Mon Oct 20 15:18:45 2014*
G04 *
G04 Layer:  VIA CLASS/TOP*
G04 Layer:  PIN/TOP*
G04 Layer:  ETCH/TOP*
G04 Layer:  DRAWING FORMAT/TOP*
G04 Layer:  BOARD GEOMETRY/OUTLINE*
G04 Layer:  BOARD GEOMETRY/LOGO*
G04 *
G04 Offset:    (0.000 0.000)*
G04 Mirror:    No*
G04 Mode:      Positive*
G04 Rotation:  0*
G04 FullContactRelief:  No*
G04 UndefLineWidth:     5.000*
G04 ================== end FILE IDENTIFICATION RECORD ====================*
%FSLAX25Y25*MOIN*%
%IR0*IPPOS*OFA0.00000B0.00000*MIA0B0*SFA1.00000B1.00000*%
%AMMACRO26*
4,1,12,.005,.0305,
.005,.0155,
.014,.0105,
.014,-.0055,
.005,-.0105,
.005,-.0305,
-.005,-.0305,
-.005,-.0105,
-.014,-.0055,
-.014,.0105,
-.005,.0155,
-.005,.0305,
.005,.0305,
0.0*
%
%ADD26MACRO26*%
%ADD17R,.02X.021*%
%ADD21R,.021X.02*%
%ADD19R,.01X.014*%
%ADD15R,.032X.03*%
%ADD22R,.03X.032*%
%ADD25R,.012X.016*%
%ADD24R,.016X.012*%
%ADD23R,.024X.04*%
%ADD20R,.045X.05*%
%ADD11C,.01*%
%ADD10C,.04*%
%ADD14C,.024*%
%ADD13C,.06*%
%ADD16R,.021X.021*%
%ADD12R,.06X.06*%
%AMMACRO18*
4,1,12,-.005,-.0305,
-.005,-.0155,
-.014,-.0105,
-.014,.0055,
-.005,.0105,
-.005,.0305,
.005,.0305,
.005,.0105,
.014,.0055,
.014,-.0105,
.005,-.0155,
.005,-.0305,
-.005,-.0305,
0.0*
%
%ADD18MACRO18*%
%ADD27C,.005*%
%ADD28C,.007098*%
%ADD29C,.02*%
%ADD30C,.015*%
%ADD36R,.024004X.028004*%
%ADD32R,.035004X.035004*%
%ADD31C,.070004*%
%ADD35C,.080004*%
%ADD34C,.076004*%
%ADD33R,.076004X.076004*%
G75*
%LPD*%
G75*
G36*
G01X29834Y158037D02*
X124834D01*
Y105037D01*
X29834D01*
Y158037D01*
G37*
G36*
G01X48796Y169911D02*
G02X48558Y170632I0J400D01*
G03X43798I-2380J3215D01*
G02X43560Y169911I-238J-322D01*
G01X30001D01*
Y222911D01*
X125001D01*
Y169911D01*
X111796D01*
G02X111558Y170632I0J400D01*
G03X106798I-2380J3215D01*
G02X106560Y169911I-238J-322D01*
G01X48796D01*
G37*
G36*
G01X125014Y234937D02*
X30014D01*
Y287937D01*
X125014D01*
Y234937D01*
G37*
G36*
G01X137040Y104893D02*
Y157893D01*
X232040D01*
Y104893D01*
X137040D01*
G37*
G36*
G01X137000Y170007D02*
Y223007D01*
X232000D01*
Y170007D01*
X225847D01*
G02X225448Y170436I0J400D01*
G03X225450Y170506I-948J70D01*
G01Y171706D01*
X228300D01*
Y179307D01*
X226627D01*
G02X226345Y179990I0J400D01*
G01X229950Y183595D01*
Y187405D01*
X226405Y190950D01*
X220097D01*
X206103Y176957D01*
X187387D01*
X185950Y178394D01*
Y179194D01*
X186300D01*
Y182195D01*
X183700D01*
Y179194D01*
X184050D01*
Y177606D01*
X185517Y176140D01*
G02X185234Y175457I-283J-283D01*
G01X184387D01*
X182013Y177831D01*
Y179194D01*
X182363D01*
Y182195D01*
X181688D01*
Y184838D01*
X178688D01*
Y182238D01*
X179763D01*
Y179194D01*
X180113D01*
Y177043D01*
X183600Y173556D01*
X207891D01*
X218891Y184556D01*
X220818D01*
X220860Y184414D01*
G03X224418Y181707I3640J1093D01*
G02X224692Y181024I-9J-400D01*
G01X223550Y179882D01*
Y179307D01*
X220700D01*
Y171706D01*
X223550D01*
Y170506D01*
G03X223552Y170436I950J0D01*
G02X223154Y170007I-399J-30D01*
G01X137000D01*
G37*
G36*
G01X231989Y287830D02*
Y234830D01*
X136988D01*
Y287830D01*
X231989D01*
G37*
%LPC*%
G75*
G36*
G01X96534Y117637D02*
Y114137D01*
X93134D01*
Y115181D01*
X87990D01*
Y114381D01*
X84490D01*
Y117882D01*
X87990D01*
Y117082D01*
X93134D01*
Y117637D01*
X93834D01*
Y118137D01*
X95834D01*
Y117637D01*
X96534D01*
G37*
G36*
G01X59135Y128883D02*
X59266Y128813D01*
X59346Y128893D01*
X72678D01*
Y129693D01*
X76179D01*
Y126192D01*
X72678D01*
Y126992D01*
X61400D01*
G03X61012Y126492I0J-400D01*
G02X59135Y128883I-3678J-955D01*
G37*
G36*
G01X87990Y122255D02*
X84490D01*
Y123055D01*
X84180D01*
X84124Y123008D01*
G02X81129Y125583I-1290J1529D01*
G03X80788Y126192I-341J209D01*
G01X80552D01*
Y129693D01*
X84211D01*
Y131700D01*
X51680D01*
X50034Y133346D01*
Y138332D01*
X53003Y141300D01*
X62843D01*
X65528Y138615D01*
G03X66211Y138897I283J283D01*
G01Y141106D01*
X64768Y142550D01*
X58978D01*
X54266Y147261D01*
X54135Y147191D01*
G02X55680Y148736I-1801J3346D01*
G01X55610Y148605D01*
X59765Y144450D01*
X65555D01*
X67655Y142350D01*
X70812D01*
Y137950D01*
X70112D01*
Y137300D01*
X73911D01*
Y137950D01*
X73211D01*
Y141106D01*
X70768Y143550D01*
X67978D01*
X64266Y147261D01*
X64135Y147191D01*
G02X65680Y148736I-1801J3346D01*
G01X65610Y148605D01*
X68765Y145450D01*
X71555D01*
X74655Y142350D01*
X77812D01*
Y137950D01*
X77112D01*
Y137300D01*
X80911D01*
Y137950D01*
X80211D01*
Y141316D01*
X74264Y147263D01*
G02X75608Y148607I-1930J3274D01*
G01X81865Y142350D01*
X84812D01*
Y137950D01*
X84112D01*
Y137300D01*
X88411D01*
Y137950D01*
X87711D01*
Y142350D01*
X88212D01*
G03X88494Y143033I0J400D01*
G01X84264Y147263D01*
G02X85680Y148736I-1930J3274D01*
G01X85610Y148605D01*
X90962Y143254D01*
Y142350D01*
X92312D01*
Y137950D01*
X91612D01*
Y137300D01*
X95911D01*
Y137950D01*
X95211D01*
Y142350D01*
X96561D01*
Y144966D01*
X94266Y147261D01*
X94135Y147191D01*
G02X95680Y148736I-1801J3346D01*
G01X95610Y148605D01*
X98462Y145754D01*
Y142350D01*
X99812D01*
Y137950D01*
X99112D01*
Y137300D01*
X103244D01*
Y138076D01*
X102544D01*
Y142476D01*
X103894D01*
Y146737D01*
X98534D01*
Y154337D01*
X106134D01*
Y146737D01*
X105795D01*
Y142476D01*
X106711D01*
Y152868D01*
X109180Y155337D01*
X119666D01*
X122134Y152868D01*
Y135965D01*
X119990Y133821D01*
G03X119993Y133252I283J-283D01*
G02X114619Y127878I-2659J-2715D01*
G03X114051Y127881I-286J-280D01*
G01X111869Y125700D01*
X95834D01*
Y125437D01*
X93834D01*
Y125700D01*
X87990D01*
Y122255D01*
G37*
G36*
G01X40880Y193672D02*
X40813Y193542D01*
X51755Y182600D01*
X75811D01*
Y183400D01*
X79212D01*
Y182600D01*
X80255D01*
X82905Y179950D01*
X83311D01*
Y182106D01*
X79019Y186398D01*
Y186853D01*
X78769D01*
Y189654D01*
X81170D01*
Y186935D01*
X85905Y182200D01*
X89212D01*
Y181500D01*
X91512D01*
Y176500D01*
X89212D01*
Y175800D01*
X83311D01*
Y178050D01*
X82118D01*
X79894Y180273D01*
G03X79212Y179990I-283J-283D01*
G01Y179900D01*
X78512D01*
Y179400D01*
X76511D01*
Y179900D01*
X75811D01*
Y180700D01*
X50968D01*
X39493Y192175D01*
G02X40880Y193672I-1992J3236D01*
G37*
G36*
G01X113598Y187257D02*
G03X114225Y187337I283J283D01*
G02X113861Y184318I3276J-1926D01*
G01X113819Y184461D01*
X113707D01*
X108118Y190050D01*
X100561D01*
Y189100D01*
X102162D01*
Y185900D01*
X100561D01*
Y185200D01*
X96161D01*
Y186550D01*
X93812D01*
Y185150D01*
X89211D01*
Y189550D01*
X89911D01*
Y190450D01*
X89211D01*
Y191611D01*
X86001D01*
Y191311D01*
X84001D01*
Y191611D01*
X81670D01*
X81170Y192111D01*
X78701D01*
Y195200D01*
X77233D01*
Y192168D01*
X74832D01*
Y192618D01*
X74340D01*
G02X71348Y191993I-1760J950D01*
G01X69462Y190106D01*
Y187106D01*
X68255Y185900D01*
X66812D01*
Y184650D01*
X62211D01*
Y185900D01*
X55812D01*
Y184650D01*
X51211D01*
Y189050D01*
X51911D01*
Y190650D01*
X55112D01*
Y189050D01*
X55812D01*
Y187800D01*
X62211D01*
Y189050D01*
X62911D01*
Y189950D01*
X62211D01*
Y190200D01*
X61211D01*
Y195700D01*
X51211D01*
Y202300D01*
X51911D01*
Y202950D01*
X51211D01*
Y207350D01*
X52561D01*
Y211611D01*
G02X54462Y212156I-60J3800D01*
G01Y207350D01*
X55812D01*
Y202950D01*
X55112D01*
Y202300D01*
X61911D01*
Y202950D01*
X61211D01*
Y207350D01*
X62561D01*
Y211611D01*
G02X64462Y212156I-60J3800D01*
G01Y207350D01*
X65812D01*
Y202950D01*
X65112D01*
Y202300D01*
X71911D01*
Y202950D01*
X71211D01*
Y207350D01*
X72561D01*
Y211611D01*
G02X74462Y212156I-60J3800D01*
G01Y207350D01*
X75812D01*
Y202950D01*
X75112D01*
Y202300D01*
X81911D01*
Y202950D01*
X81211D01*
Y207350D01*
X82561D01*
Y211611D01*
G02X84462Y212156I-60J3800D01*
G01Y207350D01*
X85812D01*
Y202950D01*
X85112D01*
Y202300D01*
X91911D01*
Y202950D01*
X91211D01*
Y207350D01*
X92561D01*
Y211611D01*
G02X94462Y212156I-60J3800D01*
G01Y207350D01*
X95812D01*
Y202950D01*
X95112D01*
Y202300D01*
X101911D01*
Y202950D01*
X101211D01*
Y207350D01*
X102561D01*
Y211611D01*
X98701D01*
Y219211D01*
X106180D01*
X107180Y220211D01*
X119833D01*
X122301Y217743D01*
Y196158D01*
X121293Y195150D01*
X121287Y195078D01*
G02X117834Y191626I-3785J333D01*
G01X117762Y191619D01*
X117754Y191611D01*
X110210D01*
G03X109927Y190928I0J-400D01*
G01X113598Y187257D01*
G37*
G36*
G01X74832Y187303D02*
X74018D01*
G02Y189204I-1760J950D01*
G01X74832D01*
Y189654D01*
X77233D01*
Y186853D01*
X74832D01*
Y187303D01*
G37*
G36*
G01X112953Y238143D02*
G02Y241600I-3608J1729D01*
G03X113713Y241772I361J173D01*
G01Y244237D01*
X121314D01*
Y236637D01*
X113713D01*
Y237970D01*
G03X112953Y238143I-400J0D01*
G37*
G36*
G01X41314Y236637D02*
X33713D01*
Y244237D01*
X35404D01*
G03X35687Y244920I0J400D01*
G01X32050Y248557D01*
Y253317D01*
X35120Y256387D01*
X35435D01*
G03X35633Y257135I0J400D01*
G02X39394I1881J3302D01*
G03X39592Y256387I198J-348D01*
G01X62462D01*
X64592Y258517D01*
G03X64309Y259200I-283J283D01*
G01X53680D01*
X51711Y261168D01*
Y268800D01*
X52411D01*
Y269450D01*
X51711D01*
Y273850D01*
X53061D01*
Y276240D01*
G03X52647Y276639I-400J0D01*
G02X54962Y277530I-134J3798D01*
G01Y273850D01*
X56312D01*
Y269450D01*
X55612D01*
Y268800D01*
X60911D01*
Y269450D01*
X60211D01*
Y273850D01*
X61561D01*
Y276755D01*
X61419Y276798D01*
G02X63604Y276797I1095J3639D01*
G01X63462Y276754D01*
Y273850D01*
X64812D01*
Y269450D01*
X64112D01*
Y268800D01*
X70911D01*
Y269450D01*
X70211D01*
Y273850D01*
X71561D01*
Y276755D01*
X71419Y276798D01*
G02X73604Y276797I1095J3639D01*
G01X73462Y276754D01*
Y273850D01*
X74812D01*
Y269450D01*
X74112D01*
Y268800D01*
X80911D01*
Y269450D01*
X80211D01*
Y273850D01*
X81561D01*
Y276755D01*
X81419Y276798D01*
G02X83604Y276797I1095J3639D01*
G01X83462Y276754D01*
Y273850D01*
X84812D01*
Y269450D01*
X84112D01*
Y268800D01*
X90911D01*
Y269450D01*
X90211D01*
Y273850D01*
X91561D01*
Y276755D01*
X91419Y276798D01*
G02X93604Y276797I1095J3639D01*
G01X93462Y276754D01*
Y273850D01*
X94812D01*
Y269450D01*
X94112D01*
Y268800D01*
X100911D01*
Y269450D01*
X100211D01*
Y273850D01*
X101561D01*
Y276637D01*
X98713D01*
Y284237D01*
X106180D01*
X107180Y285237D01*
X119845D01*
X122314Y282769D01*
Y268171D01*
X118771Y264628D01*
G03X118907Y263973I283J-283D01*
G02X113978Y259044I-1393J-3536D01*
G03X113323Y259180I-372J-147D01*
G01X111343Y257200D01*
X90914D01*
Y254405D01*
G02Y252469I-1750J-968D01*
G01Y248737D01*
X87413D01*
Y249437D01*
X86913D01*
Y251437D01*
X87413D01*
Y252468D01*
X87391Y252511D01*
G02X87297Y254156I1773J926D01*
G03X86924Y254700I-373J144D01*
G01X81514D01*
Y254337D01*
X79513D01*
Y254700D01*
X79119D01*
X78982Y254837D01*
X78813D01*
Y255006D01*
X76682Y257137D01*
X73713D01*
Y259200D01*
X72245D01*
Y257195D01*
X69845D01*
Y257644D01*
X66407D01*
X63250Y254487D01*
X39592D01*
G03X39394Y253739I0J-400D01*
G02X41008Y248945I-1881J-3302D01*
G03X41376Y248387I368J-157D01*
G01X69212D01*
G03X69518Y249046I0J400D01*
G02X69845Y251937I1527J1292D01*
G01Y254680D01*
X72245D01*
Y251937D01*
G02X73045Y250351I-1200J-1600D01*
G03X73728Y250071I400J3D01*
G01X74032Y250374D01*
Y251880D01*
X73782D01*
Y254680D01*
X76182D01*
Y251880D01*
X75932D01*
Y249587D01*
X72832Y246487D01*
X40120D01*
X39446Y247161D01*
X39314Y247091D01*
G02X37612Y246638I-1801J3346D01*
G03X37339Y245956I10J-400D01*
G01X38464Y244831D01*
Y244237D01*
X41314D01*
Y236637D01*
G37*
G36*
G01X228340Y106593D02*
X220740D01*
Y114193D01*
X220986D01*
G03X221269Y114876I0J400D01*
G01X212352Y123793D01*
X209740D01*
Y122993D01*
X208990D01*
Y121135D01*
X205394Y117539D01*
X200106D01*
X197363Y120282D01*
G03X196680Y119999I-283J-283D01*
G01Y115469D01*
X195730D01*
Y111595D01*
X193674Y109538D01*
X177606D01*
X168095Y119050D01*
X154540D01*
X146472Y127118D01*
X146341Y127047D01*
G02X147886Y128592I-1801J3346D01*
G01X147816Y128461D01*
X155327Y120950D01*
X162284D01*
G03X162499Y121688I0J400D01*
G02X168307Y124392I2041J3206D01*
G03X168704Y123939I397J-53D01*
G01X173894D01*
X178713Y119119D01*
X185400D01*
Y120869D01*
X189200D01*
Y115469D01*
X185400D01*
Y117219D01*
X177926D01*
X173106Y122038D01*
X167048D01*
G02X166581Y121688I-2509J2855D01*
G03X166796Y120950I215J-337D01*
G01X168882D01*
X178394Y111439D01*
X192887D01*
X193830Y112382D01*
Y115469D01*
X192880D01*
Y120869D01*
X195810D01*
G03X196093Y121552I0J400D01*
G01X194106Y123538D01*
X187406D01*
X186350Y124595D01*
Y124917D01*
X185400D01*
Y129593D01*
X161764D01*
X160200Y131157D01*
Y140789D01*
X170332D01*
X172734Y138386D01*
G03X173417Y138669I283J283D01*
G01Y140963D01*
X171974Y142406D01*
X166184D01*
X161472Y147118D01*
X161341Y147047D01*
G02X162886Y148592I-1801J3346D01*
G01X162816Y148461D01*
X166971Y144306D01*
X172761D01*
X174861Y142206D01*
X178017D01*
Y137806D01*
X177317D01*
Y136906D01*
X178017D01*
Y136789D01*
X180417D01*
Y136906D01*
X181117D01*
Y137806D01*
X180417D01*
Y140963D01*
X177330Y144050D01*
X174540D01*
X171472Y147118D01*
X171341Y147047D01*
G02X172814Y148463I-1801J3346D01*
G01X175327Y145950D01*
X178117D01*
X181861Y142206D01*
X185017D01*
Y137806D01*
X184317D01*
Y136906D01*
X185017D01*
Y136789D01*
X187417D01*
Y136906D01*
X188117D01*
Y137806D01*
X187417D01*
Y140963D01*
X181338Y147042D01*
X181209Y146979D01*
G02X182815Y148465I-1669J3414D01*
G01X182736Y148331D01*
X188861Y142206D01*
X192017D01*
Y137806D01*
X191317D01*
Y136906D01*
X192017D01*
Y136789D01*
X194917D01*
Y136906D01*
X195617D01*
Y137806D01*
X194917D01*
Y142206D01*
X195417D01*
G03X195700Y142889I0J400D01*
G01X191472Y147118D01*
X191341Y147047D01*
G02X192886Y148592I-1801J3346D01*
G01X192816Y148461D01*
X198167Y143110D01*
Y142206D01*
X199517D01*
Y137806D01*
X198817D01*
Y136906D01*
X199517D01*
Y136789D01*
X202417D01*
Y136906D01*
X203117D01*
Y137806D01*
X202417D01*
Y142206D01*
X203767D01*
Y144823D01*
X201470Y147120D01*
G02X202814Y148463I-1930J3274D01*
G01X205667Y145610D01*
Y142206D01*
X207017D01*
Y137806D01*
X206317D01*
Y136906D01*
X207017D01*
Y136789D01*
X209750D01*
Y137032D01*
X210450D01*
Y137932D01*
X209750D01*
Y142333D01*
X211100D01*
Y146593D01*
X205740D01*
Y154194D01*
X213340D01*
Y146593D01*
X213001D01*
Y142333D01*
X214700D01*
Y155194D01*
X227372D01*
X229340Y153225D01*
Y136141D01*
X227030Y133831D01*
G03X227049Y133248I283J-283D01*
G02X221686Y127884I-2509J-2854D01*
G03X221103Y127903I-300J-264D01*
G01X219388Y126188D01*
X209740D01*
Y125693D01*
X213139D01*
X224639Y114193D01*
X228340D01*
Y106593D01*
G37*
G36*
G01X148300Y171706D02*
X140700D01*
Y179307D01*
X146956D01*
X156075Y188425D01*
X178688D01*
Y188775D01*
X181688D01*
Y186175D01*
X178688D01*
Y186525D01*
X156862D01*
X148300Y177963D01*
Y171706D01*
G37*
G36*
G01X147846Y187308D02*
G02X146301Y188853I-3346J-1801D01*
G01X146432Y188782D01*
X151600Y193950D01*
X182394D01*
X183982Y192362D01*
Y191818D01*
X184332D01*
Y188818D01*
X181731D01*
Y191925D01*
X181606Y192050D01*
X152387D01*
X147776Y187438D01*
X147846Y187308D01*
G37*
G36*
G01X159560Y209446D02*
Y211707D01*
G02X161460Y212251I-60J3800D01*
G01Y209446D01*
X162810D01*
Y205045D01*
X162110D01*
Y204300D01*
X167910D01*
Y205045D01*
X167210D01*
Y209446D01*
X168560D01*
Y211821D01*
X168417Y211864D01*
G02X170602Y211870I1083J3643D01*
G01X170460Y211827D01*
Y209446D01*
X171810D01*
Y205045D01*
X171110D01*
Y204300D01*
X177910D01*
Y205045D01*
X177210D01*
Y209446D01*
X178560D01*
Y211821D01*
X178417Y211864D01*
G02X180602Y211870I1083J3643D01*
G01X180460Y211827D01*
Y209446D01*
X181810D01*
Y205045D01*
X181110D01*
Y204300D01*
X187910D01*
Y205045D01*
X187210D01*
Y209446D01*
X188560D01*
Y211821D01*
X188417Y211864D01*
G02X190602Y211870I1083J3643D01*
G01X190460Y211827D01*
Y209446D01*
X191810D01*
Y205045D01*
X191110D01*
Y204300D01*
X197910D01*
Y205045D01*
X197210D01*
Y209446D01*
X198560D01*
Y211821D01*
X198417Y211864D01*
G02X200602Y211870I1083J3643D01*
G01X200460Y211827D01*
Y209446D01*
X201810D01*
Y205045D01*
X201110D01*
Y204300D01*
X207910D01*
Y205045D01*
X207210D01*
Y209446D01*
X208560D01*
Y211706D01*
X205700D01*
Y219307D01*
X212180D01*
X213180Y220307D01*
X227832D01*
X229300Y218838D01*
Y200678D01*
X227001Y198379D01*
X227144Y198236D01*
X227145Y198235D01*
G02X221146Y193721I-2645J-2729D01*
G01X199352D01*
X198300Y192668D01*
Y188507D01*
X198600D01*
Y186506D01*
X198300D01*
Y183007D01*
X198600D01*
Y181006D01*
X198300D01*
Y179700D01*
X192668D01*
X190668Y181700D01*
X190237D01*
Y179194D01*
X187637D01*
Y182195D01*
X188200D01*
Y184800D01*
X188312D01*
Y188700D01*
X187700D01*
Y188818D01*
X185668D01*
Y191818D01*
X186018D01*
Y193800D01*
X184911D01*
Y194500D01*
X184411D01*
Y196500D01*
X184911D01*
Y197200D01*
X187700D01*
Y197700D01*
X158211D01*
Y199745D01*
X158210D01*
Y204146D01*
X158211D01*
Y204300D01*
X158910D01*
Y205045D01*
X158210D01*
Y209446D01*
X159560D01*
G37*
G36*
G01X221472Y258018D02*
G03X220872Y258057I-317J-243D01*
G01X215844Y253029D01*
X197489D01*
Y252729D01*
X195488D01*
Y253029D01*
X193657D01*
X192657Y254029D01*
X190188D01*
Y257661D01*
X190285Y257758D01*
Y259095D01*
X189180Y260200D01*
X160180D01*
X159211Y261168D01*
Y262447D01*
X159210D01*
Y266848D01*
X159910D01*
Y267747D01*
X159210D01*
Y272148D01*
X160560D01*
Y276183D01*
G03X160096Y276578I-400J0D01*
G02X162460Y277961I-608J3751D01*
G01Y272148D01*
X163810D01*
Y267747D01*
X163110D01*
Y266848D01*
X163810D01*
Y266800D01*
X167210D01*
Y266848D01*
X167910D01*
Y267747D01*
X167210D01*
Y272148D01*
X168560D01*
Y276641D01*
X168416Y276684D01*
G02X170602Y276696I1072J3646D01*
G01X170461Y276653D01*
Y272148D01*
X171810D01*
Y267747D01*
X171110D01*
Y266848D01*
X171810D01*
Y266800D01*
X177210D01*
Y266848D01*
X177910D01*
Y267747D01*
X177210D01*
Y272148D01*
X178560D01*
Y276641D01*
X178416Y276684D01*
G02X180602Y276696I1072J3646D01*
G01X180460Y276653D01*
Y272148D01*
X181810D01*
Y267747D01*
X181110D01*
Y266848D01*
X181810D01*
Y266800D01*
X187210D01*
Y266848D01*
X187910D01*
Y267747D01*
X187210D01*
Y272148D01*
X188560D01*
Y276641D01*
X188416Y276684D01*
G02X190602Y276696I1072J3646D01*
G01X190460Y276653D01*
Y272148D01*
X191810D01*
Y267747D01*
X191110D01*
Y266848D01*
X191810D01*
Y266800D01*
X197210D01*
Y266848D01*
X197910D01*
Y267747D01*
X197210D01*
Y272148D01*
X198560D01*
Y276641D01*
X198416Y276684D01*
G02X200602Y276696I1072J3646D01*
G01X200461Y276653D01*
Y272148D01*
X201811D01*
Y267747D01*
X201110D01*
Y266848D01*
X201811D01*
Y266800D01*
X207210D01*
Y266848D01*
X207910D01*
Y267747D01*
X207210D01*
Y272148D01*
X208560D01*
Y276529D01*
X205688D01*
Y284130D01*
X213289D01*
Y283727D01*
G03X213972Y283444I400J0D01*
G01X215657Y285130D01*
X226820D01*
X229289Y282661D01*
Y266474D01*
X226761Y263946D01*
G03X226800Y263346I283J-283D01*
G02X221472Y258018I-2312J-3016D01*
G37*
G36*
G01X219930Y237932D02*
G02Y241474I-3587J1771D01*
G03X220688Y241651I359J177D01*
G01Y242786D01*
X218587Y244887D01*
X187087D01*
X184538Y247436D01*
Y255223D01*
X185752Y256437D01*
X186320D01*
Y256887D01*
X188720D01*
Y254087D01*
X186439D01*
Y251572D01*
X188720D01*
Y248772D01*
X188470D01*
Y248288D01*
X220622D01*
G03X220991Y248844I0J400D01*
G02X222559Y247056I3498J1485D01*
G01X221890Y246387D01*
X220740D01*
G03X220457Y245705I0J-400D01*
G01X222032Y244130D01*
X228289D01*
Y236529D01*
X220688D01*
Y237755D01*
G03X219930Y237932I-400J0D01*
G37*
G54D36*
X191457Y250172D03*
G54D32*
X86240Y120068D03*
X82303Y116132D03*
X74429Y124006D03*
Y116132D03*
Y120068D03*
X78366Y116132D03*
G54D31*
X37334Y150537D03*
X57334Y115537D03*
X37501Y215411D03*
X37514Y280437D03*
X164540Y114893D03*
X144540Y150393D03*
X144500Y215506D03*
X144488Y280330D03*
G54D35*
X109011Y109973D03*
X46011Y143474D03*
Y109973D03*
X46178Y208348D03*
X46191Y239874D03*
Y273374D03*
X153217Y109830D03*
Y143330D03*
X216217Y109830D03*
X216177Y174943D03*
X153177Y208443D03*
Y174943D03*
X153166Y273266D03*
Y239766D03*
G54D34*
X117334Y120537D03*
X37334Y140537D03*
Y130537D03*
Y120537D03*
X37501Y185411D03*
Y205411D03*
X117514Y250437D03*
X37514Y270437D03*
X144540Y120393D03*
Y140393D03*
X224540Y120393D03*
X144500Y205506D03*
Y195506D03*
X144488Y250330D03*
Y260330D03*
Y270330D03*
G54D33*
X117334Y110537D03*
X37334D03*
X117501Y175411D03*
X37501D03*
X144540Y110393D03*
X144488Y240330D03*
%LPD*%
G75*
G36*
G01X85011Y126500D02*
Y132500D01*
X60834D01*
Y139037D01*
X53834D01*
Y132500D01*
X52011D01*
X50834Y133677D01*
Y138000D01*
X53334Y140500D01*
X62511D01*
X66511Y136500D01*
X66911D01*
Y136350D01*
X70112D01*
Y136500D01*
X73911D01*
Y136350D01*
X77112D01*
Y136500D01*
X80911D01*
Y136350D01*
X84112D01*
Y136500D01*
X88411D01*
Y136350D01*
X91612D01*
Y136500D01*
X95911D01*
Y136350D01*
X99112D01*
Y136500D01*
X103244D01*
Y136476D01*
X106445D01*
Y136933D01*
X107511Y138000D01*
Y152537D01*
X109511Y154537D01*
X113307D01*
G03X113361I27J2000D01*
G01X119334D01*
X121334Y152537D01*
Y146564D01*
G03Y146510I2000J-27D01*
G01Y142701D01*
G02X120591Y142495I-400J0D01*
G03Y138579I-3257J-1958D01*
G02X121334Y138373I343J-206D01*
G01Y136564D01*
G03Y136510I2000J-27D01*
G01Y136296D01*
X118994Y133956D01*
G03X113915Y128878I-1659J-3419D01*
G01X111538Y126500D01*
X95834D01*
Y126637D01*
X93834D01*
Y126500D01*
X85011D01*
G37*
G36*
G01X62011Y191000D02*
Y196500D01*
X52011D01*
Y201350D01*
X55112D01*
Y201500D01*
X61911D01*
Y201350D01*
X65112D01*
Y201500D01*
X71911D01*
Y201350D01*
X75112D01*
Y201500D01*
X81911D01*
Y201350D01*
X85112D01*
Y201500D01*
X91911D01*
Y201350D01*
X95112D01*
Y201500D01*
X101911D01*
Y201350D01*
X105112D01*
Y202600D01*
X105461Y202950D01*
X105812D01*
Y203300D01*
X106511Y204000D01*
Y218411D01*
X107511Y219411D01*
X119501D01*
X121501Y217411D01*
Y211438D01*
G03Y211384I2000J-27D01*
G01Y207575D01*
G02X120758Y207369I-400J0D01*
G03Y203453I-3257J-1958D01*
G02X121501Y203247I343J-206D01*
G01Y201438D01*
G03Y201384I2000J-27D01*
G01Y197575D01*
G02X120758Y197369I-400J0D01*
G03X114516Y193059I-3257J-1958D01*
G02X114202Y192411I-314J-248D01*
G01X86001D01*
Y192511D01*
X84001D01*
Y192411D01*
X82001D01*
X81501Y192911D01*
X79501D01*
Y196017D01*
G03X79160Y196159I-200J0D01*
G01X79001Y196000D01*
X68011D01*
Y191344D01*
X67667Y191000D01*
X62011D01*
G37*
G36*
G01X81514Y255500D02*
Y255537D01*
X79413D01*
X77014Y257937D01*
X74514D01*
Y260000D01*
X54011D01*
X52511Y261500D01*
Y267850D01*
X55612D01*
Y268000D01*
X60911D01*
Y267850D01*
X64112D01*
Y268000D01*
X70911D01*
Y267850D01*
X74112D01*
Y268000D01*
X80911D01*
Y267850D01*
X84112D01*
Y268000D01*
X90911D01*
Y267850D01*
X94112D01*
Y268000D01*
X100911D01*
Y267850D01*
X104112D01*
Y268600D01*
X106011Y270500D01*
Y276637D01*
X106314D01*
Y283240D01*
X107511Y284437D01*
X113486D01*
G03X113540I27J2000D01*
G01X119514D01*
X121514Y282437D01*
Y276464D01*
G03Y276410I2000J-27D01*
G01Y272601D01*
G02X120771Y272395I-400J0D01*
G03X118793Y266859I-3257J-1958D01*
G02X119211Y266200I135J-377D01*
G01X117240Y264228D01*
X117168Y264222D01*
G03X113729Y260783I346J-3784D01*
G01X113722Y260711D01*
X111011Y258000D01*
X90914D01*
Y258137D01*
X87413D01*
Y258000D01*
X87011D01*
Y257437D01*
X86913D01*
Y255500D01*
X81514D01*
G37*
G36*
G01X190500Y125989D02*
Y129989D01*
X190095Y130393D01*
X162096D01*
X161778Y130710D01*
G02X162061Y131393I283J283D01*
G01X168040D01*
Y138394D01*
X161000D01*
Y139989D01*
X170000D01*
X174000Y135989D01*
X214000D01*
X215500Y137489D01*
Y154393D01*
X220513D01*
G03X220567I27J2000D01*
G01X227040D01*
X228540Y152893D01*
Y146420D01*
G03Y146366I2000J-27D01*
G01Y142557D01*
G02X227797Y142351I-400J0D01*
G03Y138436I-3257J-1958D01*
G02X228540Y138230I343J-206D01*
G01Y136472D01*
X225978Y133911D01*
G03X221023Y128955I-1438J-3517D01*
G01X219056Y126989D01*
X209040D01*
Y126994D01*
X207040D01*
Y126989D01*
X203040D01*
Y126994D01*
X201040D01*
Y126989D01*
X199000D01*
X198000Y125989D01*
X190500D01*
G37*
G36*
G01X193000Y180500D02*
X191000Y182500D01*
X189000D01*
Y184000D01*
X191000D01*
X191206Y184206D01*
X191312D01*
Y184312D01*
X191500Y184500D01*
Y189000D01*
X191000Y189500D01*
X188500D01*
Y198500D01*
X159011D01*
Y203445D01*
X162110D01*
Y203500D01*
X167910D01*
Y203445D01*
X171110D01*
Y203500D01*
X177910D01*
Y203445D01*
X181110D01*
Y203500D01*
X187910D01*
Y203445D01*
X191110D01*
Y203500D01*
X197910D01*
Y203445D01*
X201110D01*
Y203500D01*
X207910D01*
Y203445D01*
X211110D01*
Y203500D01*
X212011D01*
X213011Y204500D01*
Y211706D01*
X213300D01*
Y219295D01*
X213511Y219506D01*
X220473D01*
G03X220527I27J2000D01*
G01X227500D01*
X228500Y218507D01*
Y211534D01*
G03Y211480I2000J-27D01*
G01Y207670D01*
G02X227757Y207464I-400J0D01*
G03Y203549I-3257J-1958D01*
G02X228500Y203343I343J-206D01*
G01Y201534D01*
G03Y201480I2000J-27D01*
G01Y201010D01*
X226330Y198840D01*
X226202Y198905D01*
G03X220737Y194977I-1702J-3398D01*
G02X220341Y194521I-396J-56D01*
G01X199021D01*
X197500Y193000D01*
Y188507D01*
X197400D01*
Y186506D01*
X197500D01*
Y183007D01*
X197400D01*
Y181006D01*
X197500D01*
Y180500D01*
X193000D01*
G37*
G36*
G01X193988Y253830D02*
X192988Y254830D01*
X190988D01*
Y257330D01*
X191085Y257426D01*
Y259426D01*
X189511Y261000D01*
X160511D01*
X160011Y261500D01*
Y266000D01*
X211011D01*
X213989Y268977D01*
Y282330D01*
X215988Y284330D01*
X220462D01*
G03X220516I27J2000D01*
G01X226489D01*
X228488Y282330D01*
Y276356D01*
G03Y276302I2000J-27D01*
G01Y272493D01*
G02X227746Y272287I-400J0D01*
G03Y268372I-3257J-1958D01*
G02X228488Y268166I343J-206D01*
G01Y266805D01*
X225637Y263954D01*
X225524Y263986D01*
G03X220832Y259294I-1036J-3656D01*
G01X220864Y259181D01*
X215513Y253830D01*
X197489D01*
Y253930D01*
X195488D01*
Y253830D01*
X193988D01*
G37*
G36*
G01X200894Y119439D02*
X196098Y124235D01*
G02X196381Y124917I283J283D01*
G01X196680D01*
Y125188D01*
X198332D01*
X199332Y126188D01*
X201040D01*
Y125793D01*
X203040D01*
Y126188D01*
X206340D01*
Y122993D01*
X207090D01*
Y121922D01*
X204606Y119439D01*
X200894D01*
G37*
%LPC*%
G75*
G54D31*
X117334Y150537D03*
X117501Y215411D03*
X117514Y280437D03*
X224540Y150393D03*
X224500Y215506D03*
X224489Y280330D03*
%LPD*%
G75*
G54D10*
X46011Y109973D03*
Y143474D03*
X46178Y173848D03*
Y208348D03*
X46191Y239874D03*
Y273374D03*
X109011Y109973D03*
X109178Y173848D03*
X109345Y239871D03*
X153217Y109830D03*
X153177Y174943D03*
X153217Y143330D03*
X153177Y208443D03*
X153166Y239766D03*
Y273266D03*
X216217Y109830D03*
X216177Y174943D03*
X216343Y239703D03*
G54D11*
G01X185000Y183507D02*
X185500D01*
X186968Y182038D01*
Y180695D01*
G01X183032D02*
Y182038D01*
X184500Y183507D01*
X185000D01*
G01Y190318D02*
Y187006D01*
X28000Y126599D03*
Y130599D03*
Y122599D03*
X20000Y126599D03*
Y130599D03*
Y122599D03*
Y192599D03*
Y200599D03*
Y196599D03*
X28000Y192599D03*
Y200599D03*
Y196599D03*
X20000Y257599D03*
Y265599D03*
Y261599D03*
X28000Y257599D03*
Y265599D03*
Y261599D03*
X79255Y95000D03*
X83255D03*
X75255D03*
X79255Y103000D03*
X83255D03*
X75255D03*
X74755Y168000D03*
X82755D03*
X78755D03*
X74755Y160000D03*
X82755D03*
X78755D03*
X72255Y233000D03*
X80255D03*
X76255D03*
X72255Y225000D03*
X80255D03*
X76255D03*
X72255Y290000D03*
X80255D03*
X76255D03*
X72255Y298000D03*
X80255D03*
X76255D03*
X127000Y127599D03*
Y135599D03*
Y131599D03*
D03*
Y135599D03*
Y127599D03*
Y131599D03*
Y135599D03*
Y127599D03*
Y192599D03*
Y200599D03*
Y196599D03*
Y192599D03*
Y200599D03*
Y196599D03*
Y257599D03*
Y265599D03*
Y261599D03*
Y257599D03*
Y265599D03*
Y261599D03*
X135000Y127599D03*
Y135599D03*
Y131599D03*
D03*
Y135599D03*
Y127599D03*
Y131599D03*
Y135599D03*
Y127599D03*
Y192599D03*
Y200599D03*
Y196599D03*
Y192599D03*
Y200599D03*
Y196599D03*
Y257599D03*
Y265599D03*
Y261599D03*
Y257599D03*
Y265599D03*
Y261599D03*
X179255Y95000D03*
X187255D03*
X183255D03*
X183099D03*
X187099D03*
X179099D03*
X179255Y103000D03*
X187255D03*
X183255D03*
X183099D03*
X187099D03*
X179099D03*
X179255Y168000D03*
X187255D03*
X183255D03*
X179255Y160000D03*
X187255D03*
X183255D03*
X179255Y168000D03*
X187255D03*
X183255D03*
X179255Y160000D03*
X187255D03*
X183255D03*
X179255Y233000D03*
X187255D03*
X183255D03*
X179255Y225000D03*
X187255D03*
X183255D03*
X179255Y233000D03*
X187255D03*
X183255D03*
X179255Y225000D03*
X187255D03*
X183255D03*
X179255Y290000D03*
X187255D03*
X183255D03*
X179255D03*
X187255D03*
X183255D03*
X179255Y298000D03*
X187255D03*
X183255D03*
X179255D03*
X187255D03*
X183255D03*
X242000Y135500D03*
Y127500D03*
Y131500D03*
X234000Y135500D03*
Y127500D03*
Y131500D03*
Y127599D03*
Y135599D03*
Y131599D03*
X242000Y127599D03*
Y135599D03*
Y131599D03*
D03*
Y135599D03*
Y127599D03*
X234000Y131599D03*
Y135599D03*
Y127599D03*
X242000Y197099D03*
Y201099D03*
Y193099D03*
X234000Y197099D03*
Y201099D03*
Y193099D03*
X242000Y197099D03*
Y201099D03*
Y193099D03*
X234000Y197099D03*
Y201099D03*
Y193099D03*
X242000Y261599D03*
Y265599D03*
Y257599D03*
X234000Y261599D03*
Y265599D03*
Y257599D03*
X242000Y261599D03*
Y265599D03*
Y257599D03*
X234000Y261599D03*
Y265599D03*
Y257599D03*
G54D20*
X86261Y179000D03*
X93761D03*
G54D30*
G01X53634Y135537D02*
X57334D01*
G01X53634Y115537D02*
X57334D01*
G01X37334Y146837D02*
Y150537D01*
G01D02*
Y154237D01*
G01X33634Y150537D02*
X37334D01*
G01D02*
X41034D01*
G01X37501Y211711D02*
Y215411D01*
G01D02*
Y219111D01*
G01X33801Y215411D02*
X37501D01*
G01D02*
X41201D01*
G01X37514Y276737D02*
Y280437D01*
G01D02*
Y284137D01*
G01X33813Y280437D02*
X37514D01*
G01D02*
X41214D01*
G01X57334Y135537D02*
Y139237D01*
G01Y135537D02*
X61034D01*
G01X57334Y111837D02*
Y115537D01*
G01D02*
Y119237D01*
G01Y115537D02*
X61034D01*
G01X117334Y146837D02*
Y150537D01*
G01X113634D02*
X117334D01*
G01X117501Y211711D02*
Y215411D01*
G01X113801D02*
X117501D01*
G01X117514Y276737D02*
Y280437D01*
G01X113813D02*
X117514D01*
G01X164540Y131193D02*
Y134893D01*
G01D02*
Y138594D01*
G01Y134893D02*
X168240D01*
G01X164540Y111193D02*
Y114893D01*
G01X160840D02*
X164540D01*
G01D02*
X168240D01*
G01X144540Y146693D02*
Y150393D01*
G01D02*
Y154094D01*
G01X140840Y150393D02*
X144540D01*
G01D02*
X148240D01*
G01X144500Y211806D02*
Y215506D01*
G01D02*
Y219207D01*
G01X140800Y215506D02*
X144500D01*
G01D02*
X148200D01*
G01X144488Y276629D02*
Y280330D01*
G01D02*
Y284030D01*
G01X140788Y280330D02*
X144488D01*
G01D02*
X148189D01*
G01X202040Y124743D02*
Y120989D01*
G01X224540Y146693D02*
Y150393D01*
G01X220840D02*
X224540D01*
G01X224500Y211806D02*
Y215506D01*
G01X220800D02*
X224500D01*
G01X224489Y276629D02*
Y280330D01*
G01X220788D02*
X224489D01*
G54D12*
X37334Y110537D03*
X37501Y175411D03*
X37514Y240437D03*
X57334Y135537D03*
X117334Y110537D03*
X102334Y150537D03*
X117501Y175411D03*
X102501Y215411D03*
X117514Y240437D03*
X102513Y280437D03*
X164540Y134893D03*
X144540Y110393D03*
X144500Y175506D03*
X144488Y240330D03*
X209540Y150393D03*
X209500Y215506D03*
X209488Y280330D03*
X224540Y110393D03*
X224500Y175506D03*
X224489Y240330D03*
G54D21*
X89164Y250437D03*
X85864D03*
Y256437D03*
X89164D03*
X196350Y182006D03*
X199650D03*
X196350Y187507D03*
X199650D03*
X186661Y195500D03*
X183361D03*
G54D13*
X37334Y120537D03*
Y130537D03*
X52334Y150537D03*
X37334Y140537D03*
Y150537D03*
X52501Y215411D03*
X37501Y185411D03*
Y195411D03*
Y205411D03*
Y215411D03*
X37514Y250437D03*
X52514Y280437D03*
X37514Y260437D03*
Y270437D03*
Y280437D03*
X57334Y125537D03*
Y115537D03*
X62334Y150537D03*
X72334D03*
X82334D03*
X92334D03*
X62501Y215411D03*
X72501D03*
X82501D03*
X92501D03*
X62514Y280437D03*
X72514D03*
X82514D03*
X92514D03*
X117334Y130537D03*
Y120537D03*
Y150537D03*
Y140537D03*
X117501Y215411D03*
Y205411D03*
Y195411D03*
Y185411D03*
X117514Y250437D03*
Y280437D03*
Y270437D03*
Y260437D03*
X164540Y124893D03*
Y114893D03*
X144540Y120393D03*
Y130393D03*
X159540Y150393D03*
X169540D03*
X144540Y140393D03*
Y150393D03*
X159500Y215506D03*
X169500D03*
X144500Y185507D03*
Y195506D03*
Y205506D03*
Y215506D03*
X144488Y250330D03*
X159488Y280330D03*
X169488D03*
X144488Y260330D03*
Y270330D03*
Y280330D03*
X179540Y150393D03*
X189540D03*
X199540D03*
X179500Y215506D03*
X189500D03*
X199500D03*
X179488Y280330D03*
X189488D03*
X199488D03*
X224540Y130393D03*
Y120393D03*
Y150393D03*
Y140393D03*
X224500Y215506D03*
Y205506D03*
Y195506D03*
Y185507D03*
X224489Y250330D03*
Y280330D03*
Y270330D03*
Y260330D03*
G54D22*
X98361Y187500D03*
X103661D03*
G54D14*
X31334Y126537D03*
Y116537D03*
Y106537D03*
X53334D03*
X53501Y171411D03*
X31501D03*
X31334Y156537D03*
Y146537D03*
Y136537D03*
X53334Y156537D03*
X43334D03*
X31501Y191411D03*
Y181411D03*
Y211411D03*
Y201411D03*
X43501Y221411D03*
X53501D03*
X31501D03*
X53514Y236437D03*
X31514D03*
Y256437D03*
Y246437D03*
X43514Y286437D03*
X53514D03*
X31514Y276437D03*
Y266437D03*
Y286437D03*
X82834Y124537D03*
X78366Y124568D03*
X83334Y106537D03*
X93334D03*
X63334D03*
X73334D03*
X93501Y171411D03*
X83501D03*
X73501D03*
X63501D03*
X93334Y156537D03*
X83334D03*
X73334D03*
X63334D03*
X72258Y188254D03*
X72580Y193568D03*
X89164Y253437D03*
X71045Y250337D03*
X83501Y221411D03*
X93501D03*
X63501D03*
X73501D03*
X93514Y236437D03*
X83514D03*
X73514D03*
X63514D03*
X83514Y286437D03*
X93514D03*
X63514D03*
X73514D03*
X123334Y126537D03*
X103334Y106537D03*
X123334Y116537D03*
Y106537D03*
X123501Y171411D03*
X103501D03*
X103334Y156537D03*
X123334D03*
X113334D03*
X123334Y136537D03*
Y146537D03*
X123501Y191411D03*
Y181411D03*
Y211411D03*
Y201411D03*
Y221411D03*
X103501D03*
X123514Y236437D03*
Y256437D03*
Y246437D03*
X103513Y236437D03*
X123514Y276437D03*
Y266437D03*
Y286437D03*
X103513D03*
X113514D03*
X138540Y136393D03*
Y126393D03*
X170540Y106393D03*
X138540D03*
Y116393D03*
X160540Y106393D03*
X170540Y156393D03*
X138540Y146393D03*
Y156393D03*
X160540D03*
X150540D03*
X170500Y171506D03*
X160500D03*
X138500D03*
Y181507D03*
Y191506D03*
Y201506D03*
Y211506D03*
X170500Y221506D03*
X150500D03*
X160500D03*
X138500D03*
X170488Y236330D03*
X160488D03*
X138488D03*
Y256330D03*
Y246330D03*
X170488Y286330D03*
X150488D03*
X160488D03*
X138488D03*
Y276330D03*
Y266330D03*
X202040Y120989D03*
X210540Y106393D03*
X190540D03*
X200540D03*
X180540D03*
X200540Y156393D03*
X190540D03*
X210540D03*
X180540D03*
X210500Y171506D03*
X200500D03*
X190500D03*
X180500D03*
X185000Y183507D03*
Y187006D03*
X210500Y221506D03*
X190500D03*
X200500D03*
X180500D03*
X190488Y236330D03*
X210489D03*
X200489D03*
Y251330D03*
X180488Y236330D03*
X190488Y286330D03*
X210489D03*
X200489D03*
X180488D03*
X230540Y136393D03*
Y126393D03*
Y116393D03*
Y106393D03*
X220540Y156393D03*
X230540Y146393D03*
Y156393D03*
X230500Y171506D03*
Y181507D03*
Y191506D03*
Y201506D03*
Y211506D03*
X220500Y221506D03*
X230500D03*
X230488Y236330D03*
Y256330D03*
Y246330D03*
Y286330D03*
Y276330D03*
X220489Y286330D03*
X230488Y266330D03*
G54D23*
X187300Y127618D03*
X194780D03*
X187300Y118169D03*
X191040D03*
X194780D03*
G54D24*
X189812Y187475D03*
Y185507D03*
Y183538D03*
X180188Y187475D03*
Y185507D03*
Y183538D03*
G54D15*
X53511Y186850D03*
Y192150D03*
Y199850D03*
Y205150D03*
X54011Y266350D03*
Y271650D03*
X90011Y134850D03*
X82511D03*
X75511D03*
X68511D03*
X90011Y140150D03*
X82511D03*
X75511D03*
X68511D03*
X64511Y192150D03*
Y186850D03*
X91511Y192650D03*
Y187350D03*
X93511Y199850D03*
Y205150D03*
X83511Y199850D03*
Y205150D03*
X73511Y199850D03*
Y205150D03*
X63511Y199850D03*
Y205150D03*
X92511Y266350D03*
Y271650D03*
X82511Y266350D03*
Y271650D03*
X72511Y266350D03*
Y271650D03*
X62511Y266350D03*
Y271650D03*
X104844Y134976D03*
X97511Y134850D03*
X104844Y140276D03*
X97511Y140150D03*
X103511Y199850D03*
Y205150D03*
X102511Y266350D03*
Y271650D03*
X175717Y134706D03*
Y140006D03*
X169510Y201945D03*
Y207246D03*
X160510Y201945D03*
Y207246D03*
X169510Y264648D03*
Y269948D03*
X161510Y264648D03*
Y269948D03*
X212050Y134832D03*
X204717Y134706D03*
X197217D03*
X189717D03*
X182717D03*
X212050Y140132D03*
X204717Y140006D03*
X197217D03*
X189717D03*
X182717D03*
X209510Y201945D03*
Y207246D03*
X199510Y201945D03*
Y207246D03*
X189510Y201945D03*
Y207246D03*
X179510Y201945D03*
Y207246D03*
X209510Y264648D03*
Y269948D03*
X199510Y264648D03*
Y269948D03*
X189510Y264648D03*
Y269948D03*
X179510Y264648D03*
Y269948D03*
G54D16*
X78366Y116132D03*
X82303D03*
X86240D03*
Y120068D03*
Y124006D03*
Y127942D03*
X82303D03*
X78366D03*
X74429D03*
Y124006D03*
Y120068D03*
Y116132D03*
G54D25*
X181063Y180695D03*
X183032D03*
X185000D03*
X186968D03*
X188937D03*
X181063Y190318D03*
X183032D03*
X185000D03*
X186968D03*
X188937D03*
G54D17*
X85001Y193561D03*
Y190261D03*
X77511Y178350D03*
Y181650D03*
X80514Y256587D03*
Y253287D03*
X94834Y127687D03*
Y124387D03*
Y115887D03*
Y119187D03*
X202040Y128043D03*
Y124743D03*
X208040Y128043D03*
Y124743D03*
X196488Y254980D03*
Y251680D03*
G54D26*
X189488Y252522D03*
G54D27*
G01X52334Y150537D02*
X59371Y143500D01*
X65161D01*
X68511Y140150D01*
G01X37501Y195411D02*
X37600D01*
X51361Y181650D01*
X77511D01*
G01X52501Y215411D02*
X53511Y214401D01*
Y205150D01*
G01X37514Y250437D02*
X40514Y247437D01*
X72438D01*
X74982Y249981D01*
Y253280D01*
G01X37514Y240437D02*
Y244437D01*
X33000Y248951D01*
Y252924D01*
X35514Y255437D01*
X62856D01*
X66014Y258595D01*
X71045D01*
G01X52514Y280437D02*
X54011Y278939D01*
Y271650D01*
G01X57334Y125537D02*
X59740Y127942D01*
X74429D01*
G01X86240Y116132D02*
X94590D01*
X94834Y115887D01*
G01X86240Y124006D02*
X83366D01*
X82834Y124537D01*
G01X72334Y150537D02*
X82511Y140360D01*
Y140150D01*
G01X62334Y150537D02*
X68371Y144500D01*
X71161D01*
X75511Y140150D01*
G01X82334Y150537D02*
X90011Y142860D01*
Y140150D01*
G01X92334Y150537D02*
X97511Y145360D01*
Y140150D01*
G01X79970Y188254D02*
Y186792D01*
X86261Y180500D01*
Y179000D01*
G01X77511Y181650D02*
X79861D01*
X82511Y179000D01*
X86261D01*
G01X98361Y187500D02*
X91661D01*
X91511Y187350D01*
G01X76033Y188254D02*
X72258D01*
G01X64511Y186850D02*
X53511D01*
G01X64511D02*
X67861D01*
X68511Y187500D01*
Y190500D01*
X71580Y193568D01*
X72580D01*
G01X76033D02*
X72580D01*
G01X62501Y215411D02*
X63511Y214401D01*
Y205150D01*
G01X72501Y215411D02*
X73511Y214401D01*
Y205150D01*
G01X82501Y215411D02*
X83511Y214401D01*
Y205150D01*
G01X92501Y215411D02*
X93511Y214401D01*
Y205150D01*
G01X89164Y250437D02*
Y253437D01*
G01D02*
Y256437D01*
G01X71045Y253280D02*
Y250337D01*
G01X82514Y280437D02*
X82511Y280435D01*
Y271650D01*
G01X92514Y280437D02*
X92511Y280435D01*
Y271650D01*
G01X62514Y280437D02*
X62511Y280435D01*
Y271650D01*
G01X72514Y280437D02*
X72511Y280435D01*
Y271650D01*
G01X102334Y150537D02*
X104844Y148027D01*
Y140276D01*
G01X117501Y185411D02*
X114100D01*
X108511Y191000D01*
X99011D01*
X98361Y190350D01*
Y187500D01*
G01X102501Y215411D02*
X103511Y214401D01*
Y205150D01*
G01X102513Y280437D02*
X102511Y280435D01*
Y271650D01*
G01X144540Y130393D02*
X154933Y120000D01*
X168489D01*
X178000Y110489D01*
X193280D01*
X194780Y111989D01*
Y118169D01*
G01X164540Y124893D02*
X166445Y122989D01*
X173500D01*
X178320Y118169D01*
X187300D01*
G01X159540Y150393D02*
X166577Y143356D01*
X172367D01*
X175717Y140006D01*
G01X169540Y150393D02*
X174933Y145000D01*
X177724D01*
X182717Y140006D01*
G01X144500Y185507D02*
X151994Y193000D01*
X182000D01*
X183032Y191968D01*
Y190318D01*
G01X144500Y175506D02*
X156468Y187475D01*
X180188D01*
G01X159500Y215506D02*
X160510Y214496D01*
Y207246D01*
G01X169500Y215506D02*
X169510Y215496D01*
Y207246D01*
G01X159488Y280330D02*
X161510Y278308D01*
Y269948D01*
G01X169488Y280330D02*
X169510Y280308D01*
Y269948D01*
G01X187300Y127618D02*
Y124989D01*
X187800Y124489D01*
X194500D01*
X200500Y118489D01*
X205000D01*
X208040Y121529D01*
Y124743D01*
G01X224540Y110393D02*
Y112949D01*
X212745Y124743D01*
X208040D01*
G01X224500Y185507D02*
X218497D01*
X207497Y174506D01*
X183994D01*
X181063Y177437D01*
Y180695D01*
G01X209540Y150393D02*
X212050Y147883D01*
Y140132D01*
G01X199540Y150393D02*
X204717Y145216D01*
Y140006D01*
G01X189540Y150393D02*
X197217Y142716D01*
Y140006D01*
G01X179540Y150393D02*
Y150183D01*
X189717Y140006D01*
G01X224500Y175506D02*
Y179489D01*
X229000Y183989D01*
Y187011D01*
X226011Y190000D01*
X220490D01*
X206497Y176006D01*
X186994D01*
X185000Y178000D01*
Y180695D01*
G01X186661Y195500D02*
X186968Y195193D01*
Y190318D01*
G01X199500Y215506D02*
X199510Y215496D01*
Y207246D01*
G01X209500Y215506D02*
X209510Y215496D01*
Y207246D01*
G01X179500Y215506D02*
X179510Y215496D01*
Y207246D01*
G01X189500Y215506D02*
X189510Y215496D01*
Y207246D01*
G01X224489Y250330D02*
X221497Y247338D01*
X187980D01*
X187520Y247798D01*
Y250172D01*
G01X224489Y240330D02*
X218980Y245838D01*
X187480D01*
X185488Y247830D01*
Y254830D01*
X186146Y255487D01*
X187520D01*
G01X209488Y280330D02*
X209510Y280308D01*
Y269948D01*
G01X189488Y280330D02*
X189510Y280308D01*
Y269948D01*
G01X179488Y280330D02*
X179510Y280308D01*
Y269948D01*
G01X199488Y280330D02*
X199510Y280308D01*
Y269948D01*
G01X224500Y170506D02*
Y175506D01*
G01X-16000Y-91819D02*
Y-16819D01*
X529000D01*
Y-91819D01*
X-16000D01*
G01X12000Y87500D02*
Y304000D01*
X248500D01*
Y87500D01*
X12000D01*
G01X31855Y-51059D02*
G03I-355J0D01*
G01Y-52479D02*
G03I-355J0D01*
G01Y-51659D02*
G03I-355J0D01*
G01Y-52359D02*
G03I-355J0D01*
G01X32345Y-53049D02*
G03I-355J0D01*
G01X30915Y-44449D02*
G03I-355J0D01*
G01X30505Y-45859D02*
G03I-355J0D01*
G01X30305Y-45889D02*
G03I-355J0D01*
G01X30125Y-45969D02*
G03I-355J0D01*
G01X29955Y-46089D02*
G03I-355J0D01*
G01X29835Y-46249D02*
G03I-355J0D01*
G01X29945Y-46109D02*
G03I-355J0D01*
G01X29755Y-46439D02*
G03I-355J0D01*
G01X29735Y-46639D02*
G03I-355J0D01*
G01Y-47499D02*
G03I-355J0D01*
G01Y-46799D02*
G03I-355J0D01*
G01Y-48189D02*
G03I-355J0D01*
G01Y-48889D02*
G03I-355J0D01*
G01Y-49579D02*
G03I-355J0D01*
G01Y-50269D02*
G03I-355J0D01*
G01Y-51659D02*
G03I-355J0D01*
G01Y-50969D02*
G03I-355J0D01*
G01Y-52359D02*
G03I-355J0D01*
G01Y-53049D02*
G03I-355J0D01*
G01Y-53739D02*
G03I-355J0D01*
G01Y-55129D02*
G03I-355J0D01*
G01Y-54439D02*
G03I-355J0D01*
G01Y-55829D02*
G03I-355J0D01*
G01Y-56519D02*
G03I-355J0D01*
G01Y-57219D02*
G03I-355J0D01*
G01X28665Y-44589D02*
G03I-355J0D01*
G01X27765Y-44719D02*
G03I-355J0D01*
G01X26425Y-44919D02*
G03I-355J0D01*
G01D02*
G03I-355J0D01*
G01Y-45419D02*
G03I-355J0D01*
G01Y-46109D02*
G03I-355J0D01*
G01Y-46799D02*
G03I-355J0D01*
G01Y-48189D02*
G03I-355J0D01*
G01Y-47499D02*
G03I-355J0D01*
G01Y-48889D02*
G03I-355J0D01*
G01Y-49579D02*
G03I-355J0D01*
G01Y-50269D02*
G03I-355J0D01*
G01Y-50969D02*
G03I-355J0D01*
G01Y-52359D02*
G03I-355J0D01*
G01Y-51659D02*
G03I-355J0D01*
G01Y-53049D02*
G03I-355J0D01*
G01Y-53739D02*
G03I-355J0D01*
G01Y-54439D02*
G03I-355J0D01*
G01Y-55829D02*
G03I-355J0D01*
G01Y-55129D02*
G03I-355J0D01*
G01Y-56519D02*
G03I-355J0D01*
G01Y-57219D02*
G03I-355J0D01*
G01X53275Y-45189D02*
G03I-355J0D01*
G01X53645Y-45419D02*
G03I-355J0D01*
G01X53345Y-56969D02*
G03I-355J0D01*
G01X52075Y-44719D02*
G03I-355J0D01*
G01X52645Y-44919D02*
G03I-355J0D01*
G01X51995Y-47239D02*
G03I-355J0D01*
G01X52135Y-47659D02*
G03I-355J0D01*
G01X52175Y-48109D02*
G03I-355J0D01*
G01Y-48189D02*
G03I-355J0D01*
G01X52085Y-47499D02*
G03I-355J0D01*
G01X52175Y-48889D02*
G03I-355J0D01*
G01Y-49579D02*
G03I-355J0D01*
G01Y-50269D02*
G03I-355J0D01*
G01Y-50969D02*
G03I-355J0D01*
G01Y-52359D02*
G03I-355J0D01*
G01Y-51659D02*
G03I-355J0D01*
G01Y-53049D02*
G03I-355J0D01*
G01Y-53779D02*
G03I-355J0D01*
G01Y-53739D02*
G03I-355J0D01*
G01X52115Y-54359D02*
G03I-355J0D01*
G01X52085Y-54439D02*
G03I-355J0D01*
G01X52765Y-57239D02*
G03I-355J0D01*
G01X52815Y-57219D02*
G03I-355J0D01*
G01X51835Y-44639D02*
G03I-355J0D01*
G01X51425Y-46569D02*
G03I-355J0D01*
G01X51755Y-46869D02*
G03I-355J0D01*
G01X51675Y-46799D02*
G03I-355J0D01*
G01X51925Y-54919D02*
G03I-355J0D01*
G01X51625Y-55429D02*
G03I-355J0D01*
G01X51155Y-55799D02*
G03I-355J0D01*
G01X51795Y-55129D02*
G03I-355J0D01*
G01X50985Y-44479D02*
G03I-355J0D01*
G01X50515Y-46019D02*
G03I-355J0D01*
G01X50995Y-46249D02*
G03I-355J0D01*
G01X50705Y-46109D02*
G03I-355J0D01*
G01X51095Y-55829D02*
G03I-355J0D01*
G01X50625Y-56059D02*
G03I-355J0D01*
G01X50125Y-44449D02*
G03I-355J0D01*
G01X49455Y-45859D02*
G03I-355J0D01*
G01X49995Y-45889D02*
G03I-355J0D01*
G01X50055Y-56219D02*
G03I-355J0D01*
G01X49455Y-56259D02*
G03I-355J0D01*
G01X48005Y-45859D02*
G03I-355J0D01*
G01X47845Y-56259D02*
G03I-355J0D01*
G01X47015Y-44449D02*
G03I-355J0D01*
G01X46885Y-46049D02*
G03I-355J0D01*
G01X47435Y-45899D02*
G03I-355J0D01*
G01X47365Y-56209D02*
G03I-355J0D01*
G01X46895Y-56059D02*
G03I-355J0D01*
G01X46215Y-44479D02*
G03I-355J0D01*
G01X46385Y-46319D02*
G03I-355J0D01*
G01X46785Y-46109D02*
G03I-355J0D01*
G01X46475Y-55829D02*
G03I-355J0D01*
G01X46115Y-55509D02*
G03I-355J0D01*
G01X46485Y-55829D02*
G03I-355J0D01*
G01X45415Y-44619D02*
G03I-355J0D01*
G01X45955Y-46689D02*
G03I-355J0D01*
G01D02*
G03I-355J0D01*
G01X45855Y-46799D02*
G03I-355J0D01*
G01X45485Y-47349D02*
G03I-355J0D01*
G01X45685Y-46999D02*
G03I-355J0D01*
G01X45325Y-48149D02*
G03I-355J0D01*
G01X45365Y-47739D02*
G03I-355J0D01*
G01X45435Y-47499D02*
G03I-355J0D01*
G01X45325Y-48189D02*
G03I-355J0D01*
G01Y-48889D02*
G03I-355J0D01*
G01Y-49579D02*
G03I-355J0D01*
G01Y-50589D02*
G03I-355J0D01*
G01D02*
G03I-355J0D01*
G01D02*
G03I-355J0D01*
G01Y-50269D02*
G03I-355J0D01*
G01Y-50969D02*
G03I-355J0D01*
G01Y-51659D02*
G03I-355J0D01*
G01Y-52359D02*
G03I-355J0D01*
G01Y-53049D02*
G03I-355J0D01*
G01Y-53779D02*
G03I-355J0D01*
G01Y-53739D02*
G03I-355J0D01*
G01X45505Y-54739D02*
G03I-355J0D01*
G01X45355Y-54269D02*
G03I-355J0D01*
G01X45415Y-54439D02*
G03I-355J0D01*
G01X45765Y-55159D02*
G03I-355J0D01*
G01X45745Y-55129D02*
G03I-355J0D01*
G01X45125Y-44719D02*
G03I-355J0D01*
G01X44655Y-44879D02*
G03I-355J0D01*
G01X44605Y-57239D02*
G03I-355J0D01*
G01X44545Y-57219D02*
G03I-355J0D01*
G01X43945Y-45269D02*
G03I-355J0D01*
G01X43765Y-45419D02*
G03I-355J0D01*
G01X43955Y-56949D02*
G03I-355J0D01*
G01X43315Y-45779D02*
G03I-355J0D01*
G01X42945Y-46089D02*
G03I-355J0D01*
G01X42655Y-46469D02*
G03I-355J0D01*
G01X42935Y-46109D02*
G03I-355J0D01*
G01X42655Y-55909D02*
G03I-355J0D01*
G01X42605Y-55829D02*
G03I-355J0D01*
G01X42965Y-56279D02*
G03I-355J0D01*
G01X43355Y-56569D02*
G03I-355J0D01*
G01X43285Y-56519D02*
G03I-355J0D01*
G01X42425Y-46889D02*
G03I-355J0D01*
G01X42295Y-47349D02*
G03I-355J0D01*
G01X42425Y-46889D02*
G03I-355J0D01*
G01X42475Y-46799D02*
G03I-355J0D01*
G01X42255Y-47829D02*
G03I-355J0D01*
G01X42285Y-47499D02*
G03I-355J0D01*
G01X42255Y-48189D02*
G03I-355J0D01*
G01Y-48889D02*
G03I-355J0D01*
G01Y-49579D02*
G03I-355J0D01*
G01Y-50589D02*
G03I-355J0D01*
G01D02*
G03I-355J0D01*
G01D02*
G03I-355J0D01*
G01Y-50269D02*
G03I-355J0D01*
G01Y-50969D02*
G03I-355J0D01*
G01Y-51659D02*
G03I-355J0D01*
G01Y-52359D02*
G03I-355J0D01*
G01Y-53049D02*
G03I-355J0D01*
G01Y-53739D02*
G03I-355J0D01*
G01Y-54519D02*
G03I-355J0D01*
G01X42285Y-55009D02*
G03I-355J0D01*
G01X42255Y-54439D02*
G03I-355J0D01*
G01X42425Y-55479D02*
G03I-355J0D01*
G01X42325Y-55129D02*
G03I-355J0D01*
G01X39555Y-57219D02*
G03I-355J0D01*
G01X38705Y-46099D02*
G03I-355J0D01*
G01X38925Y-46409D02*
G03I-355J0D01*
G01X38715Y-46109D02*
G03I-355J0D01*
G01X39075Y-46759D02*
G03I-355J0D01*
G01X39165Y-47139D02*
G03I-355J0D01*
G01X39185Y-47519D02*
G03I-355J0D01*
G01X39085Y-46799D02*
G03I-355J0D01*
G01X39185Y-47499D02*
G03I-355J0D01*
G01Y-48189D02*
G03I-355J0D01*
G01Y-48889D02*
G03I-355J0D01*
G01Y-49519D02*
G03I-355J0D01*
G01X39145Y-49999D02*
G03I-355J0D01*
G01X39175Y-49579D02*
G03I-355J0D01*
G01X39025Y-50459D02*
G03I-355J0D01*
G01X39075Y-50269D02*
G03I-355J0D01*
G01X38805Y-50879D02*
G03I-355J0D01*
G01X38515Y-51259D02*
G03I-355J0D01*
G01X38745Y-50969D02*
G03I-355J0D01*
G01X38915Y-56519D02*
G03I-355J0D01*
G01X37805Y-45219D02*
G03I-355J0D01*
G01X38295Y-45619D02*
G03I-355J0D01*
G01X38045Y-45419D02*
G03I-355J0D01*
G01X38155Y-51569D02*
G03I-355J0D01*
G01X37555Y-51909D02*
G03I-355J0D01*
G01X37995Y-51659D02*
G03I-355J0D01*
G01X37655Y-55129D02*
G03I-355J0D01*
G01X38285Y-55829D02*
G03I-355J0D01*
G01X37255Y-44919D02*
G03I-355J0D01*
G01X36895Y-52149D02*
G03I-355J0D01*
G01X37025Y-54439D02*
G03I-355J0D01*
G01X36335Y-44719D02*
G03I-355J0D01*
G01X35905Y-47019D02*
G03I-355J0D01*
G01X36115Y-47869D02*
G03I-355J0D01*
G01X36055Y-47429D02*
G03I-355J0D01*
G01X36065Y-47499D02*
G03I-355J0D01*
G01X36115Y-48189D02*
G03I-355J0D01*
G01Y-48969D02*
G03I-355J0D01*
G01Y-48889D02*
G03I-355J0D01*
G01X35945Y-49829D02*
G03I-355J0D01*
G01X36065Y-49409D02*
G03I-355J0D01*
G01X36015Y-49579D02*
G03I-355J0D01*
G01X36215Y-52269D02*
G03I-355J0D01*
G01X36385Y-53739D02*
G03I-355J0D01*
G01X35915Y-57219D02*
G03I-355J0D01*
G01X35615Y-44569D02*
G03I-355J0D01*
G01X35365Y-46339D02*
G03I-355J0D01*
G01X35775Y-46799D02*
G03I-355J0D01*
G01X35675Y-46649D02*
G03I-355J0D01*
G01X35295Y-50599D02*
G03I-355J0D01*
G01X35755Y-50229D02*
G03I-355J0D01*
G01X35705Y-50269D02*
G03I-355J0D01*
G01X35515Y-52279D02*
G03I-355J0D01*
G01Y-52359D02*
G03I-355J0D01*
G01Y-52789D02*
G03I-355J0D01*
G01X35755Y-53049D02*
G03I-355J0D01*
G01X35325Y-56519D02*
G03I-355J0D01*
G01X34725Y-46049D02*
G03I-355J0D01*
G01X34855Y-46109D02*
G03I-355J0D01*
G01X34215Y-51019D02*
G03I-355J0D01*
G01X34775Y-50869D02*
G03I-355J0D01*
G01X34405Y-50969D02*
G03I-355J0D01*
G01X34135Y-55129D02*
G03I-355J0D01*
G01X34725Y-55829D02*
G03I-355J0D01*
G01X33945Y-44449D02*
G03I-355J0D01*
G01X34045Y-45889D02*
G03I-355J0D01*
G01X33355Y-45859D02*
G03I-355J0D01*
G01X33635Y-51059D02*
G03I-355J0D01*
G01X33535Y-54439D02*
G03I-355J0D01*
G01X32945Y-53739D02*
G03I-355J0D01*
G01X32495Y-62239D02*
G03I-355J0D01*
G01X32395Y-65329D02*
G03I-355J0D01*
G01X32315Y-62329D02*
G03I-355J0D01*
G01X32165Y-62459D02*
G03I-355J0D01*
G01X32035Y-62609D02*
G03I-355J0D01*
G01X31945Y-62789D02*
G03I-355J0D01*
G01X31885Y-62979D02*
G03I-355J0D01*
G01X31865Y-63179D02*
G03I-355J0D01*
G01X31855D02*
G03I-355J0D01*
G01X31865Y-64409D02*
G03I-355J0D01*
G01X31855D02*
G03I-355J0D01*
G01Y-63819D02*
G03I-355J0D01*
G01D02*
G03I-355J0D01*
G01X32245Y-65219D02*
G03I-355J0D01*
G01X32115Y-65089D02*
G03I-355J0D01*
G01X32005Y-64939D02*
G03I-355J0D01*
G01X31925Y-64769D02*
G03I-355J0D01*
G01X31885Y-64589D02*
G03I-355J0D01*
G01X29735Y-57669D02*
G03I-355J0D01*
G01Y-62159D02*
G03I-355J0D01*
G01X29095Y-63829D02*
G03I-355J0D01*
G01X29245Y-63869D02*
G03I-355J0D01*
G01X29375Y-63939D02*
G03I-355J0D01*
G01X29505Y-64039D02*
G03I-355J0D01*
G01X29605Y-64169D02*
G03I-355J0D01*
G01X29675Y-64299D02*
G03I-355J0D01*
G01X29715Y-64449D02*
G03I-355J0D01*
G01X29735Y-64609D02*
G03I-355J0D01*
G01X29715Y-64779D02*
G03I-355J0D01*
G01X29665Y-64939D02*
G03I-355J0D01*
G01X29595Y-65089D02*
G03I-355J0D01*
G01X29485Y-65219D02*
G03I-355J0D01*
G01X29355Y-65329D02*
G03I-355J0D01*
G01X29205Y-65399D02*
G03I-355J0D01*
G01X29045Y-65449D02*
G03I-355J0D01*
G01X28935Y-63819D02*
G03I-355J0D01*
G01Y-63809D02*
G03I-355J0D01*
G01X28875Y-65469D02*
G03I-355J0D01*
G01X27315Y-63809D02*
G03I-355J0D01*
G01Y-63819D02*
G03I-355J0D01*
G01X26425Y-57669D02*
G03I-355J0D01*
G01X27185Y-62159D02*
G03I-355J0D01*
G01X27015Y-62179D02*
G03I-355J0D01*
G01X26855Y-62239D02*
G03I-355J0D01*
G01X26715Y-62329D02*
G03I-355J0D01*
G01X26595Y-62449D02*
G03I-355J0D01*
G01X26505Y-62589D02*
G03I-355J0D01*
G01X26445Y-62749D02*
G03I-355J0D01*
G01X26425Y-62919D02*
G03I-355J0D01*
G01X26445Y-63089D02*
G03I-355J0D01*
G01X26495Y-63259D02*
G03I-355J0D01*
G01X26575Y-63409D02*
G03I-355J0D01*
G01X26685Y-63549D02*
G03I-355J0D01*
G01X26825Y-63659D02*
G03I-355J0D01*
G01X26975Y-63739D02*
G03I-355J0D01*
G01X27145Y-63789D02*
G03I-355J0D01*
G01X26425Y-65469D02*
G03I-355J0D01*
G01X53675Y-62239D02*
G03I-355J0D01*
G01X53465Y-62179D02*
G03I-355J0D01*
G01X53235Y-62159D02*
G03I-355J0D01*
G01X53215Y-65469D02*
G03I-355J0D01*
G01X53425Y-65449D02*
G03I-355J0D01*
G01X53625Y-65409D02*
G03I-355J0D01*
G01X52495Y-62159D02*
G03I-355J0D01*
G01X52275Y-62179D02*
G03I-355J0D01*
G01X52065Y-62239D02*
G03I-355J0D01*
G01X52075Y-65389D02*
G03I-355J0D01*
G01X52295Y-65449D02*
G03I-355J0D01*
G01X52515Y-65469D02*
G03I-355J0D01*
G01X51895Y-57499D02*
G03I-355J0D01*
G01X51865Y-62329D02*
G03I-355J0D01*
G01X51675Y-62459D02*
G03I-355J0D01*
G01X51525Y-62609D02*
G03I-355J0D01*
G01X51395Y-62789D02*
G03I-355J0D01*
G01X51305Y-62999D02*
G03I-355J0D01*
G01X51245Y-63209D02*
G03I-355J0D01*
G01X51225Y-63429D02*
G03I-355J0D01*
G01Y-64179D02*
G03I-355J0D01*
G01X51245Y-64399D02*
G03I-355J0D01*
G01X51305Y-64619D02*
G03I-355J0D01*
G01X51395Y-64819D02*
G03I-355J0D01*
G01X51525Y-65009D02*
G03I-355J0D01*
G01X51685Y-65169D02*
G03I-355J0D01*
G01X51865Y-65299D02*
G03I-355J0D01*
G01X50995Y-57639D02*
G03I-355J0D01*
G01X50085Y-57669D02*
G03I-355J0D01*
G01X49105Y-62159D02*
G03I-355J0D01*
G01Y-65469D02*
G03I-355J0D01*
G01X47335Y-57669D02*
G03I-355J0D01*
G01X46935Y-62239D02*
G03I-355J0D01*
G01X47145Y-62179D02*
G03I-355J0D01*
G01X47355Y-62159D02*
G03I-355J0D01*
G01Y-65469D02*
G03I-355J0D01*
G01X47165Y-65449D02*
G03I-355J0D01*
G01X46985Y-65399D02*
G03I-355J0D01*
G01X46305Y-57609D02*
G03I-355J0D01*
G01X46445Y-62639D02*
G03I-355J0D01*
G01X46585Y-62479D02*
G03I-355J0D01*
G01X46745Y-62339D02*
G03I-355J0D01*
G01X46265Y-63249D02*
G03I-355J0D01*
G01X46285Y-63039D02*
G03I-355J0D01*
G01X46345Y-62829D02*
G03I-355J0D01*
G01X46265Y-64379D02*
G03I-355J0D01*
G01X46805Y-65319D02*
G03I-355J0D01*
G01X46655Y-65209D02*
G03I-355J0D01*
G01X46525Y-65079D02*
G03I-355J0D01*
G01X46415Y-64919D02*
G03I-355J0D01*
G01X46335Y-64749D02*
G03I-355J0D01*
G01X46285Y-64569D02*
G03I-355J0D01*
G01X45285Y-57439D02*
G03I-355J0D01*
G01X43665Y-62159D02*
G03I-355J0D01*
G01Y-65469D02*
G03I-355J0D01*
G01X41075Y-62159D02*
G03I-355J0D01*
G01Y-65469D02*
G03I-355J0D01*
G01X40555Y-62159D02*
G03I-355J0D01*
G01X39965Y-57669D02*
G03I-355J0D01*
G01X39145Y-65469D02*
G03I-355J0D01*
G01X37605Y-62159D02*
G03I-355J0D01*
G01X37055D02*
G03I-355J0D01*
G01Y-65469D02*
G03I-355J0D01*
G01X36305Y-57669D02*
G03I-355J0D01*
G01X34695Y-62159D02*
G03I-355J0D01*
G01Y-63819D02*
G03I-355J0D01*
G01Y-65469D02*
G03I-355J0D01*
G01X32885Y-62159D02*
G03I-355J0D01*
G01X32685Y-62179D02*
G03I-355J0D01*
G01X32925Y-65469D02*
G03I-355J0D01*
G01X32745Y-65449D02*
G03I-355J0D01*
G01X32565Y-65409D02*
G03I-355J0D01*
G01X127000Y103000D02*
Y160000D01*
X28000D01*
Y103000D01*
X127000D01*
G01X242000Y298000D02*
X20000D01*
Y95000D01*
X242000D01*
Y298000D01*
G01X20000Y142999D02*
Y136999D01*
G03X24000Y132999I4000J0D01*
G03X28000Y136999I0J4000D01*
G01Y142999D01*
G01Y110199D02*
Y116199D01*
G03X24000Y120199I-4000J0D01*
G03X20000Y116199I0J-4000D01*
G01Y110199D01*
G01X127000Y168000D02*
Y225000D01*
X28000D01*
Y168000D01*
X127000D01*
G01D02*
Y225000D01*
X28000D01*
Y168000D01*
X127000D01*
G01D02*
Y225000D01*
X28000D01*
Y168000D01*
X127000D01*
G01X28000Y180199D02*
Y186199D01*
G03X24000Y190199I-4000J0D01*
G03X20000Y186199I0J-4000D01*
G01Y180199D01*
G01Y212999D02*
Y206999D01*
G03X24000Y202999I4000J0D01*
G03X28000Y206999I0J4000D01*
G01Y212999D01*
G01X127000Y233000D02*
Y290000D01*
X28000D01*
Y233000D01*
X127000D01*
G01D02*
Y290000D01*
X28000D01*
Y233000D01*
X127000D01*
G01D02*
Y290000D01*
X28000D01*
Y233000D01*
X127000D01*
G01X28000Y245199D02*
Y251199D01*
G03X24000Y255199I-4000J0D01*
G03X20000Y251199I0J-4000D01*
G01Y245199D01*
G01Y277999D02*
Y271999D01*
G03X24000Y267999I4000J0D01*
G03X28000Y271999I0J4000D01*
G01Y277999D01*
G01X54755Y-46429D02*
G03I-355J0D01*
G01X55035Y-46949D02*
G03I-355J0D01*
G01X54955Y-46799D02*
G03I-355J0D01*
G01X55245Y-48109D02*
G03I-355J0D01*
G01X55195Y-47519D02*
G03I-355J0D01*
G01X55245Y-48189D02*
G03I-355J0D01*
G01X55195Y-47499D02*
G03I-355J0D01*
G01X55245Y-48889D02*
G03I-355J0D01*
G01Y-49579D02*
G03I-355J0D01*
G01Y-50269D02*
G03I-355J0D01*
G01Y-51659D02*
G03I-355J0D01*
G01Y-50969D02*
G03I-355J0D01*
G01Y-52359D02*
G03I-355J0D01*
G01Y-53049D02*
G03I-355J0D01*
G01Y-54249D02*
G03I-355J0D01*
G01Y-53739D02*
G03I-355J0D01*
G01X55195Y-54799D02*
G03I-355J0D01*
G01X55225Y-54439D02*
G03I-355J0D01*
G01X54725Y-55789D02*
G03I-355J0D01*
G01X55015Y-55319D02*
G03I-355J0D01*
G01X54685Y-55829D02*
G03I-355J0D01*
G01X55075Y-55129D02*
G03I-355J0D01*
G01X53855Y-45539D02*
G03I-355J0D01*
G01X54375Y-45979D02*
G03I-355J0D01*
G01X54485Y-46109D02*
G03I-355J0D01*
G01X53875Y-56619D02*
G03I-355J0D01*
G01X54335Y-56179D02*
G03I-355J0D01*
G01X53975Y-56519D02*
G03I-355J0D01*
G01X81915Y-46689D02*
G03I-355J0D01*
G01X81935Y-46899D02*
G03I-355J0D01*
G01X81925Y-46799D02*
G03I-355J0D01*
G01X81935Y-47499D02*
G03I-355J0D01*
G01Y-48189D02*
G03I-355J0D01*
G01Y-48889D02*
G03I-355J0D01*
G01Y-49579D02*
G03I-355J0D01*
G01Y-50269D02*
G03I-355J0D01*
G01Y-50969D02*
G03I-355J0D01*
G01Y-51659D02*
G03I-355J0D01*
G01Y-52359D02*
G03I-355J0D01*
G01Y-53049D02*
G03I-355J0D01*
G01Y-53739D02*
G03I-355J0D01*
G01Y-54439D02*
G03I-355J0D01*
G01Y-55129D02*
G03I-355J0D01*
G01Y-55829D02*
G03I-355J0D01*
G01Y-56519D02*
G03I-355J0D01*
G01Y-57219D02*
G03I-355J0D01*
G01X81705Y-44449D02*
G03I-355J0D01*
G01X81135Y-46099D02*
G03I-355J0D01*
G01X81345Y-46129D02*
G03I-355J0D01*
G01X81535Y-46209D02*
G03I-355J0D01*
G01X81705Y-46329D02*
G03I-355J0D01*
G01X81825Y-46499D02*
G03I-355J0D01*
G01X81215Y-46109D02*
G03I-355J0D01*
G01X79475Y-46129D02*
G03I-355J0D01*
G01X79695Y-46099D02*
G03I-355J0D01*
G01X79615Y-46109D02*
G03I-355J0D01*
G01X78735Y-44539D02*
G03I-355J0D01*
G01X78975Y-46509D02*
G03I-355J0D01*
G01X79105Y-46339D02*
G03I-355J0D01*
G01X79285Y-46209D02*
G03I-355J0D01*
G01X78865Y-46929D02*
G03I-355J0D01*
G01X78895Y-46709D02*
G03I-355J0D01*
G01X78885Y-46799D02*
G03I-355J0D01*
G01X78865Y-48189D02*
G03I-355J0D01*
G01Y-47499D02*
G03I-355J0D01*
G01Y-48889D02*
G03I-355J0D01*
G01Y-49579D02*
G03I-355J0D01*
G01Y-50269D02*
G03I-355J0D01*
G01Y-50969D02*
G03I-355J0D01*
G01Y-52359D02*
G03I-355J0D01*
G01Y-51659D02*
G03I-355J0D01*
G01Y-53049D02*
G03I-355J0D01*
G01Y-53739D02*
G03I-355J0D01*
G01Y-54439D02*
G03I-355J0D01*
G01Y-55829D02*
G03I-355J0D01*
G01Y-55129D02*
G03I-355J0D01*
G01Y-56519D02*
G03I-355J0D01*
G01Y-57219D02*
G03I-355J0D01*
G01X77345Y-44719D02*
G03I-355J0D01*
G01X75795Y-44919D02*
G03I-355J0D01*
G01Y-45419D02*
G03I-355J0D01*
G01Y-46109D02*
G03I-355J0D01*
G01Y-47499D02*
G03I-355J0D01*
G01Y-46799D02*
G03I-355J0D01*
G01Y-48189D02*
G03I-355J0D01*
G01Y-48889D02*
G03I-355J0D01*
G01Y-49579D02*
G03I-355J0D01*
G01Y-50269D02*
G03I-355J0D01*
G01Y-51659D02*
G03I-355J0D01*
G01Y-50969D02*
G03I-355J0D01*
G01Y-52359D02*
G03I-355J0D01*
G01Y-53049D02*
G03I-355J0D01*
G01Y-53739D02*
G03I-355J0D01*
G01Y-55129D02*
G03I-355J0D01*
G01Y-54439D02*
G03I-355J0D01*
G01Y-55829D02*
G03I-355J0D01*
G01Y-56519D02*
G03I-355J0D01*
G01Y-57219D02*
G03I-355J0D01*
G01X72255Y-44919D02*
G03I-355J0D01*
G01Y-45419D02*
G03I-355J0D01*
G01Y-46109D02*
G03I-355J0D01*
G01Y-46799D02*
G03I-355J0D01*
G01Y-48189D02*
G03I-355J0D01*
G01Y-47499D02*
G03I-355J0D01*
G01Y-48889D02*
G03I-355J0D01*
G01Y-49579D02*
G03I-355J0D01*
G01Y-50269D02*
G03I-355J0D01*
G01Y-51659D02*
G03I-355J0D01*
G01Y-50969D02*
G03I-355J0D01*
G01Y-52359D02*
G03I-355J0D01*
G01Y-53049D02*
G03I-355J0D01*
G01Y-53739D02*
G03I-355J0D01*
G01Y-54439D02*
G03I-355J0D01*
G01Y-55829D02*
G03I-355J0D01*
G01Y-55129D02*
G03I-355J0D01*
G01Y-56519D02*
G03I-355J0D01*
G01Y-57219D02*
G03I-355J0D01*
G01X68945Y-44919D02*
G03I-355J0D01*
G01Y-45419D02*
G03I-355J0D01*
G01Y-46109D02*
G03I-355J0D01*
G01Y-46799D02*
G03I-355J0D01*
G01Y-48189D02*
G03I-355J0D01*
G01Y-47499D02*
G03I-355J0D01*
G01Y-48889D02*
G03I-355J0D01*
G01Y-49329D02*
G03I-355J0D01*
G01X68915Y-49529D02*
G03I-355J0D01*
G01X68835Y-49719D02*
G03I-355J0D01*
G01X68715Y-49889D02*
G03I-355J0D01*
G01X68895Y-49579D02*
G03I-355J0D01*
G01X68555Y-50009D02*
G03I-355J0D01*
G01X68365Y-50089D02*
G03I-355J0D01*
G01X68325Y-51799D02*
G03I-355J0D01*
G01X68535Y-51879D02*
G03I-355J0D01*
G01X68705Y-52009D02*
G03I-355J0D01*
G01X68835Y-52179D02*
G03I-355J0D01*
G01X68915Y-52379D02*
G03I-355J0D01*
G01X68945Y-52599D02*
G03I-355J0D01*
G01X68905Y-52359D02*
G03I-355J0D01*
G01X68945Y-53049D02*
G03I-355J0D01*
G01Y-53739D02*
G03I-355J0D01*
G01Y-55129D02*
G03I-355J0D01*
G01Y-54439D02*
G03I-355J0D01*
G01Y-55829D02*
G03I-355J0D01*
G01Y-56519D02*
G03I-355J0D01*
G01Y-57219D02*
G03I-355J0D01*
G01X68165Y-50109D02*
G03I-355J0D01*
G01X68115Y-51769D02*
G03I-355J0D01*
G01X62665Y-50109D02*
G03I-355J0D01*
G01X62455Y-50089D02*
G03I-355J0D01*
G01X62265Y-50009D02*
G03I-355J0D01*
G01X62245Y-51869D02*
G03I-355J0D01*
G01X62435Y-51789D02*
G03I-355J0D01*
G01X62635Y-51769D02*
G03I-355J0D01*
G01X61855Y-45419D02*
G03I-355J0D01*
G01Y-44919D02*
G03I-355J0D01*
G01D02*
G03I-355J0D01*
G01Y-46109D02*
G03I-355J0D01*
G01Y-46799D02*
G03I-355J0D01*
G01Y-47499D02*
G03I-355J0D01*
G01Y-48189D02*
G03I-355J0D01*
G01Y-48889D02*
G03I-355J0D01*
G01X62095Y-49879D02*
G03I-355J0D01*
G01X61965Y-49709D02*
G03I-355J0D01*
G01X61885Y-49519D02*
G03I-355J0D01*
G01X61855Y-49309D02*
G03I-355J0D01*
G01X61915Y-49579D02*
G03I-355J0D01*
G01X61885Y-52349D02*
G03I-355J0D01*
G01X61965Y-52159D02*
G03I-355J0D01*
G01X62085Y-51999D02*
G03I-355J0D01*
G01X61885Y-52359D02*
G03I-355J0D01*
G01X61855Y-52549D02*
G03I-355J0D01*
G01Y-53049D02*
G03I-355J0D01*
G01Y-53739D02*
G03I-355J0D01*
G01Y-54439D02*
G03I-355J0D01*
G01Y-55129D02*
G03I-355J0D01*
G01Y-55829D02*
G03I-355J0D01*
G01Y-56519D02*
G03I-355J0D01*
G01Y-57219D02*
G03I-355J0D01*
G01X58555Y-45419D02*
G03I-355J0D01*
G01Y-44919D02*
G03I-355J0D01*
G01Y-46109D02*
G03I-355J0D01*
G01Y-46799D02*
G03I-355J0D01*
G01Y-47499D02*
G03I-355J0D01*
G01Y-48189D02*
G03I-355J0D01*
G01Y-48889D02*
G03I-355J0D01*
G01Y-49579D02*
G03I-355J0D01*
G01Y-50269D02*
G03I-355J0D01*
G01Y-51659D02*
G03I-355J0D01*
G01Y-50969D02*
G03I-355J0D01*
G01Y-52359D02*
G03I-355J0D01*
G01Y-53049D02*
G03I-355J0D01*
G01Y-53739D02*
G03I-355J0D01*
G01Y-54439D02*
G03I-355J0D01*
G01Y-55129D02*
G03I-355J0D01*
G01Y-55829D02*
G03I-355J0D01*
G01Y-56519D02*
G03I-355J0D01*
G01Y-57219D02*
G03I-355J0D01*
G01X91335Y-47159D02*
G03I-355J0D01*
G01X91385Y-47709D02*
G03I-355J0D01*
G01X91365Y-47499D02*
G03I-355J0D01*
G01X91385Y-48189D02*
G03I-355J0D01*
G01Y-48889D02*
G03I-355J0D01*
G01Y-49579D02*
G03I-355J0D01*
G01Y-50269D02*
G03I-355J0D01*
G01Y-50969D02*
G03I-355J0D01*
G01Y-51659D02*
G03I-355J0D01*
G01Y-52359D02*
G03I-355J0D01*
G01Y-53049D02*
G03I-355J0D01*
G01Y-53739D02*
G03I-355J0D01*
G01Y-54439D02*
G03I-355J0D01*
G01Y-55129D02*
G03I-355J0D01*
G01Y-55829D02*
G03I-355J0D01*
G01Y-56519D02*
G03I-355J0D01*
G01Y-57219D02*
G03I-355J0D01*
G01X91175Y-46629D02*
G03I-355J0D01*
G01X90895Y-46149D02*
G03I-355J0D01*
G01X90515Y-45739D02*
G03I-355J0D01*
G01X90855Y-46109D02*
G03I-355J0D01*
G01X91225Y-46799D02*
G03I-355J0D01*
G01X90075Y-45419D02*
G03I-355J0D01*
G01X89865Y-45259D02*
G03I-355J0D01*
G01D02*
G03I-355J0D01*
G01X89135Y-44899D02*
G03I-355J0D01*
G01X88355Y-44679D02*
G03I-355J0D01*
G01X88495Y-44719D02*
G03I-355J0D01*
G01X88025Y-46539D02*
G03I-355J0D01*
G01X88185Y-46779D02*
G03I-355J0D01*
G01X88285Y-47059D02*
G03I-355J0D01*
G01X88315Y-47359D02*
G03I-355J0D01*
G01X88195Y-46799D02*
G03I-355J0D01*
G01X88315Y-47499D02*
G03I-355J0D01*
G01Y-48189D02*
G03I-355J0D01*
G01Y-48889D02*
G03I-355J0D01*
G01Y-49579D02*
G03I-355J0D01*
G01Y-50269D02*
G03I-355J0D01*
G01Y-50969D02*
G03I-355J0D01*
G01Y-51659D02*
G03I-355J0D01*
G01Y-52359D02*
G03I-355J0D01*
G01Y-53049D02*
G03I-355J0D01*
G01Y-53739D02*
G03I-355J0D01*
G01Y-54439D02*
G03I-355J0D01*
G01Y-55129D02*
G03I-355J0D01*
G01Y-55829D02*
G03I-355J0D01*
G01Y-56519D02*
G03I-355J0D01*
G01Y-57219D02*
G03I-355J0D01*
G01X87195Y-44509D02*
G03I-355J0D01*
G01X87325Y-46169D02*
G03I-355J0D01*
G01X87805Y-46339D02*
G03I-355J0D01*
G01X86815Y-46099D02*
G03I-355J0D01*
G01X86895Y-46109D02*
G03I-355J0D01*
G01X86035Y-44449D02*
G03I-355J0D01*
G01X85355Y-46499D02*
G03I-355J0D01*
G01X85485Y-46339D02*
G03I-355J0D01*
G01X85655Y-46209D02*
G03I-355J0D01*
G01X85845Y-46129D02*
G03I-355J0D01*
G01X86055Y-46099D02*
G03I-355J0D01*
G01X85975Y-46109D02*
G03I-355J0D01*
G01X85275Y-46699D02*
G03I-355J0D01*
G01X85255Y-46799D02*
G03I-355J0D01*
G01X85245Y-46909D02*
G03I-355J0D01*
G01Y-47499D02*
G03I-355J0D01*
G01Y-48189D02*
G03I-355J0D01*
G01Y-48889D02*
G03I-355J0D01*
G01Y-49579D02*
G03I-355J0D01*
G01Y-50269D02*
G03I-355J0D01*
G01Y-50969D02*
G03I-355J0D01*
G01Y-51659D02*
G03I-355J0D01*
G01Y-52359D02*
G03I-355J0D01*
G01Y-53049D02*
G03I-355J0D01*
G01Y-53739D02*
G03I-355J0D01*
G01Y-54439D02*
G03I-355J0D01*
G01Y-55129D02*
G03I-355J0D01*
G01Y-55829D02*
G03I-355J0D01*
G01Y-56519D02*
G03I-355J0D01*
G01Y-57219D02*
G03I-355J0D01*
G01X57375Y-62159D02*
G03I-355J0D01*
G01X56895D02*
G03I-355J0D01*
G01Y-65469D02*
G03I-355J0D01*
G01X54235Y-62619D02*
G03I-355J0D01*
G01X54075Y-62459D02*
G03I-355J0D01*
G01X53885Y-62329D02*
G03I-355J0D01*
G01X54535Y-63459D02*
G03I-355J0D01*
G01X54515Y-63229D02*
G03I-355J0D01*
G01X54455Y-63019D02*
G03I-355J0D01*
G01X54365Y-62809D02*
G03I-355J0D01*
G01X54535Y-64149D02*
G03I-355J0D01*
G01X54475Y-64559D02*
G03I-355J0D01*
G01X54515Y-64359D02*
G03I-355J0D01*
G01X54535Y-64149D02*
G03I-355J0D01*
G01X53815Y-65329D02*
G03I-355J0D01*
G01X53995Y-65219D02*
G03I-355J0D01*
G01X54145Y-65079D02*
G03I-355J0D01*
G01X54285Y-64929D02*
G03I-355J0D01*
G01X54395Y-64749D02*
G03I-355J0D01*
G01X82955Y-63009D02*
G03I-355J0D01*
G01X82895Y-63229D02*
G03I-355J0D01*
G01X82875Y-63449D02*
G03I-355J0D01*
G01X82885D02*
G03I-355J0D01*
G01Y-64159D02*
G03I-355J0D01*
G01X82905Y-64359D02*
G03I-355J0D01*
G01X82945Y-64559D02*
G03I-355J0D01*
G01X81935Y-57669D02*
G03I-355J0D01*
G01X80755Y-62159D02*
G03I-355J0D01*
G01X79335D02*
G03I-355J0D01*
G01D02*
G03I-355J0D01*
G01Y-65469D02*
G03I-355J0D01*
G01X78865Y-57669D02*
G03I-355J0D01*
G01X77925Y-62159D02*
G03I-355J0D01*
G01X76035D02*
G03I-355J0D01*
G01Y-65469D02*
G03I-355J0D01*
G01X75795Y-57669D02*
G03I-355J0D01*
G01X74235Y-62159D02*
G03I-355J0D01*
G01X74265Y-65469D02*
G03I-355J0D01*
G01X73335Y-62679D02*
G03I-355J0D01*
G01X73435Y-62529D02*
G03I-355J0D01*
G01X73565Y-62399D02*
G03I-355J0D01*
G01X73715Y-62299D02*
G03I-355J0D01*
G01X73875Y-62219D02*
G03I-355J0D01*
G01X74055Y-62179D02*
G03I-355J0D01*
G01X74075Y-65449D02*
G03I-355J0D01*
G01X73895Y-65409D02*
G03I-355J0D01*
G01X73725Y-65329D02*
G03I-355J0D01*
G01X73575Y-65219D02*
G03I-355J0D01*
G01X73445Y-65089D02*
G03I-355J0D01*
G01X73335Y-64929D02*
G03I-355J0D01*
G01X73255Y-62839D02*
G03I-355J0D01*
G01X73195Y-63199D02*
G03I-355J0D01*
G01X73215Y-63019D02*
G03I-355J0D01*
G01X73195Y-64399D02*
G03I-355J0D01*
G01X73255Y-64769D02*
G03I-355J0D01*
G01X73215Y-64589D02*
G03I-355J0D01*
G01X72255Y-57669D02*
G03I-355J0D01*
G01X71075Y-62159D02*
G03I-355J0D01*
G01Y-64159D02*
G03I-355J0D01*
G01X71065D02*
G03I-355J0D01*
G01X71045Y-64389D02*
G03I-355J0D01*
G01X70985Y-64609D02*
G03I-355J0D01*
G01X70885Y-64809D02*
G03I-355J0D01*
G01X70755Y-64999D02*
G03I-355J0D01*
G01X70595Y-65159D02*
G03I-355J0D01*
G01X70415Y-65289D02*
G03I-355J0D01*
G01X70205Y-65389D02*
G03I-355J0D01*
G01X69985Y-65449D02*
G03I-355J0D01*
G01X69755Y-65469D02*
G03I-355J0D01*
G01X69235D02*
G03I-355J0D01*
G01X68945Y-57669D02*
G03I-355J0D01*
G01X69015Y-65449D02*
G03I-355J0D01*
G01X68815Y-65399D02*
G03I-355J0D01*
G01X68615Y-65299D02*
G03I-355J0D01*
G01X68435Y-65179D02*
G03I-355J0D01*
G01X68285Y-65029D02*
G03I-355J0D01*
G01X68005Y-62159D02*
G03I-355J0D01*
G01X68015Y-64449D02*
G03I-355J0D01*
G01X67995Y-64229D02*
G03I-355J0D01*
G01X68005D02*
G03I-355J0D01*
G01X68165Y-64849D02*
G03I-355J0D01*
G01X68065Y-64649D02*
G03I-355J0D01*
G01X64995Y-62329D02*
G03I-355J0D01*
G01X65175Y-62459D02*
G03I-355J0D01*
G01X65335Y-62619D02*
G03I-355J0D01*
G01X65635Y-63449D02*
G03I-355J0D01*
G01X65465Y-62799D02*
G03I-355J0D01*
G01X65555Y-63009D02*
G03I-355J0D01*
G01X65615Y-63229D02*
G03I-355J0D01*
G01X65635Y-63449D02*
G03I-355J0D01*
G01Y-64159D02*
G03I-355J0D01*
G01X65615Y-64359D02*
G03I-355J0D01*
G01X65575Y-64559D02*
G03I-355J0D01*
G01X65495Y-64749D02*
G03I-355J0D01*
G01X65385Y-64929D02*
G03I-355J0D01*
G01X65255Y-65089D02*
G03I-355J0D01*
G01X65095Y-65219D02*
G03I-355J0D01*
G01X64915Y-65329D02*
G03I-355J0D01*
G01X64345Y-62159D02*
G03I-355J0D01*
G01X64565Y-62179D02*
G03I-355J0D01*
G01X64785Y-62239D02*
G03I-355J0D01*
G01X64725Y-65409D02*
G03I-355J0D01*
G01X64525Y-65449D02*
G03I-355J0D01*
G01X64325Y-65469D02*
G03I-355J0D01*
G01X62565Y-62159D02*
G03I-355J0D01*
G01Y-65469D02*
G03I-355J0D01*
G01X61855Y-57669D02*
G03I-355J0D01*
G01X60205Y-62159D02*
G03I-355J0D01*
G01Y-65469D02*
G03I-355J0D01*
G01X59655D02*
G03I-355J0D01*
G01X58555Y-57669D02*
G03I-355J0D01*
G01X91385D02*
G03I-355J0D01*
G01X91255Y-62519D02*
G03I-355J0D01*
G01X91325Y-62649D02*
G03I-355J0D01*
G01X91365Y-62799D02*
G03I-355J0D01*
G01X91385Y-62959D02*
G03I-355J0D01*
G01X91365Y-63129D02*
G03I-355J0D01*
G01X91315Y-63289D02*
G03I-355J0D01*
G01X91245Y-63439D02*
G03I-355J0D01*
G01X90585Y-62159D02*
G03I-355J0D01*
G01X90745Y-62179D02*
G03I-355J0D01*
G01X90895Y-62219D02*
G03I-355J0D01*
G01X91025Y-62289D02*
G03I-355J0D01*
G01X91155Y-62389D02*
G03I-355J0D01*
G01X91135Y-63569D02*
G03I-355J0D01*
G01X91005Y-63679D02*
G03I-355J0D01*
G01X90855Y-63749D02*
G03I-355J0D01*
G01X90695Y-63799D02*
G03I-355J0D01*
G01X90525Y-63819D02*
G03I-355J0D01*
G01X91145Y-65469D02*
G03I-355J0D01*
G01X90245Y-63819D02*
G03I-355J0D01*
G01D02*
G03I-355J0D01*
G01X88315Y-57669D02*
G03I-355J0D01*
G01Y-62159D02*
G03I-355J0D01*
G01D02*
G03I-355J0D01*
G01Y-63819D02*
G03I-355J0D01*
G01D02*
G03I-355J0D01*
G01Y-65469D02*
G03I-355J0D01*
G01X86185Y-63439D02*
G03I-355J0D01*
G01X86165Y-63219D02*
G03I-355J0D01*
G01X86185Y-64169D02*
G03I-355J0D01*
G01X86165Y-64399D02*
G03I-355J0D01*
G01X86185Y-64169D02*
G03I-355J0D01*
G01X86105Y-62999D02*
G03I-355J0D01*
G01X86015Y-62799D02*
G03I-355J0D01*
G01X85885Y-62619D02*
G03I-355J0D01*
G01X85725Y-62459D02*
G03I-355J0D01*
G01X85545Y-62329D02*
G03I-355J0D01*
G01X85345Y-62239D02*
G03I-355J0D01*
G01X86105Y-64609D02*
G03I-355J0D01*
G01X85325Y-65389D02*
G03I-355J0D01*
G01X85535Y-65299D02*
G03I-355J0D01*
G01X85725Y-65169D02*
G03I-355J0D01*
G01X85885Y-65009D02*
G03I-355J0D01*
G01X86015Y-64819D02*
G03I-355J0D01*
G01X85245Y-57669D02*
G03I-355J0D01*
G01X85125Y-62179D02*
G03I-355J0D01*
G01X84905Y-62159D02*
G03I-355J0D01*
G01X84885Y-65469D02*
G03I-355J0D01*
G01X85115Y-65449D02*
G03I-355J0D01*
G01X84165Y-62159D02*
G03I-355J0D01*
G01X83945Y-62179D02*
G03I-355J0D01*
G01X83725Y-62239D02*
G03I-355J0D01*
G01X83605Y-65329D02*
G03I-355J0D01*
G01X83795Y-65409D02*
G03I-355J0D01*
G01X83995Y-65449D02*
G03I-355J0D01*
G01X84195Y-65469D02*
G03I-355J0D01*
G01X83525Y-62329D02*
G03I-355J0D01*
G01X83335Y-62459D02*
G03I-355J0D01*
G01X83175Y-62619D02*
G03I-355J0D01*
G01X83045Y-62799D02*
G03I-355J0D01*
G01X83025Y-64749D02*
G03I-355J0D01*
G01X83135Y-64929D02*
G03I-355J0D01*
G01X83265Y-65089D02*
G03I-355J0D01*
G01X83425Y-65219D02*
G03I-355J0D01*
G01X95655Y103000D02*
X89655D01*
G03X85655Y99000I0J-4000D01*
G03X89655Y95000I4000J0D01*
G01X95655D01*
G01X62855D02*
X68855D01*
G03X72855Y99000I0J4000D01*
G03X68855Y103000I-4000J0D01*
G01X62855D01*
G01X62355Y160000D02*
X68355D01*
G03X72355Y164000I0J4000D01*
G03X68355Y168000I-4000J0D01*
G01X62355D01*
G01X95155D02*
X89155D01*
G03X85155Y164000I0J-4000D01*
G03X89155Y160000I4000J0D01*
G01X95155D01*
G01X59855Y225000D02*
X65855D01*
G03X69855Y229000I0J4000D01*
G03X65855Y233000I-4000J0D01*
G01X59855D01*
G01X92655D02*
X86655D01*
G03X82655Y229000I0J-4000D01*
G03X86655Y225000I4000J0D01*
G01X92655D01*
G01X59855Y290000D02*
X65855D01*
G03X69855Y294000I0J4000D01*
G03X65855Y298000I-4000J0D01*
G01X59855D01*
G01X92655D02*
X86655D01*
G03X82655Y294000I0J-4000D01*
G03X86655Y290000I4000J0D01*
G01X92655D01*
G01X135000Y115199D02*
Y121199D01*
G03X131000Y125199I-4000J0D01*
G01D02*
G03X127000Y121199I0J-4000D01*
G01Y115199D01*
G01X131000Y137999D02*
G03X135000Y141999I0J4000D01*
G01Y147999D01*
G01X127000D02*
Y141999D01*
G03X131000Y137999I4000J0D01*
G01X135000Y180199D02*
Y186199D01*
G03X131000Y190199I-4000J0D01*
G01Y202999D02*
G03X135000Y206999I0J4000D01*
G01Y212999D01*
G01X127000D02*
Y206999D01*
G03X131000Y202999I4000J0D01*
G01Y190199D02*
G03X127000Y186199I0J-4000D01*
G01Y180199D01*
G01X135000Y245199D02*
Y251199D01*
G03X131000Y255199I-4000J0D01*
G01X135000Y245199D02*
Y251199D01*
G03X131000Y255199I-4000J0D01*
G03X127000Y251199I0J-4000D01*
G01Y245199D01*
G01X131000Y267999D02*
G03X135000Y271999I0J4000D01*
G01Y277999D01*
G01X127000D02*
Y271999D01*
G03X131000Y267999I4000J0D01*
G03X135000Y271999I0J4000D01*
G01Y277999D01*
G01X141773Y-62235D02*
X141453Y-61985D01*
X141080Y-61819D01*
X140653D01*
X140173Y-62069D01*
X139800Y-62485D01*
X139533Y-62985D01*
X139320Y-63819D01*
X139267Y-64569D01*
X139373Y-65319D01*
X139533Y-65819D01*
X139853Y-66319D01*
X140227Y-66652D01*
X140600Y-66819D01*
X140973D01*
X141347Y-66652D01*
X141667Y-66402D01*
X141933Y-66069D01*
G01X143680Y-66819D02*
Y-61819D01*
G01X145920D02*
Y-66819D01*
G01Y-64319D02*
X143680D01*
G01X150067Y-66819D02*
X147933D01*
Y-61819D01*
X150067D01*
G01X149213Y-64235D02*
X147933D01*
G01X154373Y-62235D02*
X154053Y-61985D01*
X153680Y-61819D01*
X153253D01*
X152773Y-62069D01*
X152400Y-62485D01*
X152133Y-62985D01*
X151920Y-63819D01*
X151867Y-64569D01*
X151973Y-65319D01*
X152133Y-65819D01*
X152453Y-66319D01*
X152827Y-66652D01*
X153200Y-66819D01*
X153573D01*
X153947Y-66652D01*
X154267Y-66402D01*
X154533Y-66069D01*
G01X156227Y-66819D02*
Y-61819D01*
G01X158253D02*
X156227Y-64902D01*
G01X158573Y-66819D02*
X157133Y-63485D01*
G01X162667Y-66819D02*
X160533D01*
Y-61819D01*
X162667D01*
G01X161813Y-64235D02*
X160533D01*
G01X164733Y-66819D02*
Y-61819D01*
X166067D01*
X166493Y-62069D01*
X166760Y-62402D01*
X166867Y-63069D01*
X166760Y-63735D01*
X166440Y-64152D01*
X166067Y-64402D01*
X164733D01*
G01X166067D02*
X166867Y-66819D01*
G01X170000Y-66985D02*
X169893Y-66902D01*
Y-66735D01*
X170000Y-66652D01*
X170107Y-66735D01*
Y-66902D01*
X170000Y-66985D01*
G01Y-64735D02*
X169893Y-64652D01*
Y-64485D01*
X170000Y-64402D01*
X170107Y-64485D01*
Y-64652D01*
X170000Y-64735D01*
G01X139533Y-87819D02*
X139800Y-88319D01*
X140120Y-88652D01*
X140493Y-88819D01*
X140920Y-88652D01*
X141240Y-88319D01*
X141560Y-87819D01*
X141667Y-87152D01*
Y-83819D01*
G01X144800Y-88819D02*
X144373Y-88735D01*
X144000Y-88402D01*
X143680Y-87902D01*
X143467Y-87319D01*
X143360Y-86652D01*
Y-85985D01*
X143467Y-85319D01*
X143680Y-84735D01*
X144000Y-84235D01*
X144373Y-83902D01*
X144800Y-83819D01*
X145227Y-83902D01*
X145600Y-84235D01*
X145920Y-84735D01*
X146133Y-85319D01*
X146240Y-85985D01*
Y-86652D01*
X146133Y-87319D01*
X145920Y-87902D01*
X145600Y-88402D01*
X145227Y-88735D01*
X144800Y-88819D01*
G01X149427Y-86152D02*
X149640Y-85902D01*
X149800Y-85485D01*
X149907Y-84902D01*
X149800Y-84402D01*
X149587Y-84069D01*
X149213Y-83819D01*
X147773D01*
Y-88819D01*
X149533D01*
X149907Y-88485D01*
X150120Y-87985D01*
X150227Y-87402D01*
X150120Y-86819D01*
X149800Y-86319D01*
X149427Y-86152D01*
X147773D01*
G01X152133Y-90485D02*
X153200Y-83819D01*
G01X154267D02*
X153200Y-90485D01*
G01X151600Y-87985D02*
X154800D01*
G01Y-86319D02*
X151600D01*
G01X157400Y-88985D02*
X157293Y-88902D01*
Y-88735D01*
X157400Y-88652D01*
X157507Y-88735D01*
Y-88902D01*
X157400Y-88985D01*
G01Y-86735D02*
X157293Y-86652D01*
Y-86485D01*
X157400Y-86402D01*
X157507Y-86485D01*
Y-86652D01*
X157400Y-86735D01*
G01X166587Y-73652D02*
X166907Y-73152D01*
X167280Y-72902D01*
X167707Y-72819D01*
X168240Y-72985D01*
X168613Y-73402D01*
X168720Y-73902D01*
X168667Y-74402D01*
X168453Y-74819D01*
X167387Y-75652D01*
X166907Y-76235D01*
X166587Y-77069D01*
X166480Y-77819D01*
X168720D01*
G01X171800Y-72819D02*
X171373Y-72985D01*
X171053Y-73402D01*
X170840Y-73902D01*
X170680Y-74569D01*
X170627Y-75319D01*
X170680Y-76069D01*
X170840Y-76735D01*
X171053Y-77235D01*
X171373Y-77652D01*
X171800Y-77819D01*
X172227Y-77652D01*
X172547Y-77235D01*
X172760Y-76735D01*
X172920Y-76069D01*
X172973Y-75319D01*
X172920Y-74569D01*
X172760Y-73902D01*
X172547Y-73402D01*
X172227Y-72985D01*
X171800Y-72819D01*
G01X176000Y-77819D02*
Y-72819D01*
X175360Y-73818D01*
G01Y-77819D02*
X176640D01*
G01X180840D02*
Y-72819D01*
X178867Y-76402D01*
X181533D01*
G01X183707Y-76152D02*
X185093D01*
G01X188600Y-77819D02*
Y-72819D01*
X187960Y-73818D01*
G01Y-77819D02*
X189240D01*
G01X192800Y-72819D02*
X192373Y-72985D01*
X192053Y-73402D01*
X191840Y-73902D01*
X191680Y-74569D01*
X191627Y-75319D01*
X191680Y-76069D01*
X191840Y-76735D01*
X192053Y-77235D01*
X192373Y-77652D01*
X192800Y-77819D01*
X193227Y-77652D01*
X193547Y-77235D01*
X193760Y-76735D01*
X193920Y-76069D01*
X193973Y-75319D01*
X193920Y-74569D01*
X193760Y-73902D01*
X193547Y-73402D01*
X193227Y-72985D01*
X192800Y-72819D01*
G01X196307Y-76152D02*
X197693D01*
G01X200187Y-73652D02*
X200507Y-73152D01*
X200880Y-72902D01*
X201307Y-72819D01*
X201840Y-72985D01*
X202213Y-73402D01*
X202320Y-73902D01*
X202267Y-74402D01*
X202053Y-74819D01*
X200987Y-75652D01*
X200507Y-76235D01*
X200187Y-77069D01*
X200080Y-77819D01*
X202320D01*
G01X205400Y-72819D02*
X204973Y-72985D01*
X204653Y-73402D01*
X204440Y-73902D01*
X204280Y-74569D01*
X204227Y-75319D01*
X204280Y-76069D01*
X204440Y-76735D01*
X204653Y-77235D01*
X204973Y-77652D01*
X205400Y-77819D01*
X205827Y-77652D01*
X206147Y-77235D01*
X206360Y-76735D01*
X206520Y-76069D01*
X206573Y-75319D01*
X206520Y-74569D01*
X206360Y-73902D01*
X206147Y-73402D01*
X205827Y-72985D01*
X205400Y-72819D01*
G01X140427Y-77819D02*
Y-72819D01*
X141493D01*
X141920Y-73069D01*
X142240Y-73402D01*
X142507Y-73902D01*
X142720Y-74485D01*
X142773Y-75319D01*
X142720Y-76152D01*
X142507Y-76735D01*
X142240Y-77235D01*
X141920Y-77569D01*
X141493Y-77819D01*
X140427D01*
G01X144467D02*
X145800Y-72819D01*
X147133Y-77819D01*
G01X146653Y-76069D02*
X144947D01*
G01X150000Y-72819D02*
Y-77819D01*
G01X148773Y-72819D02*
X151227D01*
G01X155267Y-77819D02*
X153133D01*
Y-72819D01*
X155267D01*
G01X154413Y-75235D02*
X153133D01*
G01X158400Y-77985D02*
X158293Y-77902D01*
Y-77735D01*
X158400Y-77652D01*
X158507Y-77735D01*
Y-77902D01*
X158400Y-77985D01*
G01Y-75735D02*
X158293Y-75652D01*
Y-75485D01*
X158400Y-75402D01*
X158507Y-75485D01*
Y-75652D01*
X158400Y-75735D01*
G01X134000Y-16819D02*
Y-91819D01*
G01X251500Y-68819D02*
X134000D01*
G01X251500Y-79819D02*
X134000D01*
G01X139427Y-55819D02*
Y-50819D01*
X140493D01*
X140920Y-51069D01*
X141240Y-51402D01*
X141507Y-51902D01*
X141720Y-52485D01*
X141773Y-53319D01*
X141720Y-54152D01*
X141507Y-54735D01*
X141240Y-55235D01*
X140920Y-55569D01*
X140493Y-55819D01*
X139427D01*
G01X145867D02*
X143733D01*
Y-50819D01*
X145867D01*
G01X145013Y-53235D02*
X143733D01*
G01X147880Y-55152D02*
X148307Y-55569D01*
X148787Y-55819D01*
X149213D01*
X149640Y-55569D01*
X149960Y-55152D01*
X150120Y-54569D01*
X150013Y-53985D01*
X149747Y-53485D01*
X149267Y-53152D01*
X148627Y-52985D01*
X148253Y-52652D01*
X148093Y-52069D01*
X148200Y-51485D01*
X148467Y-51069D01*
X148840Y-50819D01*
X149213D01*
X149587Y-50985D01*
X149907Y-51402D01*
G01X152560Y-50819D02*
X153840D01*
G01X153200D02*
Y-55819D01*
G01X152560D02*
X153840D01*
G01X157720Y-53319D02*
X158787D01*
Y-54819D01*
X158467Y-55319D01*
X158093Y-55652D01*
X157560Y-55819D01*
X157027Y-55652D01*
X156653Y-55319D01*
X156333Y-54819D01*
X156120Y-54235D01*
X156013Y-53569D01*
Y-52985D01*
X156120Y-52485D01*
X156333Y-51902D01*
X156653Y-51402D01*
X156973Y-51069D01*
X157400Y-50819D01*
X157773D01*
X158200Y-50985D01*
X158520Y-51319D01*
G01X160373Y-55819D02*
Y-50819D01*
X162827Y-55819D01*
Y-50819D01*
G01X166867Y-55819D02*
X164733D01*
Y-50819D01*
X166867D01*
G01X166013Y-53235D02*
X164733D01*
G01X168933Y-55819D02*
Y-50819D01*
X170267D01*
X170693Y-51069D01*
X170960Y-51402D01*
X171067Y-52069D01*
X170960Y-52735D01*
X170640Y-53152D01*
X170267Y-53402D01*
X168933D01*
G01X170267D02*
X171067Y-55819D01*
G01X174200Y-55985D02*
X174093Y-55902D01*
Y-55735D01*
X174200Y-55652D01*
X174307Y-55735D01*
Y-55902D01*
X174200Y-55985D01*
G01Y-53735D02*
X174093Y-53652D01*
Y-53485D01*
X174200Y-53402D01*
X174307Y-53485D01*
Y-53652D01*
X174200Y-53735D01*
G01X139833Y-41819D02*
Y-34319D01*
X141833D01*
X142500Y-34694D01*
X143000Y-35569D01*
X143167Y-36569D01*
X143000Y-37569D01*
X142583Y-38319D01*
X141833Y-38694D01*
X139833D01*
G01X146333Y-41819D02*
Y-34319D01*
X148417D01*
X149083Y-34694D01*
X149500Y-35194D01*
X149667Y-36194D01*
X149500Y-37194D01*
X149000Y-37818D01*
X148417Y-38194D01*
X146333D01*
G01X148417D02*
X149667Y-41819D01*
G01X153500Y-34319D02*
X155500D01*
G01X154500D02*
Y-41819D01*
G01X153500D02*
X155500D01*
G01X158833D02*
Y-34319D01*
X161000Y-40569D01*
X163167Y-34319D01*
Y-41819D01*
G01X165417D02*
X167500Y-34319D01*
X169583Y-41819D01*
G01X168833Y-39194D02*
X166167D01*
G01X172333Y-41819D02*
Y-34319D01*
X174417D01*
X175083Y-34694D01*
X175500Y-35194D01*
X175667Y-36194D01*
X175500Y-37194D01*
X175000Y-37818D01*
X174417Y-38194D01*
X172333D01*
G01X174417D02*
X175667Y-41819D01*
G01X180500D02*
Y-38444D01*
X178833Y-34319D01*
G01X182167D02*
X180500Y-38444D01*
G01X185917Y-39319D02*
X188083D01*
G01X191750Y-40819D02*
X192417Y-41444D01*
X193167Y-41819D01*
X193833D01*
X194500Y-41444D01*
X195000Y-40819D01*
X195250Y-39944D01*
X195083Y-39069D01*
X194667Y-38319D01*
X193917Y-37818D01*
X192917Y-37569D01*
X192333Y-37069D01*
X192083Y-36194D01*
X192250Y-35319D01*
X192667Y-34694D01*
X193250Y-34319D01*
X193833D01*
X194417Y-34568D01*
X194917Y-35194D01*
G01X199000Y-34319D02*
X201000D01*
G01X200000D02*
Y-41819D01*
G01X199000D02*
X201000D01*
G01X204667D02*
Y-34319D01*
X206333D01*
X207000Y-34694D01*
X207500Y-35194D01*
X207917Y-35944D01*
X208250Y-36819D01*
X208333Y-38069D01*
X208250Y-39319D01*
X207917Y-40194D01*
X207500Y-40944D01*
X207000Y-41444D01*
X206333Y-41819D01*
X204667D01*
G01X214667D02*
X211333D01*
Y-34319D01*
X214667D01*
G01X213333Y-37944D02*
X211333D01*
G01X139833Y-21819D02*
Y-29319D01*
X143167D01*
G01X145917D02*
X148000Y-21819D01*
X150083Y-29319D01*
G01X149333Y-26694D02*
X146667D01*
G01X154500Y-29319D02*
Y-25944D01*
X152833Y-21819D01*
G01X156167D02*
X154500Y-25944D01*
G01X162667Y-29319D02*
X159333D01*
Y-21819D01*
X162667D01*
G01X161333Y-25444D02*
X159333D01*
G01X165833Y-29319D02*
Y-21819D01*
X167917D01*
X168583Y-22194D01*
X169000Y-22694D01*
X169167Y-23694D01*
X169000Y-24694D01*
X168500Y-25318D01*
X167917Y-25694D01*
X165833D01*
G01X167917D02*
X169167Y-29319D01*
G01X174000Y-29569D02*
X173833Y-29444D01*
Y-29194D01*
X174000Y-29069D01*
X174167Y-29194D01*
Y-29444D01*
X174000Y-29569D01*
G01Y-26194D02*
X173833Y-26069D01*
Y-25819D01*
X174000Y-25694D01*
X174167Y-25819D01*
Y-26069D01*
X174000Y-26194D01*
G01X251500Y-46819D02*
X134000D01*
G01X251500Y-57819D02*
X134000D01*
G01X234000Y103000D02*
Y160000D01*
X135000D01*
Y103000D01*
X234000D01*
G01X166699Y95000D02*
X172699D01*
G03X176699Y99000I0J4000D01*
G03X172699Y103000I-4000J0D01*
G01X166699D01*
G01X234000Y168000D02*
Y225000D01*
X135000D01*
Y168000D01*
X234000D01*
G01D02*
Y225000D01*
X135000D01*
Y168000D01*
X234000D01*
G01D02*
Y225000D01*
X135000D01*
Y168000D01*
X234000D01*
G01X166855Y160000D02*
X172855D01*
G03X176855Y164000I0J4000D01*
G03X172855Y168000I-4000J0D01*
G01X166855D01*
G01X234000Y233000D02*
Y290000D01*
X135000D01*
Y233000D01*
X234000D01*
G01X135000Y290000D02*
Y233000D01*
G01Y290000D02*
Y233000D01*
G01Y290000D02*
Y233000D01*
G01X166855Y225000D02*
X172855D01*
G03X176855Y229000I0J4000D01*
G01D02*
G03X172855Y233000I-4000J0D01*
G01X166855D01*
G01Y290000D02*
X172855D01*
G03X176855Y294000I0J4000D01*
G03X172855Y298000I-4000J0D01*
G01X166855D01*
G01Y290000D02*
X172855D01*
G03X176855Y294000I0J4000D01*
G01X175033Y-66819D02*
Y-61819D01*
X176367D01*
X176793Y-62069D01*
X177060Y-62402D01*
X177167Y-63069D01*
X177060Y-63735D01*
X176740Y-64152D01*
X176367Y-64402D01*
X175033D01*
G01X176367D02*
X177167Y-66819D01*
G01X180300D02*
X179873Y-66735D01*
X179500Y-66402D01*
X179180Y-65902D01*
X178967Y-65319D01*
X178860Y-64652D01*
Y-63985D01*
X178967Y-63319D01*
X179180Y-62735D01*
X179500Y-62235D01*
X179873Y-61902D01*
X180300Y-61819D01*
X180727Y-61902D01*
X181100Y-62235D01*
X181420Y-62735D01*
X181633Y-63319D01*
X181740Y-63985D01*
Y-64652D01*
X181633Y-65319D01*
X181420Y-65902D01*
X181100Y-66402D01*
X180727Y-66735D01*
X180300Y-66819D01*
G01X183380D02*
Y-61819D01*
G01X185620D02*
Y-66819D01*
G01Y-64319D02*
X183380D01*
G01X187313Y-66819D02*
Y-61819D01*
X188700Y-65985D01*
X190087Y-61819D01*
Y-66819D01*
G01X195980Y-66152D02*
X196407Y-66569D01*
X196887Y-66819D01*
X197313D01*
X197740Y-66569D01*
X198060Y-66152D01*
X198220Y-65569D01*
X198113Y-64985D01*
X197847Y-64485D01*
X197367Y-64152D01*
X196727Y-63985D01*
X196353Y-63652D01*
X196193Y-63069D01*
X196300Y-62485D01*
X196567Y-62069D01*
X196940Y-61819D01*
X197313D01*
X197687Y-61985D01*
X198007Y-62402D01*
G01X202367Y-66819D02*
X200233D01*
Y-61819D01*
X202367D01*
G01X201513Y-64235D02*
X200233D01*
G01X204113Y-66819D02*
Y-61819D01*
X205500Y-65985D01*
X206887Y-61819D01*
Y-66819D01*
G01X209060Y-61819D02*
X210340D01*
G01X209700D02*
Y-66819D01*
G01X209060D02*
X210340D01*
G01X215073Y-62235D02*
X214753Y-61985D01*
X214380Y-61819D01*
X213953D01*
X213473Y-62069D01*
X213100Y-62485D01*
X212833Y-62985D01*
X212620Y-63819D01*
X212567Y-64569D01*
X212673Y-65319D01*
X212833Y-65819D01*
X213153Y-66319D01*
X213527Y-66652D01*
X213900Y-66819D01*
X214273D01*
X214647Y-66652D01*
X214967Y-66402D01*
X215233Y-66069D01*
G01X218100Y-66819D02*
X217673Y-66735D01*
X217300Y-66402D01*
X216980Y-65902D01*
X216767Y-65319D01*
X216660Y-64652D01*
Y-63985D01*
X216767Y-63319D01*
X216980Y-62735D01*
X217300Y-62235D01*
X217673Y-61902D01*
X218100Y-61819D01*
X218527Y-61902D01*
X218900Y-62235D01*
X219220Y-62735D01*
X219433Y-63319D01*
X219540Y-63985D01*
Y-64652D01*
X219433Y-65319D01*
X219220Y-65902D01*
X218900Y-66402D01*
X218527Y-66735D01*
X218100Y-66819D01*
G01X221073D02*
Y-61819D01*
X223527Y-66819D01*
Y-61819D01*
G01X225327Y-66819D02*
Y-61819D01*
X226393D01*
X226820Y-62069D01*
X227140Y-62402D01*
X227407Y-62902D01*
X227620Y-63485D01*
X227673Y-64319D01*
X227620Y-65152D01*
X227407Y-65735D01*
X227140Y-66235D01*
X226820Y-66569D01*
X226393Y-66819D01*
X225327D01*
G01X229527Y-61819D02*
Y-65402D01*
X229740Y-66152D01*
X230167Y-66652D01*
X230700Y-66819D01*
X231233Y-66652D01*
X231660Y-66152D01*
X231873Y-65402D01*
Y-61819D01*
G01X236073Y-62235D02*
X235753Y-61985D01*
X235380Y-61819D01*
X234953D01*
X234473Y-62069D01*
X234100Y-62485D01*
X233833Y-62985D01*
X233620Y-63819D01*
X233567Y-64569D01*
X233673Y-65319D01*
X233833Y-65819D01*
X234153Y-66319D01*
X234527Y-66652D01*
X234900Y-66819D01*
X235273D01*
X235647Y-66652D01*
X235967Y-66402D01*
X236233Y-66069D01*
G01X239100Y-61819D02*
Y-66819D01*
G01X237873Y-61819D02*
X240327D01*
G01X243300Y-66819D02*
X242873Y-66735D01*
X242500Y-66402D01*
X242180Y-65902D01*
X241967Y-65319D01*
X241860Y-64652D01*
Y-63985D01*
X241967Y-63319D01*
X242180Y-62735D01*
X242500Y-62235D01*
X242873Y-61902D01*
X243300Y-61819D01*
X243727Y-61902D01*
X244100Y-62235D01*
X244420Y-62735D01*
X244633Y-63319D01*
X244740Y-63985D01*
Y-64652D01*
X244633Y-65319D01*
X244420Y-65902D01*
X244100Y-66402D01*
X243727Y-66735D01*
X243300Y-66819D01*
G01X246433D02*
Y-61819D01*
X247767D01*
X248193Y-62069D01*
X248460Y-62402D01*
X248567Y-63069D01*
X248460Y-63735D01*
X248140Y-64152D01*
X247767Y-64402D01*
X246433D01*
G01X247767D02*
X248567Y-66819D01*
G01X179533Y-55819D02*
Y-50819D01*
X180813D01*
X181240Y-51069D01*
X181560Y-51652D01*
X181667Y-52319D01*
X181560Y-52985D01*
X181293Y-53485D01*
X180813Y-53735D01*
X179533D01*
G01X184800Y-50819D02*
Y-55819D01*
G01X183573Y-50819D02*
X186027D01*
G01X187880Y-55819D02*
Y-50819D01*
G01X190120D02*
Y-55819D01*
G01Y-53319D02*
X187880D01*
G01X191867Y-50819D02*
X193200Y-55819D01*
X194533Y-50819D01*
G01X196227Y-55819D02*
Y-50819D01*
X197293D01*
X197720Y-51069D01*
X198040Y-51402D01*
X198307Y-51902D01*
X198520Y-52485D01*
X198573Y-53319D01*
X198520Y-54152D01*
X198307Y-54735D01*
X198040Y-55235D01*
X197720Y-55569D01*
X197293Y-55819D01*
X196227D01*
G01X202773Y-51235D02*
X202453Y-50985D01*
X202080Y-50819D01*
X201653D01*
X201173Y-51069D01*
X200800Y-51485D01*
X200533Y-51985D01*
X200320Y-52819D01*
X200267Y-53569D01*
X200373Y-54319D01*
X200533Y-54819D01*
X200853Y-55319D01*
X201227Y-55652D01*
X201600Y-55819D01*
X201973D01*
X202347Y-55652D01*
X202667Y-55402D01*
X202933Y-55069D01*
G01X181500Y-21819D02*
X180833Y-22069D01*
X180333Y-22694D01*
X180000Y-23444D01*
X179750Y-24444D01*
X179667Y-25569D01*
X179750Y-26694D01*
X180000Y-27694D01*
X180333Y-28444D01*
X180833Y-29069D01*
X181500Y-29319D01*
X182167Y-29069D01*
X182667Y-28444D01*
X183000Y-27694D01*
X183250Y-26694D01*
X183333Y-25569D01*
X183250Y-24444D01*
X183000Y-23444D01*
X182667Y-22694D01*
X182167Y-22069D01*
X181500Y-21819D01*
G01X188000Y-29319D02*
Y-21819D01*
X187000Y-23318D01*
G01Y-29319D02*
X189000D01*
G01X199499Y103000D02*
X193499D01*
G03X189499Y99000I0J-4000D01*
G03X193499Y95000I4000J0D01*
G01X199499D01*
G01X199655Y168000D02*
X193655D01*
G03X189655Y164000I0J-4000D01*
G03X193655Y160000I4000J0D01*
G01X199655D01*
G01X189655Y229000D02*
G03X193655Y225000I4000J0D01*
G01X199655D01*
G01Y233000D02*
X193655D01*
G03X189655Y229000I0J-4000D01*
G01X199655Y298000D02*
X193655D01*
G03X189655Y294000I0J-4000D01*
G03X193655Y290000I4000J0D01*
G01X199655D01*
G01X189655Y294000D02*
G03X193655Y290000I4000J0D01*
G01X199655D01*
G01X252580Y-65752D02*
X253273Y-66419D01*
X254053Y-66819D01*
X254747D01*
X255440Y-66419D01*
X255960Y-65752D01*
X256220Y-64818D01*
X256047Y-63885D01*
X255613Y-63085D01*
X254833Y-62552D01*
X253793Y-62285D01*
X253187Y-61752D01*
X252927Y-60819D01*
X253100Y-59885D01*
X253533Y-59219D01*
X254140Y-58819D01*
X254747D01*
X255353Y-59085D01*
X255873Y-59752D01*
G01X262933Y-66819D02*
X259467D01*
Y-58819D01*
X262933D01*
G01X261547Y-62685D02*
X259467D01*
G01X266007Y-66819D02*
Y-58819D01*
X269993Y-66819D01*
Y-58819D01*
G01X272980Y-65752D02*
X273673Y-66419D01*
X274453Y-66819D01*
X275147D01*
X275840Y-66419D01*
X276360Y-65752D01*
X276620Y-64818D01*
X276447Y-63885D01*
X276013Y-63085D01*
X275233Y-62552D01*
X274193Y-62285D01*
X273587Y-61752D01*
X273327Y-60819D01*
X273500Y-59885D01*
X273933Y-59219D01*
X274540Y-58819D01*
X275147D01*
X275753Y-59085D01*
X276273Y-59752D01*
G01X281600Y-66819D02*
X280907Y-66685D01*
X280300Y-66152D01*
X279780Y-65352D01*
X279433Y-64419D01*
X279260Y-63352D01*
Y-62285D01*
X279433Y-61219D01*
X279780Y-60285D01*
X280300Y-59485D01*
X280907Y-58952D01*
X281600Y-58819D01*
X282293Y-58952D01*
X282900Y-59485D01*
X283420Y-60285D01*
X283767Y-61219D01*
X283940Y-62285D01*
Y-63352D01*
X283767Y-64419D01*
X283420Y-65352D01*
X282900Y-66152D01*
X282293Y-66685D01*
X281600Y-66819D01*
G01X286667D02*
Y-58819D01*
X288833D01*
X289527Y-59219D01*
X289960Y-59752D01*
X290133Y-60819D01*
X289960Y-61885D01*
X289440Y-62552D01*
X288833Y-62952D01*
X286667D01*
G01X288833D02*
X290133Y-66819D01*
G01X300267D02*
Y-58819D01*
X302347D01*
X303040Y-59219D01*
X303560Y-60152D01*
X303733Y-61219D01*
X303560Y-62285D01*
X303127Y-63085D01*
X302347Y-63486D01*
X300267D01*
G01X307067Y-58819D02*
Y-66819D01*
X310533D01*
G01X313433D02*
X315600Y-58819D01*
X317767Y-66819D01*
G01X316987Y-64019D02*
X314213D01*
G01X322400Y-58819D02*
Y-66819D01*
G01X320407Y-58819D02*
X324393D01*
G01X327553Y-66819D02*
Y-58819D01*
X330847D01*
G01X329633Y-62685D02*
X327553D01*
G01X336000Y-66819D02*
X335307Y-66685D01*
X334700Y-66152D01*
X334180Y-65352D01*
X333833Y-64419D01*
X333660Y-63352D01*
Y-62285D01*
X333833Y-61219D01*
X334180Y-60285D01*
X334700Y-59485D01*
X335307Y-58952D01*
X336000Y-58819D01*
X336693Y-58952D01*
X337300Y-59485D01*
X337820Y-60285D01*
X338167Y-61219D01*
X338340Y-62285D01*
Y-63352D01*
X338167Y-64419D01*
X337820Y-65352D01*
X337300Y-66152D01*
X336693Y-66685D01*
X336000Y-66819D01*
G01X341067D02*
Y-58819D01*
X343233D01*
X343927Y-59219D01*
X344360Y-59752D01*
X344533Y-60819D01*
X344360Y-61885D01*
X343840Y-62552D01*
X343233Y-62952D01*
X341067D01*
G01X343233D02*
X344533Y-66819D01*
G01X347347D02*
Y-58819D01*
X349600Y-65485D01*
X351853Y-58819D01*
Y-66819D01*
G01X353800Y-69485D02*
X359000D01*
G01X363893Y-62552D02*
X364240Y-62152D01*
X364500Y-61485D01*
X364673Y-60552D01*
X364500Y-59752D01*
X364153Y-59219D01*
X363547Y-58819D01*
X361207D01*
Y-66819D01*
X364067D01*
X364673Y-66285D01*
X365020Y-65485D01*
X365193Y-64552D01*
X365020Y-63619D01*
X364500Y-62819D01*
X363893Y-62552D01*
X361207D01*
G01X368267Y-66819D02*
Y-58819D01*
X370433D01*
X371127Y-59219D01*
X371560Y-59752D01*
X371733Y-60819D01*
X371560Y-61885D01*
X371040Y-62552D01*
X370433Y-62952D01*
X368267D01*
G01X370433D02*
X371733Y-66819D01*
G01X378533D02*
X375067D01*
Y-58819D01*
X378533D01*
G01X377147Y-62685D02*
X375067D01*
G01X381433Y-66819D02*
X383600Y-58819D01*
X385767Y-66819D01*
G01X384987Y-64019D02*
X382213D01*
G01X388493Y-66819D02*
Y-58819D01*
G01X391787D02*
X388493Y-63752D01*
G01X392307Y-66819D02*
X389967Y-61485D01*
G01X397200Y-66819D02*
X396507Y-66685D01*
X395900Y-66152D01*
X395380Y-65352D01*
X395033Y-64419D01*
X394860Y-63352D01*
Y-62285D01*
X395033Y-61219D01*
X395380Y-60285D01*
X395900Y-59485D01*
X396507Y-58952D01*
X397200Y-58819D01*
X397893Y-58952D01*
X398500Y-59485D01*
X399020Y-60285D01*
X399367Y-61219D01*
X399540Y-62285D01*
Y-63352D01*
X399367Y-64419D01*
X399020Y-65352D01*
X398500Y-66152D01*
X397893Y-66685D01*
X397200Y-66819D01*
G01X402093Y-58819D02*
Y-64552D01*
X402440Y-65752D01*
X403133Y-66552D01*
X404000Y-66819D01*
X404867Y-66552D01*
X405560Y-65752D01*
X405907Y-64552D01*
Y-58819D01*
G01X410800D02*
Y-66819D01*
G01X408807Y-58819D02*
X412793D01*
G01X425093Y-62552D02*
X425440Y-62152D01*
X425700Y-61485D01*
X425873Y-60552D01*
X425700Y-59752D01*
X425353Y-59219D01*
X424747Y-58819D01*
X422407D01*
Y-66819D01*
X425267D01*
X425873Y-66285D01*
X426220Y-65485D01*
X426393Y-64552D01*
X426220Y-63619D01*
X425700Y-62819D01*
X425093Y-62552D01*
X422407D01*
G01X431200Y-66819D02*
X430507Y-66685D01*
X429900Y-66152D01*
X429380Y-65352D01*
X429033Y-64419D01*
X428860Y-63352D01*
Y-62285D01*
X429033Y-61219D01*
X429380Y-60285D01*
X429900Y-59485D01*
X430507Y-58952D01*
X431200Y-58819D01*
X431893Y-58952D01*
X432500Y-59485D01*
X433020Y-60285D01*
X433367Y-61219D01*
X433540Y-62285D01*
Y-63352D01*
X433367Y-64419D01*
X433020Y-65352D01*
X432500Y-66152D01*
X431893Y-66685D01*
X431200Y-66819D01*
G01X435833D02*
X438000Y-58819D01*
X440167Y-66819D01*
G01X439387Y-64019D02*
X436613D01*
G01X443067Y-66819D02*
Y-58819D01*
X445233D01*
X445927Y-59219D01*
X446360Y-59752D01*
X446533Y-60819D01*
X446360Y-61885D01*
X445840Y-62552D01*
X445233Y-62952D01*
X443067D01*
G01X445233D02*
X446533Y-66819D01*
G01X449693D02*
Y-58819D01*
X451427D01*
X452120Y-59219D01*
X452640Y-59752D01*
X453073Y-60552D01*
X453420Y-61485D01*
X453507Y-62819D01*
X453420Y-64152D01*
X453073Y-65085D01*
X452640Y-65886D01*
X452120Y-66419D01*
X451427Y-66819D01*
X449693D01*
G01X251500Y-16819D02*
Y-91819D01*
G01X454000Y-69319D02*
X251500D01*
G01X454000Y-46819D02*
X251500D01*
G01X238000Y125100D02*
G03X234000Y121100I0J-4000D01*
G01Y115100D01*
G01X242000Y115199D02*
Y121199D01*
G03X238000Y125199I-4000J0D01*
G01X234000Y147900D02*
Y141900D01*
G03X238000Y137900I4000J0D01*
G01Y137999D02*
G03X242000Y141999I0J4000D01*
G01Y147999D01*
G01X238000Y203499D02*
G03X242000Y207499I0J4000D01*
G01Y213499D01*
G01Y180699D02*
Y186699D01*
G03X238000Y190699I-4000J0D01*
G01D02*
G03X234000Y186699I0J-4000D01*
G01Y180699D01*
G01Y213499D02*
Y207499D01*
G03X238000Y203499I4000J0D01*
G01X242000Y245199D02*
Y251199D01*
G03X238000Y255199I-4000J0D01*
G01D02*
G03X234000Y251199I0J-4000D01*
G01Y245199D01*
G01X238000Y267999D02*
G03X242000Y271999I0J4000D01*
G01Y277999D01*
G01X234000D02*
Y271999D01*
G03X238000Y267999I4000J0D01*
G01X254667Y-76819D02*
Y-70819D01*
X256267D01*
X256800Y-71119D01*
X257200Y-71819D01*
X257333Y-72619D01*
X257200Y-73419D01*
X256867Y-74019D01*
X256267Y-74319D01*
X254667D01*
G01X259867Y-76819D02*
Y-70819D01*
X261533D01*
X262067Y-71119D01*
X262400Y-71519D01*
X262533Y-72319D01*
X262400Y-73119D01*
X262000Y-73619D01*
X261533Y-73919D01*
X259867D01*
G01X261533D02*
X262533Y-76819D01*
G01X266400D02*
X265867Y-76719D01*
X265400Y-76319D01*
X265000Y-75719D01*
X264733Y-75019D01*
X264600Y-74219D01*
Y-73419D01*
X264733Y-72619D01*
X265000Y-71918D01*
X265400Y-71319D01*
X265867Y-70919D01*
X266400Y-70819D01*
X266933Y-70919D01*
X267400Y-71319D01*
X267800Y-71918D01*
X268067Y-72619D01*
X268200Y-73419D01*
Y-74219D01*
X268067Y-75019D01*
X267800Y-75719D01*
X267400Y-76319D01*
X266933Y-76719D01*
X266400Y-76819D01*
G01X270267Y-75619D02*
X270600Y-76219D01*
X271000Y-76619D01*
X271467Y-76819D01*
X272000Y-76619D01*
X272400Y-76219D01*
X272800Y-75619D01*
X272933Y-74819D01*
Y-70819D01*
G01X278133Y-76819D02*
X275467D01*
Y-70819D01*
X278133D01*
G01X277067Y-73718D02*
X275467D01*
G01X283467Y-71319D02*
X283067Y-71019D01*
X282600Y-70819D01*
X282067D01*
X281467Y-71119D01*
X281000Y-71619D01*
X280667Y-72219D01*
X280400Y-73219D01*
X280333Y-74119D01*
X280467Y-75019D01*
X280667Y-75619D01*
X281067Y-76219D01*
X281533Y-76619D01*
X282000Y-76819D01*
X282467D01*
X282933Y-76619D01*
X283333Y-76319D01*
X283667Y-75919D01*
G01X287200Y-70819D02*
Y-76819D01*
G01X285667Y-70819D02*
X288733D01*
G01X296067Y-76819D02*
Y-70819D01*
X299133Y-76819D01*
Y-70819D01*
G01X301333D02*
Y-75119D01*
X301600Y-76019D01*
X302133Y-76619D01*
X302800Y-76819D01*
X303467Y-76619D01*
X304000Y-76019D01*
X304267Y-75119D01*
Y-70819D01*
G01X306267Y-76819D02*
Y-70819D01*
X308000Y-75819D01*
X309733Y-70819D01*
Y-76819D01*
G01X313733Y-73619D02*
X314000Y-73319D01*
X314200Y-72819D01*
X314333Y-72118D01*
X314200Y-71519D01*
X313933Y-71119D01*
X313467Y-70819D01*
X311667D01*
Y-76819D01*
X313867D01*
X314333Y-76419D01*
X314600Y-75819D01*
X314733Y-75119D01*
X314600Y-74419D01*
X314200Y-73819D01*
X313733Y-73619D01*
X311667D01*
G01X319733Y-76819D02*
X317067D01*
Y-70819D01*
X319733D01*
G01X318667Y-73718D02*
X317067D01*
G01X322267Y-76819D02*
Y-70819D01*
X323933D01*
X324467Y-71119D01*
X324800Y-71519D01*
X324933Y-72319D01*
X324800Y-73119D01*
X324400Y-73619D01*
X323933Y-73919D01*
X322267D01*
G01X323933D02*
X324933Y-76819D01*
G01X328800Y-77019D02*
X328667Y-76919D01*
Y-76719D01*
X328800Y-76619D01*
X328933Y-76719D01*
Y-76919D01*
X328800Y-77019D01*
G01Y-74319D02*
X328667Y-74219D01*
Y-74019D01*
X328800Y-73919D01*
X328933Y-74019D01*
Y-74219D01*
X328800Y-74319D01*
G01X254667Y-54319D02*
Y-48319D01*
X256267D01*
X256800Y-48619D01*
X257200Y-49319D01*
X257333Y-50119D01*
X257200Y-50919D01*
X256867Y-51519D01*
X256267Y-51819D01*
X254667D01*
G01X259867Y-54319D02*
Y-48319D01*
X261533D01*
X262067Y-48619D01*
X262400Y-49019D01*
X262533Y-49819D01*
X262400Y-50619D01*
X262000Y-51119D01*
X261533Y-51419D01*
X259867D01*
G01X261533D02*
X262533Y-54319D01*
G01X266400D02*
X265867Y-54219D01*
X265400Y-53819D01*
X265000Y-53219D01*
X264733Y-52519D01*
X264600Y-51719D01*
Y-50919D01*
X264733Y-50119D01*
X265000Y-49418D01*
X265400Y-48819D01*
X265867Y-48419D01*
X266400Y-48319D01*
X266933Y-48419D01*
X267400Y-48819D01*
X267800Y-49418D01*
X268067Y-50119D01*
X268200Y-50919D01*
Y-51719D01*
X268067Y-52519D01*
X267800Y-53219D01*
X267400Y-53819D01*
X266933Y-54219D01*
X266400Y-54319D01*
G01X270267Y-53119D02*
X270600Y-53719D01*
X271000Y-54119D01*
X271467Y-54319D01*
X272000Y-54119D01*
X272400Y-53719D01*
X272800Y-53119D01*
X272933Y-52319D01*
Y-48319D01*
G01X278133Y-54319D02*
X275467D01*
Y-48319D01*
X278133D01*
G01X277067Y-51218D02*
X275467D01*
G01X283467Y-48819D02*
X283067Y-48519D01*
X282600Y-48319D01*
X282067D01*
X281467Y-48619D01*
X281000Y-49119D01*
X280667Y-49719D01*
X280400Y-50719D01*
X280333Y-51619D01*
X280467Y-52519D01*
X280667Y-53119D01*
X281067Y-53719D01*
X281533Y-54119D01*
X282000Y-54319D01*
X282467D01*
X282933Y-54119D01*
X283333Y-53819D01*
X283667Y-53419D01*
G01X287200Y-48319D02*
Y-54319D01*
G01X285667Y-48319D02*
X288733D01*
G01X296067Y-54319D02*
Y-48319D01*
X299133Y-54319D01*
Y-48319D01*
G01X301133Y-54319D02*
X302800Y-48319D01*
X304467Y-54319D01*
G01X303867Y-52219D02*
X301733D01*
G01X306267Y-54319D02*
Y-48319D01*
X308000Y-53319D01*
X309733Y-48319D01*
Y-54319D01*
G01X314533D02*
X311867D01*
Y-48319D01*
X314533D01*
G01X313467Y-51218D02*
X311867D01*
G01X318400Y-54519D02*
X318267Y-54419D01*
Y-54219D01*
X318400Y-54119D01*
X318533Y-54219D01*
Y-54419D01*
X318400Y-54519D01*
G01Y-51819D02*
X318267Y-51719D01*
Y-51519D01*
X318400Y-51419D01*
X318533Y-51519D01*
Y-51719D01*
X318400Y-51819D01*
G01X257467Y-18819D02*
X257067Y-18519D01*
X256600Y-18319D01*
X256067D01*
X255467Y-18619D01*
X255000Y-19119D01*
X254667Y-19719D01*
X254400Y-20719D01*
X254333Y-21619D01*
X254467Y-22519D01*
X254667Y-23119D01*
X255067Y-23719D01*
X255533Y-24119D01*
X256000Y-24319D01*
X256467D01*
X256933Y-24119D01*
X257333Y-23819D01*
X257667Y-23419D01*
G01X261200Y-24319D02*
X260667Y-24219D01*
X260200Y-23819D01*
X259800Y-23219D01*
X259533Y-22519D01*
X259400Y-21719D01*
Y-20919D01*
X259533Y-20119D01*
X259800Y-19418D01*
X260200Y-18819D01*
X260667Y-18419D01*
X261200Y-18319D01*
X261733Y-18419D01*
X262200Y-18819D01*
X262600Y-19418D01*
X262867Y-20119D01*
X263000Y-20919D01*
Y-21719D01*
X262867Y-22519D01*
X262600Y-23219D01*
X262200Y-23819D01*
X261733Y-24219D01*
X261200Y-24319D01*
G01X264667D02*
Y-18319D01*
X266400Y-23319D01*
X268133Y-18319D01*
Y-24319D01*
G01X270267D02*
Y-18319D01*
X271867D01*
X272400Y-18619D01*
X272800Y-19319D01*
X272933Y-20119D01*
X272800Y-20919D01*
X272467Y-21519D01*
X271867Y-21819D01*
X270267D01*
G01X275133Y-24319D02*
X276800Y-18319D01*
X278467Y-24319D01*
G01X277867Y-22219D02*
X275733D01*
G01X280467Y-24319D02*
Y-18319D01*
X283533Y-24319D01*
Y-18319D01*
G01X287200Y-24319D02*
Y-21619D01*
X285867Y-18319D01*
G01X288533D02*
X287200Y-21619D01*
G01X296067Y-24319D02*
Y-18319D01*
X299133Y-24319D01*
Y-18319D01*
G01X301133Y-24319D02*
X302800Y-18319D01*
X304467Y-24319D01*
G01X303867Y-22219D02*
X301733D01*
G01X306267Y-24319D02*
Y-18319D01*
X308000Y-23319D01*
X309733Y-18319D01*
Y-24319D01*
G01X314533D02*
X311867D01*
Y-18319D01*
X314533D01*
G01X313467Y-21218D02*
X311867D01*
G01X318400Y-24519D02*
X318267Y-24419D01*
Y-24219D01*
X318400Y-24119D01*
X318533Y-24219D01*
Y-24419D01*
X318400Y-24519D01*
G01Y-21819D02*
X318267Y-21719D01*
Y-21519D01*
X318400Y-21419D01*
X318533Y-21519D01*
Y-21719D01*
X318400Y-21819D01*
G01X278367Y-41819D02*
Y-33819D01*
X280533D01*
X281227Y-34219D01*
X281660Y-34752D01*
X281833Y-35819D01*
X281660Y-36885D01*
X281140Y-37552D01*
X280533Y-37952D01*
X278367D01*
G01X280533D02*
X281833Y-41819D01*
G01X286900D02*
X286207Y-41685D01*
X285600Y-41152D01*
X285080Y-40352D01*
X284733Y-39419D01*
X284560Y-38352D01*
Y-37285D01*
X284733Y-36219D01*
X285080Y-35285D01*
X285600Y-34485D01*
X286207Y-33952D01*
X286900Y-33819D01*
X287593Y-33952D01*
X288200Y-34485D01*
X288720Y-35285D01*
X289067Y-36219D01*
X289240Y-37285D01*
Y-38352D01*
X289067Y-39419D01*
X288720Y-40352D01*
X288200Y-41152D01*
X287593Y-41685D01*
X286900Y-41819D01*
G01X291880D02*
Y-33819D01*
G01X295520D02*
Y-41819D01*
G01Y-37819D02*
X291880D01*
G01X298247Y-41819D02*
Y-33819D01*
X300500Y-40485D01*
X302753Y-33819D01*
Y-41819D01*
G01X312280Y-40752D02*
X312973Y-41419D01*
X313753Y-41819D01*
X314447D01*
X315140Y-41419D01*
X315660Y-40752D01*
X315920Y-39818D01*
X315747Y-38885D01*
X315313Y-38085D01*
X314533Y-37552D01*
X313493Y-37285D01*
X312887Y-36752D01*
X312627Y-35819D01*
X312800Y-34885D01*
X313233Y-34219D01*
X313840Y-33819D01*
X314447D01*
X315053Y-34085D01*
X315573Y-34752D01*
G01X322633Y-41819D02*
X319167D01*
Y-33819D01*
X322633D01*
G01X321247Y-37685D02*
X319167D01*
G01X325447Y-41819D02*
Y-33819D01*
X327700Y-40485D01*
X329953Y-33819D01*
Y-41819D01*
G01X333460Y-33819D02*
X335540D01*
G01X334500D02*
Y-41819D01*
G01X333460D02*
X335540D01*
G01X343207Y-34485D02*
X342687Y-34085D01*
X342080Y-33819D01*
X341387D01*
X340607Y-34219D01*
X340000Y-34885D01*
X339567Y-35685D01*
X339220Y-37019D01*
X339133Y-38219D01*
X339307Y-39419D01*
X339567Y-40219D01*
X340087Y-41019D01*
X340693Y-41552D01*
X341300Y-41819D01*
X341907D01*
X342513Y-41552D01*
X343033Y-41152D01*
X343467Y-40619D01*
G01X348100Y-41819D02*
X347407Y-41685D01*
X346800Y-41152D01*
X346280Y-40352D01*
X345933Y-39419D01*
X345760Y-38352D01*
Y-37285D01*
X345933Y-36219D01*
X346280Y-35285D01*
X346800Y-34485D01*
X347407Y-33952D01*
X348100Y-33819D01*
X348793Y-33952D01*
X349400Y-34485D01*
X349920Y-35285D01*
X350267Y-36219D01*
X350440Y-37285D01*
Y-38352D01*
X350267Y-39419D01*
X349920Y-40352D01*
X349400Y-41152D01*
X348793Y-41685D01*
X348100Y-41819D01*
G01X352907D02*
Y-33819D01*
X356893Y-41819D01*
Y-33819D01*
G01X359793Y-41819D02*
Y-33819D01*
X361527D01*
X362220Y-34219D01*
X362740Y-34752D01*
X363173Y-35552D01*
X363520Y-36485D01*
X363607Y-37819D01*
X363520Y-39152D01*
X363173Y-40085D01*
X362740Y-40886D01*
X362220Y-41419D01*
X361527Y-41819D01*
X359793D01*
G01X366593Y-33819D02*
Y-39552D01*
X366940Y-40752D01*
X367633Y-41552D01*
X368500Y-41819D01*
X369367Y-41552D01*
X370060Y-40752D01*
X370407Y-39552D01*
Y-33819D01*
G01X377207Y-34485D02*
X376687Y-34085D01*
X376080Y-33819D01*
X375387D01*
X374607Y-34219D01*
X374000Y-34885D01*
X373567Y-35685D01*
X373220Y-37019D01*
X373133Y-38219D01*
X373307Y-39419D01*
X373567Y-40219D01*
X374087Y-41019D01*
X374693Y-41552D01*
X375300Y-41819D01*
X375907D01*
X376513Y-41552D01*
X377033Y-41152D01*
X377467Y-40619D01*
G01X382100Y-33819D02*
Y-41819D01*
G01X380107Y-33819D02*
X384093D01*
G01X388900Y-41819D02*
X388207Y-41685D01*
X387600Y-41152D01*
X387080Y-40352D01*
X386733Y-39419D01*
X386560Y-38352D01*
Y-37285D01*
X386733Y-36219D01*
X387080Y-35285D01*
X387600Y-34485D01*
X388207Y-33952D01*
X388900Y-33819D01*
X389593Y-33952D01*
X390200Y-34485D01*
X390720Y-35285D01*
X391067Y-36219D01*
X391240Y-37285D01*
Y-38352D01*
X391067Y-39419D01*
X390720Y-40352D01*
X390200Y-41152D01*
X389593Y-41685D01*
X388900Y-41819D01*
G01X393967D02*
Y-33819D01*
X396133D01*
X396827Y-34219D01*
X397260Y-34752D01*
X397433Y-35819D01*
X397260Y-36885D01*
X396740Y-37552D01*
X396133Y-37952D01*
X393967D01*
G01X396133D02*
X397433Y-41819D01*
G01X407393Y-33819D02*
Y-39552D01*
X407740Y-40752D01*
X408433Y-41552D01*
X409300Y-41819D01*
X410167Y-41552D01*
X410860Y-40752D01*
X411207Y-39552D01*
Y-33819D01*
G01X414280Y-40752D02*
X414973Y-41419D01*
X415753Y-41819D01*
X416447D01*
X417140Y-41419D01*
X417660Y-40752D01*
X417920Y-39818D01*
X417747Y-38885D01*
X417313Y-38085D01*
X416533Y-37552D01*
X415493Y-37285D01*
X414887Y-36752D01*
X414627Y-35819D01*
X414800Y-34885D01*
X415233Y-34219D01*
X415840Y-33819D01*
X416447D01*
X417053Y-34085D01*
X417573Y-34752D01*
G01X420733Y-41819D02*
X422900Y-33819D01*
X425067Y-41819D01*
G01X424287Y-39019D02*
X421513D01*
G01X315007Y-89319D02*
Y-81319D01*
X318993Y-89319D01*
Y-81319D01*
G01X321893D02*
Y-87052D01*
X322240Y-88252D01*
X322933Y-89052D01*
X323800Y-89319D01*
X324667Y-89052D01*
X325360Y-88252D01*
X325707Y-87052D01*
Y-81319D01*
G01X328347Y-89319D02*
Y-81319D01*
X330600Y-87985D01*
X332853Y-81319D01*
Y-89319D01*
G01X338093Y-85052D02*
X338440Y-84652D01*
X338700Y-83985D01*
X338873Y-83052D01*
X338700Y-82252D01*
X338353Y-81719D01*
X337747Y-81319D01*
X335407D01*
Y-89319D01*
X338267D01*
X338873Y-88785D01*
X339220Y-87985D01*
X339393Y-87052D01*
X339220Y-86119D01*
X338700Y-85319D01*
X338093Y-85052D01*
X335407D01*
G01X345933Y-89319D02*
X342467D01*
Y-81319D01*
X345933D01*
G01X344547Y-85185D02*
X342467D01*
G01X349267Y-89319D02*
Y-81319D01*
X351433D01*
X352127Y-81719D01*
X352560Y-82252D01*
X352733Y-83319D01*
X352560Y-84385D01*
X352040Y-85052D01*
X351433Y-85452D01*
X349267D01*
G01X351433D02*
X352733Y-89319D01*
G01X424867Y-76819D02*
Y-70819D01*
X426533D01*
X427067Y-71119D01*
X427400Y-71519D01*
X427533Y-72319D01*
X427400Y-73119D01*
X427000Y-73619D01*
X426533Y-73919D01*
X424867D01*
G01X426533D02*
X427533Y-76819D01*
G01X432733D02*
X430067D01*
Y-70819D01*
X432733D01*
G01X431667Y-73718D02*
X430067D01*
G01X434933Y-70819D02*
X436600Y-76819D01*
X438267Y-70819D01*
G01X441800Y-77019D02*
X441667Y-76919D01*
Y-76719D01*
X441800Y-76619D01*
X441933Y-76719D01*
Y-76919D01*
X441800Y-77019D01*
G01X430600Y-81319D02*
X429907Y-81585D01*
X429387Y-82252D01*
X429040Y-83052D01*
X428780Y-84119D01*
X428693Y-85319D01*
X428780Y-86519D01*
X429040Y-87585D01*
X429387Y-88386D01*
X429907Y-89052D01*
X430600Y-89319D01*
X431293Y-89052D01*
X431813Y-88386D01*
X432160Y-87585D01*
X432420Y-86519D01*
X432507Y-85319D01*
X432420Y-84119D01*
X432160Y-83052D01*
X431813Y-82252D01*
X431293Y-81585D01*
X430600Y-81319D01*
G01X437400Y-89319D02*
Y-81319D01*
X436360Y-82918D01*
G01Y-89319D02*
X438440D01*
G01X419000Y-69319D02*
Y-91819D01*
G01X454000Y-16819D02*
Y-91819D01*
G01X458347Y-67819D02*
Y-63819D01*
X459213D01*
X459560Y-64019D01*
X459820Y-64285D01*
X460037Y-64685D01*
X460210Y-65152D01*
X460253Y-65819D01*
X460210Y-66485D01*
X460037Y-66952D01*
X459820Y-67352D01*
X459560Y-67619D01*
X459213Y-67819D01*
X458347D01*
G01X463567D02*
X461833D01*
Y-63819D01*
X463567D01*
G01X462873Y-65752D02*
X461833D01*
G01X467053Y-64152D02*
X466793Y-63952D01*
X466490Y-63819D01*
X466143D01*
X465753Y-64019D01*
X465450Y-64352D01*
X465233Y-64752D01*
X465060Y-65419D01*
X465017Y-66019D01*
X465103Y-66619D01*
X465233Y-67019D01*
X465493Y-67419D01*
X465797Y-67685D01*
X466100Y-67819D01*
X466403D01*
X466707Y-67685D01*
X466967Y-67485D01*
X467183Y-67219D01*
G01X468980Y-63819D02*
X470020D01*
G01X469500D02*
Y-67819D01*
G01X468980D02*
X470020D01*
G01X471773D02*
Y-63819D01*
X472900Y-67152D01*
X474027Y-63819D01*
Y-67819D01*
G01X475217D02*
X476300Y-63819D01*
X477383Y-67819D01*
G01X476993Y-66419D02*
X475607D01*
G01X478833Y-63819D02*
Y-67819D01*
X480567D01*
G01X473300Y-73452D02*
X473213Y-73385D01*
Y-73252D01*
X473300Y-73185D01*
X473387Y-73252D01*
Y-73385D01*
X473300Y-73452D01*
G01X476700Y-73319D02*
Y-69319D01*
X476180Y-70119D01*
G01Y-73319D02*
X477220D01*
G01X473300Y-79452D02*
X473213Y-79385D01*
Y-79252D01*
X473300Y-79185D01*
X473387Y-79252D01*
Y-79385D01*
X473300Y-79452D01*
G01X476700Y-75319D02*
X476353Y-75452D01*
X476093Y-75785D01*
X475920Y-76185D01*
X475790Y-76719D01*
X475747Y-77319D01*
X475790Y-77919D01*
X475920Y-78452D01*
X476093Y-78852D01*
X476353Y-79185D01*
X476700Y-79319D01*
X477047Y-79185D01*
X477307Y-78852D01*
X477480Y-78452D01*
X477610Y-77919D01*
X477653Y-77319D01*
X477610Y-76719D01*
X477480Y-76185D01*
X477307Y-75785D01*
X477047Y-75452D01*
X476700Y-75319D01*
G01X479147Y-78519D02*
X479407Y-78985D01*
X479753Y-79252D01*
X480143Y-79319D01*
X480490Y-79252D01*
X480837Y-78919D01*
X481053Y-78519D01*
X481097Y-78119D01*
X481010Y-77652D01*
X480707Y-77319D01*
X480403Y-77185D01*
X480013D01*
G01X480403D02*
X480663Y-76985D01*
X480880Y-76652D01*
X480967Y-76252D01*
X480880Y-75852D01*
X480663Y-75519D01*
X480273Y-75319D01*
X479883Y-75385D01*
X479493Y-75652D01*
G01X473300Y-85452D02*
X473213Y-85385D01*
Y-85252D01*
X473300Y-85185D01*
X473387Y-85252D01*
Y-85385D01*
X473300Y-85452D01*
G01X476700Y-81319D02*
X476353Y-81452D01*
X476093Y-81785D01*
X475920Y-82185D01*
X475790Y-82719D01*
X475747Y-83319D01*
X475790Y-83919D01*
X475920Y-84452D01*
X476093Y-84852D01*
X476353Y-85185D01*
X476700Y-85319D01*
X477047Y-85185D01*
X477307Y-84852D01*
X477480Y-84452D01*
X477610Y-83919D01*
X477653Y-83319D01*
X477610Y-82719D01*
X477480Y-82185D01*
X477307Y-81785D01*
X477047Y-81452D01*
X476700Y-81319D01*
G01X480100Y-85319D02*
Y-81319D01*
X479580Y-82119D01*
G01Y-85319D02*
X480620D01*
G01X483500Y-81319D02*
X483153Y-81452D01*
X482893Y-81785D01*
X482720Y-82185D01*
X482590Y-82719D01*
X482547Y-83319D01*
X482590Y-83919D01*
X482720Y-84452D01*
X482893Y-84852D01*
X483153Y-85185D01*
X483500Y-85319D01*
X483847Y-85185D01*
X484107Y-84852D01*
X484280Y-84452D01*
X484410Y-83919D01*
X484453Y-83319D01*
X484410Y-82719D01*
X484280Y-82185D01*
X484107Y-81785D01*
X483847Y-81452D01*
X483500Y-81319D01*
G01X463790Y-73319D02*
X465610Y-69319D01*
G01X463790D02*
X465610Y-73319D01*
G01X460390Y-79319D02*
X462210Y-75319D01*
G01X460390D02*
X462210Y-79319D01*
G01X463790D02*
X465610Y-75319D01*
G01X463790D02*
X465610Y-79319D01*
G01X456990Y-85319D02*
X458810Y-81319D01*
G01X456990D02*
X458810Y-85319D01*
G01X460390D02*
X462210Y-81319D01*
G01X460390D02*
X462210Y-85319D01*
G01X463790D02*
X465610Y-81319D01*
G01X463790D02*
X465610Y-85319D01*
G01X490873Y-79819D02*
Y-75819D01*
X492000Y-79152D01*
X493127Y-75819D01*
Y-79819D01*
G01X494317D02*
X495400Y-75819D01*
X496483Y-79819D01*
G01X496093Y-78419D02*
X494707D01*
G01X499753Y-76152D02*
X499493Y-75952D01*
X499190Y-75819D01*
X498843D01*
X498453Y-76019D01*
X498150Y-76352D01*
X497933Y-76752D01*
X497760Y-77419D01*
X497717Y-78019D01*
X497803Y-78619D01*
X497933Y-79019D01*
X498193Y-79419D01*
X498497Y-79685D01*
X498800Y-79819D01*
X499103D01*
X499407Y-79685D01*
X499667Y-79485D01*
X499883Y-79219D01*
G01X501290Y-79819D02*
Y-75819D01*
G01X503110D02*
Y-79819D01*
G01Y-77819D02*
X501290D01*
G01X508177Y-79819D02*
Y-75819D01*
X509823D01*
G01X509217Y-77752D02*
X508177D01*
G01X511880Y-75819D02*
X512920D01*
G01X512400D02*
Y-79819D01*
G01X511880D02*
X512920D01*
G01X514803D02*
Y-75819D01*
X516797Y-79819D01*
Y-75819D01*
G01X518680D02*
X519720D01*
G01X519200D02*
Y-79819D01*
G01X518680D02*
X519720D01*
G01X521690Y-79285D02*
X522037Y-79619D01*
X522427Y-79819D01*
X522773D01*
X523120Y-79619D01*
X523380Y-79285D01*
X523510Y-78819D01*
X523423Y-78352D01*
X523207Y-77952D01*
X522817Y-77685D01*
X522297Y-77552D01*
X521993Y-77285D01*
X521863Y-76819D01*
X521950Y-76352D01*
X522167Y-76019D01*
X522470Y-75819D01*
X522773D01*
X523077Y-75952D01*
X523337Y-76285D01*
G01X525090Y-79819D02*
Y-75819D01*
G01X526910D02*
Y-79819D01*
G01Y-77819D02*
X525090D01*
G01X468000Y-71119D02*
X471000D01*
G01X468000Y-73319D02*
X471000D01*
G01X469500Y-69619D02*
Y-72619D01*
G01X468000Y-79319D02*
X471000D01*
G01X469500Y-75619D02*
Y-78619D01*
G01X468000Y-77119D02*
X471000D01*
G01X468000Y-85319D02*
X471000D01*
G01X469500Y-81619D02*
Y-84619D01*
G01X468000Y-83119D02*
X471000D01*
G01X467017Y-44319D02*
X468100Y-40319D01*
X469183Y-44319D01*
G01X468793Y-42919D02*
X467407D01*
G01X470633Y-44319D02*
Y-40319D01*
X471717D01*
X472063Y-40519D01*
X472280Y-40785D01*
X472367Y-41319D01*
X472280Y-41852D01*
X472020Y-42185D01*
X471717Y-42385D01*
X470633D01*
G01X471717D02*
X472367Y-44319D01*
G01X475767D02*
X474033D01*
Y-40319D01*
X475767D01*
G01X475073Y-42252D02*
X474033D01*
G01X481180Y-40319D02*
X482220D01*
G01X481700D02*
Y-44319D01*
G01X481180D02*
X482220D01*
G01X484103D02*
Y-40319D01*
X486097Y-44319D01*
Y-40319D01*
G01X491380D02*
X492420D01*
G01X491900D02*
Y-44319D01*
G01X491380D02*
X492420D01*
G01X494303D02*
Y-40319D01*
X496297Y-44319D01*
Y-40319D01*
G01X499653Y-40652D02*
X499393Y-40452D01*
X499090Y-40319D01*
X498743D01*
X498353Y-40519D01*
X498050Y-40852D01*
X497833Y-41252D01*
X497660Y-41919D01*
X497617Y-42519D01*
X497703Y-43119D01*
X497833Y-43519D01*
X498093Y-43919D01*
X498397Y-44185D01*
X498700Y-44319D01*
X499003D01*
X499307Y-44185D01*
X499567Y-43985D01*
X499783Y-43719D01*
G01X501190Y-44319D02*
Y-40319D01*
G01X503010D02*
Y-44319D01*
G01Y-42319D02*
X501190D01*
G01X506367Y-44319D02*
X504633D01*
Y-40319D01*
X506367D01*
G01X505673Y-42252D02*
X504633D01*
G01X507990Y-43785D02*
X508337Y-44119D01*
X508727Y-44319D01*
X509073D01*
X509420Y-44119D01*
X509680Y-43785D01*
X509810Y-43319D01*
X509723Y-42852D01*
X509507Y-42452D01*
X509117Y-42185D01*
X508597Y-42052D01*
X508293Y-41785D01*
X508163Y-41319D01*
X508250Y-40852D01*
X508467Y-40519D01*
X508770Y-40319D01*
X509073D01*
X509377Y-40452D01*
X509637Y-40785D01*
G01X473200Y-55319D02*
Y-59319D01*
G01X472203Y-55319D02*
X474197D01*
G01X476600Y-59319D02*
X476253Y-59252D01*
X475950Y-58985D01*
X475690Y-58585D01*
X475517Y-58119D01*
X475430Y-57585D01*
Y-57052D01*
X475517Y-56519D01*
X475690Y-56052D01*
X475950Y-55652D01*
X476253Y-55385D01*
X476600Y-55319D01*
X476947Y-55385D01*
X477250Y-55652D01*
X477510Y-56052D01*
X477683Y-56519D01*
X477770Y-57052D01*
Y-57585D01*
X477683Y-58119D01*
X477510Y-58585D01*
X477250Y-58985D01*
X476947Y-59252D01*
X476600Y-59319D01*
G01X479133Y-55319D02*
Y-59319D01*
X480867D01*
G01X484267D02*
X482533D01*
Y-55319D01*
X484267D01*
G01X483573Y-57252D02*
X482533D01*
G01X485933Y-59319D02*
Y-55319D01*
X487017D01*
X487363Y-55519D01*
X487580Y-55785D01*
X487667Y-56319D01*
X487580Y-56852D01*
X487320Y-57185D01*
X487017Y-57385D01*
X485933D01*
G01X487017D02*
X487667Y-59319D01*
G01X489117D02*
X490200Y-55319D01*
X491283Y-59319D01*
G01X490893Y-57919D02*
X489507D01*
G01X492603Y-59319D02*
Y-55319D01*
X494597Y-59319D01*
Y-55319D01*
G01X497953Y-55652D02*
X497693Y-55452D01*
X497390Y-55319D01*
X497043D01*
X496653Y-55519D01*
X496350Y-55852D01*
X496133Y-56252D01*
X495960Y-56919D01*
X495917Y-57519D01*
X496003Y-58119D01*
X496133Y-58519D01*
X496393Y-58919D01*
X496697Y-59185D01*
X497000Y-59319D01*
X497303D01*
X497607Y-59185D01*
X497867Y-58985D01*
X498083Y-58719D01*
G01X501267Y-59319D02*
X499533D01*
Y-55319D01*
X501267D01*
G01X500573Y-57252D02*
X499533D01*
G01X502890Y-58785D02*
X503237Y-59119D01*
X503627Y-59319D01*
X503973D01*
X504320Y-59119D01*
X504580Y-58785D01*
X504710Y-58319D01*
X504623Y-57852D01*
X504407Y-57452D01*
X504017Y-57185D01*
X503497Y-57052D01*
X503193Y-56785D01*
X503063Y-56319D01*
X503150Y-55852D01*
X503367Y-55519D01*
X503670Y-55319D01*
X503973D01*
X504277Y-55452D01*
X504537Y-55785D01*
G01X462047Y-25319D02*
Y-28185D01*
X462220Y-28785D01*
X462567Y-29185D01*
X463000Y-29319D01*
X463433Y-29185D01*
X463780Y-28785D01*
X463953Y-28185D01*
Y-25319D01*
G01X465403Y-29319D02*
Y-25319D01*
X467397Y-29319D01*
Y-25319D01*
G01X468933D02*
Y-29319D01*
X470667D01*
G01X474067D02*
X472333D01*
Y-25319D01*
X474067D01*
G01X473373Y-27252D02*
X472333D01*
G01X475690Y-28785D02*
X476037Y-29119D01*
X476427Y-29319D01*
X476773D01*
X477120Y-29119D01*
X477380Y-28785D01*
X477510Y-28319D01*
X477423Y-27852D01*
X477207Y-27452D01*
X476817Y-27185D01*
X476297Y-27052D01*
X475993Y-26785D01*
X475863Y-26319D01*
X475950Y-25852D01*
X476167Y-25519D01*
X476470Y-25319D01*
X476773D01*
X477077Y-25452D01*
X477337Y-25785D01*
G01X479090Y-28785D02*
X479437Y-29119D01*
X479827Y-29319D01*
X480173D01*
X480520Y-29119D01*
X480780Y-28785D01*
X480910Y-28319D01*
X480823Y-27852D01*
X480607Y-27452D01*
X480217Y-27185D01*
X479697Y-27052D01*
X479393Y-26785D01*
X479263Y-26319D01*
X479350Y-25852D01*
X479567Y-25519D01*
X479870Y-25319D01*
X480173D01*
X480477Y-25452D01*
X480737Y-25785D01*
G01X486800Y-29319D02*
X486453Y-29252D01*
X486150Y-28985D01*
X485890Y-28585D01*
X485717Y-28119D01*
X485630Y-27585D01*
Y-27052D01*
X485717Y-26519D01*
X485890Y-26052D01*
X486150Y-25652D01*
X486453Y-25385D01*
X486800Y-25319D01*
X487147Y-25385D01*
X487450Y-25652D01*
X487710Y-26052D01*
X487883Y-26519D01*
X487970Y-27052D01*
Y-27585D01*
X487883Y-28119D01*
X487710Y-28585D01*
X487450Y-28985D01*
X487147Y-29252D01*
X486800Y-29319D01*
G01X490200Y-25319D02*
Y-29319D01*
G01X489203Y-25319D02*
X491197D01*
G01X492690Y-29319D02*
Y-25319D01*
G01X494510D02*
Y-29319D01*
G01Y-27319D02*
X492690D01*
G01X497867Y-29319D02*
X496133D01*
Y-25319D01*
X497867D01*
G01X497173Y-27252D02*
X496133D01*
G01X499533Y-29319D02*
Y-25319D01*
X500617D01*
X500963Y-25519D01*
X501180Y-25785D01*
X501267Y-26319D01*
X501180Y-26852D01*
X500920Y-27185D01*
X500617Y-27385D01*
X499533D01*
G01X500617D02*
X501267Y-29319D01*
G01X502500Y-25319D02*
X503107Y-29319D01*
X503800Y-25319D01*
X504493Y-29319D01*
X505100Y-25319D01*
G01X506680D02*
X507720D01*
G01X507200D02*
Y-29319D01*
G01X506680D02*
X507720D01*
G01X509690Y-28785D02*
X510037Y-29119D01*
X510427Y-29319D01*
X510773D01*
X511120Y-29119D01*
X511380Y-28785D01*
X511510Y-28319D01*
X511423Y-27852D01*
X511207Y-27452D01*
X510817Y-27185D01*
X510297Y-27052D01*
X509993Y-26785D01*
X509863Y-26319D01*
X509950Y-25852D01*
X510167Y-25519D01*
X510470Y-25319D01*
X510773D01*
X511077Y-25452D01*
X511337Y-25785D01*
G01X514867Y-29319D02*
X513133D01*
Y-25319D01*
X514867D01*
G01X514173Y-27252D02*
X513133D01*
G01X455290Y-36285D02*
X455637Y-36619D01*
X456027Y-36819D01*
X456373D01*
X456720Y-36619D01*
X456980Y-36285D01*
X457110Y-35819D01*
X457023Y-35352D01*
X456807Y-34952D01*
X456417Y-34685D01*
X455897Y-34552D01*
X455593Y-34285D01*
X455463Y-33819D01*
X455550Y-33352D01*
X455767Y-33019D01*
X456070Y-32819D01*
X456373D01*
X456677Y-32952D01*
X456937Y-33285D01*
G01X458733Y-36819D02*
Y-32819D01*
X459773D01*
X460120Y-33019D01*
X460380Y-33485D01*
X460467Y-34019D01*
X460380Y-34552D01*
X460163Y-34952D01*
X459773Y-35152D01*
X458733D01*
G01X463867Y-36819D02*
X462133D01*
Y-32819D01*
X463867D01*
G01X463173Y-34752D02*
X462133D01*
G01X467353Y-33152D02*
X467093Y-32952D01*
X466790Y-32819D01*
X466443D01*
X466053Y-33019D01*
X465750Y-33352D01*
X465533Y-33752D01*
X465360Y-34419D01*
X465317Y-35019D01*
X465403Y-35619D01*
X465533Y-36019D01*
X465793Y-36419D01*
X466097Y-36685D01*
X466400Y-36819D01*
X466703D01*
X467007Y-36685D01*
X467267Y-36485D01*
X467483Y-36219D01*
G01X469280Y-32819D02*
X470320D01*
G01X469800D02*
Y-36819D01*
G01X469280D02*
X470320D01*
G01X472377D02*
Y-32819D01*
X474023D01*
G01X473417Y-34752D02*
X472377D01*
G01X476080Y-32819D02*
X477120D01*
G01X476600D02*
Y-36819D01*
G01X476080D02*
X477120D01*
G01X480867D02*
X479133D01*
Y-32819D01*
X480867D01*
G01X480173Y-34752D02*
X479133D01*
G01X482447Y-36819D02*
Y-32819D01*
X483313D01*
X483660Y-33019D01*
X483920Y-33285D01*
X484137Y-33685D01*
X484310Y-34152D01*
X484353Y-34819D01*
X484310Y-35485D01*
X484137Y-35952D01*
X483920Y-36352D01*
X483660Y-36619D01*
X483313Y-36819D01*
X482447D01*
G01X489247D02*
Y-32819D01*
X490113D01*
X490460Y-33019D01*
X490720Y-33285D01*
X490937Y-33685D01*
X491110Y-34152D01*
X491153Y-34819D01*
X491110Y-35485D01*
X490937Y-35952D01*
X490720Y-36352D01*
X490460Y-36619D01*
X490113Y-36819D01*
X489247D01*
G01X493080Y-32819D02*
X494120D01*
G01X493600D02*
Y-36819D01*
G01X493080D02*
X494120D01*
G01X495873D02*
Y-32819D01*
X497000Y-36152D01*
X498127Y-32819D01*
Y-36819D01*
G01X501267D02*
X499533D01*
Y-32819D01*
X501267D01*
G01X500573Y-34752D02*
X499533D01*
G01X502803Y-36819D02*
Y-32819D01*
X504797Y-36819D01*
Y-32819D01*
G01X506290Y-36285D02*
X506637Y-36619D01*
X507027Y-36819D01*
X507373D01*
X507720Y-36619D01*
X507980Y-36285D01*
X508110Y-35819D01*
X508023Y-35352D01*
X507807Y-34952D01*
X507417Y-34685D01*
X506897Y-34552D01*
X506593Y-34285D01*
X506463Y-33819D01*
X506550Y-33352D01*
X506767Y-33019D01*
X507070Y-32819D01*
X507373D01*
X507677Y-32952D01*
X507937Y-33285D01*
G01X510080Y-32819D02*
X511120D01*
G01X510600D02*
Y-36819D01*
G01X510080D02*
X511120D01*
G01X514000D02*
X513653Y-36752D01*
X513350Y-36485D01*
X513090Y-36085D01*
X512917Y-35619D01*
X512830Y-35085D01*
Y-34552D01*
X512917Y-34019D01*
X513090Y-33552D01*
X513350Y-33152D01*
X513653Y-32885D01*
X514000Y-32819D01*
X514347Y-32885D01*
X514650Y-33152D01*
X514910Y-33552D01*
X515083Y-34019D01*
X515170Y-34552D01*
Y-35085D01*
X515083Y-35619D01*
X514910Y-36085D01*
X514650Y-36485D01*
X514347Y-36752D01*
X514000Y-36819D01*
G01X516403D02*
Y-32819D01*
X518397Y-36819D01*
Y-32819D01*
G01X519890Y-36285D02*
X520237Y-36619D01*
X520627Y-36819D01*
X520973D01*
X521320Y-36619D01*
X521580Y-36285D01*
X521710Y-35819D01*
X521623Y-35352D01*
X521407Y-34952D01*
X521017Y-34685D01*
X520497Y-34552D01*
X520193Y-34285D01*
X520063Y-33819D01*
X520150Y-33352D01*
X520367Y-33019D01*
X520670Y-32819D01*
X520973D01*
X521277Y-32952D01*
X521537Y-33285D01*
G01X498117Y-67819D02*
X499200Y-63819D01*
X500283Y-67819D01*
G01X499893Y-66419D02*
X498507D01*
G01X501603Y-67819D02*
Y-63819D01*
X503597Y-67819D01*
Y-63819D01*
G01X506260Y-65819D02*
X507127D01*
Y-67019D01*
X506867Y-67419D01*
X506563Y-67685D01*
X506130Y-67819D01*
X505697Y-67685D01*
X505393Y-67419D01*
X505133Y-67019D01*
X504960Y-66552D01*
X504873Y-66019D01*
Y-65552D01*
X504960Y-65152D01*
X505133Y-64685D01*
X505393Y-64285D01*
X505653Y-64019D01*
X506000Y-63819D01*
X506303D01*
X506650Y-63952D01*
X506910Y-64219D01*
G01X508533Y-63819D02*
Y-67819D01*
X510267D01*
G01X513667D02*
X511933D01*
Y-63819D01*
X513667D01*
G01X512973Y-65752D02*
X511933D01*
G01X509847Y-73019D02*
X510107Y-73485D01*
X510453Y-73752D01*
X510843Y-73819D01*
X511190Y-73752D01*
X511537Y-73419D01*
X511753Y-73019D01*
X511797Y-72619D01*
X511710Y-72152D01*
X511407Y-71819D01*
X511103Y-71685D01*
X510713D01*
G01X511103D02*
X511363Y-71485D01*
X511580Y-71152D01*
X511667Y-70752D01*
X511580Y-70352D01*
X511363Y-70019D01*
X510973Y-69819D01*
X510583Y-69885D01*
X510193Y-70152D01*
G01X514200Y-69819D02*
X513853Y-69952D01*
X513593Y-70285D01*
X513420Y-70685D01*
X513290Y-71219D01*
X513247Y-71819D01*
X513290Y-72419D01*
X513420Y-72952D01*
X513593Y-73352D01*
X513853Y-73685D01*
X514200Y-73819D01*
X514547Y-73685D01*
X514807Y-73352D01*
X514980Y-72952D01*
X515110Y-72419D01*
X515153Y-71819D01*
X515110Y-71219D01*
X514980Y-70685D01*
X514807Y-70285D01*
X514547Y-69952D01*
X514200Y-69819D01*
G01X504700Y-71119D02*
X507700D01*
G01X504700Y-73319D02*
X507700D01*
G01X506200Y-69619D02*
Y-72619D01*
G01X510000Y-80819D02*
X513000D01*
G01X511500D02*
X509200Y-85319D01*
X507700Y-83119D01*
G54D18*
X78001Y191218D03*
X73014Y256245D03*
G54D28*
G01X31500Y-51059D02*
X33280D01*
G01X31500Y-52478D02*
Y-51059D01*
G01X37640Y-51659D02*
X31500D01*
G01Y-52359D02*
X35160D01*
G01X35950Y-57669D02*
X31500Y-52478D01*
G01X35400Y-53048D02*
X31990D01*
G01X30560Y-44448D02*
X33590D01*
G01X33000Y-45859D02*
X30150D01*
G01D02*
X29950Y-45889D01*
G01D02*
X29770Y-45969D01*
G01D02*
X29600Y-46089D01*
G01D02*
X29480Y-46248D01*
G01D02*
X29400Y-46439D01*
G01D02*
X29380Y-46639D01*
G01D02*
Y-57669D01*
G01X28310Y-44589D02*
X30560Y-44448D01*
G01X27410Y-44719D02*
X35980D01*
G01X26070Y-45419D02*
X37690D01*
G01X29590Y-46109D02*
X26070D01*
G01Y-46799D02*
X29380D01*
G01X26070Y-48189D02*
X29380D01*
G01Y-47499D02*
X26070D01*
G01X29380Y-48889D02*
X26070D01*
G01Y-49578D02*
X29380D01*
G01Y-50269D02*
X26070D01*
G01Y-50969D02*
X29380D01*
G01X26070Y-52359D02*
X29380D01*
G01Y-51659D02*
X26070D01*
G01X29380Y-53048D02*
X26070D01*
G01Y-53739D02*
X29380D01*
G01Y-54439D02*
X26070D01*
G01X29380Y-55828D02*
X26070D01*
G01Y-55128D02*
X29380D01*
G01X26070Y-56519D02*
X29380D01*
G01Y-57219D02*
X26070D01*
G01Y-57669D02*
Y-44919D01*
G01D02*
X28310Y-44589D01*
G01X54020Y-45978D02*
X53500Y-45539D01*
G01X53520Y-56619D02*
X53980Y-56178D01*
G01X53500Y-45539D02*
X52920Y-45189D01*
G01X52990Y-56969D02*
X53520Y-56619D01*
G01X52920Y-45189D02*
X52290Y-44919D01*
G01X51780Y-47659D02*
X51820Y-48109D01*
G01Y-48189D02*
X54890D01*
G01X54840Y-47499D02*
X51730D01*
G01X54890Y-48889D02*
X51820D01*
G01Y-49578D02*
X54890D01*
G01Y-50269D02*
X51820D01*
G01Y-50969D02*
X54890D01*
G01X51820Y-52359D02*
X54890D01*
G01Y-51659D02*
X51820D01*
G01X54890Y-53048D02*
X51820D01*
G01Y-48109D02*
Y-53778D01*
G01Y-53739D02*
X54890D01*
G01X51820Y-53778D02*
X51760Y-54359D01*
G01X54870Y-54439D02*
X51730D01*
G01X52410Y-57239D02*
X52990Y-56969D01*
G01X52290Y-44919D02*
X51480Y-44639D01*
G01X51070Y-46569D02*
X51400Y-46869D01*
G01D02*
X51640Y-47239D01*
G01D02*
X51780Y-47659D01*
G01X51320Y-46799D02*
X54600D01*
G01X51760Y-54359D02*
X51570Y-54919D01*
G01D02*
X51270Y-55428D01*
G01X51440Y-55128D02*
X54720D01*
G01X51540Y-57499D02*
X52410Y-57239D01*
G01X51480Y-44639D02*
X50630Y-44478D01*
G01X50160Y-46019D02*
X50640Y-46248D01*
G01D02*
X51070Y-46569D01*
G01X54130Y-46109D02*
X50350D01*
G01X51270Y-55428D02*
X50800Y-55799D01*
G01X54330Y-55828D02*
X50740D01*
G01X50800Y-55799D02*
X50270Y-56059D01*
G01X50630Y-44478D02*
X49770Y-44448D01*
G01X49100Y-45859D02*
X49640Y-45889D01*
G01D02*
X50160Y-46019D01*
G01X50270Y-56059D02*
X49700Y-56219D01*
G01D02*
X49100Y-56259D01*
G01X47650Y-45859D02*
X49100D01*
G01Y-56259D02*
X47490D01*
G01X49770Y-44448D02*
X46660D01*
G01X47080Y-45898D02*
X47650Y-45859D01*
G01X47490Y-56259D02*
X47010Y-56209D01*
G01X46660Y-44448D02*
X45860Y-44478D01*
G01X46030Y-46319D02*
X46530Y-46048D01*
G01D02*
X47080Y-45898D01*
G01X46540Y-56059D02*
X46120Y-55828D01*
G01X47010Y-56209D02*
X46540Y-56059D01*
G01X45860Y-44478D02*
X45060Y-44619D01*
G01X45600Y-46689D02*
X46030Y-46319D01*
G01X45330Y-46999D02*
X45600Y-46689D01*
G01X44970Y-48148D02*
X45010Y-47739D01*
G01D02*
X45130Y-47349D01*
G01D02*
X45330Y-46999D01*
G01X44970Y-50589D02*
Y-48148D01*
G01Y-53778D02*
Y-50589D01*
G01X45150Y-54739D02*
X45000Y-54269D01*
G01D02*
X44970Y-53778D01*
G01X46120Y-55828D02*
X45760Y-55509D01*
G01D02*
X45410Y-55159D01*
G01D02*
X45150Y-54739D01*
G01X51720Y-44719D02*
X44770D01*
G01X45060Y-44619D02*
X44300Y-44878D01*
G01X44250Y-57239D02*
X44930Y-57439D01*
G01X44190Y-57219D02*
X52460D01*
G01X44300Y-44878D02*
X43590Y-45269D01*
G01X43410Y-45419D02*
X53290D01*
G01X43600Y-56948D02*
X44250Y-57239D01*
G01X43590Y-45269D02*
X42960Y-45778D01*
G01D02*
X42590Y-46089D01*
G01X46430Y-46109D02*
X42580D01*
G01X46130Y-55828D02*
X42250D01*
G01X42610Y-56278D02*
X43000Y-56569D01*
G01D02*
X43600Y-56948D01*
G01X42930Y-56519D02*
X53620D01*
G01X42590Y-46089D02*
X42300Y-46469D01*
G01X42070Y-46889D02*
X41940Y-47349D01*
G01X42300Y-46469D02*
X42070Y-46889D01*
G01X42120Y-46799D02*
X45500D01*
G01X41940Y-47349D02*
X41900Y-47828D01*
G01X45080Y-47499D02*
X41930D01*
G01X41900Y-48189D02*
X44970D01*
G01Y-48889D02*
X41900D01*
G01Y-49578D02*
X44970D01*
G01X41900Y-47828D02*
Y-50589D01*
G01D02*
X44970D01*
G01D02*
X41900D01*
G01X44970Y-50269D02*
X41900D01*
G01Y-50969D02*
X44970D01*
G01Y-51659D02*
X41900D01*
G01Y-52359D02*
X44970D01*
G01Y-53048D02*
X41900D01*
G01Y-53739D02*
X44970D01*
G01X41900Y-50589D02*
Y-54519D01*
G01D02*
X41930Y-55009D01*
G01X45060Y-54439D02*
X41900D01*
G01X41930Y-55009D02*
X42070Y-55478D01*
G01D02*
X42300Y-55909D01*
G01D02*
X42610Y-56278D01*
G01X41970Y-55128D02*
X45390D01*
G01X38350Y-46098D02*
X38570Y-46409D01*
G01D02*
X38720Y-46759D01*
G01D02*
X38810Y-47139D01*
G01D02*
X38830Y-47519D01*
G01D02*
Y-49519D01*
G01D02*
X38790Y-49998D01*
G01D02*
X38670Y-50459D01*
G01D02*
X38450Y-50878D01*
G01D02*
X38160Y-51259D01*
G01X37450Y-45219D02*
X37940Y-45619D01*
G01D02*
X38350Y-46098D01*
G01X38160Y-51259D02*
X37800Y-51569D01*
G01X36900Y-44919D02*
X37450Y-45219D01*
G01X37800Y-51569D02*
X37200Y-51909D01*
G01D02*
X36540Y-52148D01*
G01X35760Y-47869D02*
X35700Y-47428D01*
G01D02*
X35550Y-47019D01*
G01X38830Y-47499D02*
X35710D01*
G01X35760Y-48189D02*
X38830D01*
G01X35760Y-48969D02*
Y-47869D01*
G01X38830Y-48889D02*
X35760D01*
G01X35590Y-49828D02*
X35710Y-49409D01*
G01D02*
X35760Y-48969D01*
G01X35660Y-49578D02*
X38820D01*
G01X36540Y-52148D02*
X35860Y-52269D01*
G01X39200Y-57219D02*
X35560D01*
G01X35260Y-44569D02*
X36900Y-44919D01*
G01X35550Y-47019D02*
X35320Y-46649D01*
G01D02*
X35010Y-46339D01*
G01X35420Y-46799D02*
X38730D01*
G01X34940Y-50598D02*
X35400Y-50228D01*
G01D02*
X35590Y-49828D01*
G01X38720Y-50269D02*
X35350D01*
G01X35860Y-52269D02*
X35160Y-52278D01*
G01D02*
Y-52789D01*
G01D02*
X39610Y-57669D01*
G01X34970Y-56519D02*
X38560D01*
G01X35010Y-46339D02*
X34370Y-46048D01*
G01X38360Y-46109D02*
X34500D01*
G01X33860Y-51019D02*
X34420Y-50869D01*
G01D02*
X34940Y-50598D01*
G01X34050Y-50969D02*
X38390D01*
G01X33780Y-55128D02*
X37300D01*
G01X37930Y-55828D02*
X34370D01*
G01X33590Y-44448D02*
X35260Y-44569D01*
G01X34370Y-46048D02*
X33690Y-45889D01*
G01D02*
X33000Y-45859D01*
G01X33280Y-51059D02*
X33860Y-51019D01*
G01X36670Y-54439D02*
X33180D01*
G01X32590Y-53739D02*
X36030D01*
G01X32330Y-62178D02*
X32140Y-62239D01*
G01X32390Y-65448D02*
X32210Y-65409D01*
G01X32140Y-62239D02*
X31960Y-62328D01*
G01D02*
X31810Y-62459D01*
G01D02*
X31680Y-62609D01*
G01D02*
X31590Y-62789D01*
G01D02*
X31530Y-62978D01*
G01D02*
X31510Y-63178D01*
G01X31500Y-64409D02*
Y-63819D01*
G01D02*
X34340D01*
G01X31500Y-63178D02*
Y-63819D01*
G01X32210Y-65409D02*
X32040Y-65328D01*
G01D02*
X31890Y-65219D01*
G01D02*
X31760Y-65089D01*
G01D02*
X31650Y-64939D01*
G01D02*
X31570Y-64769D01*
G01D02*
X31530Y-64589D01*
G01D02*
X31510Y-64409D01*
G01X28740Y-63828D02*
X28890Y-63869D01*
G01D02*
X29020Y-63939D01*
G01D02*
X29150Y-64039D01*
G01D02*
X29250Y-64169D01*
G01D02*
X29320Y-64298D01*
G01D02*
X29360Y-64448D01*
G01D02*
X29380Y-64609D01*
G01D02*
X29360Y-64778D01*
G01D02*
X29310Y-64939D01*
G01D02*
X29240Y-65089D01*
G01D02*
X29130Y-65219D01*
G01D02*
X29000Y-65328D01*
G01D02*
X28850Y-65399D01*
G01D02*
X28690Y-65448D01*
G01X28580Y-63809D02*
X28740Y-63828D01*
G01X28690Y-65448D02*
X28520Y-65469D01*
G01X26960Y-63819D02*
X28580D01*
G01X29380Y-57669D02*
X26070D01*
G01X29380Y-62159D02*
X26830D01*
G01D02*
X26660Y-62178D01*
G01D02*
X26500Y-62239D01*
G01D02*
X26360Y-62328D01*
G01D02*
X26240Y-62449D01*
G01X26220Y-63409D02*
X26330Y-63549D01*
G01D02*
X26470Y-63659D01*
G01D02*
X26620Y-63739D01*
G01D02*
X26790Y-63789D01*
G01D02*
X26960Y-63809D01*
G01X28520Y-65469D02*
X26070D01*
G01X26240Y-62449D02*
X26150Y-62589D01*
G01D02*
X26090Y-62749D01*
G01X26070Y-62919D02*
X26090Y-63089D01*
G01D02*
X26140Y-63259D01*
G01X26090Y-62749D02*
X26070Y-62919D01*
G01X26140Y-63259D02*
X26220Y-63409D01*
G01X53720Y-62459D02*
X53530Y-62328D01*
G01D02*
X53320Y-62239D01*
G01D02*
X53110Y-62178D01*
G01D02*
X52880Y-62159D01*
G01X52860Y-65469D02*
X53070Y-65448D01*
G01D02*
X53270Y-65409D01*
G01D02*
X53460Y-65328D01*
G01D02*
X53640Y-65219D01*
G01X52880Y-62159D02*
X52140D01*
G01D02*
X51920Y-62178D01*
G01X51720Y-65389D02*
X51940Y-65448D01*
G01D02*
X52160Y-65469D01*
G01D02*
X52860D01*
G01X51920Y-62178D02*
X51710Y-62239D01*
G01D02*
X51510Y-62328D01*
G01D02*
X51320Y-62459D01*
G01D02*
X51170Y-62609D01*
G01D02*
X51040Y-62789D01*
G01D02*
X50950Y-62998D01*
G01D02*
X50890Y-63209D01*
G01D02*
X50870Y-63428D01*
G01D02*
Y-64178D01*
G01D02*
X50890Y-64398D01*
G01D02*
X50950Y-64619D01*
G01D02*
X51040Y-64819D01*
G01D02*
X51170Y-65009D01*
G01D02*
X51330Y-65169D01*
G01D02*
X51510Y-65299D01*
G01D02*
X51720Y-65389D01*
G01X50640Y-57639D02*
X51540Y-57499D01*
G01X49730Y-57669D02*
X50640Y-57639D01*
G01X46980Y-57669D02*
X49730D01*
G01X46790Y-62178D02*
X47000Y-62159D01*
G01D02*
X48750D01*
G01Y-65469D02*
X47000D01*
G01D02*
X46810Y-65448D01*
G01D02*
X46630Y-65399D01*
G01X45950Y-57609D02*
X46980Y-57669D01*
G01X46580Y-62239D02*
X46790Y-62178D01*
G01X46230Y-62478D02*
X46390Y-62339D01*
G01D02*
X46580Y-62239D01*
G01X45910Y-63249D02*
X45930Y-63039D01*
G01D02*
X45990Y-62828D01*
G01D02*
X46090Y-62639D01*
G01D02*
X46230Y-62478D01*
G01X45910Y-64378D02*
Y-63249D01*
G01X46630Y-65399D02*
X46450Y-65319D01*
G01D02*
X46300Y-65209D01*
G01D02*
X46170Y-65078D01*
G01D02*
X46060Y-64919D01*
G01D02*
X45980Y-64748D01*
G01D02*
X45930Y-64569D01*
G01D02*
X45910Y-64378D01*
G01X44930Y-57439D02*
X45950Y-57609D01*
G01X43310Y-62159D02*
Y-65469D01*
G01X40720D02*
Y-62159D01*
G01D02*
X40200D01*
G01D02*
X38790Y-65469D01*
G01D02*
X37250Y-62159D01*
G01D02*
X36700D01*
G01D02*
Y-65469D01*
G01X39610Y-57669D02*
X35950D01*
G01X34340Y-62159D02*
X32530D01*
G01D02*
X32330Y-62178D01*
G01X34340Y-65469D02*
X32570D01*
G01D02*
X32390Y-65448D01*
G01X54680Y-46949D02*
X54400Y-46428D01*
G01X54890Y-48109D02*
X54840Y-47519D01*
G01D02*
X54680Y-46949D01*
G01X54840Y-54799D02*
X54890Y-54248D01*
G01D02*
Y-48109D01*
G01X54660Y-55319D02*
X54840Y-54799D01*
G01X54370Y-55789D02*
X54660Y-55319D01*
G01X54400Y-46428D02*
X54020Y-45978D01*
G01X53980Y-56178D02*
X54370Y-55789D01*
G01X81560Y-46689D02*
X81580Y-46899D01*
G01X81570Y-46799D02*
X84900D01*
G01X84890Y-47499D02*
X81580D01*
G01Y-48189D02*
X84890D01*
G01Y-48889D02*
X81580D01*
G01Y-49578D02*
X84890D01*
G01Y-50269D02*
X81580D01*
G01Y-50969D02*
X84890D01*
G01Y-51659D02*
X81580D01*
G01Y-52359D02*
X84890D01*
G01Y-53048D02*
X81580D01*
G01Y-53739D02*
X84890D01*
G01Y-54439D02*
X81580D01*
G01Y-55128D02*
X84890D01*
G01Y-55828D02*
X81580D01*
G01Y-56519D02*
X84890D01*
G01Y-57219D02*
X81580D01*
G01Y-46899D02*
Y-57669D01*
G01X85680Y-44448D02*
X81350D01*
G01X80780Y-46098D02*
X80990Y-46128D01*
G01D02*
X81180Y-46209D01*
G01D02*
X81350Y-46328D01*
G01D02*
X81470Y-46499D01*
G01D02*
X81560Y-46689D01*
G01X85620Y-46109D02*
X80860D01*
G01X79120Y-46128D02*
X79340Y-46098D01*
G01D02*
X80780D01*
G01X81350Y-44448D02*
X78380Y-44539D01*
G01X78750Y-46339D02*
X78930Y-46209D01*
G01D02*
X79120Y-46128D01*
G01X78510Y-46928D02*
X78540Y-46709D01*
G01D02*
X78620Y-46509D01*
G01D02*
X78750Y-46339D01*
G01X78510Y-57669D02*
Y-46928D01*
G01X76990Y-44719D02*
X88140D01*
G01X75440Y-45419D02*
X89720D01*
G01X78380Y-44539D02*
X75440Y-44919D01*
G01X79260Y-46109D02*
X75440D01*
G01Y-46799D02*
X78530D01*
G01X75440Y-48189D02*
X78510D01*
G01Y-47499D02*
X75440D01*
G01X78510Y-48889D02*
X75440D01*
G01Y-49578D02*
X78510D01*
G01Y-50269D02*
X75440D01*
G01Y-50969D02*
X78510D01*
G01X75440Y-52359D02*
X78510D01*
G01Y-51659D02*
X75440D01*
G01X78510Y-53048D02*
X75440D01*
G01Y-53739D02*
X78510D01*
G01Y-54439D02*
X75440D01*
G01X78510Y-55828D02*
X75440D01*
G01Y-55128D02*
X78510D01*
G01X75440Y-56519D02*
X78510D01*
G01Y-57219D02*
X75440D01*
G01Y-44919D02*
Y-57669D01*
G01X71900D02*
Y-44919D01*
G01D02*
X68590D01*
G01Y-45419D02*
X71900D01*
G01Y-46109D02*
X68590D01*
G01Y-46799D02*
X71900D01*
G01X68590Y-48189D02*
X71900D01*
G01Y-47499D02*
X68590D01*
G01X71900Y-48889D02*
X68590D01*
G01Y-44919D02*
Y-49328D01*
G01D02*
X68560Y-49528D01*
G01D02*
X68480Y-49719D01*
G01X68540Y-49578D02*
X71900D01*
G01X68480Y-49719D02*
X68360Y-49889D01*
G01D02*
X68200Y-50009D01*
G01D02*
X68010Y-50089D01*
G01X67970Y-51798D02*
X68180Y-51878D01*
G01D02*
X68350Y-52009D01*
G01D02*
X68480Y-52178D01*
G01D02*
X68560Y-52378D01*
G01X71900Y-52359D02*
X68550D01*
G01X68560Y-52378D02*
X68590Y-52598D01*
G01Y-53048D02*
X71900D01*
G01Y-53739D02*
X68590D01*
G01Y-54439D02*
X71900D01*
G01X68590Y-55828D02*
X71900D01*
G01Y-55128D02*
X68590D01*
G01X71900Y-56519D02*
X68590D01*
G01Y-57219D02*
X71900D01*
G01X68590Y-52598D02*
Y-57669D01*
G01X68010Y-50089D02*
X67810Y-50109D01*
G01X67760Y-51769D02*
X67970Y-51798D01*
G01X67810Y-50109D02*
X62310D01*
G01D02*
X62100Y-50089D01*
G01X62080Y-51789D02*
X62280Y-51769D01*
G01D02*
X67760D01*
G01X62100Y-50089D02*
X61910Y-50009D01*
G01D02*
X61740Y-49878D01*
G01D02*
X61610Y-49709D01*
G01D02*
X61530Y-49519D01*
G01D02*
X61500Y-49309D01*
G01D02*
Y-44919D01*
G01X61890Y-51869D02*
X62080Y-51789D01*
G01X61530Y-52348D02*
X61610Y-52159D01*
G01D02*
X61730Y-51998D01*
G01D02*
X61890Y-51869D01*
G01X61500Y-52548D02*
X61530Y-52348D01*
G01X61500Y-57669D02*
Y-52548D01*
G01X58200Y-45419D02*
X61500D01*
G01Y-44919D02*
X58200D01*
G01X61500Y-46109D02*
X58200D01*
G01Y-46799D02*
X61500D01*
G01Y-47499D02*
X58200D01*
G01Y-48189D02*
X61500D01*
G01Y-48889D02*
X58200D01*
G01Y-49578D02*
X61560D01*
G01X58200Y-50269D02*
X71900D01*
G01Y-50969D02*
X58200D01*
G01X61530Y-52359D02*
X58200D01*
G01Y-51659D02*
X71900D01*
G01X58200Y-53048D02*
X61500D01*
G01Y-53739D02*
X58200D01*
G01Y-54439D02*
X61500D01*
G01Y-55128D02*
X58200D01*
G01Y-55828D02*
X61500D01*
G01Y-56519D02*
X58200D01*
G01Y-57219D02*
X61500D01*
G01X58200Y-44919D02*
Y-57669D01*
G01X91030Y-47709D02*
X90980Y-47159D01*
G01X91030Y-57669D02*
Y-47709D01*
G01X90980Y-47159D02*
X90820Y-46628D01*
G01D02*
X90540Y-46148D01*
G01D02*
X90160Y-45739D01*
G01D02*
X89510Y-45259D01*
G01D02*
X88780Y-44898D01*
G01D02*
X88000Y-44678D01*
G01X87670Y-46539D02*
X87830Y-46778D01*
G01D02*
X87930Y-47059D01*
G01X87840Y-46799D02*
X90870D01*
G01X87930Y-47059D02*
X87960Y-47359D01*
G01X91010Y-47499D02*
X87960D01*
G01Y-48189D02*
X91030D01*
G01Y-48889D02*
X87960D01*
G01Y-49578D02*
X91030D01*
G01Y-50269D02*
X87960D01*
G01Y-50969D02*
X91030D01*
G01Y-51659D02*
X87960D01*
G01Y-52359D02*
X91030D01*
G01Y-53048D02*
X87960D01*
G01Y-53739D02*
X91030D01*
G01Y-54439D02*
X87960D01*
G01Y-55128D02*
X91030D01*
G01Y-55828D02*
X87960D01*
G01Y-56519D02*
X91030D01*
G01Y-57219D02*
X87960D01*
G01Y-47359D02*
Y-57669D01*
G01X88000Y-44678D02*
X86840Y-44509D01*
G01X86970Y-46169D02*
X87450Y-46339D01*
G01D02*
X87670Y-46539D01*
G01X86460Y-46098D02*
X86970Y-46169D01*
G01X90500Y-46109D02*
X86540D01*
G01X86840Y-44509D02*
X85680Y-44448D01*
G01X85130Y-46339D02*
X85300Y-46209D01*
G01D02*
X85490Y-46128D01*
G01D02*
X85700Y-46098D01*
G01D02*
X86460D01*
G01X85000Y-46499D02*
X85130Y-46339D01*
G01X84890Y-46909D02*
X84920Y-46699D01*
G01D02*
X85000Y-46499D01*
G01X84890Y-57669D02*
Y-46909D01*
G01X59300Y-65469D02*
X57020Y-62159D01*
G01D02*
X56540D01*
G01D02*
Y-65469D01*
G01X53880Y-62619D02*
X53720Y-62459D01*
G01X54180Y-63459D02*
X54160Y-63228D01*
G01D02*
X54100Y-63019D01*
G01D02*
X54010Y-62809D01*
G01D02*
X53880Y-62619D01*
G01X54180Y-64148D02*
Y-63459D01*
G01X54160Y-64359D02*
X54180Y-64148D01*
G01X53640Y-65219D02*
X53790Y-65078D01*
G01D02*
X53930Y-64928D01*
G01D02*
X54040Y-64748D01*
G01D02*
X54120Y-64559D01*
G01D02*
X54160Y-64359D01*
G01X82820Y-62619D02*
X82690Y-62798D01*
G01D02*
X82600Y-63009D01*
G01D02*
X82540Y-63228D01*
G01D02*
X82520Y-63449D01*
G01X82530D02*
Y-64159D01*
G01D02*
X82550Y-64359D01*
G01D02*
X82590Y-64559D01*
G01D02*
X82670Y-64748D01*
G01D02*
X82780Y-64928D01*
G01X81580Y-57669D02*
X84890D01*
G01X80400Y-62159D02*
X78980D01*
G01D02*
Y-65469D01*
G01X77570Y-62159D02*
X78980D01*
G01X75440Y-57669D02*
X78510D01*
G01X73880Y-62159D02*
X75680D01*
G01Y-65469D02*
X73910D01*
G01X73210Y-62398D02*
X73360Y-62298D01*
G01D02*
X73520Y-62219D01*
G01D02*
X73700Y-62178D01*
G01D02*
X73880Y-62159D01*
G01X73910Y-65469D02*
X73720Y-65448D01*
G01D02*
X73540Y-65409D01*
G01D02*
X73370Y-65328D01*
G01D02*
X73220Y-65219D01*
G01X72900Y-62839D02*
X72980Y-62678D01*
G01D02*
X73080Y-62528D01*
G01D02*
X73210Y-62398D01*
G01X72840Y-63198D02*
X72860Y-63019D01*
G01D02*
X72900Y-62839D01*
G01X72840Y-64398D02*
Y-63198D01*
G01X73220Y-65219D02*
X73090Y-65089D01*
G01D02*
X72980Y-64928D01*
G01D02*
X72900Y-64769D01*
G01D02*
X72860Y-64589D01*
G01D02*
X72840Y-64398D01*
G01X70720Y-62159D02*
Y-64159D01*
G01X70710D02*
X70690Y-64389D01*
G01D02*
X70630Y-64609D01*
G01D02*
X70530Y-64809D01*
G01D02*
X70400Y-64998D01*
G01D02*
X70240Y-65159D01*
G01D02*
X70060Y-65289D01*
G01D02*
X69850Y-65389D01*
G01D02*
X69630Y-65448D01*
G01D02*
X69400Y-65469D01*
G01D02*
X68880D01*
G01X68590Y-57669D02*
X71900D01*
G01X68880Y-65469D02*
X68660Y-65448D01*
G01D02*
X68460Y-65399D01*
G01D02*
X68260Y-65299D01*
G01D02*
X68080Y-65178D01*
G01X67650Y-64228D02*
Y-62159D01*
G01X68080Y-65178D02*
X67930Y-65028D01*
G01D02*
X67810Y-64848D01*
G01D02*
X67710Y-64648D01*
G01D02*
X67660Y-64448D01*
G01D02*
X67640Y-64228D01*
G01X64640Y-62328D02*
X64820Y-62459D01*
G01D02*
X64980Y-62619D01*
G01D02*
X65110Y-62798D01*
G01D02*
X65200Y-63009D01*
G01D02*
X65260Y-63228D01*
G01D02*
X65280Y-63449D01*
G01D02*
Y-64159D01*
G01D02*
X65260Y-64359D01*
G01D02*
X65220Y-64559D01*
G01D02*
X65140Y-64748D01*
G01D02*
X65030Y-64928D01*
G01D02*
X64900Y-65089D01*
G01D02*
X64740Y-65219D01*
G01X63990Y-62159D02*
X64210Y-62178D01*
G01D02*
X64430Y-62239D01*
G01D02*
X64640Y-62328D01*
G01X64740Y-65219D02*
X64560Y-65328D01*
G01D02*
X64370Y-65409D01*
G01D02*
X64170Y-65448D01*
G01D02*
X63970Y-65469D01*
G01X62210Y-62159D02*
X63990D01*
G01X63970Y-65469D02*
X62210D01*
G01D02*
Y-62159D01*
G01X59850D02*
Y-65469D01*
G01D02*
X59300D01*
G01X58200Y-57669D02*
X61500D01*
G01X90970Y-62649D02*
X91010Y-62798D01*
G01D02*
X91030Y-62959D01*
G01D02*
X91010Y-63128D01*
G01X90230Y-62159D02*
X90390Y-62178D01*
G01D02*
X90540Y-62219D01*
G01D02*
X90670Y-62289D01*
G01D02*
X90800Y-62389D01*
G01D02*
X90900Y-62519D01*
G01D02*
X90970Y-62649D01*
G01X91010Y-63128D02*
X90960Y-63289D01*
G01D02*
X90890Y-63439D01*
G01D02*
X90780Y-63569D01*
G01D02*
X90650Y-63678D01*
G01D02*
X90500Y-63749D01*
G01D02*
X90340Y-63798D01*
G01D02*
X90170Y-63819D01*
G01D02*
X89890D01*
G01X90790Y-65469D02*
X89890Y-63819D01*
G01X87960Y-57669D02*
X91030D01*
G01X87960Y-62159D02*
X90230D01*
G01X89890Y-63819D02*
X87960D01*
G01Y-62159D02*
Y-63819D01*
G01D02*
Y-65469D01*
G01X85830Y-63439D02*
X85810Y-63219D01*
G01X85830Y-64169D02*
Y-63439D01*
G01X85810Y-64398D02*
X85830Y-64169D01*
G01X85810Y-63219D02*
X85750Y-62998D01*
G01D02*
X85660Y-62798D01*
G01D02*
X85530Y-62619D01*
G01D02*
X85370Y-62459D01*
G01D02*
X85190Y-62328D01*
G01X85180Y-65299D02*
X85370Y-65169D01*
G01D02*
X85530Y-65009D01*
G01D02*
X85660Y-64819D01*
G01D02*
X85750Y-64609D01*
G01D02*
X85810Y-64398D01*
G01X85190Y-62328D02*
X84990Y-62239D01*
G01D02*
X84770Y-62178D01*
G01D02*
X84550Y-62159D01*
G01X84530Y-65469D02*
X84760Y-65448D01*
G01D02*
X84970Y-65389D01*
G01D02*
X85180Y-65299D01*
G01X84550Y-62159D02*
X83810D01*
G01D02*
X83590Y-62178D01*
G01D02*
X83370Y-62239D01*
G01X83440Y-65409D02*
X83640Y-65448D01*
G01D02*
X83840Y-65469D01*
G01D02*
X84530D01*
G01X83370Y-62239D02*
X83170Y-62328D01*
G01D02*
X82980Y-62459D01*
G01D02*
X82820Y-62619D01*
G01X82780Y-64928D02*
X82910Y-65089D01*
G01D02*
X83070Y-65219D01*
G01D02*
X83250Y-65328D01*
G01D02*
X83440Y-65409D01*
G54D19*
X79970Y188254D03*
X76033D03*
X79970Y193568D03*
X76033D03*
X74982Y253280D03*
X71045D03*
X74982Y258595D03*
X71045D03*
X187520Y255487D03*
X191457D03*
X187520Y250172D03*
X191457D03*
G54D29*
G01X78366Y127942D02*
Y124568D01*
M02*
